%TF.GenerationSoftware,Altium Limited,Altium Designer,22.1.2 (22)*%
G04 Layer_Color=0*
%FSLAX45Y45*%
%MOMM*%
%TF.SameCoordinates,F55294D5-53BA-4FF9-9C61-932B4C8A51B7*%
%TF.FilePolarity,Positive*%
%TF.FileFunction,NonPlated,1,2,NPTH,Drill*%
%TF.Part,Single*%
G01*
G75*
G36*
X200000Y-450000D02*
Y-474623D01*
X209607Y-522922D01*
X228453Y-568420D01*
X255812Y-609366D01*
X290634Y-644188D01*
X331580Y-671547D01*
X377077Y-690393D01*
X425377Y-700000D01*
X450000D01*
X474623D01*
X522922Y-690393D01*
X568419Y-671547D01*
X609366Y-644188D01*
X644187Y-609366D01*
X671547Y-568420D01*
X690392Y-522922D01*
X700000Y-474623D01*
Y-450000D01*
Y-425377D01*
X690392Y-377078D01*
X671547Y-331581D01*
X644187Y-290634D01*
X609366Y-255813D01*
X568419Y-228453D01*
X522922Y-209608D01*
X474623Y-200000D01*
X450000D01*
X425377D01*
X377077Y-209608D01*
X331580Y-228453D01*
X290634Y-255813D01*
X255812Y-290634D01*
X228453Y-331581D01*
X209607Y-377078D01*
X200000Y-425377D01*
Y-450000D01*
D01*
D02*
G37*
G36*
X16000000D02*
Y-474623D01*
X16009607Y-522922D01*
X16028453Y-568420D01*
X16055812Y-609366D01*
X16090634Y-644188D01*
X16131580Y-671547D01*
X16177077Y-690393D01*
X16225377Y-700000D01*
X16250000D01*
X16274623D01*
X16322922Y-690393D01*
X16368419Y-671547D01*
X16409364Y-644188D01*
X16444186Y-609366D01*
X16471547Y-568420D01*
X16490392Y-522922D01*
X16500000Y-474623D01*
Y-450000D01*
Y-425377D01*
X16490392Y-377078D01*
X16471547Y-331581D01*
X16444186Y-290634D01*
X16409364Y-255813D01*
X16368419Y-228453D01*
X16322922Y-209608D01*
X16274623Y-200000D01*
X16250000D01*
X16225377D01*
X16177077Y-209608D01*
X16131580Y-228453D01*
X16090634Y-255813D01*
X16055812Y-290634D01*
X16028453Y-331581D01*
X16009607Y-377078D01*
X16000000Y-425377D01*
Y-450000D01*
D01*
D02*
G37*
G36*
X200000Y-5050000D02*
Y-5074623D01*
X209607Y-5122922D01*
X228453Y-5168420D01*
X255812Y-5209366D01*
X290634Y-5244188D01*
X331580Y-5271547D01*
X377077Y-5290393D01*
X425377Y-5300000D01*
X450000D01*
X474623D01*
X522922Y-5290393D01*
X568419Y-5271547D01*
X609366Y-5244188D01*
X644187Y-5209366D01*
X671547Y-5168420D01*
X690392Y-5122922D01*
X700000Y-5074623D01*
Y-5050000D01*
Y-5025377D01*
X690392Y-4977078D01*
X671547Y-4931581D01*
X644187Y-4890634D01*
X609366Y-4855812D01*
X568419Y-4828453D01*
X522922Y-4809608D01*
X474623Y-4800000D01*
X450000D01*
X425377D01*
X377077Y-4809608D01*
X331580Y-4828453D01*
X290634Y-4855812D01*
X255812Y-4890634D01*
X228453Y-4931581D01*
X209607Y-4977078D01*
X200000Y-5025377D01*
Y-5050000D01*
D01*
D02*
G37*
G36*
X16000000D02*
Y-5074623D01*
X16009607Y-5122922D01*
X16028453Y-5168420D01*
X16055812Y-5209366D01*
X16090634Y-5244188D01*
X16131580Y-5271547D01*
X16177077Y-5290393D01*
X16225377Y-5300000D01*
X16250000D01*
X16274623D01*
X16322922Y-5290393D01*
X16368419Y-5271547D01*
X16409364Y-5244188D01*
X16444186Y-5209366D01*
X16471547Y-5168420D01*
X16490392Y-5122922D01*
X16500000Y-5074623D01*
Y-5050000D01*
Y-5025377D01*
X16490392Y-4977078D01*
X16471547Y-4931581D01*
X16444186Y-4890634D01*
X16409364Y-4855812D01*
X16368419Y-4828453D01*
X16322922Y-4809608D01*
X16274623Y-4800000D01*
X16250000D01*
X16225377D01*
X16177077Y-4809608D01*
X16131580Y-4828453D01*
X16090634Y-4855812D01*
X16055812Y-4890634D01*
X16028453Y-4931581D01*
X16009607Y-4977078D01*
X16000000Y-5025377D01*
Y-5050000D01*
D01*
D02*
G37*
%TF.MD5,70a1cead4d6432477f83eec5ff997ccd*%
M02*
