%TF.GenerationSoftware,Altium Limited,Altium Designer,22.1.2 (22)*%
G04 Layer_Color=32896*
%FSLAX45Y45*%
%MOMM*%
%TF.SameCoordinates,F55294D5-53BA-4FF9-9C61-932B4C8A51B7*%
%TF.FilePolarity,Positive*%
%TF.FileFunction,Other,Bottom_Tenting*%
%TF.Part,Single*%
G01*
G75*
%TA.AperFunction,SMDPad,CuDef*%
%ADD27C,0.60000*%
D27*
X10100000Y-3500000D02*
D03*
Y-2600000D02*
D03*
X9600000D02*
D03*
Y-2900000D02*
D03*
X10750000Y-2600000D02*
D03*
X12040000D02*
D03*
X11600000Y-3950000D02*
D03*
X16497501Y-97500D02*
D03*
X15997501D02*
D03*
X15497501D02*
D03*
X14997501D02*
D03*
X14497501D02*
D03*
X13997501D02*
D03*
X12497500D02*
D03*
X11997500D02*
D03*
X11497500D02*
D03*
X10997500D02*
D03*
X10497500D02*
D03*
X9997500D02*
D03*
X9497500D02*
D03*
X8997500D02*
D03*
X8497500D02*
D03*
X7997500D02*
D03*
X7497500D02*
D03*
X2497500D02*
D03*
X1997500D02*
D03*
X1497500D02*
D03*
X997500D02*
D03*
X497500D02*
D03*
X97500Y-497500D02*
D03*
Y-997500D02*
D03*
Y-1497500D02*
D03*
Y-1997500D02*
D03*
Y-2497500D02*
D03*
Y-2997500D02*
D03*
Y-3497500D02*
D03*
Y-3997500D02*
D03*
Y-4497500D02*
D03*
Y-4997500D02*
D03*
Y-5397500D02*
D03*
Y-97500D02*
D03*
X497500Y-5397500D02*
D03*
X997500D02*
D03*
X1497500D02*
D03*
X2497500D02*
D03*
X2997500D02*
D03*
X3497500D02*
D03*
X3997500D02*
D03*
X4497500D02*
D03*
X4997500D02*
D03*
X5497500D02*
D03*
X5997500D02*
D03*
X6497500D02*
D03*
X6997500D02*
D03*
X7497500D02*
D03*
X7997500D02*
D03*
X8497500D02*
D03*
X8997500D02*
D03*
X9497500D02*
D03*
X9997500D02*
D03*
X11497500D02*
D03*
X12497500D02*
D03*
X12997501D02*
D03*
X13497501D02*
D03*
X13997501D02*
D03*
X14497501D02*
D03*
X14997501D02*
D03*
X15497501D02*
D03*
X15997501D02*
D03*
X16497501D02*
D03*
X16597501Y-497500D02*
D03*
Y-997500D02*
D03*
Y-1497500D02*
D03*
Y-1997500D02*
D03*
Y-2497500D02*
D03*
Y-2997500D02*
D03*
Y-3497500D02*
D03*
Y-3997500D02*
D03*
Y-4497500D02*
D03*
Y-4997500D02*
D03*
X9797500Y-2897500D02*
D03*
X9447500Y-2997500D02*
D03*
X9347500Y-2647500D02*
D03*
X9711432Y-2582242D02*
D03*
X9947500Y-2597500D02*
D03*
X10247500D02*
D03*
Y-2847500D02*
D03*
X9947500D02*
D03*
X10547500Y-2597500D02*
D03*
X10947500D02*
D03*
X10247500Y-3497500D02*
D03*
X9947500D02*
D03*
X10097500Y-3747500D02*
D03*
X11697500Y-4047500D02*
D03*
X11500000Y-4050000D02*
D03*
X800000Y-4700000D02*
D03*
Y-3700000D02*
D03*
X550000Y-3200000D02*
D03*
X800000Y-2700000D02*
D03*
X550000Y-2200000D02*
D03*
X800000Y-1700000D02*
D03*
X550000Y-1200000D02*
D03*
X800000Y-700000D02*
D03*
X1050000Y-5200000D02*
D03*
X1300000Y-4700000D02*
D03*
Y-3700000D02*
D03*
X1050000Y-3200000D02*
D03*
X1300000Y-2700000D02*
D03*
X1050000Y-2200000D02*
D03*
X1300000Y-1700000D02*
D03*
X1050000Y-1200000D02*
D03*
X1300000Y-700000D02*
D03*
X1550000Y-5200000D02*
D03*
X1800000Y-4700000D02*
D03*
X1550000Y-4200000D02*
D03*
Y-3200000D02*
D03*
X1800000Y-2700000D02*
D03*
X1550000Y-2200000D02*
D03*
Y-1200000D02*
D03*
X1800000Y-700000D02*
D03*
X2050000Y-5200000D02*
D03*
X2300000Y-4700000D02*
D03*
X2050000Y-4200000D02*
D03*
Y-3200000D02*
D03*
X2300000Y-2700000D02*
D03*
X2050000Y-2200000D02*
D03*
Y-1200000D02*
D03*
X2300000Y-700000D02*
D03*
X2550000Y-5200000D02*
D03*
X2800000Y-4700000D02*
D03*
X2550000Y-4200000D02*
D03*
Y-3200000D02*
D03*
X2800000Y-2700000D02*
D03*
X2550000Y-2200000D02*
D03*
X2800000Y-1700000D02*
D03*
X2550000Y-1200000D02*
D03*
X2800000Y-700000D02*
D03*
X3050001Y-5200000D02*
D03*
X3300001Y-4700000D02*
D03*
X3050001Y-3200000D02*
D03*
X3300001Y-2700000D02*
D03*
X3050001Y-2200000D02*
D03*
X3300001Y-1700000D02*
D03*
X3050001Y-1200000D02*
D03*
X3300001Y-700000D02*
D03*
X3550001Y-5200000D02*
D03*
X3800001Y-4700000D02*
D03*
X3550001Y-3200000D02*
D03*
Y-2200000D02*
D03*
X3800001Y-1700000D02*
D03*
X3550001Y-1200000D02*
D03*
X3800001Y-700000D02*
D03*
X4050001Y-5200000D02*
D03*
X4300001Y-4700000D02*
D03*
X4050001Y-4200000D02*
D03*
Y-3200000D02*
D03*
X4300001Y-2700000D02*
D03*
X4050001Y-1200000D02*
D03*
X4550001Y-5200000D02*
D03*
X4800001Y-4700000D02*
D03*
X4550001Y-4200000D02*
D03*
Y-2200000D02*
D03*
X5050001Y-5200000D02*
D03*
X5300001Y-4700000D02*
D03*
X5050001Y-4200000D02*
D03*
X5300001Y-3700000D02*
D03*
X5050001Y-3200000D02*
D03*
X5300001Y-2700000D02*
D03*
X5050001Y-2200000D02*
D03*
X5300001Y-1700000D02*
D03*
X5550001Y-5200000D02*
D03*
X5800001Y-4700000D02*
D03*
Y-3700000D02*
D03*
X5550001Y-3200000D02*
D03*
X5800001Y-2700000D02*
D03*
X5550001Y-2200000D02*
D03*
Y-1200000D02*
D03*
X6050001Y-5200000D02*
D03*
X6300001Y-4700000D02*
D03*
X6050001Y-4200000D02*
D03*
X6300001Y-3700000D02*
D03*
X6050001Y-3200000D02*
D03*
X6300001Y-2700000D02*
D03*
X6050001Y-2200000D02*
D03*
X6300001Y-1700000D02*
D03*
X6050001Y-1200000D02*
D03*
X6550001Y-5200000D02*
D03*
X6800001Y-4700000D02*
D03*
Y-3700000D02*
D03*
X6550001Y-3200000D02*
D03*
X6800001Y-2700000D02*
D03*
X6550001Y-2200000D02*
D03*
X6800001Y-1700000D02*
D03*
X6550001Y-1200000D02*
D03*
X7050001Y-5200000D02*
D03*
X7300001Y-4700000D02*
D03*
X7050001Y-3200000D02*
D03*
X7300001Y-2700000D02*
D03*
X7050001Y-2200000D02*
D03*
X7300001Y-1700000D02*
D03*
Y-700000D02*
D03*
X7550001Y-5200000D02*
D03*
X7800001Y-4700000D02*
D03*
Y-3700000D02*
D03*
X7550001Y-3200000D02*
D03*
X7800001Y-2700000D02*
D03*
X7550001Y-2200000D02*
D03*
Y-1200000D02*
D03*
X7800001Y-700000D02*
D03*
X8300001Y-4700000D02*
D03*
X8050001Y-4200000D02*
D03*
X8300001Y-3700000D02*
D03*
X8050001Y-3200000D02*
D03*
Y-2200000D02*
D03*
Y-1200000D02*
D03*
X8800001Y-4700000D02*
D03*
Y-3700000D02*
D03*
X8550001Y-3200000D02*
D03*
Y-2200000D02*
D03*
Y-1200000D02*
D03*
X8800001Y-700000D02*
D03*
X9300001Y-4700000D02*
D03*
Y-3700000D02*
D03*
X9050001Y-3200000D02*
D03*
Y-2200000D02*
D03*
Y-1200000D02*
D03*
X9300001Y-700000D02*
D03*
X9800001Y-4700000D02*
D03*
Y-3700000D02*
D03*
X9550001Y-3200000D02*
D03*
Y-2200000D02*
D03*
X9800001Y-1700000D02*
D03*
X9550001Y-1200000D02*
D03*
X9800001Y-700000D02*
D03*
X10050001Y-2200000D02*
D03*
X10300001Y-1700000D02*
D03*
X10050001Y-1200000D02*
D03*
X10300001Y-700000D02*
D03*
X10550001Y-3200000D02*
D03*
Y-2200000D02*
D03*
Y-1200000D02*
D03*
X10800001Y-700000D02*
D03*
X11050001Y-3200000D02*
D03*
Y-1200000D02*
D03*
X11300001Y-700000D02*
D03*
X11550001Y-3200000D02*
D03*
Y-2200000D02*
D03*
Y-1200000D02*
D03*
X11800001Y-700000D02*
D03*
X12050001Y-2200000D02*
D03*
X12300001Y-1700000D02*
D03*
X12050001Y-1200000D02*
D03*
X12300001Y-700000D02*
D03*
X12800002Y-1700000D02*
D03*
Y-700000D02*
D03*
X13300002Y-4700000D02*
D03*
Y-3700000D02*
D03*
X13050002Y-3200000D02*
D03*
X13300002Y-1700000D02*
D03*
X13050002Y-1200000D02*
D03*
X13300002Y-700000D02*
D03*
X13800002Y-4700000D02*
D03*
X13550002Y-3200000D02*
D03*
X13800002Y-1700000D02*
D03*
X13550002Y-1200000D02*
D03*
X13800002Y-700000D02*
D03*
X14300002Y-4700000D02*
D03*
X14050002Y-4200000D02*
D03*
Y-3200000D02*
D03*
X14300002Y-1700000D02*
D03*
X14050002Y-1200000D02*
D03*
X14300002Y-700000D02*
D03*
X14800002Y-4700000D02*
D03*
Y-3700000D02*
D03*
Y-1700000D02*
D03*
X14550002Y-1200000D02*
D03*
X14800002Y-700000D02*
D03*
X15050002Y-5200000D02*
D03*
X15300002Y-3700000D02*
D03*
X15050002Y-3200000D02*
D03*
X15300002Y-1700000D02*
D03*
X15050002Y-1200000D02*
D03*
X15300002Y-700000D02*
D03*
X15550002Y-5200000D02*
D03*
X15800002Y-4700000D02*
D03*
Y-3700000D02*
D03*
X15550002Y-3200000D02*
D03*
Y-2200000D02*
D03*
X15800002Y-1700000D02*
D03*
X15550002Y-1200000D02*
D03*
X15800002Y-700000D02*
D03*
X16300002Y-4700000D02*
D03*
X16050002Y-4200000D02*
D03*
X16300002Y-3700000D02*
D03*
Y-2700000D02*
D03*
X16050002Y-2200000D02*
D03*
X16300002Y-1700000D02*
D03*
X16050002Y-1200000D02*
D03*
X7997500Y-1747500D02*
D03*
X8197500Y-1847500D02*
D03*
X11397500Y-2547500D02*
D03*
X7947500Y-397500D02*
D03*
X4397500Y-3497500D02*
D03*
X1947500D02*
D03*
X3197500D02*
D03*
X3947500Y-3547500D02*
D03*
X2497500Y-3497500D02*
D03*
X6797500Y-4397500D02*
D03*
X9947500D02*
D03*
X11050001Y-2212500D02*
D03*
X5800001Y-1700000D02*
D03*
X14293521Y-2693520D02*
D03*
X15300002Y-2700000D02*
D03*
X13050000Y-2725000D02*
D03*
X11300000Y-1625000D02*
D03*
X11925000Y-1700000D02*
D03*
X12925000Y-2100000D02*
D03*
X4550001Y-1200000D02*
D03*
X4300001Y-1700000D02*
D03*
X5050001Y-1200000D02*
D03*
X4756556Y-1656555D02*
D03*
X4147500Y-347500D02*
D03*
X7043306Y-1206694D02*
D03*
X6800001Y-700000D02*
D03*
X5300001D02*
D03*
X5800001D02*
D03*
X4300001D02*
D03*
X6300001D02*
D03*
X16050002Y-3200000D02*
D03*
%TF.MD5,12b0ac8d74e06bd9e880e5f737db3b5d*%
M02*
