%TF.GenerationSoftware,Altium Limited,Altium Designer,22.1.2 (22)*%
G04 Layer_Physical_Order=1*
G04 Layer_Color=255*
%FSLAX45Y45*%
%MOMM*%
%TF.SameCoordinates,F55294D5-53BA-4FF9-9C61-932B4C8A51B7*%
%TF.FilePolarity,Positive*%
%TF.FileFunction,Copper,L1,Top,Signal*%
%TF.Part,Single*%
G01*
G75*
%TA.AperFunction,Conductor*%
%ADD10C,0.35000*%
%ADD11C,0.25000*%
%ADD12C,0.20000*%
%ADD13C,0.15000*%
%TA.AperFunction,ComponentPad*%
%ADD14R,2.00000X2.00000*%
%ADD15C,2.00000*%
%ADD16R,1.20000X1.20000*%
%ADD17C,1.20000*%
%TA.AperFunction,ViaPad*%
%ADD18C,0.60000*%
G36*
X16650000Y-5450000D02*
X12398936D01*
X12394076Y-5438267D01*
X12399345Y-5432997D01*
X12415854Y-5404402D01*
X12424400Y-5372509D01*
Y-5339491D01*
X12415854Y-5307597D01*
X12399345Y-5279003D01*
X12375997Y-5255655D01*
X12351207Y-5241342D01*
X12354610Y-5228642D01*
X14714999D01*
X14729788Y-5225701D01*
X14742323Y-5217324D01*
X15543846Y-4415802D01*
X15552597Y-4420854D01*
X15584491Y-4429400D01*
X15617509D01*
X15649402Y-4420854D01*
X15677997Y-4404345D01*
X15701344Y-4380997D01*
X15717854Y-4352403D01*
X15726401Y-4320509D01*
Y-4287491D01*
X15717854Y-4255598D01*
X15701344Y-4227003D01*
X15677997Y-4203655D01*
X15649402Y-4187146D01*
X15617509Y-4178600D01*
X15584491D01*
X15552597Y-4187146D01*
X15524002Y-4203655D01*
X15500655Y-4227003D01*
X15484146Y-4255598D01*
X15475600Y-4287491D01*
Y-4320509D01*
X15484146Y-4352403D01*
X15489198Y-4361153D01*
X14698993Y-5151358D01*
X10431660D01*
X10425310Y-5140359D01*
X10429580Y-5132963D01*
X10435400Y-5111243D01*
Y-5088757D01*
X10429580Y-5067037D01*
X10418337Y-5047563D01*
X10402437Y-5031663D01*
X10382963Y-5020420D01*
X10361243Y-5014600D01*
X10338757D01*
X10317037Y-5020420D01*
X10297563Y-5031663D01*
X10281663Y-5047563D01*
X10270420Y-5067037D01*
X10264600Y-5088757D01*
Y-5111243D01*
X10270420Y-5132963D01*
X10274690Y-5140359D01*
X10268340Y-5151358D01*
X8006006D01*
X6961142Y-4106494D01*
Y-4089469D01*
X6970902Y-4086854D01*
X6999497Y-4070345D01*
X7022845Y-4046997D01*
X7039354Y-4018402D01*
X7042926Y-4005073D01*
X7056074D01*
X7059646Y-4018402D01*
X7076155Y-4046997D01*
X7099503Y-4070345D01*
X7128098Y-4086854D01*
X7159991Y-4095400D01*
X7193009D01*
X7224902Y-4086854D01*
X7253497Y-4070345D01*
X7276845Y-4046997D01*
X7293354Y-4018402D01*
X7296926Y-4005073D01*
X7310074D01*
X7313646Y-4018402D01*
X7330155Y-4046997D01*
X7353503Y-4070345D01*
X7382098Y-4086854D01*
X7391858Y-4089469D01*
Y-4130500D01*
X7394799Y-4145288D01*
X7403176Y-4157824D01*
X8225176Y-4979824D01*
X8237712Y-4988201D01*
X8252500Y-4991142D01*
X13247501D01*
X13262288Y-4988201D01*
X13274825Y-4979824D01*
X13678323Y-4576324D01*
X13686700Y-4563788D01*
X13689642Y-4549000D01*
Y-4423469D01*
X13699402Y-4420854D01*
X13727997Y-4404345D01*
X13751344Y-4380997D01*
X13767854Y-4352403D01*
X13776401Y-4320509D01*
Y-4287491D01*
X13767854Y-4255598D01*
X13751344Y-4227003D01*
X13727997Y-4203655D01*
X13699402Y-4187146D01*
X13667509Y-4178600D01*
X13634491D01*
X13602597Y-4187146D01*
X13574004Y-4203655D01*
X13550655Y-4227003D01*
X13534146Y-4255598D01*
X13525600Y-4287491D01*
Y-4320509D01*
X13534146Y-4352403D01*
X13550655Y-4380997D01*
X13574004Y-4404345D01*
X13602597Y-4420854D01*
X13612358Y-4423469D01*
Y-4532994D01*
X13231494Y-4913858D01*
X8268506D01*
X7469142Y-4114494D01*
Y-4089469D01*
X7478902Y-4086854D01*
X7507497Y-4070345D01*
X7530845Y-4046997D01*
X7547354Y-4018402D01*
X7550926Y-4005073D01*
X7564074D01*
X7567646Y-4018402D01*
X7584155Y-4046997D01*
X7607503Y-4070345D01*
X7636098Y-4086854D01*
X7667991Y-4095400D01*
X7701009D01*
X7732902Y-4086854D01*
X7761497Y-4070345D01*
X7784845Y-4046997D01*
X7801354Y-4018402D01*
X7804926Y-4005073D01*
X7818074D01*
X7821646Y-4018402D01*
X7838155Y-4046997D01*
X7861503Y-4070345D01*
X7890098Y-4086854D01*
X7921991Y-4095400D01*
X7955009D01*
X7986902Y-4086854D01*
X8015497Y-4070345D01*
X8038845Y-4046997D01*
X8055354Y-4018402D01*
X8058926Y-4005073D01*
X8072074D01*
X8075646Y-4018402D01*
X8092155Y-4046997D01*
X8115503Y-4070345D01*
X8144098Y-4086854D01*
X8154213Y-4089565D01*
Y-4092855D01*
X8157155Y-4107643D01*
X8165531Y-4120179D01*
X8272676Y-4227324D01*
X8285213Y-4235701D01*
X8300000Y-4238642D01*
X12050000D01*
X12064788Y-4235701D01*
X12077324Y-4227324D01*
X12392006Y-3912642D01*
X12463782D01*
X12466397Y-3922403D01*
X12482906Y-3950997D01*
X12506254Y-3974345D01*
X12534848Y-3990854D01*
X12548178Y-3994426D01*
Y-4007574D01*
X12534848Y-4011146D01*
X12506254Y-4027655D01*
X12482906Y-4051003D01*
X12466397Y-4079598D01*
X12457851Y-4111491D01*
Y-4115300D01*
X12708651D01*
Y-4111491D01*
X12700105Y-4079598D01*
X12683596Y-4051003D01*
X12660248Y-4027655D01*
X12631653Y-4011146D01*
X12618324Y-4007574D01*
Y-3994426D01*
X12631653Y-3990854D01*
X12660248Y-3974345D01*
X12683596Y-3950997D01*
X12700105Y-3922403D01*
X12708651Y-3890509D01*
Y-3857491D01*
X12700105Y-3825598D01*
X12683596Y-3797003D01*
X12660248Y-3773655D01*
X12631653Y-3757146D01*
X12618324Y-3753574D01*
Y-3740426D01*
X12631653Y-3736854D01*
X12660248Y-3720345D01*
X12683596Y-3696997D01*
X12700105Y-3668403D01*
X12708651Y-3636509D01*
Y-3603491D01*
X12700105Y-3571598D01*
X12683596Y-3543003D01*
X12660248Y-3519655D01*
X12631653Y-3503146D01*
X12618324Y-3499574D01*
Y-3486426D01*
X12631653Y-3482854D01*
X12660248Y-3466345D01*
X12683596Y-3442997D01*
X12700105Y-3414403D01*
X12708651Y-3382509D01*
Y-3349491D01*
X12700105Y-3317598D01*
X12683596Y-3289003D01*
X12660248Y-3265655D01*
X12631653Y-3249146D01*
X12618324Y-3245574D01*
Y-3232426D01*
X12631653Y-3228854D01*
X12660248Y-3212345D01*
X12683596Y-3188997D01*
X12700105Y-3160403D01*
X12708651Y-3128509D01*
Y-3095491D01*
X12700105Y-3063598D01*
X12683596Y-3035003D01*
X12660248Y-3011655D01*
X12631653Y-2995146D01*
X12618324Y-2991574D01*
Y-2978426D01*
X12631653Y-2974854D01*
X12660248Y-2958345D01*
X12683596Y-2934997D01*
X12700105Y-2906403D01*
X12708651Y-2874509D01*
Y-2841491D01*
X12700105Y-2809598D01*
X12683596Y-2781003D01*
X12660248Y-2757655D01*
X12631653Y-2741146D01*
X12618324Y-2737574D01*
Y-2724426D01*
X12631653Y-2720854D01*
X12660248Y-2704345D01*
X12683596Y-2680997D01*
X12700105Y-2652403D01*
X12701354Y-2647740D01*
X12716000D01*
X12732739Y-2644411D01*
X12735059Y-2642861D01*
X12746260Y-2648847D01*
Y-4166882D01*
X12642014Y-4271128D01*
X12631653Y-4265146D01*
X12618324Y-4261574D01*
Y-4248426D01*
X12631653Y-4244854D01*
X12660248Y-4228345D01*
X12683596Y-4204997D01*
X12700105Y-4176403D01*
X12708651Y-4144509D01*
Y-4140700D01*
X12457851D01*
Y-4144509D01*
X12466397Y-4176403D01*
X12482906Y-4204997D01*
X12506254Y-4228345D01*
X12534848Y-4244854D01*
X12548178Y-4248426D01*
Y-4261574D01*
X12534848Y-4265146D01*
X12506254Y-4281655D01*
X12482906Y-4305003D01*
X12466397Y-4333598D01*
X12457851Y-4365491D01*
Y-4398509D01*
X12466397Y-4430403D01*
X12482906Y-4458997D01*
X12506254Y-4482345D01*
X12534848Y-4498854D01*
X12566742Y-4507400D01*
X12599760D01*
X12631653Y-4498854D01*
X12660248Y-4482345D01*
X12683596Y-4458997D01*
X12700105Y-4430403D01*
X12708651Y-4398509D01*
Y-4365491D01*
X12700772Y-4336086D01*
X12820929Y-4215929D01*
X12830411Y-4201739D01*
X12833740Y-4185000D01*
Y-2548118D01*
X13363118Y-2018740D01*
X16206897D01*
X16208147Y-2023403D01*
X16224655Y-2051997D01*
X16248003Y-2075345D01*
X16276598Y-2091854D01*
X16289928Y-2095426D01*
Y-2108574D01*
X16276598Y-2112146D01*
X16248003Y-2128655D01*
X16224655Y-2152003D01*
X16208147Y-2180598D01*
X16201828Y-2204178D01*
X16185406Y-2207444D01*
X16171216Y-2216926D01*
X15894070Y-2494071D01*
X15884589Y-2508261D01*
X15881261Y-2525000D01*
Y-3861000D01*
X15884589Y-3877739D01*
X15894070Y-3891929D01*
X16128558Y-4126417D01*
X16126146Y-4130598D01*
X16117599Y-4162491D01*
Y-4195509D01*
X16126146Y-4227403D01*
X16142654Y-4255997D01*
X16166002Y-4279345D01*
X16194597Y-4295854D01*
X16226491Y-4304400D01*
X16259509D01*
X16291402Y-4295854D01*
X16319997Y-4279345D01*
X16343346Y-4255997D01*
X16359854Y-4227403D01*
X16368401Y-4195509D01*
Y-4162491D01*
X16359854Y-4130598D01*
X16343346Y-4102003D01*
X16319997Y-4078655D01*
X16291402Y-4062146D01*
X16259509Y-4053600D01*
X16226491D01*
X16194597Y-4062146D01*
X16190417Y-4064559D01*
X15968739Y-3842882D01*
Y-2543118D01*
X16210400Y-2301458D01*
X16222990Y-2303116D01*
X16224655Y-2305997D01*
X16248003Y-2329345D01*
X16276598Y-2345854D01*
X16289928Y-2349426D01*
Y-2362574D01*
X16276598Y-2366146D01*
X16248003Y-2382655D01*
X16224655Y-2406003D01*
X16208147Y-2434598D01*
X16199600Y-2466491D01*
Y-2499509D01*
X16208147Y-2531403D01*
X16224655Y-2559997D01*
X16248003Y-2583345D01*
X16276598Y-2599854D01*
X16308492Y-2608400D01*
X16341508D01*
X16373402Y-2599854D01*
X16401997Y-2583345D01*
X16425345Y-2559997D01*
X16441853Y-2531403D01*
X16450400Y-2499509D01*
Y-2466491D01*
X16441853Y-2434598D01*
X16425345Y-2406003D01*
X16401997Y-2382655D01*
X16373402Y-2366146D01*
X16360072Y-2362574D01*
Y-2349426D01*
X16373402Y-2345854D01*
X16401997Y-2329345D01*
X16425345Y-2305997D01*
X16441853Y-2277403D01*
X16450400Y-2245509D01*
Y-2212491D01*
X16441853Y-2180598D01*
X16425345Y-2152003D01*
X16401997Y-2128655D01*
X16373402Y-2112146D01*
X16360072Y-2108574D01*
Y-2095426D01*
X16373402Y-2091854D01*
X16401997Y-2075345D01*
X16425345Y-2051997D01*
X16441853Y-2023403D01*
X16450400Y-1991509D01*
Y-1958491D01*
X16441853Y-1926598D01*
X16425345Y-1898003D01*
X16401997Y-1874655D01*
X16373402Y-1858146D01*
X16341508Y-1849600D01*
X16308492D01*
X16276598Y-1858146D01*
X16248003Y-1874655D01*
X16224655Y-1898003D01*
X16208147Y-1926598D01*
X16206897Y-1931260D01*
X13345000D01*
X13328261Y-1934589D01*
X13314072Y-1944071D01*
X12759071Y-2499071D01*
X12710295Y-2547847D01*
X12694424Y-2545757D01*
X12683596Y-2527003D01*
X12660248Y-2503655D01*
X12631653Y-2487146D01*
X12618324Y-2483574D01*
Y-2470426D01*
X12631653Y-2466854D01*
X12660248Y-2450345D01*
X12683596Y-2426997D01*
X12700105Y-2398403D01*
X12708651Y-2366509D01*
Y-2333491D01*
X12700105Y-2301598D01*
X12683596Y-2273003D01*
X12660248Y-2249655D01*
X12631653Y-2233146D01*
X12618324Y-2229574D01*
Y-2216426D01*
X12631653Y-2212854D01*
X12660248Y-2196345D01*
X12683596Y-2172997D01*
X12700105Y-2144403D01*
X12708651Y-2112509D01*
Y-2079491D01*
X12700105Y-2047598D01*
X12683596Y-2019003D01*
X12660248Y-1995655D01*
X12631653Y-1979146D01*
X12618324Y-1975574D01*
Y-1962426D01*
X12631653Y-1958854D01*
X12660248Y-1942345D01*
X12683596Y-1918997D01*
X12700105Y-1890403D01*
X12708651Y-1858509D01*
Y-1825491D01*
X12700105Y-1793598D01*
X12683596Y-1765003D01*
X12660248Y-1741655D01*
X12631653Y-1725146D01*
X12618324Y-1721574D01*
Y-1708426D01*
X12631653Y-1704854D01*
X12660248Y-1688345D01*
X12683596Y-1664997D01*
X12700105Y-1636403D01*
X12708651Y-1604509D01*
Y-1571491D01*
X12700105Y-1539598D01*
X12683596Y-1511003D01*
X12660248Y-1487655D01*
X12631653Y-1471146D01*
X12618324Y-1467574D01*
Y-1454426D01*
X12631653Y-1450854D01*
X12660248Y-1434345D01*
X12683596Y-1410997D01*
X12700105Y-1382403D01*
X12708651Y-1350509D01*
Y-1317491D01*
X12700105Y-1285598D01*
X12683596Y-1257003D01*
X12660248Y-1233655D01*
X12631653Y-1217146D01*
X12618324Y-1213574D01*
Y-1200426D01*
X12631653Y-1196854D01*
X12660248Y-1180345D01*
X12683596Y-1156997D01*
X12700105Y-1128403D01*
X12708651Y-1096509D01*
Y-1063491D01*
X12700105Y-1031598D01*
X12683596Y-1003003D01*
X12660248Y-979655D01*
X12631653Y-963146D01*
X12599760Y-954600D01*
X12566742D01*
X12534848Y-963146D01*
X12506254Y-979655D01*
X12482906Y-1003003D01*
X12466397Y-1031598D01*
X12457851Y-1063491D01*
Y-1096509D01*
X12466397Y-1128403D01*
X12482906Y-1156997D01*
X12506254Y-1180345D01*
X12534848Y-1196854D01*
X12548178Y-1200426D01*
Y-1213574D01*
X12534848Y-1217146D01*
X12506254Y-1233655D01*
X12482906Y-1257003D01*
X12466397Y-1285598D01*
X12457851Y-1317491D01*
Y-1350509D01*
X12466397Y-1382403D01*
X12482906Y-1410997D01*
X12506254Y-1434345D01*
X12534848Y-1450854D01*
X12548178Y-1454426D01*
Y-1467574D01*
X12534848Y-1471146D01*
X12506254Y-1487655D01*
X12482906Y-1511003D01*
X12466397Y-1539598D01*
X12457851Y-1571491D01*
Y-1604509D01*
X12466397Y-1636403D01*
X12482906Y-1664997D01*
X12506254Y-1688345D01*
X12534848Y-1704854D01*
X12548178Y-1708426D01*
Y-1721574D01*
X12534848Y-1725146D01*
X12506254Y-1741655D01*
X12482906Y-1765003D01*
X12466397Y-1793598D01*
X12457851Y-1825491D01*
Y-1858509D01*
X12466397Y-1890403D01*
X12482906Y-1918997D01*
X12506254Y-1942345D01*
X12534848Y-1958854D01*
X12548178Y-1962426D01*
Y-1975574D01*
X12534848Y-1979146D01*
X12506254Y-1995655D01*
X12482906Y-2019003D01*
X12466397Y-2047598D01*
X12457851Y-2079491D01*
Y-2112509D01*
X12466397Y-2144403D01*
X12482906Y-2172997D01*
X12506254Y-2196345D01*
X12534848Y-2212854D01*
X12548178Y-2216426D01*
Y-2229574D01*
X12534848Y-2233146D01*
X12506254Y-2249655D01*
X12482906Y-2273003D01*
X12466397Y-2301598D01*
X12457851Y-2333491D01*
Y-2366509D01*
X12466397Y-2398403D01*
X12482906Y-2426997D01*
X12506254Y-2450345D01*
X12534848Y-2466854D01*
X12548178Y-2470426D01*
Y-2483574D01*
X12534848Y-2487146D01*
X12506254Y-2503655D01*
X12482906Y-2527003D01*
X12466397Y-2555598D01*
X12465148Y-2560260D01*
X12452118D01*
X12280929Y-2389071D01*
X12265928Y-2374071D01*
X12230930Y-2339072D01*
X12230929Y-2339071D01*
X12213740Y-2321882D01*
Y-2068103D01*
X12218403Y-2066854D01*
X12246997Y-2050345D01*
X12270345Y-2026997D01*
X12286854Y-1998402D01*
X12295400Y-1966509D01*
Y-1933491D01*
X12286854Y-1901597D01*
X12270345Y-1873003D01*
X12246997Y-1849655D01*
X12218403Y-1833146D01*
X12186509Y-1824600D01*
X12153491D01*
X12121598Y-1833146D01*
X12093003Y-1849655D01*
X12069655Y-1873003D01*
X12053146Y-1901597D01*
X12049574Y-1914927D01*
X12036426D01*
X12032854Y-1901597D01*
X12016345Y-1873003D01*
X11992997Y-1849655D01*
X11964403Y-1833146D01*
X11932509Y-1824600D01*
X11928701D01*
Y-1950000D01*
Y-2075400D01*
X11932509D01*
X11964403Y-2066854D01*
X11992997Y-2050345D01*
X12016345Y-2026997D01*
X12032854Y-1998402D01*
X12036426Y-1985073D01*
X12049574D01*
X12053146Y-1998402D01*
X12069655Y-2026997D01*
X12093003Y-2050345D01*
X12121598Y-2066854D01*
X12126260Y-2068103D01*
Y-2340000D01*
X12129589Y-2356739D01*
X12139071Y-2370929D01*
X12169070Y-2400929D01*
X12165883Y-2412259D01*
X12096462Y-2481679D01*
X12096462Y-2481680D01*
X12033542Y-2544600D01*
X12028980D01*
X12008619Y-2553034D01*
X11993034Y-2568618D01*
X11984600Y-2588980D01*
Y-2611020D01*
X11993034Y-2631381D01*
X12008619Y-2646966D01*
X12028980Y-2655400D01*
X12051020D01*
X12071381Y-2646966D01*
X12086966Y-2631381D01*
X12095400Y-2611020D01*
Y-2606458D01*
X12158321Y-2543537D01*
X12158321Y-2543537D01*
X12235000Y-2466858D01*
X12403071Y-2634929D01*
X12417261Y-2644411D01*
X12434000Y-2647740D01*
X12465148D01*
X12466397Y-2652403D01*
X12482906Y-2680997D01*
X12506254Y-2704345D01*
X12534848Y-2720854D01*
X12548178Y-2724426D01*
Y-2737574D01*
X12534848Y-2741146D01*
X12506254Y-2757655D01*
X12482906Y-2781003D01*
X12466397Y-2809598D01*
X12463782Y-2819358D01*
X12424006D01*
X12327324Y-2722676D01*
X12314788Y-2714299D01*
X12300000Y-2711358D01*
X8200000D01*
X8185212Y-2714299D01*
X8172676Y-2722676D01*
X7149176Y-3746176D01*
X7140799Y-3758712D01*
X7137858Y-3773500D01*
Y-3850531D01*
X7128098Y-3853146D01*
X7099503Y-3869655D01*
X7076155Y-3893003D01*
X7059646Y-3921597D01*
X7056074Y-3934927D01*
X7042926D01*
X7039354Y-3921597D01*
X7022845Y-3893003D01*
X6999497Y-3869655D01*
X6970902Y-3853146D01*
X6939009Y-3844600D01*
X6905991D01*
X6874098Y-3853146D01*
X6845503Y-3869655D01*
X6822155Y-3893003D01*
X6805646Y-3921597D01*
X6802074Y-3934927D01*
X6788926D01*
X6785354Y-3921597D01*
X6768845Y-3893003D01*
X6745497Y-3869655D01*
X6716902Y-3853146D01*
X6685009Y-3844600D01*
X6651991D01*
X6620098Y-3853146D01*
X6591503Y-3869655D01*
X6568155Y-3893003D01*
X6551646Y-3921597D01*
X6548074Y-3934927D01*
X6534926D01*
X6531354Y-3921597D01*
X6514845Y-3893003D01*
X6491497Y-3869655D01*
X6462902Y-3853146D01*
X6431009Y-3844600D01*
X6397991D01*
X6366098Y-3853146D01*
X6337503Y-3869655D01*
X6314155Y-3893003D01*
X6297646Y-3921597D01*
X6294074Y-3934927D01*
X6280926D01*
X6277354Y-3921597D01*
X6260845Y-3893003D01*
X6237497Y-3869655D01*
X6208902Y-3853146D01*
X6177009Y-3844600D01*
X6143991D01*
X6112098Y-3853146D01*
X6083503Y-3869655D01*
X6060155Y-3893003D01*
X6043646Y-3921597D01*
X6040074Y-3934927D01*
X6026926D01*
X6023354Y-3921597D01*
X6006845Y-3893003D01*
X5983497Y-3869655D01*
X5954902Y-3853146D01*
X5923009Y-3844600D01*
X5889991D01*
X5858098Y-3853146D01*
X5829503Y-3869655D01*
X5806155Y-3893003D01*
X5789646Y-3921597D01*
X5786074Y-3934927D01*
X5772926D01*
X5769354Y-3921597D01*
X5752845Y-3893003D01*
X5729497Y-3869655D01*
X5700902Y-3853146D01*
X5688593Y-3849848D01*
Y-3762450D01*
X6914950Y-2536093D01*
X9495874D01*
X9545819Y-2586038D01*
X9544600Y-2588980D01*
Y-2611020D01*
X9553034Y-2631381D01*
X9568619Y-2646966D01*
X9588980Y-2655400D01*
X9611020D01*
X9631382Y-2646966D01*
X9646966Y-2631381D01*
X9655400Y-2611020D01*
Y-2588980D01*
X9646966Y-2568618D01*
X9631382Y-2553034D01*
X9611020Y-2544600D01*
X9606468D01*
X9536346Y-2474478D01*
X9524637Y-2466654D01*
X9510824Y-2463907D01*
X6900001D01*
X6900000Y-2463906D01*
X6886188Y-2466654D01*
X6874478Y-2474478D01*
X5626978Y-3721978D01*
X5619154Y-3733688D01*
X5616407Y-3747500D01*
Y-3849848D01*
X5604098Y-3853146D01*
X5575503Y-3869655D01*
X5552155Y-3893003D01*
X5535646Y-3921597D01*
X5527100Y-3953491D01*
Y-3986509D01*
X5535646Y-4018402D01*
X5552155Y-4046997D01*
X5575503Y-4070345D01*
X5604098Y-4086854D01*
X5635991Y-4095400D01*
X5669009D01*
X5700902Y-4086854D01*
X5729497Y-4070345D01*
X5752845Y-4046997D01*
X5769354Y-4018402D01*
X5772926Y-4005073D01*
X5786074D01*
X5789646Y-4018402D01*
X5806155Y-4046997D01*
X5829503Y-4070345D01*
X5858098Y-4086854D01*
X5867858Y-4089469D01*
Y-4127494D01*
X5833994Y-4161358D01*
X5566006D01*
X5127325Y-3722676D01*
X5114788Y-3714299D01*
X5100000Y-3711358D01*
X1358000D01*
X1343212Y-3714299D01*
X1330675Y-3722676D01*
X1330675Y-3722677D01*
X973855Y-4079496D01*
X970509Y-4078600D01*
X937491D01*
X905597Y-4087146D01*
X877003Y-4103655D01*
X853655Y-4127003D01*
X837146Y-4155597D01*
X828600Y-4187491D01*
Y-4220509D01*
X837146Y-4252402D01*
X853655Y-4280997D01*
X877003Y-4304345D01*
X905597Y-4320854D01*
X937491Y-4329400D01*
X970509D01*
X1002402Y-4320854D01*
X1030997Y-4304345D01*
X1054345Y-4280997D01*
X1070854Y-4252402D01*
X1079400Y-4220509D01*
Y-4187491D01*
X1070854Y-4155597D01*
X1054345Y-4127003D01*
X1044995Y-4117653D01*
X1374006Y-3788642D01*
X5083994D01*
X5522676Y-4227324D01*
X5522676Y-4227324D01*
X5535213Y-4235701D01*
X5550000Y-4238643D01*
X5550002Y-4238642D01*
X5850000D01*
X5864788Y-4235701D01*
X5877324Y-4227324D01*
X5933824Y-4170824D01*
X5942201Y-4158288D01*
X5945142Y-4143500D01*
Y-4089469D01*
X5954902Y-4086854D01*
X5983497Y-4070345D01*
X6006845Y-4046997D01*
X6023354Y-4018402D01*
X6026926Y-4005073D01*
X6040074D01*
X6043646Y-4018402D01*
X6060155Y-4046997D01*
X6083503Y-4070345D01*
X6112098Y-4086854D01*
X6143991Y-4095400D01*
X6177009D01*
X6208902Y-4086854D01*
X6237497Y-4070345D01*
X6260845Y-4046997D01*
X6277354Y-4018402D01*
X6280926Y-4005073D01*
X6294074D01*
X6297646Y-4018402D01*
X6314155Y-4046997D01*
X6337503Y-4070345D01*
X6366098Y-4086854D01*
X6397991Y-4095400D01*
X6431009D01*
X6462902Y-4086854D01*
X6491497Y-4070345D01*
X6514845Y-4046997D01*
X6531354Y-4018402D01*
X6534926Y-4005073D01*
X6548074D01*
X6551646Y-4018402D01*
X6568155Y-4046997D01*
X6591503Y-4070345D01*
X6620098Y-4086854D01*
X6629858Y-4089469D01*
Y-4115494D01*
X5808993Y-4936358D01*
X2633000D01*
X2618212Y-4939299D01*
X2605675Y-4947676D01*
X2311153Y-5242198D01*
X2302402Y-5237146D01*
X2270509Y-5228600D01*
X2237491D01*
X2205597Y-5237146D01*
X2177003Y-5253655D01*
X2153655Y-5277003D01*
X2137146Y-5305597D01*
X2128600Y-5337491D01*
Y-5370509D01*
X2137146Y-5402402D01*
X2153655Y-5430997D01*
X2160924Y-5438267D01*
X2156064Y-5450000D01*
X1843936D01*
X1839075Y-5438267D01*
X1846345Y-5430997D01*
X1862854Y-5402402D01*
X1871400Y-5370509D01*
Y-5366700D01*
X1620600D01*
Y-5370509D01*
X1629146Y-5402402D01*
X1645655Y-5430997D01*
X1652924Y-5438267D01*
X1648064Y-5450000D01*
X50000D01*
Y-50000D01*
X3001322D01*
X3002994Y-62700D01*
X2997598Y-64146D01*
X2969003Y-80655D01*
X2945655Y-104003D01*
X2929146Y-132598D01*
X2920600Y-164491D01*
Y-168300D01*
X3171400D01*
Y-164491D01*
X3162854Y-132598D01*
X3146345Y-104003D01*
X3122997Y-80655D01*
X3094402Y-64146D01*
X3089006Y-62700D01*
X3090678Y-50000D01*
X3509322D01*
X3510994Y-62700D01*
X3505598Y-64146D01*
X3477003Y-80655D01*
X3453655Y-104003D01*
X3437146Y-132598D01*
X3428600Y-164491D01*
Y-197509D01*
X3437146Y-229403D01*
X3453655Y-257997D01*
X3477003Y-281345D01*
X3505598Y-297854D01*
X3537491Y-306400D01*
X3570509D01*
X3602402Y-297854D01*
X3611153Y-292802D01*
X3970676Y-652324D01*
X3983212Y-660701D01*
X3998000Y-663642D01*
X6833994D01*
X7391858Y-1221506D01*
Y-1310531D01*
X7382098Y-1313146D01*
X7353503Y-1329655D01*
X7330155Y-1353003D01*
X7313646Y-1381597D01*
X7310074Y-1394927D01*
X7296926D01*
X7293354Y-1381597D01*
X7276845Y-1353003D01*
X7253497Y-1329655D01*
X7224902Y-1313146D01*
X7193009Y-1304600D01*
X7182165D01*
Y-1218523D01*
X7179224Y-1203735D01*
X7170847Y-1191199D01*
X6802324Y-822676D01*
X6789788Y-814299D01*
X6775000Y-811358D01*
X3251501D01*
X3251499Y-811358D01*
X3236712Y-814299D01*
X3224175Y-822676D01*
X3224175Y-822677D01*
X2337097Y-1709755D01*
X2330997Y-1703655D01*
X2302402Y-1687146D01*
X2270509Y-1678600D01*
X2237491D01*
X2205597Y-1687146D01*
X2177003Y-1703655D01*
X2153655Y-1727003D01*
X2137146Y-1755597D01*
X2128600Y-1787491D01*
Y-1820509D01*
X2137146Y-1852402D01*
X2153655Y-1880997D01*
X2177003Y-1904345D01*
X2205597Y-1920854D01*
X2237491Y-1929400D01*
X2270509D01*
X2302402Y-1920854D01*
X2330997Y-1904345D01*
X2354345Y-1880997D01*
X2370854Y-1852402D01*
X2379400Y-1820509D01*
Y-1787491D01*
X2377130Y-1779019D01*
X3267506Y-888642D01*
X6758994D01*
X7104881Y-1234529D01*
Y-1326550D01*
X7099503Y-1329655D01*
X7076155Y-1353003D01*
X7059646Y-1381597D01*
X7056074Y-1394927D01*
X7042926D01*
X7039354Y-1381597D01*
X7022845Y-1353003D01*
X6999497Y-1329655D01*
X6970902Y-1313146D01*
X6939009Y-1304600D01*
X6905991D01*
X6874098Y-1313146D01*
X6865346Y-1318198D01*
X6544824Y-997676D01*
X6532288Y-989299D01*
X6517500Y-986358D01*
X5476501D01*
X5476500Y-986357D01*
X5461712Y-989299D01*
X5449176Y-997676D01*
X3637097Y-2809754D01*
X3630997Y-2803655D01*
X3602402Y-2787146D01*
X3570509Y-2778600D01*
X3537491D01*
X3505598Y-2787146D01*
X3477003Y-2803655D01*
X3453655Y-2827003D01*
X3437146Y-2855598D01*
X3428600Y-2887491D01*
Y-2920509D01*
X3437146Y-2952403D01*
X3453655Y-2980997D01*
X3477003Y-3004345D01*
X3505598Y-3020854D01*
X3537491Y-3029400D01*
X3570509D01*
X3602402Y-3020854D01*
X3630997Y-3004345D01*
X3651864Y-2983479D01*
X3653262Y-2983201D01*
X3665798Y-2974824D01*
X3674175Y-2962288D01*
X3677116Y-2947500D01*
X3675008Y-2936901D01*
X3679400Y-2920509D01*
Y-2887491D01*
X3677130Y-2879019D01*
X5492506Y-1063642D01*
X6501494D01*
X6810698Y-1372846D01*
X6805646Y-1381597D01*
X6802074Y-1394927D01*
X6788926D01*
X6785354Y-1381597D01*
X6768845Y-1353003D01*
X6745497Y-1329655D01*
X6716902Y-1313146D01*
X6685009Y-1304600D01*
X6651991D01*
X6620098Y-1313146D01*
X6591503Y-1329655D01*
X6568155Y-1353003D01*
X6551646Y-1381597D01*
X6548074Y-1394927D01*
X6534926D01*
X6531354Y-1381597D01*
X6514845Y-1353003D01*
X6491497Y-1329655D01*
X6462902Y-1313146D01*
X6431009Y-1304600D01*
X6397991D01*
X6366098Y-1313146D01*
X6337503Y-1329655D01*
X6314155Y-1353003D01*
X6297646Y-1381597D01*
X6294074Y-1394927D01*
X6280926D01*
X6277354Y-1381597D01*
X6260845Y-1353003D01*
X6237497Y-1329655D01*
X6208902Y-1313146D01*
X6177009Y-1304600D01*
X6143991D01*
X6112098Y-1313146D01*
X6083503Y-1329655D01*
X6060155Y-1353003D01*
X6043646Y-1381597D01*
X6040074Y-1394927D01*
X6026926D01*
X6023354Y-1381597D01*
X6006845Y-1353003D01*
X5983497Y-1329655D01*
X5954902Y-1313146D01*
X5923009Y-1304600D01*
X5889991D01*
X5858098Y-1313146D01*
X5829503Y-1329655D01*
X5806155Y-1353003D01*
X5789646Y-1381597D01*
X5786074Y-1394927D01*
X5772926D01*
X5769354Y-1381597D01*
X5752845Y-1353003D01*
X5729497Y-1329655D01*
X5700902Y-1313146D01*
X5669009Y-1304600D01*
X5635991D01*
X5604098Y-1313146D01*
X5575503Y-1329655D01*
X5552155Y-1353003D01*
X5535646Y-1381597D01*
X5527100Y-1413491D01*
Y-1446509D01*
X5535646Y-1478402D01*
X5552155Y-1506997D01*
X5575503Y-1530345D01*
X5604098Y-1546854D01*
X5635991Y-1555400D01*
X5669009D01*
X5700902Y-1546854D01*
X5711939Y-1540482D01*
X6496978Y-2325522D01*
X6508688Y-2333346D01*
X6522500Y-2336093D01*
X9785050D01*
X10044600Y-2595644D01*
Y-2611020D01*
X10053034Y-2631381D01*
X10068619Y-2646966D01*
X10088980Y-2655400D01*
X10111020D01*
X10131382Y-2646966D01*
X10146966Y-2631381D01*
X10155400Y-2611020D01*
Y-2588980D01*
X10146966Y-2568618D01*
X10131382Y-2553034D01*
X10111020Y-2544600D01*
X10095644D01*
X9825522Y-2274478D01*
X9813812Y-2266654D01*
X9800000Y-2263907D01*
X6537450D01*
X5762982Y-1489438D01*
X5769354Y-1478402D01*
X5772926Y-1465073D01*
X5786074D01*
X5789646Y-1478402D01*
X5806155Y-1506997D01*
X5829503Y-1530345D01*
X5858098Y-1546854D01*
X5889991Y-1555400D01*
X5923009D01*
X5954902Y-1546854D01*
X5983497Y-1530345D01*
X6006845Y-1506997D01*
X6023354Y-1478402D01*
X6026926Y-1465073D01*
X6040074D01*
X6043646Y-1478402D01*
X6060155Y-1506997D01*
X6083503Y-1530345D01*
X6112098Y-1546854D01*
X6143991Y-1555400D01*
X6177009D01*
X6208902Y-1546854D01*
X6237497Y-1530345D01*
X6260845Y-1506997D01*
X6277354Y-1478402D01*
X6280926Y-1465073D01*
X6294074D01*
X6297646Y-1478402D01*
X6314155Y-1506997D01*
X6337503Y-1530345D01*
X6366098Y-1546854D01*
X6397991Y-1555400D01*
X6431009D01*
X6462902Y-1546854D01*
X6491497Y-1530345D01*
X6514845Y-1506997D01*
X6531354Y-1478402D01*
X6534926Y-1465073D01*
X6548074D01*
X6551646Y-1478402D01*
X6568155Y-1506997D01*
X6591503Y-1530345D01*
X6620098Y-1546854D01*
X6651991Y-1555400D01*
X6685009D01*
X6716902Y-1546854D01*
X6745497Y-1530345D01*
X6768845Y-1506997D01*
X6785354Y-1478402D01*
X6788926Y-1465073D01*
X6802074D01*
X6805646Y-1478402D01*
X6822155Y-1506997D01*
X6845503Y-1530345D01*
X6874098Y-1546854D01*
X6905991Y-1555400D01*
X6939009D01*
X6970902Y-1546854D01*
X6999497Y-1530345D01*
X7022845Y-1506997D01*
X7039354Y-1478402D01*
X7042926Y-1465073D01*
X7056074D01*
X7059646Y-1478402D01*
X7076155Y-1506997D01*
X7099503Y-1530345D01*
X7128098Y-1546854D01*
X7159991Y-1555400D01*
X7193009D01*
X7224902Y-1546854D01*
X7253497Y-1530345D01*
X7276845Y-1506997D01*
X7293354Y-1478402D01*
X7296926Y-1465073D01*
X7310074D01*
X7313646Y-1478402D01*
X7330155Y-1506997D01*
X7353503Y-1530345D01*
X7382098Y-1546854D01*
X7413991Y-1555400D01*
X7447009D01*
X7478902Y-1546854D01*
X7507497Y-1530345D01*
X7530845Y-1506997D01*
X7547354Y-1478402D01*
X7550926Y-1465073D01*
X7564074D01*
X7567646Y-1478402D01*
X7584155Y-1506997D01*
X7607503Y-1530345D01*
X7636098Y-1546854D01*
X7650955Y-1550835D01*
Y-1759500D01*
X7653509Y-1772337D01*
X7660780Y-1783219D01*
X7901281Y-2023720D01*
X7912163Y-2030991D01*
X7925000Y-2033545D01*
X10136106D01*
X10694600Y-2592039D01*
Y-2611020D01*
X10703034Y-2631381D01*
X10718619Y-2646966D01*
X10738980Y-2655400D01*
X10761020D01*
X10781382Y-2646966D01*
X10796966Y-2631381D01*
X10805400Y-2611020D01*
Y-2588980D01*
X10796966Y-2568618D01*
X10781382Y-2553034D01*
X10761020Y-2544600D01*
X10742039D01*
X10173720Y-1976281D01*
X10162837Y-1969009D01*
X10150000Y-1966456D01*
X7938895D01*
X7718045Y-1745605D01*
Y-1550835D01*
X7732902Y-1546854D01*
X7761497Y-1530345D01*
X7784845Y-1506997D01*
X7801354Y-1478402D01*
X7804926Y-1465073D01*
X7818074D01*
X7821646Y-1478402D01*
X7838155Y-1506997D01*
X7861503Y-1530345D01*
X7890098Y-1546854D01*
X7921991Y-1555400D01*
X7955009D01*
X7986902Y-1546854D01*
X8015497Y-1530345D01*
X8038845Y-1506997D01*
X8055354Y-1478402D01*
X8058926Y-1465073D01*
X8072074D01*
X8075646Y-1478402D01*
X8092155Y-1506997D01*
X8115503Y-1530345D01*
X8144098Y-1546854D01*
X8175991Y-1555400D01*
X8200751D01*
X8497676Y-1852324D01*
X8510212Y-1860701D01*
X8525000Y-1863642D01*
X10433994D01*
X10722676Y-2152324D01*
X10735213Y-2160701D01*
X10750000Y-2163643D01*
X10750002Y-2163642D01*
X11350000D01*
X11364788Y-2160701D01*
X11377324Y-2152324D01*
X11429469Y-2100180D01*
X11429469Y-2100179D01*
X11437846Y-2087643D01*
X11440787Y-2072855D01*
Y-2071038D01*
X11456403Y-2066854D01*
X11484997Y-2050345D01*
X11508345Y-2026997D01*
X11524854Y-1998402D01*
X11528426Y-1985073D01*
X11541574D01*
X11545146Y-1998402D01*
X11561655Y-2026997D01*
X11585003Y-2050345D01*
X11613598Y-2066854D01*
X11645491Y-2075400D01*
X11678509D01*
X11710403Y-2066854D01*
X11738997Y-2050345D01*
X11762345Y-2026997D01*
X11778854Y-1998402D01*
X11782426Y-1985073D01*
X11795574D01*
X11799146Y-1998402D01*
X11815655Y-2026997D01*
X11839003Y-2050345D01*
X11867598Y-2066854D01*
X11899491Y-2075400D01*
X11903301D01*
Y-1950000D01*
Y-1824600D01*
X11899491D01*
X11867598Y-1833146D01*
X11839003Y-1849655D01*
X11815655Y-1873003D01*
X11799146Y-1901597D01*
X11795574Y-1914927D01*
X11782426D01*
X11778854Y-1901597D01*
X11762345Y-1873003D01*
X11738997Y-1849655D01*
X11710403Y-1833146D01*
X11700642Y-1830531D01*
Y-1587000D01*
X11697701Y-1572212D01*
X11689324Y-1559676D01*
X11689324Y-1559675D01*
X10952325Y-822676D01*
X10939788Y-814299D01*
X10925000Y-811358D01*
X9150001D01*
X9150000Y-811358D01*
X9135212Y-814299D01*
X9122676Y-822676D01*
X9122675Y-822677D01*
X8673176Y-1272176D01*
X8664799Y-1284712D01*
X8661858Y-1299500D01*
Y-1310531D01*
X8652098Y-1313146D01*
X8623503Y-1329655D01*
X8600155Y-1353003D01*
X8583646Y-1381597D01*
X8580074Y-1394927D01*
X8566926D01*
X8563354Y-1381597D01*
X8546845Y-1353003D01*
X8523497Y-1329655D01*
X8494902Y-1313146D01*
X8463009Y-1304600D01*
X8429991D01*
X8398098Y-1313146D01*
X8369503Y-1329655D01*
X8346155Y-1353003D01*
X8329646Y-1381597D01*
X8326074Y-1394927D01*
X8312926D01*
X8309354Y-1381597D01*
X8292845Y-1353003D01*
X8269497Y-1329655D01*
X8240902Y-1313146D01*
X8209009Y-1304600D01*
X8175991D01*
X8144098Y-1313146D01*
X8115503Y-1329655D01*
X8092155Y-1353003D01*
X8075646Y-1381597D01*
X8072074Y-1394927D01*
X8058926D01*
X8055354Y-1381597D01*
X8038845Y-1353003D01*
X8015497Y-1329655D01*
X7986902Y-1313146D01*
X7977142Y-1310531D01*
Y-1127506D01*
X8666006Y-438642D01*
X12977000D01*
X12991788Y-435701D01*
X13004324Y-427324D01*
X13126144Y-305504D01*
X13129491Y-306400D01*
X13162509D01*
X13194403Y-297854D01*
X13222997Y-281345D01*
X13239400Y-264943D01*
X13252100Y-270203D01*
Y-295400D01*
X13502901D01*
Y-50000D01*
X13609322D01*
X13610994Y-62700D01*
X13605598Y-64146D01*
X13577003Y-80655D01*
X13553654Y-104003D01*
X13537146Y-132598D01*
X13528600Y-164491D01*
Y-197509D01*
X13537146Y-229403D01*
X13553654Y-257997D01*
X13577003Y-281345D01*
X13605598Y-297854D01*
X13637491Y-306400D01*
X13670509D01*
X13702403Y-297854D01*
X13730997Y-281345D01*
X13754346Y-257997D01*
X13770854Y-229403D01*
X13779401Y-197509D01*
Y-164491D01*
X13770854Y-132598D01*
X13754346Y-104003D01*
X13730997Y-80655D01*
X13702403Y-64146D01*
X13697006Y-62700D01*
X13698679Y-50000D01*
X14697099D01*
Y-295400D01*
X14947900D01*
Y-50000D01*
X16650000D01*
Y-5450000D01*
D02*
G37*
G36*
X13102994Y-62700D02*
X13097598Y-64146D01*
X13069003Y-80655D01*
X13045654Y-104003D01*
X13029146Y-132598D01*
X13020599Y-164491D01*
Y-197509D01*
X13029146Y-229403D01*
X13045654Y-257997D01*
X13055005Y-267347D01*
X12960994Y-361358D01*
X8650000D01*
X8635212Y-364299D01*
X8622676Y-372676D01*
X7911176Y-1084176D01*
X7902799Y-1096712D01*
X7899858Y-1111500D01*
Y-1310531D01*
X7890098Y-1313146D01*
X7861503Y-1329655D01*
X7838155Y-1353003D01*
X7821646Y-1381597D01*
X7818074Y-1394927D01*
X7804926D01*
X7801354Y-1381597D01*
X7784845Y-1353003D01*
X7761497Y-1329655D01*
X7732902Y-1313146D01*
X7701009Y-1304600D01*
X7667991D01*
X7636098Y-1313146D01*
X7607503Y-1329655D01*
X7584155Y-1353003D01*
X7567646Y-1381597D01*
X7564074Y-1394927D01*
X7550926D01*
X7547354Y-1381597D01*
X7530845Y-1353003D01*
X7507497Y-1329655D01*
X7478902Y-1313146D01*
X7469142Y-1310531D01*
Y-1205500D01*
X7466201Y-1190712D01*
X7457824Y-1178175D01*
X6877325Y-597676D01*
X6864788Y-589299D01*
X6850000Y-586358D01*
X4014006D01*
X3665802Y-238153D01*
X3670854Y-229403D01*
X3679400Y-197509D01*
Y-164491D01*
X3670854Y-132598D01*
X3654345Y-104003D01*
X3630997Y-80655D01*
X3602402Y-64146D01*
X3597006Y-62700D01*
X3598678Y-50000D01*
X13101321D01*
X13102994Y-62700D01*
D02*
G37*
G36*
X11623358Y-1603006D02*
Y-1830531D01*
X11613598Y-1833146D01*
X11585003Y-1849655D01*
X11561655Y-1873003D01*
X11545146Y-1901597D01*
X11541574Y-1914927D01*
X11528426D01*
X11524854Y-1901597D01*
X11508345Y-1873003D01*
X11484997Y-1849655D01*
X11456403Y-1833146D01*
X11424509Y-1824600D01*
X11391491D01*
X11359598Y-1833146D01*
X11331003Y-1849655D01*
X11307655Y-1873003D01*
X11291146Y-1901597D01*
X11287574Y-1914927D01*
X11274426D01*
X11270854Y-1901597D01*
X11254345Y-1873003D01*
X11230997Y-1849655D01*
X11202403Y-1833146D01*
X11190787Y-1830033D01*
Y-1827146D01*
X11190787Y-1827145D01*
X11187846Y-1812357D01*
X11179469Y-1799821D01*
X11179468Y-1799820D01*
X10902324Y-1522676D01*
X10889788Y-1514299D01*
X10875000Y-1511358D01*
X9525000D01*
X9510212Y-1514299D01*
X9497676Y-1522676D01*
X9383994Y-1636358D01*
X8641007D01*
X8529246Y-1524597D01*
X8546845Y-1506997D01*
X8563354Y-1478402D01*
X8566926Y-1465073D01*
X8580074D01*
X8583646Y-1478402D01*
X8600155Y-1506997D01*
X8623503Y-1530345D01*
X8652098Y-1546854D01*
X8683991Y-1555400D01*
X8717009D01*
X8748902Y-1546854D01*
X8777497Y-1530345D01*
X8800845Y-1506997D01*
X8817354Y-1478402D01*
X8820926Y-1465073D01*
X8834074D01*
X8837646Y-1478402D01*
X8854155Y-1506997D01*
X8877503Y-1530345D01*
X8906098Y-1546854D01*
X8937991Y-1555400D01*
X8941801D01*
Y-1430001D01*
Y-1304600D01*
X8937991D01*
X8906098Y-1313146D01*
X8877503Y-1329655D01*
X8854155Y-1353003D01*
X8837646Y-1381597D01*
X8834074Y-1394927D01*
X8820926D01*
X8817354Y-1381597D01*
X8800845Y-1353003D01*
X8777497Y-1329655D01*
X8755598Y-1317011D01*
X8752822Y-1301827D01*
X9166006Y-888642D01*
X10908994D01*
X11623358Y-1603006D01*
D02*
G37*
G36*
X8329646Y-1478402D02*
X8346155Y-1506997D01*
X8369503Y-1530345D01*
X8398098Y-1546854D01*
X8429991Y-1555400D01*
X8451385D01*
X8452660Y-1557309D01*
X8597676Y-1702324D01*
X8610212Y-1710701D01*
X8625000Y-1713642D01*
X9400000D01*
X9414788Y-1710701D01*
X9427324Y-1702324D01*
X9541006Y-1588642D01*
X10858994D01*
X11096890Y-1826539D01*
X11095232Y-1839130D01*
X11077003Y-1849655D01*
X11053655Y-1873003D01*
X11037146Y-1901597D01*
X11033574Y-1914927D01*
X11020426D01*
X11016854Y-1901597D01*
X11000345Y-1873003D01*
X10976997Y-1849655D01*
X10948403Y-1833146D01*
X10916509Y-1824600D01*
X10912701D01*
Y-1950000D01*
X10900001D01*
Y-1962700D01*
X10774600D01*
Y-1966509D01*
X10783146Y-1998402D01*
X10799655Y-2026997D01*
X10823003Y-2050345D01*
X10851598Y-2066854D01*
X10876989Y-2073658D01*
X10875317Y-2086358D01*
X10766007D01*
X10477324Y-1797676D01*
X10464788Y-1789299D01*
X10450000Y-1786358D01*
X8541006D01*
X8277245Y-1522597D01*
X8292845Y-1506997D01*
X8309354Y-1478402D01*
X8312926Y-1465073D01*
X8326074D01*
X8329646Y-1478402D01*
D02*
G37*
G36*
X12380675Y-2885324D02*
X12380676Y-2885324D01*
X12393212Y-2893701D01*
X12408000Y-2896642D01*
X12463782D01*
X12466397Y-2906403D01*
X12482906Y-2934997D01*
X12506254Y-2958345D01*
X12534848Y-2974854D01*
X12548178Y-2978426D01*
Y-2991574D01*
X12534848Y-2995146D01*
X12506254Y-3011655D01*
X12482906Y-3035003D01*
X12466397Y-3063598D01*
X12463099Y-3075907D01*
X9826951D01*
X9655400Y-2904356D01*
Y-2888980D01*
X9646966Y-2868619D01*
X9631382Y-2853034D01*
X9611020Y-2844600D01*
X9588980D01*
X9568619Y-2853034D01*
X9553034Y-2868619D01*
X9544600Y-2888980D01*
Y-2911020D01*
X9553034Y-2931381D01*
X9568619Y-2946966D01*
X9588980Y-2955400D01*
X9604356D01*
X9786478Y-3137522D01*
X9798188Y-3145346D01*
X9812000Y-3148094D01*
X12463099D01*
X12466397Y-3160403D01*
X12482906Y-3188997D01*
X12506254Y-3212345D01*
X12534848Y-3228854D01*
X12548178Y-3232426D01*
Y-3245574D01*
X12534848Y-3249146D01*
X12506254Y-3265655D01*
X12482906Y-3289003D01*
X12481546Y-3291358D01*
X8820000D01*
X8805212Y-3294299D01*
X8792676Y-3302676D01*
X8792675Y-3302677D01*
X8419176Y-3676176D01*
X8410799Y-3688712D01*
X8407858Y-3703500D01*
Y-3850531D01*
X8398098Y-3853146D01*
X8369503Y-3869655D01*
X8346155Y-3893003D01*
X8329646Y-3921597D01*
X8326074Y-3934927D01*
X8312926D01*
X8309354Y-3921597D01*
X8292845Y-3893003D01*
X8269497Y-3869655D01*
X8240902Y-3853146D01*
X8209009Y-3844600D01*
X8175991D01*
X8144098Y-3853146D01*
X8115503Y-3869655D01*
X8092155Y-3893003D01*
X8075646Y-3921597D01*
X8072074Y-3934927D01*
X8058926D01*
X8055354Y-3921597D01*
X8038845Y-3893003D01*
X8015497Y-3869655D01*
X7986902Y-3853146D01*
X7955009Y-3844600D01*
X7921991D01*
X7890098Y-3853146D01*
X7861503Y-3869655D01*
X7838155Y-3893003D01*
X7821646Y-3921597D01*
X7818074Y-3934927D01*
X7804926D01*
X7801354Y-3921597D01*
X7784845Y-3893003D01*
X7761497Y-3869655D01*
X7732902Y-3853146D01*
X7701009Y-3844600D01*
X7667991D01*
X7636098Y-3853146D01*
X7607503Y-3869655D01*
X7584155Y-3893003D01*
X7567646Y-3921597D01*
X7564074Y-3934927D01*
X7550926D01*
X7547354Y-3921597D01*
X7530845Y-3893003D01*
X7507497Y-3869655D01*
X7478902Y-3853146D01*
X7447009Y-3844600D01*
X7413991D01*
X7382098Y-3853146D01*
X7353503Y-3869655D01*
X7330155Y-3893003D01*
X7313646Y-3921597D01*
X7310074Y-3934927D01*
X7296926D01*
X7293354Y-3921597D01*
X7276845Y-3893003D01*
X7253497Y-3869655D01*
X7224902Y-3853146D01*
X7215142Y-3850531D01*
Y-3789507D01*
X8216006Y-2788642D01*
X12283993D01*
X12380675Y-2885324D01*
D02*
G37*
G36*
X12457851Y-3382509D02*
X12466397Y-3414403D01*
X12482906Y-3442997D01*
X12506254Y-3466345D01*
X12534848Y-3482854D01*
X12548178Y-3486426D01*
Y-3499574D01*
X12534848Y-3503146D01*
X12506254Y-3519655D01*
X12482906Y-3543003D01*
X12466397Y-3571598D01*
X12457851Y-3603491D01*
Y-3636509D01*
X12466397Y-3668403D01*
X12469941Y-3674541D01*
X12430575Y-3713907D01*
X10314951D01*
X10139696Y-3538652D01*
X10146966Y-3531382D01*
X10155400Y-3511020D01*
Y-3488980D01*
X10146966Y-3468619D01*
X10131382Y-3453034D01*
X10111020Y-3444600D01*
X10088980D01*
X10068619Y-3453034D01*
X10053034Y-3468619D01*
X10044600Y-3488980D01*
Y-3511020D01*
X10053034Y-3531382D01*
X10063907Y-3542254D01*
Y-3550000D01*
X10066654Y-3563812D01*
X10074478Y-3575522D01*
X10274478Y-3775522D01*
X10286188Y-3783346D01*
X10300000Y-3786094D01*
X12445526D01*
X12459338Y-3783346D01*
X12471048Y-3775522D01*
X12518915Y-3727655D01*
X12534848Y-3736854D01*
X12548178Y-3740426D01*
Y-3753574D01*
X12534848Y-3757146D01*
X12506254Y-3773655D01*
X12482906Y-3797003D01*
X12466397Y-3825598D01*
X12463782Y-3835358D01*
X12376000D01*
X12361212Y-3838299D01*
X12348676Y-3846676D01*
X12033994Y-4161358D01*
X8316007D01*
X8248659Y-4094010D01*
X8250317Y-4081419D01*
X8269497Y-4070345D01*
X8292845Y-4046997D01*
X8309354Y-4018402D01*
X8312926Y-4005073D01*
X8326074D01*
X8329646Y-4018402D01*
X8346155Y-4046997D01*
X8369503Y-4070345D01*
X8398098Y-4086854D01*
X8429991Y-4095400D01*
X8463009D01*
X8494902Y-4086854D01*
X8523497Y-4070345D01*
X8546845Y-4046997D01*
X8563354Y-4018402D01*
X8566926Y-4005073D01*
X8580074D01*
X8583646Y-4018402D01*
X8600155Y-4046997D01*
X8623503Y-4070345D01*
X8652098Y-4086854D01*
X8683991Y-4095400D01*
X8717009D01*
X8748902Y-4086854D01*
X8777497Y-4070345D01*
X8800845Y-4046997D01*
X8817354Y-4018402D01*
X8820926Y-4005073D01*
X8834074D01*
X8837646Y-4018402D01*
X8854155Y-4046997D01*
X8877503Y-4070345D01*
X8906098Y-4086854D01*
X8937991Y-4095400D01*
X8941801D01*
Y-3970001D01*
Y-3844600D01*
X8937991D01*
X8906098Y-3853146D01*
X8877503Y-3869655D01*
X8854155Y-3893003D01*
X8837646Y-3921597D01*
X8834074Y-3934927D01*
X8820926D01*
X8817354Y-3921597D01*
X8800845Y-3893003D01*
X8777497Y-3869655D01*
X8748902Y-3853146D01*
X8717009Y-3844600D01*
X8683991D01*
X8652098Y-3853146D01*
X8623503Y-3869655D01*
X8600155Y-3893003D01*
X8583646Y-3921597D01*
X8580074Y-3934927D01*
X8566926D01*
X8563354Y-3921597D01*
X8546845Y-3893003D01*
X8523497Y-3869655D01*
X8494902Y-3853146D01*
X8485142Y-3850531D01*
Y-3719506D01*
X8836006Y-3368642D01*
X12457851D01*
Y-3382509D01*
D02*
G37*
G36*
X11992793Y-5241342D02*
X11968003Y-5255655D01*
X11944655Y-5279003D01*
X11928146Y-5307597D01*
X11919600Y-5339491D01*
Y-5372509D01*
X11928146Y-5404402D01*
X11944655Y-5432997D01*
X11949925Y-5438267D01*
X11945064Y-5450000D01*
X11106936D01*
X11102076Y-5438267D01*
X11107345Y-5432997D01*
X11123854Y-5404402D01*
X11132400Y-5372509D01*
Y-5339491D01*
X11123854Y-5307597D01*
X11107345Y-5279003D01*
X11083997Y-5255655D01*
X11059207Y-5241342D01*
X11062610Y-5228642D01*
X11989390D01*
X11992793Y-5241342D01*
D02*
G37*
G36*
X6805646Y-4018402D02*
X6822155Y-4046997D01*
X6845503Y-4070345D01*
X6874098Y-4086854D01*
X6883858Y-4089469D01*
Y-4122500D01*
X6886799Y-4137288D01*
X6895176Y-4149824D01*
X7962675Y-5217324D01*
X7962676Y-5217324D01*
X7975212Y-5225701D01*
X7990000Y-5228643D01*
X7990001Y-5228642D01*
X10264600D01*
Y-5385400D01*
X10373542D01*
X10375071Y-5386929D01*
X10389261Y-5396411D01*
X10406000Y-5399741D01*
X10634897D01*
X10636146Y-5404402D01*
X10652655Y-5432997D01*
X10657925Y-5438267D01*
X10653064Y-5450000D01*
X2351936D01*
X2347075Y-5438267D01*
X2354345Y-5430997D01*
X2370854Y-5402402D01*
X2379400Y-5370509D01*
Y-5337491D01*
X2370854Y-5305597D01*
X2365802Y-5296847D01*
X2649006Y-5013643D01*
X5825000D01*
X5839788Y-5010701D01*
X5852324Y-5002325D01*
X6695824Y-4158824D01*
X6704201Y-4146288D01*
X6707142Y-4131500D01*
Y-4089469D01*
X6716902Y-4086854D01*
X6745497Y-4070345D01*
X6768845Y-4046997D01*
X6785354Y-4018402D01*
X6788926Y-4005073D01*
X6802074D01*
X6805646Y-4018402D01*
D02*
G37*
%LPC*%
G36*
X3171400Y-193700D02*
X3058700D01*
Y-306400D01*
X3062509D01*
X3094402Y-297854D01*
X3122997Y-281345D01*
X3146345Y-257997D01*
X3162854Y-229403D01*
X3171400Y-197509D01*
Y-193700D01*
D02*
G37*
G36*
X3033300D02*
X2920600D01*
Y-197509D01*
X2929146Y-229403D01*
X2945655Y-257997D01*
X2969003Y-281345D01*
X2997598Y-297854D01*
X3029491Y-306400D01*
X3033300D01*
Y-193700D01*
D02*
G37*
G36*
X16274623Y-174103D02*
X16225377D01*
X16222874Y-174600D01*
X16220325D01*
X16172025Y-184208D01*
X16169669Y-185184D01*
X16167168Y-185681D01*
X16121671Y-204527D01*
X16119550Y-205944D01*
X16117192Y-206920D01*
X16076247Y-234279D01*
X16074442Y-236083D01*
X16072321Y-237500D01*
X16037500Y-272322D01*
X16036082Y-274443D01*
X16034279Y-276246D01*
X16006918Y-317193D01*
X16005943Y-319549D01*
X16004526Y-321670D01*
X15985681Y-367167D01*
X15985184Y-369669D01*
X15984207Y-372026D01*
X15974600Y-420325D01*
Y-422876D01*
X15974101Y-425377D01*
Y-474623D01*
X15974600Y-477125D01*
Y-479675D01*
X15984207Y-527975D01*
X15985184Y-530331D01*
X15985681Y-532833D01*
X16004526Y-578330D01*
X16005943Y-580451D01*
X16006918Y-582808D01*
X16034279Y-623754D01*
X16036082Y-625558D01*
X16037500Y-627678D01*
X16072321Y-662500D01*
X16074442Y-663917D01*
X16076247Y-665721D01*
X16117192Y-693080D01*
X16119550Y-694057D01*
X16121671Y-695474D01*
X16167168Y-714319D01*
X16169669Y-714817D01*
X16172025Y-715793D01*
X16220325Y-725400D01*
X16222874D01*
X16225377Y-725898D01*
X16274623D01*
X16277124Y-725400D01*
X16279675D01*
X16327974Y-715793D01*
X16330331Y-714817D01*
X16332832Y-714319D01*
X16378329Y-695474D01*
X16380450Y-694057D01*
X16382806Y-693080D01*
X16423753Y-665721D01*
X16425557Y-663917D01*
X16427678Y-662500D01*
X16462500Y-627678D01*
X16463918Y-625558D01*
X16465720Y-623754D01*
X16493080Y-582808D01*
X16494057Y-580451D01*
X16495473Y-578330D01*
X16514319Y-532833D01*
X16514816Y-530332D01*
X16515791Y-527975D01*
X16525400Y-479676D01*
Y-477125D01*
X16525897Y-474623D01*
Y-425377D01*
X16525400Y-422876D01*
Y-420325D01*
X16515791Y-372025D01*
X16514816Y-369669D01*
X16514319Y-367167D01*
X16495473Y-321670D01*
X16494057Y-319549D01*
X16493080Y-317193D01*
X16465720Y-276247D01*
X16463918Y-274443D01*
X16462500Y-272322D01*
X16427678Y-237500D01*
X16425557Y-236083D01*
X16423753Y-234279D01*
X16382806Y-206920D01*
X16380450Y-205944D01*
X16378329Y-204527D01*
X16332832Y-185681D01*
X16330331Y-185184D01*
X16327974Y-184208D01*
X16279675Y-174600D01*
X16277124D01*
X16274623Y-174103D01*
D02*
G37*
G36*
X474623D02*
X425377D01*
X422875Y-174600D01*
X420325D01*
X372025Y-184208D01*
X369668Y-185184D01*
X367167Y-185681D01*
X321670Y-204527D01*
X319549Y-205944D01*
X317192Y-206920D01*
X276246Y-234279D01*
X274442Y-236083D01*
X272322Y-237500D01*
X237500Y-272322D01*
X236083Y-274443D01*
X234279Y-276246D01*
X206920Y-317193D01*
X205943Y-319549D01*
X204526Y-321670D01*
X185681Y-367167D01*
X185183Y-369669D01*
X184207Y-372026D01*
X174600Y-420325D01*
Y-422876D01*
X174102Y-425377D01*
Y-474623D01*
X174600Y-477125D01*
Y-479675D01*
X184207Y-527975D01*
X185183Y-530331D01*
X185681Y-532833D01*
X204526Y-578330D01*
X205943Y-580451D01*
X206920Y-582808D01*
X234279Y-623754D01*
X236083Y-625558D01*
X237500Y-627678D01*
X272322Y-662500D01*
X274442Y-663917D01*
X276246Y-665721D01*
X317192Y-693080D01*
X319549Y-694057D01*
X321670Y-695474D01*
X367167Y-714319D01*
X369669Y-714817D01*
X372025Y-715793D01*
X420325Y-725400D01*
X422875D01*
X425377Y-725898D01*
X474623D01*
X477124Y-725400D01*
X479675D01*
X527974Y-715793D01*
X530331Y-714817D01*
X532833Y-714319D01*
X578330Y-695474D01*
X580451Y-694057D01*
X582807Y-693080D01*
X623753Y-665721D01*
X625557Y-663917D01*
X627678Y-662500D01*
X662500Y-627678D01*
X663917Y-625558D01*
X665721Y-623754D01*
X693080Y-582808D01*
X694056Y-580451D01*
X695473Y-578330D01*
X714319Y-532833D01*
X714816Y-530332D01*
X715792Y-527975D01*
X725400Y-479676D01*
Y-477125D01*
X725897Y-474623D01*
Y-425377D01*
X725400Y-422876D01*
Y-420325D01*
X715792Y-372025D01*
X714816Y-369669D01*
X714319Y-367167D01*
X695473Y-321670D01*
X694056Y-319549D01*
X693080Y-317193D01*
X665721Y-276247D01*
X663917Y-274443D01*
X662500Y-272322D01*
X627678Y-237500D01*
X625557Y-236083D01*
X623754Y-234279D01*
X582807Y-206920D01*
X580451Y-205944D01*
X578330Y-204527D01*
X532833Y-185681D01*
X530331Y-185184D01*
X527975Y-184208D01*
X479675Y-174600D01*
X477124D01*
X474623Y-174103D01*
D02*
G37*
G36*
X3062509Y-1355600D02*
X3058700D01*
Y-1468300D01*
X3171400D01*
Y-1464491D01*
X3162854Y-1432598D01*
X3146345Y-1404003D01*
X3122997Y-1380655D01*
X3094402Y-1364146D01*
X3062509Y-1355600D01*
D02*
G37*
G36*
X3033300D02*
X3029491D01*
X2997598Y-1364146D01*
X2969003Y-1380655D01*
X2945655Y-1404003D01*
X2929146Y-1432598D01*
X2920600Y-1464491D01*
Y-1468300D01*
X3033300D01*
Y-1355600D01*
D02*
G37*
G36*
X13670509D02*
X13637491D01*
X13605598Y-1364146D01*
X13577003Y-1380655D01*
X13553654Y-1404003D01*
X13537146Y-1432598D01*
X13528600Y-1464491D01*
Y-1497509D01*
X13537146Y-1529403D01*
X13553654Y-1557997D01*
X13577003Y-1581345D01*
X13605598Y-1597854D01*
X13637491Y-1606400D01*
X13670509D01*
X13702403Y-1597854D01*
X13730997Y-1581345D01*
X13754346Y-1557997D01*
X13770854Y-1529403D01*
X13779401Y-1497509D01*
Y-1464491D01*
X13770854Y-1432598D01*
X13754346Y-1404003D01*
X13730997Y-1380655D01*
X13702403Y-1364146D01*
X13670509Y-1355600D01*
D02*
G37*
G36*
X13162509D02*
X13129491D01*
X13097598Y-1364146D01*
X13069003Y-1380655D01*
X13045654Y-1404003D01*
X13029146Y-1432598D01*
X13020599Y-1464491D01*
Y-1497509D01*
X13029146Y-1529403D01*
X13045654Y-1557997D01*
X13069003Y-1581345D01*
X13097598Y-1597854D01*
X13129491Y-1606400D01*
X13162509D01*
X13194403Y-1597854D01*
X13222997Y-1581345D01*
X13246346Y-1557997D01*
X13262854Y-1529403D01*
X13271400Y-1497509D01*
Y-1464491D01*
X13262854Y-1432598D01*
X13246346Y-1404003D01*
X13222997Y-1380655D01*
X13194403Y-1364146D01*
X13162509Y-1355600D01*
D02*
G37*
G36*
X3570509D02*
X3537491D01*
X3505598Y-1364146D01*
X3477003Y-1380655D01*
X3453655Y-1404003D01*
X3437146Y-1432598D01*
X3428600Y-1464491D01*
Y-1497509D01*
X3437146Y-1529403D01*
X3453655Y-1557997D01*
X3477003Y-1581345D01*
X3505598Y-1597854D01*
X3537491Y-1606400D01*
X3570509D01*
X3602402Y-1597854D01*
X3630997Y-1581345D01*
X3654345Y-1557997D01*
X3670854Y-1529403D01*
X3679400Y-1497509D01*
Y-1464491D01*
X3670854Y-1432598D01*
X3654345Y-1404003D01*
X3630997Y-1380655D01*
X3602402Y-1364146D01*
X3570509Y-1355600D01*
D02*
G37*
G36*
X3171400Y-1493700D02*
X3058700D01*
Y-1606400D01*
X3062509D01*
X3094402Y-1597854D01*
X3122997Y-1581345D01*
X3146345Y-1557997D01*
X3162854Y-1529403D01*
X3171400Y-1497509D01*
Y-1493700D01*
D02*
G37*
G36*
X3033300D02*
X2920600D01*
Y-1497509D01*
X2929146Y-1529403D01*
X2945655Y-1557997D01*
X2969003Y-1581345D01*
X2997598Y-1597854D01*
X3029491Y-1606400D01*
X3033300D01*
Y-1493700D01*
D02*
G37*
G36*
X1762509Y-1678600D02*
X1758700D01*
Y-1791300D01*
X1871400D01*
Y-1787491D01*
X1862854Y-1755597D01*
X1846345Y-1727003D01*
X1822997Y-1703655D01*
X1794402Y-1687146D01*
X1762509Y-1678600D01*
D02*
G37*
G36*
X1733300D02*
X1729491D01*
X1697597Y-1687146D01*
X1669003Y-1703655D01*
X1645655Y-1727003D01*
X1629146Y-1755597D01*
X1620600Y-1787491D01*
Y-1791300D01*
X1733300D01*
Y-1678600D01*
D02*
G37*
G36*
X1871400Y-1816700D02*
X1758700D01*
Y-1929400D01*
X1762509D01*
X1794402Y-1920854D01*
X1822997Y-1904345D01*
X1846345Y-1880997D01*
X1862854Y-1852402D01*
X1871400Y-1820509D01*
Y-1816700D01*
D02*
G37*
G36*
X1733300D02*
X1620600D01*
Y-1820509D01*
X1629146Y-1852402D01*
X1645655Y-1880997D01*
X1669003Y-1904345D01*
X1697597Y-1920854D01*
X1729491Y-1929400D01*
X1733300D01*
Y-1816700D01*
D02*
G37*
G36*
X14647900Y-2344600D02*
X14397099D01*
Y-2426260D01*
X14280000D01*
X14263261Y-2429589D01*
X14249071Y-2439071D01*
X13869070Y-2819071D01*
X13859589Y-2833261D01*
X13856261Y-2850000D01*
Y-3631882D01*
X13369070Y-4119071D01*
X13359589Y-4133261D01*
X13356261Y-4150000D01*
Y-4391882D01*
X13041882Y-4706260D01*
X10463118D01*
X10430400Y-4673542D01*
Y-4564600D01*
X10259601D01*
Y-4735400D01*
X10368542D01*
X10414071Y-4780929D01*
X10428261Y-4790411D01*
X10445000Y-4793740D01*
X13060001D01*
X13076740Y-4790411D01*
X13090929Y-4780929D01*
X13430930Y-4440929D01*
X13440411Y-4426738D01*
X13443739Y-4410000D01*
Y-4168118D01*
X13930930Y-3680929D01*
X13940411Y-3666739D01*
X13943739Y-3650000D01*
Y-2868118D01*
X14298119Y-2513740D01*
X14397099D01*
Y-2595400D01*
X14647900D01*
Y-2344600D01*
D02*
G37*
G36*
X3062509Y-2778600D02*
X3058700D01*
Y-2891300D01*
X3171400D01*
Y-2887491D01*
X3162854Y-2855598D01*
X3146345Y-2827003D01*
X3122997Y-2803655D01*
X3094402Y-2787146D01*
X3062509Y-2778600D01*
D02*
G37*
G36*
X3033300D02*
X3029491D01*
X2997598Y-2787146D01*
X2969003Y-2803655D01*
X2945655Y-2827003D01*
X2929146Y-2855598D01*
X2920600Y-2887491D01*
Y-2891300D01*
X3033300D01*
Y-2778600D01*
D02*
G37*
G36*
X14950000Y-2156260D02*
X13500000D01*
X13483263Y-2159589D01*
X13469070Y-2169071D01*
X13369070Y-2269071D01*
X13359589Y-2283261D01*
X13356261Y-2300000D01*
Y-2344600D01*
X13252100D01*
Y-2595400D01*
X13502901D01*
Y-2344600D01*
X13443739D01*
Y-2318118D01*
X13518118Y-2243740D01*
X14931882D01*
X14996260Y-2308118D01*
Y-2691882D01*
X14678316Y-3009827D01*
X14675401Y-3008146D01*
X14643509Y-2999600D01*
X14610490D01*
X14578596Y-3008146D01*
X14550003Y-3024655D01*
X14526656Y-3048003D01*
X14510146Y-3076598D01*
X14501601Y-3108491D01*
Y-3141509D01*
X14510146Y-3173403D01*
X14526656Y-3201997D01*
X14550003Y-3225345D01*
X14578596Y-3241854D01*
X14581261Y-3242568D01*
Y-3261433D01*
X14578596Y-3262146D01*
X14550003Y-3278655D01*
X14526656Y-3302003D01*
X14510146Y-3330598D01*
X14501601Y-3362491D01*
Y-3395509D01*
X14510146Y-3427403D01*
X14526656Y-3455997D01*
X14550003Y-3479345D01*
X14578596Y-3495854D01*
X14610490Y-3504400D01*
X14643509D01*
X14675401Y-3495854D01*
X14703996Y-3479345D01*
X14727345Y-3455997D01*
X14743854Y-3427403D01*
X14752400Y-3395509D01*
Y-3362491D01*
X14743854Y-3330598D01*
X14727345Y-3302003D01*
X14703996Y-3278655D01*
X14675401Y-3262146D01*
X14668739Y-3260361D01*
Y-3243639D01*
X14675401Y-3241854D01*
X14703996Y-3225345D01*
X14727345Y-3201997D01*
X14743854Y-3173403D01*
X14752400Y-3141509D01*
Y-3108491D01*
X14743854Y-3076598D01*
X14740709Y-3071150D01*
X15070929Y-2740929D01*
X15080411Y-2726739D01*
X15083740Y-2710000D01*
Y-2290000D01*
X15080411Y-2273261D01*
X15070929Y-2259071D01*
X14980930Y-2169071D01*
X14966739Y-2159589D01*
X14950000Y-2156260D01*
D02*
G37*
G36*
X3171400Y-2916700D02*
X3058700D01*
Y-3029400D01*
X3062509D01*
X3094402Y-3020854D01*
X3122997Y-3004345D01*
X3146345Y-2980997D01*
X3162854Y-2952403D01*
X3171400Y-2920509D01*
Y-2916700D01*
D02*
G37*
G36*
X3033300D02*
X2920600D01*
Y-2920509D01*
X2929146Y-2952403D01*
X2945655Y-2980997D01*
X2969003Y-3004345D01*
X2997598Y-3020854D01*
X3029491Y-3029400D01*
X3033300D01*
Y-2916700D01*
D02*
G37*
G36*
X970509Y-2778600D02*
X937491D01*
X905597Y-2787146D01*
X877003Y-2803655D01*
X853655Y-2827003D01*
X837146Y-2855598D01*
X828600Y-2887491D01*
Y-2920509D01*
X837146Y-2952403D01*
X853655Y-2980997D01*
X877003Y-3004345D01*
X905597Y-3020854D01*
X937491Y-3029400D01*
X970509D01*
X1002402Y-3020854D01*
X1030997Y-3004345D01*
X1054345Y-2980997D01*
X1070854Y-2952403D01*
X1079400Y-2920509D01*
Y-2887491D01*
X1070854Y-2855598D01*
X1054345Y-2827003D01*
X1030997Y-2803655D01*
X1002402Y-2787146D01*
X970509Y-2778600D01*
D02*
G37*
G36*
X462509D02*
X429491D01*
X397597Y-2787146D01*
X369003Y-2803655D01*
X345655Y-2827003D01*
X329146Y-2855598D01*
X320600Y-2887491D01*
Y-2920509D01*
X329146Y-2952403D01*
X345655Y-2980997D01*
X369003Y-3004345D01*
X397597Y-3020854D01*
X429491Y-3029400D01*
X462509D01*
X494402Y-3020854D01*
X522997Y-3004345D01*
X546345Y-2980997D01*
X562854Y-2952403D01*
X571400Y-2920509D01*
Y-2887491D01*
X562854Y-2855598D01*
X546345Y-2827003D01*
X522997Y-2803655D01*
X494402Y-2787146D01*
X462509Y-2778600D01*
D02*
G37*
G36*
X1762509Y-2978600D02*
X1758700D01*
Y-3091300D01*
X1871400D01*
Y-3087491D01*
X1862854Y-3055597D01*
X1846345Y-3027003D01*
X1822997Y-3003655D01*
X1794402Y-2987146D01*
X1762509Y-2978600D01*
D02*
G37*
G36*
X1733300D02*
X1729491D01*
X1697597Y-2987146D01*
X1669003Y-3003655D01*
X1645655Y-3027003D01*
X1629146Y-3055597D01*
X1620600Y-3087491D01*
Y-3091300D01*
X1733300D01*
Y-2978600D01*
D02*
G37*
G36*
X15617509Y-2878600D02*
X15584491D01*
X15552597Y-2887146D01*
X15524002Y-2903655D01*
X15500655Y-2927003D01*
X15484146Y-2955598D01*
X15475600Y-2987491D01*
Y-3020509D01*
X15484146Y-3052403D01*
X15500655Y-3080997D01*
X15524002Y-3104345D01*
X15552597Y-3120854D01*
X15584491Y-3129400D01*
X15617509D01*
X15649402Y-3120854D01*
X15677997Y-3104345D01*
X15701344Y-3080997D01*
X15717854Y-3052403D01*
X15726401Y-3020509D01*
Y-2987491D01*
X15717854Y-2955598D01*
X15701344Y-2927003D01*
X15677997Y-2903655D01*
X15649402Y-2887146D01*
X15617509Y-2878600D01*
D02*
G37*
G36*
X15109509D02*
X15076491D01*
X15044597Y-2887146D01*
X15016002Y-2903655D01*
X14992654Y-2927003D01*
X14976146Y-2955598D01*
X14967599Y-2987491D01*
Y-3020509D01*
X14976146Y-3052403D01*
X14992654Y-3080997D01*
X15016002Y-3104345D01*
X15044597Y-3120854D01*
X15076491Y-3129400D01*
X15109509D01*
X15141402Y-3120854D01*
X15169997Y-3104345D01*
X15193346Y-3080997D01*
X15209854Y-3052403D01*
X15218401Y-3020509D01*
Y-2987491D01*
X15209854Y-2955598D01*
X15193346Y-2927003D01*
X15169997Y-2903655D01*
X15141402Y-2887146D01*
X15109509Y-2878600D01*
D02*
G37*
G36*
X13667509D02*
X13634491D01*
X13602597Y-2887146D01*
X13574004Y-2903655D01*
X13550655Y-2927003D01*
X13534146Y-2955598D01*
X13525600Y-2987491D01*
Y-3020509D01*
X13534146Y-3052403D01*
X13550655Y-3080997D01*
X13574004Y-3104345D01*
X13602597Y-3120854D01*
X13634491Y-3129400D01*
X13667509D01*
X13699402Y-3120854D01*
X13727997Y-3104345D01*
X13751344Y-3080997D01*
X13767854Y-3052403D01*
X13776401Y-3020509D01*
Y-2987491D01*
X13767854Y-2955598D01*
X13751344Y-2927003D01*
X13727997Y-2903655D01*
X13699402Y-2887146D01*
X13667509Y-2878600D01*
D02*
G37*
G36*
X13159509D02*
X13126491D01*
X13094597Y-2887146D01*
X13066003Y-2903655D01*
X13042654Y-2927003D01*
X13026146Y-2955598D01*
X13017599Y-2987491D01*
Y-3020509D01*
X13026146Y-3052403D01*
X13042654Y-3080997D01*
X13066003Y-3104345D01*
X13094597Y-3120854D01*
X13126491Y-3129400D01*
X13159509D01*
X13191402Y-3120854D01*
X13219997Y-3104345D01*
X13243346Y-3080997D01*
X13259854Y-3052403D01*
X13268401Y-3020509D01*
Y-2987491D01*
X13259854Y-2955598D01*
X13243346Y-2927003D01*
X13219997Y-2903655D01*
X13191402Y-2887146D01*
X13159509Y-2878600D01*
D02*
G37*
G36*
X2270509Y-2978600D02*
X2237491D01*
X2205597Y-2987146D01*
X2177003Y-3003655D01*
X2153655Y-3027003D01*
X2137146Y-3055597D01*
X2128600Y-3087491D01*
Y-3120509D01*
X2137146Y-3152402D01*
X2153655Y-3180997D01*
X2177003Y-3204345D01*
X2205597Y-3220854D01*
X2237491Y-3229400D01*
X2270509D01*
X2302402Y-3220854D01*
X2330997Y-3204345D01*
X2354345Y-3180997D01*
X2370854Y-3152402D01*
X2379400Y-3120509D01*
Y-3087491D01*
X2370854Y-3055597D01*
X2354345Y-3027003D01*
X2330997Y-3003655D01*
X2302402Y-2987146D01*
X2270509Y-2978600D01*
D02*
G37*
G36*
X1871400Y-3116700D02*
X1758700D01*
Y-3229400D01*
X1762509D01*
X1794402Y-3220854D01*
X1822997Y-3204345D01*
X1846345Y-3180997D01*
X1862854Y-3152402D01*
X1871400Y-3120509D01*
Y-3116700D01*
D02*
G37*
G36*
X1733300D02*
X1620600D01*
Y-3120509D01*
X1629146Y-3152402D01*
X1645655Y-3180997D01*
X1669003Y-3204345D01*
X1697597Y-3220854D01*
X1729491Y-3229400D01*
X1733300D01*
Y-3116700D01*
D02*
G37*
G36*
X4737259Y-2224600D02*
X4704240D01*
X4672347Y-2233146D01*
X4643752Y-2249655D01*
X4620405Y-2273003D01*
X4603895Y-2301598D01*
X4595349Y-2333491D01*
Y-2366509D01*
X4603895Y-2398403D01*
X4620405Y-2426997D01*
X4643752Y-2450345D01*
X4672347Y-2466854D01*
X4685677Y-2470426D01*
Y-2483574D01*
X4672347Y-2487146D01*
X4643752Y-2503655D01*
X4620405Y-2527003D01*
X4603895Y-2555598D01*
X4595349Y-2587491D01*
Y-2620509D01*
X4603895Y-2652403D01*
X4620405Y-2680997D01*
X4643752Y-2704345D01*
X4672347Y-2720854D01*
X4685677Y-2724426D01*
Y-2737574D01*
X4672347Y-2741146D01*
X4643752Y-2757655D01*
X4620405Y-2781003D01*
X4603895Y-2809598D01*
X4595349Y-2841491D01*
Y-2874509D01*
X4603895Y-2906403D01*
X4620405Y-2934997D01*
X4643752Y-2958345D01*
X4672347Y-2974854D01*
X4685677Y-2978426D01*
Y-2991574D01*
X4672347Y-2995146D01*
X4643752Y-3011655D01*
X4620405Y-3035003D01*
X4603895Y-3063598D01*
X4595349Y-3095491D01*
Y-3128509D01*
X4603895Y-3160403D01*
X4620405Y-3188997D01*
X4643752Y-3212345D01*
X4672347Y-3228854D01*
X4704240Y-3237400D01*
X4737259D01*
X4769152Y-3228854D01*
X4797747Y-3212345D01*
X4821094Y-3188997D01*
X4837604Y-3160403D01*
X4846150Y-3128509D01*
Y-3095491D01*
X4837604Y-3063598D01*
X4821094Y-3035003D01*
X4797747Y-3011655D01*
X4769152Y-2995146D01*
X4755822Y-2991574D01*
Y-2978426D01*
X4769152Y-2974854D01*
X4797747Y-2958345D01*
X4821094Y-2934997D01*
X4837604Y-2906403D01*
X4846150Y-2874509D01*
Y-2841491D01*
X4837604Y-2809598D01*
X4821094Y-2781003D01*
X4797747Y-2757655D01*
X4769152Y-2741146D01*
X4755822Y-2737574D01*
Y-2724426D01*
X4769152Y-2720854D01*
X4797747Y-2704345D01*
X4821094Y-2680997D01*
X4837604Y-2652403D01*
X4846150Y-2620509D01*
Y-2587491D01*
X4837604Y-2555598D01*
X4821094Y-2527003D01*
X4797747Y-2503655D01*
X4769152Y-2487146D01*
X4755822Y-2483574D01*
Y-2470426D01*
X4769152Y-2466854D01*
X4797747Y-2450345D01*
X4821094Y-2426997D01*
X4837604Y-2398403D01*
X4846150Y-2366509D01*
Y-2333491D01*
X4837604Y-2301598D01*
X4821094Y-2273003D01*
X4797747Y-2249655D01*
X4769152Y-2233146D01*
X4737259Y-2224600D01*
D02*
G37*
G36*
X16259509Y-3253600D02*
X16255701D01*
Y-3366300D01*
X16368401D01*
Y-3362491D01*
X16359854Y-3330598D01*
X16343346Y-3302003D01*
X16319997Y-3278655D01*
X16291402Y-3262146D01*
X16259509Y-3253600D01*
D02*
G37*
G36*
X16230301D02*
X16226491D01*
X16194597Y-3262146D01*
X16166002Y-3278655D01*
X16142654Y-3302003D01*
X16126146Y-3330598D01*
X16117599Y-3362491D01*
Y-3366300D01*
X16230301D01*
Y-3253600D01*
D02*
G37*
G36*
X16368401Y-3391700D02*
X16255701D01*
Y-3504400D01*
X16259509D01*
X16291402Y-3495854D01*
X16319997Y-3479345D01*
X16343346Y-3455997D01*
X16359854Y-3427403D01*
X16368401Y-3395509D01*
Y-3391700D01*
D02*
G37*
G36*
X16230301D02*
X16117599D01*
Y-3395509D01*
X16126146Y-3427403D01*
X16142654Y-3455997D01*
X16166002Y-3479345D01*
X16194597Y-3495854D01*
X16226491Y-3504400D01*
X16230301D01*
Y-3391700D01*
D02*
G37*
G36*
X1762509Y-3928600D02*
X1758700D01*
Y-4041300D01*
X1871400D01*
Y-4037491D01*
X1862854Y-4005598D01*
X1846345Y-3977003D01*
X1822997Y-3953655D01*
X1794402Y-3937146D01*
X1762509Y-3928600D01*
D02*
G37*
G36*
X1733300D02*
X1729491D01*
X1697597Y-3937146D01*
X1669003Y-3953655D01*
X1645655Y-3977003D01*
X1629146Y-4005598D01*
X1620600Y-4037491D01*
Y-4041300D01*
X1733300D01*
Y-3928600D01*
D02*
G37*
G36*
X2270509D02*
X2237491D01*
X2205597Y-3937146D01*
X2177003Y-3953655D01*
X2153655Y-3977003D01*
X2137146Y-4005598D01*
X2128600Y-4037491D01*
Y-4070509D01*
X2137146Y-4102403D01*
X2153655Y-4130997D01*
X2177003Y-4154345D01*
X2205597Y-4170854D01*
X2237491Y-4179400D01*
X2270509D01*
X2302402Y-4170854D01*
X2330997Y-4154345D01*
X2354345Y-4130997D01*
X2370854Y-4102403D01*
X2379400Y-4070509D01*
Y-4037491D01*
X2370854Y-4005598D01*
X2354345Y-3977003D01*
X2330997Y-3953655D01*
X2302402Y-3937146D01*
X2270509Y-3928600D01*
D02*
G37*
G36*
X1871400Y-4066700D02*
X1758700D01*
Y-4179400D01*
X1762509D01*
X1794402Y-4170854D01*
X1822997Y-4154345D01*
X1846345Y-4130997D01*
X1862854Y-4102403D01*
X1871400Y-4070509D01*
Y-4066700D01*
D02*
G37*
G36*
X1733300D02*
X1620600D01*
Y-4070509D01*
X1629146Y-4102403D01*
X1645655Y-4130997D01*
X1669003Y-4154345D01*
X1697597Y-4170854D01*
X1729491Y-4179400D01*
X1733300D01*
Y-4066700D01*
D02*
G37*
G36*
X3062509Y-4078600D02*
X3058700D01*
Y-4191300D01*
X3171400D01*
Y-4187491D01*
X3162854Y-4155597D01*
X3146345Y-4127003D01*
X3122997Y-4103655D01*
X3094402Y-4087146D01*
X3062509Y-4078600D01*
D02*
G37*
G36*
X3033300D02*
X3029491D01*
X2997598Y-4087146D01*
X2969003Y-4103655D01*
X2945655Y-4127003D01*
X2929146Y-4155597D01*
X2920600Y-4187491D01*
Y-4191300D01*
X3033300D01*
Y-4078600D01*
D02*
G37*
G36*
X14947900Y-2344600D02*
X14697099D01*
Y-2595400D01*
X14708649D01*
X14713509Y-2607133D01*
X14329071Y-2991571D01*
X14319589Y-3005761D01*
X14316260Y-3022500D01*
Y-3914000D01*
X14319589Y-3930739D01*
X14329071Y-3944929D01*
X14511827Y-4127685D01*
X14510146Y-4130598D01*
X14501601Y-4162491D01*
Y-4195509D01*
X14510146Y-4227403D01*
X14526656Y-4255997D01*
X14550003Y-4279345D01*
X14578596Y-4295854D01*
X14610490Y-4304400D01*
X14643509D01*
X14675401Y-4295854D01*
X14703996Y-4279345D01*
X14727345Y-4255997D01*
X14743854Y-4227403D01*
X14752400Y-4195509D01*
Y-4162491D01*
X14743854Y-4130598D01*
X14727345Y-4102003D01*
X14703996Y-4078655D01*
X14675401Y-4062146D01*
X14643509Y-4053600D01*
X14610490D01*
X14578596Y-4062146D01*
X14573149Y-4065291D01*
X14403740Y-3895882D01*
Y-3040618D01*
X14848958Y-2595400D01*
X14947900D01*
Y-2344600D01*
D02*
G37*
G36*
X3570509Y-4078600D02*
X3537491D01*
X3505598Y-4087146D01*
X3477003Y-4103655D01*
X3453655Y-4127003D01*
X3437146Y-4155597D01*
X3428600Y-4187491D01*
Y-4220509D01*
X3437146Y-4252402D01*
X3453655Y-4280997D01*
X3477003Y-4304345D01*
X3505598Y-4320854D01*
X3537491Y-4329400D01*
X3570509D01*
X3602402Y-4320854D01*
X3630997Y-4304345D01*
X3654345Y-4280997D01*
X3670854Y-4252402D01*
X3679400Y-4220509D01*
Y-4187491D01*
X3670854Y-4155597D01*
X3654345Y-4127003D01*
X3630997Y-4103655D01*
X3602402Y-4087146D01*
X3570509Y-4078600D01*
D02*
G37*
G36*
X3171400Y-4216700D02*
X3058700D01*
Y-4329400D01*
X3062509D01*
X3094402Y-4320854D01*
X3122997Y-4304345D01*
X3146345Y-4280997D01*
X3162854Y-4252402D01*
X3171400Y-4220509D01*
Y-4216700D01*
D02*
G37*
G36*
X3033300D02*
X2920600D01*
Y-4220509D01*
X2929146Y-4252402D01*
X2945655Y-4280997D01*
X2969003Y-4304345D01*
X2997598Y-4320854D01*
X3029491Y-4329400D01*
X3033300D01*
Y-4216700D01*
D02*
G37*
G36*
X462509Y-4078600D02*
X429491D01*
X397597Y-4087146D01*
X369003Y-4103655D01*
X345655Y-4127003D01*
X329146Y-4155597D01*
X320600Y-4187491D01*
Y-4220509D01*
X329146Y-4252402D01*
X345655Y-4280997D01*
X369003Y-4304345D01*
X397597Y-4320854D01*
X429491Y-4329400D01*
X462509D01*
X494402Y-4320854D01*
X522997Y-4304345D01*
X546345Y-4280997D01*
X562854Y-4252402D01*
X571400Y-4220509D01*
Y-4187491D01*
X562854Y-4155597D01*
X546345Y-4127003D01*
X522997Y-4103655D01*
X494402Y-4087146D01*
X462509Y-4078600D01*
D02*
G37*
G36*
X15109509Y-4178600D02*
X15076491D01*
X15044597Y-4187146D01*
X15016002Y-4203655D01*
X14992654Y-4227003D01*
X14976146Y-4255598D01*
X14967599Y-4287491D01*
Y-4320509D01*
X14976146Y-4352403D01*
X14992654Y-4380997D01*
X15016002Y-4404345D01*
X15044597Y-4420854D01*
X15076491Y-4429400D01*
X15109509D01*
X15141402Y-4420854D01*
X15169997Y-4404345D01*
X15193346Y-4380997D01*
X15209854Y-4352403D01*
X15218401Y-4320509D01*
Y-4287491D01*
X15209854Y-4255598D01*
X15193346Y-4227003D01*
X15169997Y-4203655D01*
X15141402Y-4187146D01*
X15109509Y-4178600D01*
D02*
G37*
G36*
X13159509D02*
X13126491D01*
X13094597Y-4187146D01*
X13066003Y-4203655D01*
X13042654Y-4227003D01*
X13026146Y-4255598D01*
X13017599Y-4287491D01*
Y-4320509D01*
X13026146Y-4352403D01*
X13042654Y-4380997D01*
X13066003Y-4404345D01*
X13094597Y-4420854D01*
X13126491Y-4429400D01*
X13159509D01*
X13191402Y-4420854D01*
X13219997Y-4404345D01*
X13243346Y-4380997D01*
X13259854Y-4352403D01*
X13268401Y-4320509D01*
Y-4287491D01*
X13259854Y-4255598D01*
X13243346Y-4227003D01*
X13219997Y-4203655D01*
X13191402Y-4187146D01*
X13159509Y-4178600D01*
D02*
G37*
G36*
X13802901Y-2344600D02*
X13552100D01*
Y-2595400D01*
X13581796D01*
X13589262Y-2604497D01*
Y-2673879D01*
X13369070Y-2894071D01*
X13359589Y-2908261D01*
X13356261Y-2925000D01*
Y-3411882D01*
X12919070Y-3849071D01*
X12909589Y-3863261D01*
X12906261Y-3880000D01*
Y-4381882D01*
X12731882Y-4556260D01*
X12343118D01*
X12205929Y-4419071D01*
X12191739Y-4409589D01*
X12175000Y-4406260D01*
X10418358Y-4406260D01*
X10413337Y-4397563D01*
X10397437Y-4381663D01*
X10377963Y-4370420D01*
X10356243Y-4364600D01*
X10333757D01*
X10312037Y-4370420D01*
X10292564Y-4381663D01*
X10276663Y-4397563D01*
X10265420Y-4417037D01*
X10259601Y-4438757D01*
Y-4461243D01*
X10265420Y-4482963D01*
X10276663Y-4502437D01*
X10292564Y-4518337D01*
X10312037Y-4529580D01*
X10333757Y-4535400D01*
X10356243D01*
X10377963Y-4529580D01*
X10397437Y-4518337D01*
X10413337Y-4502437D01*
X10418358Y-4493741D01*
X12156882Y-4493740D01*
X12294071Y-4630929D01*
X12308261Y-4640411D01*
X12325000Y-4643740D01*
X12750000D01*
X12766739Y-4640411D01*
X12780929Y-4630929D01*
X12980930Y-4430929D01*
X12990411Y-4416739D01*
X12993739Y-4400000D01*
Y-3898118D01*
X13430930Y-3460929D01*
X13440411Y-3446739D01*
X13443739Y-3430000D01*
Y-2943118D01*
X13663931Y-2722926D01*
X13673415Y-2708736D01*
X13676743Y-2691997D01*
Y-2622615D01*
X13703958Y-2595400D01*
X13802901D01*
Y-2344600D01*
D02*
G37*
G36*
X16274623Y-4774102D02*
X16225377D01*
X16222874Y-4774600D01*
X16220325D01*
X16172025Y-4784208D01*
X16169669Y-4785184D01*
X16167168Y-4785681D01*
X16121671Y-4804527D01*
X16119550Y-4805944D01*
X16117192Y-4806920D01*
X16076247Y-4834279D01*
X16074442Y-4836083D01*
X16072321Y-4837500D01*
X16037500Y-4872322D01*
X16036082Y-4874443D01*
X16034279Y-4876246D01*
X16006918Y-4917193D01*
X16005943Y-4919549D01*
X16004526Y-4921670D01*
X15985681Y-4967167D01*
X15985184Y-4969669D01*
X15984207Y-4972026D01*
X15974600Y-5020325D01*
Y-5022876D01*
X15974101Y-5025377D01*
Y-5074623D01*
X15974600Y-5077125D01*
Y-5079675D01*
X15984207Y-5127975D01*
X15985184Y-5130331D01*
X15985681Y-5132833D01*
X16004526Y-5178330D01*
X16005943Y-5180451D01*
X16006918Y-5182808D01*
X16034279Y-5223754D01*
X16036082Y-5225557D01*
X16037500Y-5227678D01*
X16072321Y-5262500D01*
X16074442Y-5263917D01*
X16076247Y-5265721D01*
X16117192Y-5293080D01*
X16119550Y-5294056D01*
X16121671Y-5295474D01*
X16167168Y-5314319D01*
X16169669Y-5314817D01*
X16172025Y-5315793D01*
X16220325Y-5325400D01*
X16222874D01*
X16225377Y-5325898D01*
X16274623D01*
X16277124Y-5325400D01*
X16279675D01*
X16327974Y-5315793D01*
X16330331Y-5314817D01*
X16332832Y-5314319D01*
X16378329Y-5295474D01*
X16380450Y-5294056D01*
X16382806Y-5293080D01*
X16423753Y-5265721D01*
X16425557Y-5263917D01*
X16427678Y-5262500D01*
X16462500Y-5227678D01*
X16463918Y-5225558D01*
X16465720Y-5223754D01*
X16493080Y-5182808D01*
X16494057Y-5180451D01*
X16495473Y-5178330D01*
X16514319Y-5132833D01*
X16514816Y-5130332D01*
X16515791Y-5127975D01*
X16525400Y-5079676D01*
Y-5077125D01*
X16525897Y-5074623D01*
Y-5025377D01*
X16525400Y-5022876D01*
Y-5020325D01*
X16515791Y-4972025D01*
X16514816Y-4969669D01*
X16514319Y-4967167D01*
X16495473Y-4921670D01*
X16494057Y-4919549D01*
X16493080Y-4917193D01*
X16465720Y-4876247D01*
X16463918Y-4874443D01*
X16462500Y-4872322D01*
X16427678Y-4837500D01*
X16425557Y-4836083D01*
X16423753Y-4834279D01*
X16382806Y-4806920D01*
X16380450Y-4805944D01*
X16378329Y-4804527D01*
X16332832Y-4785681D01*
X16330331Y-4785184D01*
X16327974Y-4784208D01*
X16279675Y-4774600D01*
X16277124D01*
X16274623Y-4774102D01*
D02*
G37*
G36*
X474623D02*
X425377D01*
X422875Y-4774600D01*
X420325D01*
X372025Y-4784208D01*
X369668Y-4785184D01*
X367167Y-4785681D01*
X321670Y-4804527D01*
X319549Y-4805944D01*
X317192Y-4806920D01*
X276246Y-4834279D01*
X274442Y-4836083D01*
X272322Y-4837500D01*
X237500Y-4872322D01*
X236083Y-4874443D01*
X234279Y-4876246D01*
X206920Y-4917193D01*
X205943Y-4919549D01*
X204526Y-4921670D01*
X185681Y-4967167D01*
X185183Y-4969669D01*
X184207Y-4972026D01*
X174600Y-5020325D01*
Y-5022876D01*
X174102Y-5025377D01*
Y-5074623D01*
X174600Y-5077125D01*
Y-5079675D01*
X184207Y-5127975D01*
X185183Y-5130331D01*
X185681Y-5132833D01*
X204526Y-5178330D01*
X205943Y-5180451D01*
X206920Y-5182808D01*
X234279Y-5223754D01*
X236083Y-5225557D01*
X237500Y-5227678D01*
X272322Y-5262500D01*
X274442Y-5263917D01*
X276246Y-5265721D01*
X317192Y-5293080D01*
X319549Y-5294056D01*
X321670Y-5295474D01*
X367167Y-5314319D01*
X369669Y-5314817D01*
X372025Y-5315793D01*
X420325Y-5325400D01*
X422875D01*
X425377Y-5325898D01*
X474623D01*
X477124Y-5325400D01*
X479675D01*
X527974Y-5315793D01*
X530331Y-5314817D01*
X532833Y-5314319D01*
X578330Y-5295474D01*
X580451Y-5294056D01*
X582807Y-5293080D01*
X623753Y-5265721D01*
X625557Y-5263917D01*
X627678Y-5262500D01*
X662500Y-5227678D01*
X663917Y-5225558D01*
X665721Y-5223754D01*
X693080Y-5182808D01*
X694056Y-5180451D01*
X695473Y-5178330D01*
X714319Y-5132833D01*
X714816Y-5130332D01*
X715792Y-5127975D01*
X725400Y-5079676D01*
Y-5077125D01*
X725897Y-5074623D01*
Y-5025377D01*
X725400Y-5022876D01*
Y-5020325D01*
X715792Y-4972025D01*
X714816Y-4969669D01*
X714319Y-4967167D01*
X695473Y-4921670D01*
X694056Y-4919549D01*
X693080Y-4917193D01*
X665721Y-4876247D01*
X663917Y-4874443D01*
X662500Y-4872322D01*
X627678Y-4837500D01*
X625557Y-4836083D01*
X623754Y-4834279D01*
X582807Y-4806920D01*
X580451Y-4805944D01*
X578330Y-4804527D01*
X532833Y-4785681D01*
X530331Y-4785184D01*
X527975Y-4784208D01*
X479675Y-4774600D01*
X477124D01*
X474623Y-4774102D01*
D02*
G37*
G36*
X1762509Y-5228600D02*
X1758700D01*
Y-5341300D01*
X1871400D01*
Y-5337491D01*
X1862854Y-5305597D01*
X1846345Y-5277003D01*
X1822997Y-5253655D01*
X1794402Y-5237146D01*
X1762509Y-5228600D01*
D02*
G37*
G36*
X1733300D02*
X1729491D01*
X1697597Y-5237146D01*
X1669003Y-5253655D01*
X1645655Y-5277003D01*
X1629146Y-5305597D01*
X1620600Y-5337491D01*
Y-5341300D01*
X1733300D01*
Y-5228600D01*
D02*
G37*
G36*
X9225009Y-1304600D02*
X9191991D01*
X9160098Y-1313146D01*
X9131503Y-1329655D01*
X9108155Y-1353003D01*
X9091646Y-1381597D01*
X9088074Y-1394927D01*
X9074926D01*
X9071354Y-1381597D01*
X9054845Y-1353003D01*
X9031497Y-1329655D01*
X9002902Y-1313146D01*
X8971009Y-1304600D01*
X8967201D01*
Y-1430001D01*
Y-1555400D01*
X8971009D01*
X9002902Y-1546854D01*
X9031497Y-1530345D01*
X9054845Y-1506997D01*
X9071354Y-1478402D01*
X9074926Y-1465073D01*
X9088074D01*
X9091646Y-1478402D01*
X9108155Y-1506997D01*
X9131503Y-1530345D01*
X9160098Y-1546854D01*
X9191991Y-1555400D01*
X9225009D01*
X9256902Y-1546854D01*
X9285497Y-1530345D01*
X9308845Y-1506997D01*
X9325354Y-1478402D01*
X9333900Y-1446509D01*
Y-1413491D01*
X9325354Y-1381597D01*
X9308845Y-1353003D01*
X9285497Y-1329655D01*
X9256902Y-1313146D01*
X9225009Y-1304600D01*
D02*
G37*
G36*
X10887301Y-1824600D02*
X10883491D01*
X10851598Y-1833146D01*
X10823003Y-1849655D01*
X10799655Y-1873003D01*
X10783146Y-1901597D01*
X10774600Y-1933491D01*
Y-1937300D01*
X10887301D01*
Y-1824600D01*
D02*
G37*
G36*
X12286300Y-3384600D02*
X12282491D01*
X12250598Y-3393146D01*
X12222003Y-3409655D01*
X12198655Y-3433003D01*
X12182146Y-3461597D01*
X12178574Y-3474927D01*
X12165426D01*
X12161854Y-3461597D01*
X12145345Y-3433003D01*
X12121997Y-3409655D01*
X12093403Y-3393146D01*
X12061509Y-3384600D01*
X12028491D01*
X11996598Y-3393146D01*
X11968003Y-3409655D01*
X11944655Y-3433003D01*
X11928146Y-3461597D01*
X11919600Y-3493491D01*
Y-3526509D01*
X11928146Y-3558402D01*
X11944655Y-3586997D01*
X11968003Y-3610345D01*
X11996598Y-3626854D01*
X12028491Y-3635400D01*
X12061509D01*
X12093403Y-3626854D01*
X12121997Y-3610345D01*
X12145345Y-3586997D01*
X12161854Y-3558402D01*
X12165426Y-3545073D01*
X12178574D01*
X12182146Y-3558402D01*
X12198655Y-3586997D01*
X12222003Y-3610345D01*
X12250598Y-3626854D01*
X12282491Y-3635400D01*
X12286300D01*
Y-3510000D01*
Y-3384600D01*
D02*
G37*
G36*
X11248300D02*
X11244491D01*
X11212598Y-3393146D01*
X11184003Y-3409655D01*
X11160655Y-3433003D01*
X11144146Y-3461597D01*
X11140574Y-3474927D01*
X11127426D01*
X11123854Y-3461597D01*
X11107345Y-3433003D01*
X11083997Y-3409655D01*
X11055403Y-3393146D01*
X11023509Y-3384600D01*
X11019700D01*
Y-3509999D01*
Y-3635400D01*
X11023509D01*
X11055403Y-3626854D01*
X11083997Y-3610345D01*
X11107345Y-3586997D01*
X11123854Y-3558402D01*
X11127426Y-3545073D01*
X11140574D01*
X11144146Y-3558402D01*
X11160655Y-3586997D01*
X11184003Y-3610345D01*
X11212598Y-3626854D01*
X11244491Y-3635400D01*
X11248300D01*
Y-3509999D01*
Y-3384600D01*
D02*
G37*
G36*
X10994300D02*
X10990491D01*
X10958598Y-3393146D01*
X10930003Y-3409655D01*
X10906655Y-3433003D01*
X10890146Y-3461597D01*
X10886574Y-3474927D01*
X10873426D01*
X10869854Y-3461597D01*
X10853345Y-3433003D01*
X10829997Y-3409655D01*
X10801403Y-3393146D01*
X10769509Y-3384600D01*
X10736491D01*
X10704598Y-3393146D01*
X10676003Y-3409655D01*
X10652655Y-3433003D01*
X10636146Y-3461597D01*
X10627600Y-3493491D01*
Y-3526509D01*
X10636146Y-3558402D01*
X10652655Y-3586997D01*
X10676003Y-3610345D01*
X10704598Y-3626854D01*
X10736491Y-3635400D01*
X10769509D01*
X10801403Y-3626854D01*
X10829997Y-3610345D01*
X10853345Y-3586997D01*
X10869854Y-3558402D01*
X10873426Y-3545073D01*
X10886574D01*
X10890146Y-3558402D01*
X10906655Y-3586997D01*
X10930003Y-3610345D01*
X10958598Y-3626854D01*
X10990491Y-3635400D01*
X10994300D01*
Y-3509999D01*
Y-3384600D01*
D02*
G37*
G36*
X11277509D02*
X11273700D01*
Y-3497299D01*
X11386400D01*
Y-3493491D01*
X11377854Y-3461597D01*
X11361345Y-3433003D01*
X11337997Y-3409655D01*
X11309403Y-3393146D01*
X11277509Y-3384600D01*
D02*
G37*
G36*
X12315509D02*
X12311700D01*
Y-3497300D01*
X12424400D01*
Y-3493491D01*
X12415854Y-3461597D01*
X12399345Y-3433003D01*
X12375997Y-3409655D01*
X12347403Y-3393146D01*
X12315509Y-3384600D01*
D02*
G37*
G36*
X12424400Y-3522700D02*
X12311700D01*
Y-3635400D01*
X12315509D01*
X12347403Y-3626854D01*
X12375997Y-3610345D01*
X12399345Y-3586997D01*
X12415854Y-3558402D01*
X12424400Y-3526509D01*
Y-3522700D01*
D02*
G37*
G36*
X11386400Y-3522699D02*
X11273700D01*
Y-3635400D01*
X11277509D01*
X11309403Y-3626854D01*
X11337997Y-3610345D01*
X11361345Y-3586997D01*
X11377854Y-3558402D01*
X11386400Y-3526509D01*
Y-3522699D01*
D02*
G37*
G36*
X9333900Y-3844600D02*
X9083100D01*
Y-3911182D01*
X9080945Y-3912809D01*
X9064333Y-3909436D01*
X9054845Y-3893003D01*
X9031497Y-3869655D01*
X9002902Y-3853146D01*
X8971009Y-3844600D01*
X8967201D01*
Y-3970001D01*
Y-4095400D01*
X8971009D01*
X9002902Y-4086854D01*
X9031497Y-4070345D01*
X9054845Y-4046997D01*
X9064333Y-4030564D01*
X9080945Y-4027191D01*
X9083100Y-4028818D01*
Y-4095400D01*
X9333900D01*
Y-3993740D01*
X11565393D01*
X11568618Y-3996966D01*
X11588980Y-4005400D01*
X11611020D01*
X11631381Y-3996966D01*
X11646966Y-3981381D01*
X11655400Y-3961020D01*
Y-3938980D01*
X11646966Y-3918619D01*
X11631381Y-3903034D01*
X11611020Y-3894600D01*
X11588980D01*
X11568618Y-3903034D01*
X11565393Y-3906260D01*
X9333900D01*
Y-3844600D01*
D02*
G37*
%LPD*%
D10*
X15925000Y-2525000D02*
X16202145Y-2247855D01*
X15925000Y-3861000D02*
Y-2525000D01*
Y-3861000D02*
X16242999Y-4179000D01*
X16202145Y-2247855D02*
X16306145D01*
X16325000Y-2229000D01*
X14280000Y-2470000D02*
X14522501D01*
X13900000Y-2850000D02*
X14280000Y-2470000D01*
X13400000Y-2300000D02*
X13500000Y-2200000D01*
X13400000Y-2447500D02*
Y-2300000D01*
X13377499Y-2470000D02*
X13400000Y-2447500D01*
X12790000Y-2530000D02*
X13345000Y-1975000D01*
X16325000D01*
X14950000Y-2200000D02*
X15039999Y-2290000D01*
X13500000Y-2200000D02*
X14950000D01*
X15039999Y-2710000D02*
Y-2290000D01*
X13633003Y-2604497D02*
X13677499Y-2560000D01*
X13400000Y-3430000D02*
Y-2925000D01*
X13633003Y-2691997D02*
Y-2604497D01*
X13400000Y-2925000D02*
X13633003Y-2691997D01*
X13900000Y-3650000D02*
Y-2850000D01*
X14360001Y-3022500D02*
X14822501Y-2560000D01*
X12170000Y-2340000D02*
X12200000Y-2370000D01*
X12170000Y-2340000D02*
Y-1950000D01*
X9228500Y-3950000D02*
X11600000D01*
X9208500Y-3970000D02*
X9228500Y-3950000D01*
X12127392Y-2512608D02*
X12234999Y-2405000D01*
X12250000Y-2420000D01*
X12220000Y-2390000D02*
X12234999Y-2405000D01*
X12127392Y-2512608D02*
Y-2512608D01*
X12040000Y-2600000D02*
X12127392Y-2512608D01*
X10345000Y-4450000D02*
X12175000Y-4450000D01*
X12325000Y-4600000D01*
X12750000D01*
X12950000Y-4400000D01*
X10345000Y-4650000D02*
X10445000Y-4750000D01*
X13060001D02*
X13400000Y-4410000D01*
X10445000Y-4750000D02*
X13060001D01*
X12610000Y-4382000D02*
Y-4365000D01*
X12200000Y-2370000D02*
X12220000Y-2390000D01*
X12434000Y-2604000D02*
X12583251D01*
X12716000D01*
X12250000Y-2420000D02*
X12434000Y-2604000D01*
X12716000D02*
X12790000Y-2530000D01*
Y-4185000D02*
Y-2530000D01*
X12610000Y-4365000D02*
X12790000Y-4185000D01*
X13400000Y-4410000D02*
Y-4150000D01*
X13900000Y-3650000D01*
X12950000Y-4400000D02*
Y-3880000D01*
X13400000Y-3430000D01*
X14360001Y-3914000D02*
X14625000Y-4179000D01*
X14360001Y-3914000D02*
Y-3022500D01*
X14625000Y-3125000D02*
X15039999Y-2710000D01*
X14625000Y-3379000D02*
Y-3125000D01*
X10406000Y-5356000D02*
X10753000D01*
X10350000Y-5300000D02*
X10406000Y-5356000D01*
D11*
X3998000Y-625000D02*
X6850000D01*
X3554000Y-181000D02*
X3998000Y-625000D01*
X6850000D02*
X7430500Y-1205500D01*
X7143523Y-1397023D02*
Y-1218523D01*
X3251499Y-850000D02*
X6775000D01*
X7143523Y-1218523D01*
Y-1397023D02*
X7176500Y-1430000D01*
X7430500D02*
Y-1205500D01*
X2254000Y-1847500D02*
X3251499Y-850000D01*
X3554000Y-2947500D02*
X5476500Y-1025000D01*
X6517500D01*
X6922500Y-1430000D01*
X11662000Y-1950000D02*
Y-1587000D01*
X9150000Y-850000D02*
X10925000D01*
X11662000Y-1587000D01*
X10750000Y-2125000D02*
X11350000D01*
X10450000Y-1825000D02*
X10750000Y-2125000D01*
X11350000D02*
X11402145Y-2072855D01*
Y-1955855D01*
X11408000Y-1950000D01*
X11152145Y-1948145D02*
X11154000Y-1950000D01*
X10875000Y-1550000D02*
X11152145Y-1827145D01*
X9525000Y-1550000D02*
X10875000D01*
X11152145Y-1948145D02*
Y-1827145D01*
X12376000Y-3874000D02*
X12583251D01*
X8300000Y-4200000D02*
X12050000D01*
X12376000Y-3874000D01*
X7176500Y-3773500D02*
X8200000Y-2750000D01*
X7176500Y-3970000D02*
Y-3773500D01*
X8200000Y-2750000D02*
X12300000D01*
X6668500Y-4131500D02*
Y-3970000D01*
X2633000Y-4975000D02*
X5825000D01*
X6668500Y-4131500D01*
X7430500Y-4130500D02*
X8252500Y-4952500D01*
X7430500Y-4130500D02*
Y-3970000D01*
X8252500Y-4952500D02*
X13247501D01*
X7990000Y-5190000D02*
X14714999D01*
X6922500Y-4122500D02*
Y-3970000D01*
Y-4122500D02*
X7990000Y-5190000D01*
X2304000Y-5304000D02*
X2633000Y-4975000D01*
X5550000Y-4200000D02*
X5850000D01*
X5906500Y-4143500D01*
X5100000Y-3750000D02*
X5550000Y-4200000D01*
X5906500Y-4143500D02*
Y-3970000D01*
X1358000Y-3750000D02*
X5100000D01*
X8446500Y-3703500D02*
X8820000Y-3330000D01*
X12539526D01*
X8446500Y-3970000D02*
Y-3703500D01*
X12539526Y-3330000D02*
X12575526Y-3366000D01*
X12610000D01*
X12300000Y-2750000D02*
X12408000Y-2858000D01*
X12610000D01*
X8192855Y-4092855D02*
Y-3970355D01*
X8192500Y-3970000D02*
X8192855Y-3970355D01*
Y-4092855D02*
X8300000Y-4200000D01*
X12977000Y-400000D02*
X13146001Y-231000D01*
X7938500Y-1111500D02*
X8650000Y-400000D01*
X7938500Y-1448214D02*
Y-1111500D01*
X8650000Y-400000D02*
X12977000D01*
X8700500Y-1299500D02*
X9150000Y-850000D01*
X8700500Y-1430000D02*
Y-1299500D01*
X8479985Y-1529984D02*
X8625000Y-1675000D01*
X9400000D01*
X8446500Y-1430000D02*
X8479985Y-1463484D01*
Y-1529984D02*
Y-1463484D01*
X8525000Y-1825000D02*
X10450000D01*
X8225985Y-1525985D02*
X8525000Y-1825000D01*
X8192500Y-1430000D02*
X8225985Y-1463484D01*
Y-1525985D02*
Y-1463484D01*
X9400000Y-1675000D02*
X9525000Y-1550000D01*
X13650999Y-4549000D02*
Y-4254000D01*
X13247501Y-4952500D02*
X13650999Y-4549000D01*
X14714999Y-5190000D02*
X15600999Y-4304000D01*
X954000Y-4154000D02*
X1358000Y-3750000D01*
X3604000Y-2947500D02*
X3638474D01*
D12*
X12583251Y-3620000D02*
X12610000D01*
X10100000Y-3550000D02*
X10300000Y-3750000D01*
X12445526D01*
X12575526Y-3620000D01*
X9600000Y-2900000D02*
X9812000Y-3112000D01*
X12575526D01*
X9510824Y-2500000D02*
X9600000Y-2589176D01*
X6900000Y-2500000D02*
X9510824D01*
X9600000Y-2600000D02*
Y-2589176D01*
X6522500Y-2300000D02*
X9800000D01*
X10100000Y-2600000D01*
Y-3550000D02*
Y-3500000D01*
X5652500Y-1430000D02*
X6522500Y-2300000D01*
X5652500Y-3747500D02*
X6900000Y-2500000D01*
X5652500Y-3970000D02*
Y-3747500D01*
X12575526Y-3620000D02*
X12583251D01*
D13*
X7925000Y-2000000D02*
X10150000D01*
X10750000Y-2600000D01*
X7684500Y-1759500D02*
X7925000Y-2000000D01*
X7684500Y-1759500D02*
Y-1430000D01*
D14*
X14822501Y-2470000D02*
D03*
X13677499D02*
D03*
X14522501D02*
D03*
X13377499Y-170000D02*
D03*
X14822501D02*
D03*
X13377499Y-2470000D02*
D03*
X9208500Y-3970000D02*
D03*
D15*
X16325000Y-2483000D02*
D03*
Y-2229000D02*
D03*
Y-1975000D02*
D03*
X12583251Y-1080000D02*
D03*
Y-1334000D02*
D03*
Y-1588000D02*
D03*
Y-1842000D02*
D03*
Y-2096000D02*
D03*
Y-2350000D02*
D03*
Y-2604000D02*
D03*
Y-2858000D02*
D03*
Y-3112000D02*
D03*
Y-3366000D02*
D03*
Y-3620000D02*
D03*
Y-3874000D02*
D03*
Y-4128000D02*
D03*
Y-4382000D02*
D03*
X4720750Y-2858000D02*
D03*
Y-2604000D02*
D03*
Y-2350000D02*
D03*
Y-3112000D02*
D03*
X15092999Y-4304000D02*
D03*
Y-3004000D02*
D03*
X15600999D02*
D03*
Y-4304000D02*
D03*
X13142999D02*
D03*
Y-3004000D02*
D03*
X13650999D02*
D03*
Y-4304000D02*
D03*
X1746000Y-5354000D02*
D03*
Y-4054000D02*
D03*
X2254000D02*
D03*
Y-5354000D02*
D03*
X446000Y-4204000D02*
D03*
Y-2904000D02*
D03*
X954000D02*
D03*
Y-4204000D02*
D03*
X3046000D02*
D03*
Y-2904000D02*
D03*
X3554000D02*
D03*
Y-4204000D02*
D03*
X3046000Y-1481000D02*
D03*
Y-181000D02*
D03*
X3554000D02*
D03*
Y-1481000D02*
D03*
X13653999Y-181000D02*
D03*
Y-1481000D02*
D03*
X13146001D02*
D03*
Y-181000D02*
D03*
X1746000Y-3104000D02*
D03*
Y-1804000D02*
D03*
X2254000D02*
D03*
Y-3104000D02*
D03*
X16242999Y-4179000D02*
D03*
Y-3379000D02*
D03*
X14627000Y-4179000D02*
D03*
Y-3379000D02*
D03*
Y-3125000D02*
D03*
X12170000Y-1950000D02*
D03*
X11916000D02*
D03*
X11662000D02*
D03*
X11408000D02*
D03*
X11154000D02*
D03*
X10900000D02*
D03*
X11007000Y-3510000D02*
D03*
X10753000Y-5356000D02*
D03*
X11007000D02*
D03*
X12045000D02*
D03*
X12299000D02*
D03*
X10753000Y-3510000D02*
D03*
X11261000D02*
D03*
X12299000D02*
D03*
X12045000D02*
D03*
X5652500Y-1430000D02*
D03*
X5906500D02*
D03*
X6160500D02*
D03*
X6414500D02*
D03*
X6668500D02*
D03*
X6922500D02*
D03*
X7176500D02*
D03*
X7430500D02*
D03*
X7684500D02*
D03*
X7938500D02*
D03*
X8192500D02*
D03*
X8446500D02*
D03*
X8700500D02*
D03*
X8954500D02*
D03*
X9208500D02*
D03*
X5652500Y-3970000D02*
D03*
X5906500D02*
D03*
X6160500D02*
D03*
X6414500D02*
D03*
X6668500D02*
D03*
X6922500D02*
D03*
X7176500D02*
D03*
X7430500D02*
D03*
X7684500D02*
D03*
X7938500D02*
D03*
X8192500D02*
D03*
X8446500D02*
D03*
X8700500D02*
D03*
X8954500D02*
D03*
D16*
X10350000Y-5300000D02*
D03*
X10345000Y-4650000D02*
D03*
D17*
X10350000Y-5100000D02*
D03*
X10345000Y-4450000D02*
D03*
D18*
X16050002Y-3200000D02*
D03*
X6300001Y-700000D02*
D03*
X4300001D02*
D03*
X5800001D02*
D03*
X5300001D02*
D03*
X6800001D02*
D03*
X7043306Y-1206694D02*
D03*
X4147500Y-347500D02*
D03*
X4756556Y-1656555D02*
D03*
X5050001Y-1200000D02*
D03*
X4300001Y-1700000D02*
D03*
X4550001Y-1200000D02*
D03*
X12925000Y-2100000D02*
D03*
X11925000Y-1700000D02*
D03*
X11300000Y-1625000D02*
D03*
X13050000Y-2725000D02*
D03*
X15300002Y-2700000D02*
D03*
X14293521Y-2693520D02*
D03*
X5800001Y-1700000D02*
D03*
X11050001Y-2212500D02*
D03*
X9947500Y-4397500D02*
D03*
X6797500D02*
D03*
X2497500Y-3497500D02*
D03*
X3947500Y-3547500D02*
D03*
X3197500Y-3497500D02*
D03*
X1947500D02*
D03*
X4397500D02*
D03*
X7947500Y-397500D02*
D03*
X11397500Y-2547500D02*
D03*
X8197500Y-1847500D02*
D03*
X7997500Y-1747500D02*
D03*
X16050002Y-1200000D02*
D03*
X16300002Y-1700000D02*
D03*
X16050002Y-2200000D02*
D03*
X16300002Y-2700000D02*
D03*
Y-3700000D02*
D03*
X16050002Y-4200000D02*
D03*
X16300002Y-4700000D02*
D03*
X15800002Y-700000D02*
D03*
X15550002Y-1200000D02*
D03*
X15800002Y-1700000D02*
D03*
X15550002Y-2200000D02*
D03*
Y-3200000D02*
D03*
X15800002Y-3700000D02*
D03*
Y-4700000D02*
D03*
X15550002Y-5200000D02*
D03*
X15300002Y-700000D02*
D03*
X15050002Y-1200000D02*
D03*
X15300002Y-1700000D02*
D03*
X15050002Y-3200000D02*
D03*
X15300002Y-3700000D02*
D03*
X15050002Y-5200000D02*
D03*
X14800002Y-700000D02*
D03*
X14550002Y-1200000D02*
D03*
X14800002Y-1700000D02*
D03*
Y-3700000D02*
D03*
Y-4700000D02*
D03*
X14300002Y-700000D02*
D03*
X14050002Y-1200000D02*
D03*
X14300002Y-1700000D02*
D03*
X14050002Y-3200000D02*
D03*
Y-4200000D02*
D03*
X14300002Y-4700000D02*
D03*
X13800002Y-700000D02*
D03*
X13550002Y-1200000D02*
D03*
X13800002Y-1700000D02*
D03*
X13550002Y-3200000D02*
D03*
X13800002Y-4700000D02*
D03*
X13300002Y-700000D02*
D03*
X13050002Y-1200000D02*
D03*
X13300002Y-1700000D02*
D03*
X13050002Y-3200000D02*
D03*
X13300002Y-3700000D02*
D03*
Y-4700000D02*
D03*
X12800002Y-700000D02*
D03*
Y-1700000D02*
D03*
X12300001Y-700000D02*
D03*
X12050001Y-1200000D02*
D03*
X12300001Y-1700000D02*
D03*
X12050001Y-2200000D02*
D03*
X11800001Y-700000D02*
D03*
X11550001Y-1200000D02*
D03*
Y-2200000D02*
D03*
Y-3200000D02*
D03*
X11300001Y-700000D02*
D03*
X11050001Y-1200000D02*
D03*
Y-3200000D02*
D03*
X10800001Y-700000D02*
D03*
X10550001Y-1200000D02*
D03*
Y-2200000D02*
D03*
Y-3200000D02*
D03*
X10300001Y-700000D02*
D03*
X10050001Y-1200000D02*
D03*
X10300001Y-1700000D02*
D03*
X10050001Y-2200000D02*
D03*
X9800001Y-700000D02*
D03*
X9550001Y-1200000D02*
D03*
X9800001Y-1700000D02*
D03*
X9550001Y-2200000D02*
D03*
Y-3200000D02*
D03*
X9800001Y-3700000D02*
D03*
Y-4700000D02*
D03*
X9300001Y-700000D02*
D03*
X9050001Y-1200000D02*
D03*
Y-2200000D02*
D03*
Y-3200000D02*
D03*
X9300001Y-3700000D02*
D03*
Y-4700000D02*
D03*
X8800001Y-700000D02*
D03*
X8550001Y-1200000D02*
D03*
Y-2200000D02*
D03*
Y-3200000D02*
D03*
X8800001Y-3700000D02*
D03*
Y-4700000D02*
D03*
X8050001Y-1200000D02*
D03*
Y-2200000D02*
D03*
Y-3200000D02*
D03*
X8300001Y-3700000D02*
D03*
X8050001Y-4200000D02*
D03*
X8300001Y-4700000D02*
D03*
X7800001Y-700000D02*
D03*
X7550001Y-1200000D02*
D03*
Y-2200000D02*
D03*
X7800001Y-2700000D02*
D03*
X7550001Y-3200000D02*
D03*
X7800001Y-3700000D02*
D03*
Y-4700000D02*
D03*
X7550001Y-5200000D02*
D03*
X7300001Y-700000D02*
D03*
Y-1700000D02*
D03*
X7050001Y-2200000D02*
D03*
X7300001Y-2700000D02*
D03*
X7050001Y-3200000D02*
D03*
X7300001Y-4700000D02*
D03*
X7050001Y-5200000D02*
D03*
X6550001Y-1200000D02*
D03*
X6800001Y-1700000D02*
D03*
X6550001Y-2200000D02*
D03*
X6800001Y-2700000D02*
D03*
X6550001Y-3200000D02*
D03*
X6800001Y-3700000D02*
D03*
Y-4700000D02*
D03*
X6550001Y-5200000D02*
D03*
X6050001Y-1200000D02*
D03*
X6300001Y-1700000D02*
D03*
X6050001Y-2200000D02*
D03*
X6300001Y-2700000D02*
D03*
X6050001Y-3200000D02*
D03*
X6300001Y-3700000D02*
D03*
X6050001Y-4200000D02*
D03*
X6300001Y-4700000D02*
D03*
X6050001Y-5200000D02*
D03*
X5550001Y-1200000D02*
D03*
Y-2200000D02*
D03*
X5800001Y-2700000D02*
D03*
X5550001Y-3200000D02*
D03*
X5800001Y-3700000D02*
D03*
Y-4700000D02*
D03*
X5550001Y-5200000D02*
D03*
X5300001Y-1700000D02*
D03*
X5050001Y-2200000D02*
D03*
X5300001Y-2700000D02*
D03*
X5050001Y-3200000D02*
D03*
X5300001Y-3700000D02*
D03*
X5050001Y-4200000D02*
D03*
X5300001Y-4700000D02*
D03*
X5050001Y-5200000D02*
D03*
X4550001Y-2200000D02*
D03*
Y-4200000D02*
D03*
X4800001Y-4700000D02*
D03*
X4550001Y-5200000D02*
D03*
X4050001Y-1200000D02*
D03*
X4300001Y-2700000D02*
D03*
X4050001Y-3200000D02*
D03*
Y-4200000D02*
D03*
X4300001Y-4700000D02*
D03*
X4050001Y-5200000D02*
D03*
X3800001Y-700000D02*
D03*
X3550001Y-1200000D02*
D03*
X3800001Y-1700000D02*
D03*
X3550001Y-2200000D02*
D03*
Y-3200000D02*
D03*
X3800001Y-4700000D02*
D03*
X3550001Y-5200000D02*
D03*
X3300001Y-700000D02*
D03*
X3050001Y-1200000D02*
D03*
X3300001Y-1700000D02*
D03*
X3050001Y-2200000D02*
D03*
X3300001Y-2700000D02*
D03*
X3050001Y-3200000D02*
D03*
X3300001Y-4700000D02*
D03*
X3050001Y-5200000D02*
D03*
X2800000Y-700000D02*
D03*
X2550000Y-1200000D02*
D03*
X2800000Y-1700000D02*
D03*
X2550000Y-2200000D02*
D03*
X2800000Y-2700000D02*
D03*
X2550000Y-3200000D02*
D03*
Y-4200000D02*
D03*
X2800000Y-4700000D02*
D03*
X2550000Y-5200000D02*
D03*
X2300000Y-700000D02*
D03*
X2050000Y-1200000D02*
D03*
Y-2200000D02*
D03*
X2300000Y-2700000D02*
D03*
X2050000Y-3200000D02*
D03*
Y-4200000D02*
D03*
X2300000Y-4700000D02*
D03*
X2050000Y-5200000D02*
D03*
X1800000Y-700000D02*
D03*
X1550000Y-1200000D02*
D03*
Y-2200000D02*
D03*
X1800000Y-2700000D02*
D03*
X1550000Y-3200000D02*
D03*
Y-4200000D02*
D03*
X1800000Y-4700000D02*
D03*
X1550000Y-5200000D02*
D03*
X1300000Y-700000D02*
D03*
X1050000Y-1200000D02*
D03*
X1300000Y-1700000D02*
D03*
X1050000Y-2200000D02*
D03*
X1300000Y-2700000D02*
D03*
X1050000Y-3200000D02*
D03*
X1300000Y-3700000D02*
D03*
Y-4700000D02*
D03*
X1050000Y-5200000D02*
D03*
X800000Y-700000D02*
D03*
X550000Y-1200000D02*
D03*
X800000Y-1700000D02*
D03*
X550000Y-2200000D02*
D03*
X800000Y-2700000D02*
D03*
X550000Y-3200000D02*
D03*
X800000Y-3700000D02*
D03*
Y-4700000D02*
D03*
X11500000Y-4050000D02*
D03*
X11697500Y-4047500D02*
D03*
X10097500Y-3747500D02*
D03*
X9947500Y-3497500D02*
D03*
X10247500D02*
D03*
X10947500Y-2597500D02*
D03*
X10547500D02*
D03*
X9947500Y-2847500D02*
D03*
X10247500D02*
D03*
Y-2597500D02*
D03*
X9947500D02*
D03*
X9711432Y-2582242D02*
D03*
X9347500Y-2647500D02*
D03*
X9447500Y-2997500D02*
D03*
X9797500Y-2897500D02*
D03*
X16597501Y-4997500D02*
D03*
Y-4497500D02*
D03*
Y-3997500D02*
D03*
Y-3497500D02*
D03*
Y-2997500D02*
D03*
Y-2497500D02*
D03*
Y-1997500D02*
D03*
Y-1497500D02*
D03*
Y-997500D02*
D03*
Y-497500D02*
D03*
X16497501Y-5397500D02*
D03*
X15997501D02*
D03*
X15497501D02*
D03*
X14997501D02*
D03*
X14497501D02*
D03*
X13997501D02*
D03*
X13497501D02*
D03*
X12997501D02*
D03*
X12497500D02*
D03*
X11497500D02*
D03*
X9997500D02*
D03*
X9497500D02*
D03*
X8997500D02*
D03*
X8497500D02*
D03*
X7997500D02*
D03*
X7497500D02*
D03*
X6997500D02*
D03*
X6497500D02*
D03*
X5997500D02*
D03*
X5497500D02*
D03*
X4997500D02*
D03*
X4497500D02*
D03*
X3997500D02*
D03*
X3497500D02*
D03*
X2997500D02*
D03*
X2497500D02*
D03*
X1497500D02*
D03*
X997500D02*
D03*
X497500D02*
D03*
X97500Y-97500D02*
D03*
Y-5397500D02*
D03*
Y-4997500D02*
D03*
Y-4497500D02*
D03*
Y-3997500D02*
D03*
Y-3497500D02*
D03*
Y-2997500D02*
D03*
Y-2497500D02*
D03*
Y-1997500D02*
D03*
Y-1497500D02*
D03*
Y-997500D02*
D03*
Y-497500D02*
D03*
X497500Y-97500D02*
D03*
X997500D02*
D03*
X1497500D02*
D03*
X1997500D02*
D03*
X2497500D02*
D03*
X7497500D02*
D03*
X7997500D02*
D03*
X8497500D02*
D03*
X8997500D02*
D03*
X9497500D02*
D03*
X9997500D02*
D03*
X10497500D02*
D03*
X10997500D02*
D03*
X11497500D02*
D03*
X11997500D02*
D03*
X12497500D02*
D03*
X13997501D02*
D03*
X14497501D02*
D03*
X14997501D02*
D03*
X15497501D02*
D03*
X15997501D02*
D03*
X16497501D02*
D03*
X11600000Y-3950000D02*
D03*
X12040000Y-2600000D02*
D03*
X10750000D02*
D03*
X9600000Y-2900000D02*
D03*
Y-2600000D02*
D03*
X10100000D02*
D03*
Y-3500000D02*
D03*
%TF.MD5,d5399155563e6a9b13b63b4ab921be47*%
M02*
