%TF.GenerationSoftware,Altium Limited,Altium Designer,22.1.2 (22)*%
G04 Layer_Color=8388736*
%FSLAX45Y45*%
%MOMM*%
%TF.SameCoordinates,F55294D5-53BA-4FF9-9C61-932B4C8A51B7*%
%TF.FilePolarity,Negative*%
%TF.FileFunction,Soldermask,Top*%
%TF.Part,Single*%
G01*
G75*
%TA.AperFunction,ComponentPad*%
%ADD23R,2.20320X2.20320*%
%ADD24C,2.20320*%
%ADD25R,1.40320X1.40320*%
%ADD26C,1.40320*%
D23*
X14822501Y-2470000D02*
D03*
X13677499D02*
D03*
X14522501D02*
D03*
X13377499Y-170000D02*
D03*
X14822501D02*
D03*
X13377499Y-2470000D02*
D03*
X9208500Y-3970000D02*
D03*
D24*
X16325000Y-2483000D02*
D03*
Y-2229000D02*
D03*
Y-1975000D02*
D03*
X12583251Y-1080000D02*
D03*
Y-1334000D02*
D03*
Y-1588000D02*
D03*
Y-1842000D02*
D03*
Y-2096000D02*
D03*
Y-2350000D02*
D03*
Y-2604000D02*
D03*
Y-2858000D02*
D03*
Y-3112000D02*
D03*
Y-3366000D02*
D03*
Y-3620000D02*
D03*
Y-3874000D02*
D03*
Y-4128000D02*
D03*
Y-4382000D02*
D03*
X4720750Y-2858000D02*
D03*
Y-2604000D02*
D03*
Y-2350000D02*
D03*
Y-3112000D02*
D03*
X15092999Y-4304000D02*
D03*
Y-3004000D02*
D03*
X15600999D02*
D03*
Y-4304000D02*
D03*
X13142999D02*
D03*
Y-3004000D02*
D03*
X13650999D02*
D03*
Y-4304000D02*
D03*
X1746000Y-5354000D02*
D03*
Y-4054000D02*
D03*
X2254000D02*
D03*
Y-5354000D02*
D03*
X446000Y-4204000D02*
D03*
Y-2904000D02*
D03*
X954000D02*
D03*
Y-4204000D02*
D03*
X3046000D02*
D03*
Y-2904000D02*
D03*
X3554000D02*
D03*
Y-4204000D02*
D03*
X3046000Y-1481000D02*
D03*
Y-181000D02*
D03*
X3554000D02*
D03*
Y-1481000D02*
D03*
X13653999Y-181000D02*
D03*
Y-1481000D02*
D03*
X13146001D02*
D03*
Y-181000D02*
D03*
X1746000Y-3104000D02*
D03*
Y-1804000D02*
D03*
X2254000D02*
D03*
Y-3104000D02*
D03*
X16242999Y-4179000D02*
D03*
Y-3379000D02*
D03*
X14627000Y-4179000D02*
D03*
Y-3379000D02*
D03*
Y-3125000D02*
D03*
X12170000Y-1950000D02*
D03*
X11916000D02*
D03*
X11662000D02*
D03*
X11408000D02*
D03*
X11154000D02*
D03*
X10900000D02*
D03*
X11007000Y-3510000D02*
D03*
X10753000Y-5356000D02*
D03*
X11007000D02*
D03*
X12045000D02*
D03*
X12299000D02*
D03*
X10753000Y-3510000D02*
D03*
X11261000D02*
D03*
X12299000D02*
D03*
X12045000D02*
D03*
X5652500Y-1430000D02*
D03*
X5906500D02*
D03*
X6160500D02*
D03*
X6414500D02*
D03*
X6668500D02*
D03*
X6922500D02*
D03*
X7176500D02*
D03*
X7430500D02*
D03*
X7684500D02*
D03*
X7938500D02*
D03*
X8192500D02*
D03*
X8446500D02*
D03*
X8700500D02*
D03*
X8954500D02*
D03*
X9208500D02*
D03*
X5652500Y-3970000D02*
D03*
X5906500D02*
D03*
X6160500D02*
D03*
X6414500D02*
D03*
X6668500D02*
D03*
X6922500D02*
D03*
X7176500D02*
D03*
X7430500D02*
D03*
X7684500D02*
D03*
X7938500D02*
D03*
X8192500D02*
D03*
X8446500D02*
D03*
X8700500D02*
D03*
X8954500D02*
D03*
D25*
X10350000Y-5300000D02*
D03*
X10345000Y-4650000D02*
D03*
D26*
X10350000Y-5100000D02*
D03*
X10345000Y-4450000D02*
D03*
%TF.MD5,1268c41182ddf9e7a284b0fecd57910c*%
M02*
