%TF.GenerationSoftware,Altium Limited,Altium Designer,22.1.2 (22)*%
G04 Layer_Color=0*
%FSLAX45Y45*%
%MOMM*%
%TF.SameCoordinates,E45B295A-33DC-4613-BF2C-B4F7B6EB383A*%
%TF.FilePolarity,Positive*%
%TF.FileFunction,Profile,NP*%
%TF.Part,Single*%
G01*
G75*
%TA.AperFunction,Profile*%
%ADD128C,0.02540*%
G36*
X2707501Y-214440D02*
Y-205986D01*
X2713970Y-190366D01*
X2725926Y-178411D01*
X2741546Y-171941D01*
X2758453D01*
X2774074Y-178411D01*
X2786029Y-190366D01*
X2792499Y-205986D01*
Y-214440D01*
Y-222894D01*
X2786029Y-238514D01*
X2774074Y-250469D01*
X2758453Y-256939D01*
X2741546D01*
X2725926Y-250469D01*
X2713970Y-238514D01*
X2707501Y-222894D01*
Y-214440D01*
D01*
D01*
D02*
G37*
G36*
X3007500D02*
Y-205986D01*
X3013970Y-190366D01*
X3025925Y-178411D01*
X3041545Y-171941D01*
X3058453D01*
X3074073Y-178411D01*
X3086028Y-190366D01*
X3092499Y-205986D01*
Y-214440D01*
Y-222894D01*
X3086028Y-238514D01*
X3074073Y-250469D01*
X3058453Y-256939D01*
X3041545D01*
X3025925Y-250469D01*
X3013970Y-238514D01*
X3007500Y-222894D01*
Y-214440D01*
D01*
D01*
D02*
G37*
G36*
X450000Y-600000D02*
X430301D01*
X391662Y-592314D01*
X355264Y-577238D01*
X322507Y-555350D01*
X294650Y-527492D01*
X272762Y-494736D01*
X257686Y-458338D01*
X250000Y-419698D01*
Y-400000D01*
Y-380302D01*
X257686Y-341662D01*
X272762Y-305265D01*
X294650Y-272508D01*
X322507Y-244650D01*
X355264Y-222763D01*
X391662Y-207686D01*
X430301Y-200000D01*
X450000D01*
X469698D01*
X508338Y-207686D01*
X544735Y-222763D01*
X577492Y-244650D01*
X605350Y-272508D01*
X627237Y-305265D01*
X642314Y-341662D01*
X650000Y-380302D01*
Y-400000D01*
Y-419698D01*
X642314Y-458338D01*
X627237Y-494736D01*
X605350Y-527492D01*
X577492Y-555350D01*
X544735Y-577238D01*
X508338Y-592314D01*
X469698Y-600000D01*
X450000D01*
D01*
D02*
G37*
G36*
Y-4900000D02*
X430301D01*
X391662Y-4892314D01*
X355264Y-4877238D01*
X322507Y-4855350D01*
X294650Y-4827493D01*
X272762Y-4794736D01*
X257686Y-4758338D01*
X250000Y-4719698D01*
Y-4700000D01*
Y-4680302D01*
X257686Y-4641662D01*
X272762Y-4605265D01*
X294650Y-4572508D01*
X322507Y-4544650D01*
X355264Y-4522763D01*
X391662Y-4507686D01*
X430301Y-4500000D01*
X450000D01*
X469698D01*
X508338Y-4507686D01*
X544735Y-4522763D01*
X577492Y-4544650D01*
X605350Y-4572508D01*
X627237Y-4605265D01*
X642314Y-4641662D01*
X650000Y-4680302D01*
Y-4700000D01*
Y-4719698D01*
X642314Y-4758338D01*
X627237Y-4794736D01*
X605350Y-4827493D01*
X577492Y-4855350D01*
X544735Y-4877238D01*
X508338Y-4892314D01*
X469698Y-4900000D01*
X450000D01*
D01*
D02*
G37*
G36*
X11300000Y-400000D02*
Y-419698D01*
X11307686Y-458338D01*
X11322762Y-494736D01*
X11344650Y-527492D01*
X11372507Y-555350D01*
X11405264Y-577238D01*
X11441662Y-592314D01*
X11480301Y-600000D01*
X11500000D01*
X11519698D01*
X11558338Y-592314D01*
X11594735Y-577238D01*
X11627492Y-555350D01*
X11655350Y-527492D01*
X11677237Y-494736D01*
X11692314Y-458338D01*
X11700000Y-419698D01*
Y-400000D01*
Y-380302D01*
X11692314Y-341662D01*
X11677237Y-305265D01*
X11655350Y-272508D01*
X11627492Y-244650D01*
X11594735Y-222763D01*
X11558338Y-207686D01*
X11519698Y-200000D01*
X11500000D01*
X11480301D01*
X11441662Y-207686D01*
X11405264Y-222763D01*
X11372507Y-244650D01*
X11344650Y-272508D01*
X11322762Y-305265D01*
X11307686Y-341662D01*
X11300000Y-380302D01*
Y-400000D01*
D01*
D02*
G37*
G36*
Y-4700000D02*
Y-4719698D01*
X11307686Y-4758338D01*
X11322762Y-4794736D01*
X11344650Y-4827493D01*
X11372507Y-4855350D01*
X11405264Y-4877238D01*
X11441662Y-4892314D01*
X11480301Y-4900000D01*
X11500000D01*
X11519698D01*
X11558338Y-4892314D01*
X11594735Y-4877238D01*
X11627492Y-4855350D01*
X11655350Y-4827493D01*
X11677237Y-4794736D01*
X11692314Y-4758338D01*
X11700000Y-4719698D01*
Y-4700000D01*
Y-4680302D01*
X11692314Y-4641662D01*
X11677237Y-4605265D01*
X11655350Y-4572508D01*
X11627492Y-4544650D01*
X11594735Y-4522763D01*
X11558338Y-4507686D01*
X11519698Y-4500000D01*
X11500000D01*
X11480301D01*
X11441662Y-4507686D01*
X11405264Y-4522763D01*
X11372507Y-4544650D01*
X11344650Y-4572508D01*
X11322762Y-4605265D01*
X11307686Y-4641662D01*
X11300000Y-4680302D01*
Y-4700000D01*
D01*
D02*
G37*
G36*
X9700000Y-4550000D02*
Y-550000D01*
X9750000D01*
Y-4550000D01*
X9700000D01*
D02*
G37*
D128*
X50000Y-5100000D02*
Y0D01*
X11900000D01*
Y-5100000D01*
X50000D01*
%TF.MD5,0a084a744aebef00bd7320f6844f4e0a*%
M02*
