%TF.GenerationSoftware,Altium Limited,Altium Designer,22.1.2 (22)*%
G04 Layer_Physical_Order=1*
G04 Layer_Color=255*
%FSLAX45Y45*%
%MOMM*%
%TF.SameCoordinates,E45B295A-33DC-4613-BF2C-B4F7B6EB383A*%
%TF.FilePolarity,Positive*%
%TF.FileFunction,Copper,L1,Top,Signal*%
%TF.Part,Single*%
G01*
G75*
%TA.AperFunction,SMDPad,CuDef*%
%ADD10R,0.55001X0.25001*%
%ADD11R,0.55001X0.20000*%
%ADD12R,0.30000X0.60000*%
%ADD13R,0.60000X0.60000*%
%TA.AperFunction,SMDPad,SMDef*%
%ADD14R,0.25000X0.60000*%
G04:AMPARAMS|DCode=15|XSize=0.6mm|YSize=0.25mm|CornerRadius=0.125mm|HoleSize=0mm|Usage=FLASHONLY|Rotation=90.000|XOffset=0mm|YOffset=0mm|HoleType=Round|Shape=RoundedRectangle|*
%AMROUNDEDRECTD15*
21,1,0.60000,0.00000,0,0,90.0*
21,1,0.35000,0.25000,0,0,90.0*
1,1,0.25000,0.00000,0.17500*
1,1,0.25000,0.00000,-0.17500*
1,1,0.25000,0.00000,-0.17500*
1,1,0.25000,0.00000,0.17500*
%
%ADD15ROUNDEDRECTD15*%
%ADD16R,0.44000X1.64000*%
%TA.AperFunction,SMDPad,CuDef*%
%ADD17R,0.60000X1.15000*%
%ADD18R,0.30000X1.15000*%
%ADD19R,0.70000X1.60000*%
%ADD20R,1.20000X2.20000*%
%ADD21R,1.60000X1.40000*%
%ADD22R,1.20000X1.40000*%
%ADD23R,1.35001X1.80000*%
%ADD24R,1.25001X0.70000*%
%ADD25O,0.55999X1.74501*%
%ADD26R,3.40000X0.98000*%
%ADD27R,1.35574X1.80822*%
%ADD28R,0.90000X0.80000*%
%ADD29R,1.00000X1.35000*%
%ADD30R,0.95413X3.25822*%
%ADD31R,0.80000X0.60000*%
%ADD32R,0.50000X0.45000*%
%ADD33R,0.80000X0.80000*%
%ADD34R,3.15000X1.78000*%
%TA.AperFunction,ConnectorPad*%
%ADD35R,0.90000X2.00000*%
%ADD36R,1.10000X0.93000*%
%TA.AperFunction,SMDPad,CuDef*%
%ADD37R,3.50000X1.00000*%
%ADD38R,3.40000X1.50000*%
%ADD39R,3.19999X2.50000*%
%ADD40R,1.80000X0.34000*%
%ADD41R,0.95001X2.10000*%
%ADD42R,2.10000X0.95001*%
%TA.AperFunction,BGAPad,CuDef*%
%ADD43R,0.90000X0.90000*%
%TA.AperFunction,SMDPad,CuDef*%
%ADD44R,1.05964X0.23583*%
G04:AMPARAMS|DCode=45|XSize=1.05964mm|YSize=0.23583mm|CornerRadius=0.11791mm|HoleSize=0mm|Usage=FLASHONLY|Rotation=180.000|XOffset=0mm|YOffset=0mm|HoleType=Round|Shape=RoundedRectangle|*
%AMROUNDEDRECTD45*
21,1,1.05964,0.00000,0,0,180.0*
21,1,0.82381,0.23583,0,0,180.0*
1,1,0.23583,-0.41190,0.00000*
1,1,0.23583,0.41190,0.00000*
1,1,0.23583,0.41190,0.00000*
1,1,0.23583,-0.41190,0.00000*
%
%ADD45ROUNDEDRECTD45*%
%ADD46R,0.20000X0.35001*%
%ADD47R,0.75814X0.81213*%
%ADD48R,1.00620X1.10506*%
%ADD49R,0.96602X0.23928*%
G04:AMPARAMS|DCode=50|XSize=0.96602mm|YSize=0.23928mm|CornerRadius=0.11964mm|HoleSize=0mm|Usage=FLASHONLY|Rotation=0.000|XOffset=0mm|YOffset=0mm|HoleType=Round|Shape=RoundedRectangle|*
%AMROUNDEDRECTD50*
21,1,0.96602,0.00000,0,0,0.0*
21,1,0.72673,0.23928,0,0,0.0*
1,1,0.23928,0.36337,0.00000*
1,1,0.23928,-0.36337,0.00000*
1,1,0.23928,-0.36337,0.00000*
1,1,0.23928,0.36337,0.00000*
%
%ADD50ROUNDEDRECTD50*%
G04:AMPARAMS|DCode=51|XSize=0.23928mm|YSize=0.96602mm|CornerRadius=0.11964mm|HoleSize=0mm|Usage=FLASHONLY|Rotation=0.000|XOffset=0mm|YOffset=0mm|HoleType=Round|Shape=RoundedRectangle|*
%AMROUNDEDRECTD51*
21,1,0.23928,0.72673,0,0,0.0*
21,1,0.00000,0.96602,0,0,0.0*
1,1,0.23928,0.00000,-0.36337*
1,1,0.23928,0.00000,-0.36337*
1,1,0.23928,0.00000,0.36337*
1,1,0.23928,0.00000,0.36337*
%
%ADD51ROUNDEDRECTD51*%
%ADD52R,1.68000X1.68000*%
%ADD53R,1.10606X0.95822*%
%ADD54R,1.10506X1.00620*%
%ADD55R,0.81213X0.75814*%
%ADD56R,1.50000X3.40000*%
%ADD57R,1.00000X3.50000*%
%ADD58R,0.45000X0.50000*%
%ADD59O,1.74501X0.55999*%
%ADD60R,0.80000X0.90000*%
%ADD61R,1.78000X3.15000*%
%TA.AperFunction,Conductor*%
%ADD62C,0.15000*%
%ADD63C,0.25400*%
%ADD64C,0.35000*%
%ADD65C,0.15600*%
%ADD66C,0.50000*%
%ADD67C,0.30000*%
%TA.AperFunction,ComponentPad*%
%ADD68O,1.05000X2.15000*%
%ADD69O,1.05000X1.85000*%
%ADD70C,0.70000*%
%ADD71C,1.00000*%
%TA.AperFunction,ViaPad*%
%ADD72C,0.60000*%
G36*
X6512100Y-52100D02*
X6512100Y-62700D01*
Y-147899D01*
X6528654D01*
Y-165521D01*
X6517199Y-182665D01*
X6513054Y-203500D01*
Y-322001D01*
X6517199Y-342837D01*
X6529001Y-360500D01*
X6546665Y-372303D01*
X6552449Y-373453D01*
X6551198Y-386153D01*
X6329802D01*
X6328551Y-373453D01*
X6334336Y-372303D01*
X6351999Y-360500D01*
X6363802Y-342837D01*
X6367946Y-322001D01*
Y-203500D01*
X6363802Y-182665D01*
X6351999Y-165001D01*
X6334336Y-153199D01*
X6313500Y-149054D01*
X6292665Y-153199D01*
X6275001Y-165001D01*
X6263199Y-182665D01*
X6259054Y-203500D01*
Y-322001D01*
X6263199Y-342837D01*
X6275001Y-360500D01*
X6292665Y-372303D01*
X6298449Y-373453D01*
X6297198Y-386153D01*
X6231102D01*
X6222894Y-373453D01*
X6224756Y-364090D01*
Y-360663D01*
X6224999Y-360500D01*
X6236802Y-342837D01*
X6240946Y-322001D01*
Y-203500D01*
X6236802Y-182665D01*
X6224999Y-165001D01*
X6207336Y-153199D01*
X6186500Y-149054D01*
X6165665Y-153199D01*
X6148001Y-165001D01*
X6136199Y-182665D01*
X6132054Y-203500D01*
Y-322001D01*
X6136199Y-342837D01*
X6142618Y-352444D01*
X6108909Y-386153D01*
X6075802D01*
X6074551Y-373453D01*
X6080336Y-372303D01*
X6097999Y-360500D01*
X6109802Y-342837D01*
X6113946Y-322001D01*
Y-203500D01*
X6109802Y-182665D01*
X6097999Y-165001D01*
X6080336Y-153199D01*
X6059500Y-149054D01*
X6038665Y-153199D01*
X6021001Y-165001D01*
X6009199Y-182665D01*
X6005054Y-203500D01*
Y-322001D01*
X6009199Y-342837D01*
X6021001Y-360500D01*
X6038665Y-372303D01*
X6044449Y-373453D01*
X6043198Y-386153D01*
X5821802D01*
X5820551Y-373453D01*
X5826336Y-372303D01*
X5843999Y-360500D01*
X5855802Y-342837D01*
X5859946Y-322001D01*
Y-203500D01*
X5855802Y-182665D01*
X5843999Y-165001D01*
X5826336Y-153199D01*
X5805500Y-149054D01*
X5784665Y-153199D01*
X5767001Y-165001D01*
X5755199Y-182665D01*
X5751054Y-203500D01*
Y-322001D01*
X5755199Y-342837D01*
X5767001Y-360500D01*
X5784665Y-372303D01*
X5794599Y-374279D01*
Y-387228D01*
X5785134Y-389110D01*
X5772532Y-397531D01*
X5620580Y-549483D01*
X5608846Y-544623D01*
Y-498706D01*
X5636006D01*
Y-372092D01*
X5503993D01*
Y-498706D01*
X5531153D01*
Y-638910D01*
X5098908Y-1071155D01*
X4624998D01*
X4610132Y-1074112D01*
X4597529Y-1082533D01*
X4349998Y-1330065D01*
X4242464Y-1222531D01*
X4229861Y-1214111D01*
X4214996Y-1211154D01*
X4000000D01*
X3985134Y-1214111D01*
X3972531Y-1222531D01*
X3847529Y-1347534D01*
X3839108Y-1360136D01*
X3836151Y-1375002D01*
Y-1506080D01*
X3752151Y-1590079D01*
X3645783D01*
Y-1741499D01*
X3771969D01*
X3776830Y-1753233D01*
X3006910Y-2523153D01*
X2520400D01*
Y-2487599D01*
X2129600D01*
Y-2523153D01*
X2093490D01*
X2013846Y-2443509D01*
Y-2442500D01*
X2013642Y-2441473D01*
Y-2424999D01*
X2010701Y-2410212D01*
X2002324Y-2397675D01*
X1989788Y-2389299D01*
X1975000Y-2386357D01*
X1960212Y-2389299D01*
X1960100Y-2389374D01*
X1947400Y-2382585D01*
Y-2200100D01*
X1947400D01*
X1947497Y-2187440D01*
X1966091Y-2168847D01*
X2286153D01*
Y-2250600D01*
X2129600D01*
Y-2399399D01*
X2520400D01*
Y-2250600D01*
X2363846D01*
Y-2144879D01*
X2360889Y-2130013D01*
X2352468Y-2117411D01*
X2341498Y-2106440D01*
X2346759Y-2093740D01*
X3190000D01*
X3206739Y-2090411D01*
X3220929Y-2080929D01*
X3330929Y-1970929D01*
X3340411Y-1956739D01*
X3343740Y-1940000D01*
Y-770000D01*
X3340411Y-753261D01*
X3330929Y-739071D01*
X3168746Y-576888D01*
Y-524472D01*
X3181898D01*
X3184780Y-527354D01*
X3197382Y-535775D01*
X3212248Y-538732D01*
X3274290D01*
Y-580539D01*
X3425710D01*
Y-419233D01*
X3274290D01*
Y-461039D01*
X3228339D01*
X3195405Y-428106D01*
Y-410791D01*
X3199597Y-399827D01*
X3208106Y-399827D01*
X3360396D01*
Y-256027D01*
X3199596D01*
Y-262709D01*
X3195405Y-273673D01*
X3186896Y-273673D01*
X3105650D01*
X3101479Y-260973D01*
X3110418Y-249323D01*
X3117388Y-232497D01*
X3119765Y-214440D01*
X3117388Y-196383D01*
X3110418Y-179557D01*
X3099331Y-165108D01*
X3084882Y-154021D01*
X3068056Y-147051D01*
X3049999Y-144674D01*
X3031942Y-147051D01*
X3015116Y-154021D01*
X3000667Y-165108D01*
X2989580Y-179557D01*
X2982610Y-196383D01*
X2980233Y-214440D01*
X2982610Y-232497D01*
X2989580Y-249323D01*
X3000667Y-263772D01*
X3015116Y-274859D01*
X3031942Y-281829D01*
X3049999Y-284206D01*
X3054606Y-288246D01*
Y-524472D01*
X3081265D01*
Y-595005D01*
X3084595Y-611744D01*
X3094076Y-625934D01*
X3256260Y-788118D01*
Y-1921882D01*
X3171882Y-2006260D01*
X3102205D01*
X3098352Y-1993560D01*
X3107469Y-1987468D01*
X3187469Y-1907468D01*
X3195889Y-1894866D01*
X3198847Y-1880000D01*
Y-1727900D01*
X3207900D01*
Y-1652900D01*
Y-1552100D01*
X3201240D01*
Y-1423118D01*
X3220929Y-1403429D01*
X3230411Y-1389239D01*
X3233740Y-1372500D01*
Y-870000D01*
X3230411Y-853261D01*
X3220929Y-839071D01*
X3010929Y-629071D01*
X2996739Y-619589D01*
X2980000Y-616260D01*
X2812192D01*
X2807332Y-604526D01*
X2849859Y-561999D01*
X2859341Y-547808D01*
X2862671Y-531070D01*
Y-524472D01*
X2895406D01*
Y-273673D01*
X2805650D01*
X2801480Y-260973D01*
X2810419Y-249323D01*
X2817389Y-232497D01*
X2819766Y-214440D01*
X2817389Y-196383D01*
X2810419Y-179557D01*
X2799332Y-165108D01*
X2784883Y-154021D01*
X2768057Y-147051D01*
X2750000Y-144674D01*
X2731943Y-147051D01*
X2715117Y-154021D01*
X2700668Y-165108D01*
X2689581Y-179557D01*
X2682611Y-196383D01*
X2680234Y-214440D01*
X2682611Y-232497D01*
X2689581Y-249323D01*
X2698520Y-260973D01*
X2694349Y-273673D01*
X2604619Y-273673D01*
X2600403Y-262719D01*
Y-256027D01*
X2439603D01*
Y-399827D01*
X2591919D01*
X2600402Y-399827D01*
X2604619Y-410781D01*
Y-474290D01*
X2459461D01*
Y-625710D01*
X2565830D01*
X2615114Y-674993D01*
X2609589Y-683261D01*
X2606259Y-700000D01*
Y-1230000D01*
X2607503Y-1236250D01*
X2606259Y-1242500D01*
Y-1318498D01*
X2463423Y-1461335D01*
X2453941Y-1475525D01*
X2450612Y-1492264D01*
Y-1494290D01*
X2409233D01*
Y-1531259D01*
X2343922D01*
X2341048Y-1526001D01*
X2341065Y-1524889D01*
X2347888Y-1512277D01*
X2354867Y-1510889D01*
X2367469Y-1502468D01*
X2439968Y-1429969D01*
X2448389Y-1417366D01*
X2451346Y-1402500D01*
Y-1397900D01*
X2462900D01*
Y-1302100D01*
X2362100D01*
Y-1397899D01*
X2362100Y-1397900D01*
X2362099D01*
X2353609Y-1406454D01*
X2323910Y-1436153D01*
X2244612D01*
X2244610Y-1436153D01*
X2240839Y-1436903D01*
X2210401D01*
Y-1422896D01*
X2212716Y-1419432D01*
X2216045Y-1402694D01*
Y-1375813D01*
X2332260Y-1259598D01*
X2343994Y-1264458D01*
Y-1266006D01*
X2470607D01*
Y-1133993D01*
X2343994D01*
Y-1156260D01*
X2330000D01*
X2313261Y-1159589D01*
X2299071Y-1169071D01*
X2265339Y-1202803D01*
X1615400D01*
Y-1188850D01*
X1805000D01*
X1817954Y-1186274D01*
X1828936Y-1178936D01*
X1948936Y-1058936D01*
X1956274Y-1047954D01*
X1958850Y-1035000D01*
Y-1005400D01*
X1980400D01*
Y-921319D01*
X1993100Y-914531D01*
X1995134Y-915889D01*
X2010000Y-918847D01*
X2052100D01*
Y-927900D01*
X2152900D01*
Y-832100D01*
X2145400D01*
Y-714149D01*
X2151014D01*
X2173214Y-704954D01*
X2190204Y-687963D01*
X2190728Y-686700D01*
X2203428Y-689226D01*
Y-691050D01*
X2269300D01*
Y-571849D01*
X2261664Y-572855D01*
X2242714Y-580704D01*
X2226441Y-593191D01*
X2213954Y-609463D01*
X2206867Y-626575D01*
X2201039Y-627984D01*
X2193437Y-627339D01*
X2190204Y-619536D01*
X2173214Y-602545D01*
X2151014Y-593350D01*
X2126986D01*
X2104786Y-602545D01*
X2087795Y-619536D01*
X2087365Y-620573D01*
X2074909Y-623051D01*
X1970929Y-519071D01*
X1956739Y-509589D01*
X1940000Y-506260D01*
X1764451D01*
X1747713Y-509589D01*
X1733522Y-519071D01*
X1672226Y-580368D01*
X1529962Y-438104D01*
X1515771Y-428622D01*
X1499033Y-425292D01*
X1387151D01*
X1361296Y-399438D01*
X1369688Y-389869D01*
X1378714Y-396795D01*
X1397664Y-404644D01*
X1405300Y-405650D01*
Y-288749D01*
Y-171849D01*
X1397664Y-172855D01*
X1378714Y-180704D01*
X1362441Y-193191D01*
X1355600Y-202107D01*
X1342900Y-197795D01*
Y-62700D01*
X1342900Y-54096D01*
X1353903Y-50000D01*
X2439603D01*
Y-172827D01*
X2600403D01*
Y-50000D01*
X3199596D01*
Y-172827D01*
X3360396D01*
Y-50000D01*
X6500270D01*
X6512100Y-52100D01*
D02*
G37*
G36*
X11850000Y-5050000D02*
X2725247D01*
X2721395Y-5037300D01*
X2730929Y-5030929D01*
X2805929Y-4955929D01*
X2815411Y-4941739D01*
X2818740Y-4925000D01*
Y-4273118D01*
X2959160Y-4132698D01*
X2971314Y-4136385D01*
X2972696Y-4143337D01*
X2984499Y-4161000D01*
X3002162Y-4172802D01*
X3022998Y-4176947D01*
X3141499D01*
X3162335Y-4172802D01*
X3179998Y-4161000D01*
X3191800Y-4143337D01*
X3195945Y-4122501D01*
X3191800Y-4101665D01*
X3179998Y-4084002D01*
X3162335Y-4072200D01*
X3141499Y-4068055D01*
X3048399D01*
X3041878Y-4055355D01*
X3045755Y-4049947D01*
X3141499D01*
X3162335Y-4045802D01*
X3179998Y-4034000D01*
X3191800Y-4016337D01*
X3195945Y-3995501D01*
X3191800Y-3974665D01*
X3179998Y-3957002D01*
X3162335Y-3945200D01*
X3141499Y-3941055D01*
X3108797D01*
Y-3890711D01*
X3145709D01*
Y-3787240D01*
X3157443Y-3782380D01*
X4112531Y-4737469D01*
X4125134Y-4745889D01*
X4140000Y-4748846D01*
X5320000D01*
X5334866Y-4745889D01*
X5347469Y-4737469D01*
X5566468Y-4518469D01*
X5574889Y-4505866D01*
X5577846Y-4491000D01*
Y-4150422D01*
X5627153D01*
Y-4180998D01*
X5627153Y-4181000D01*
X5630110Y-4195866D01*
X5638531Y-4208468D01*
X5727531Y-4297468D01*
X5740134Y-4305889D01*
X5755000Y-4308846D01*
X6505000D01*
X6519866Y-4305889D01*
X6532469Y-4297468D01*
X6792468Y-4037469D01*
X6800889Y-4024866D01*
X6803846Y-4010000D01*
Y-3386091D01*
X6878786Y-3311151D01*
X6892700D01*
X6896453Y-3310404D01*
X7002901D01*
Y-3189604D01*
X6977394D01*
X6965400Y-3187899D01*
Y-3092100D01*
X6870798D01*
X6865537Y-3079400D01*
X7435975Y-2508962D01*
X7441904Y-2500089D01*
X7454604Y-2503942D01*
Y-2586172D01*
X7414981D01*
X7400115Y-2589129D01*
X7387512Y-2597550D01*
X7342941Y-2642122D01*
X7334520Y-2654725D01*
X7331563Y-2669591D01*
Y-2759616D01*
Y-2840000D01*
Y-3151689D01*
X7186894D01*
Y-3284600D01*
X7027099D01*
Y-3405400D01*
X7186894D01*
Y-3528311D01*
X7443515D01*
Y-3151689D01*
X7409256D01*
Y-2856091D01*
X7441904Y-2823442D01*
X7454604Y-2828703D01*
Y-2917406D01*
Y-3017405D01*
X7562806D01*
X7574596Y-3019602D01*
Y-3320401D01*
X7933853D01*
Y-3353994D01*
X7909392D01*
Y-3486006D01*
X7935415D01*
X7936154Y-3489721D01*
Y-3512100D01*
X7849600D01*
Y-3607900D01*
X7861153D01*
Y-3679999D01*
X7864111Y-3694865D01*
X7872531Y-3707468D01*
X8022563Y-3857500D01*
X7078909Y-4801153D01*
X4068585D01*
X3807900Y-4540468D01*
Y-4474605D01*
X3632099D01*
Y-4595405D01*
X3752963D01*
X4025026Y-4867469D01*
X4037629Y-4875889D01*
X4052495Y-4878846D01*
X7095000D01*
X7109865Y-4875889D01*
X7122468Y-4867469D01*
X8367469Y-3622468D01*
X8375890Y-3609865D01*
X8378847Y-3594999D01*
Y-2130000D01*
X8375890Y-2115134D01*
X8367469Y-2102531D01*
X7987469Y-1722531D01*
X7974866Y-1714111D01*
X7960000Y-1711154D01*
X7432908D01*
Y-1679600D01*
X7247107D01*
Y-1833453D01*
X7207700D01*
X7192834Y-1836410D01*
X7180232Y-1844831D01*
X6853910Y-2171153D01*
X6789501D01*
X6781381Y-2163034D01*
X6761020Y-2154600D01*
X6738980D01*
X6718619Y-2163034D01*
X6703034Y-2178618D01*
X6694600Y-2198980D01*
Y-2211646D01*
X6681900Y-2216906D01*
X6546876Y-2081882D01*
X6546875Y-2081881D01*
X6523903Y-2058909D01*
Y-1853154D01*
X6536510Y-1845375D01*
X6542106Y-1848269D01*
Y-1910400D01*
X6727907D01*
Y-1734537D01*
X6803598Y-1658847D01*
X7993910D01*
X8441154Y-2106091D01*
Y-3758909D01*
X7276409Y-4923653D01*
X3846091D01*
X3807900Y-4885463D01*
Y-4819600D01*
X3632099D01*
Y-4940400D01*
X3752963D01*
X3802532Y-4989968D01*
X3815134Y-4998389D01*
X3830000Y-5001346D01*
X7292500D01*
X7307366Y-4998389D01*
X7319969Y-4989968D01*
X8507469Y-3802468D01*
X8515889Y-3789865D01*
X8518847Y-3775000D01*
Y-2090000D01*
X8515889Y-2075134D01*
X8507469Y-2062531D01*
X8037469Y-1592531D01*
X8035995Y-1591546D01*
X8039847Y-1578846D01*
X8143909D01*
X9191153Y-2626091D01*
Y-4210000D01*
X9194110Y-4224866D01*
X9202531Y-4237469D01*
X9642531Y-4677469D01*
X9655134Y-4685890D01*
X9670000Y-4688847D01*
X10320000D01*
X10334866Y-4685890D01*
X10347469Y-4677469D01*
X10667468Y-4357469D01*
X10675889Y-4344866D01*
X10678846Y-4330000D01*
Y-3779501D01*
X10686966Y-3771381D01*
X10695400Y-3751020D01*
Y-3728980D01*
X10686966Y-3708618D01*
X10671381Y-3693034D01*
X10651020Y-3684600D01*
X10628980D01*
X10608618Y-3693034D01*
X10593034Y-3708618D01*
X10584600Y-3728980D01*
Y-3751020D01*
X10593034Y-3771381D01*
X10601153Y-3779501D01*
Y-4313910D01*
X10303909Y-4611154D01*
X9686091D01*
X9268846Y-4193909D01*
Y-2610000D01*
X9265889Y-2595134D01*
X9257468Y-2582531D01*
X8187469Y-1512531D01*
X8185995Y-1511546D01*
X8189847Y-1498846D01*
X8530000D01*
X8544866Y-1495889D01*
X8557469Y-1487468D01*
X9576091Y-468846D01*
X9753909D01*
X9851153Y-566090D01*
Y-2080499D01*
X9843034Y-2088619D01*
X9834600Y-2108980D01*
Y-2131020D01*
X9843034Y-2151382D01*
X9858618Y-2166966D01*
X9878980Y-2175400D01*
X9901020D01*
X9921381Y-2166966D01*
X9936966Y-2151382D01*
X9945400Y-2131020D01*
Y-2108980D01*
X9936966Y-2088619D01*
X9928846Y-2080499D01*
Y-550000D01*
X9925889Y-535134D01*
X9917468Y-522531D01*
X9797469Y-402531D01*
X9784866Y-394110D01*
X9770000Y-391153D01*
X9560000D01*
X9545134Y-394110D01*
X9532531Y-402531D01*
X8513909Y-1421153D01*
X6748766D01*
X6743938Y-1410222D01*
X6750086Y-1398847D01*
X8140000D01*
X8154866Y-1395890D01*
X8167468Y-1387469D01*
X9276091Y-278847D01*
X10082128D01*
X10598653Y-795371D01*
Y-1340499D01*
X10590534Y-1348619D01*
X10582099Y-1368980D01*
Y-1391020D01*
X10590534Y-1411381D01*
X10606118Y-1426966D01*
X10626480Y-1435400D01*
X10648519D01*
X10668881Y-1426966D01*
X10684465Y-1411381D01*
X10692899Y-1391020D01*
Y-1368980D01*
X10684465Y-1348619D01*
X10676346Y-1340499D01*
Y-779281D01*
X10673389Y-764415D01*
X10664968Y-751812D01*
X10125687Y-212531D01*
X10113085Y-204111D01*
X10098219Y-201154D01*
X9260000D01*
X9245134Y-204111D01*
X9232531Y-212531D01*
X8123909Y-1321154D01*
X6786574D01*
X6776006Y-1316006D01*
Y-1183994D01*
X6728094D01*
X6726441Y-1175686D01*
X6718021Y-1163084D01*
X6662677Y-1107739D01*
X6667537Y-1096006D01*
X6775607D01*
Y-963993D01*
X6739201D01*
Y-925715D01*
X6744802Y-917334D01*
X6748946Y-896499D01*
Y-777997D01*
X6744802Y-757162D01*
X6732999Y-739498D01*
X6715336Y-727696D01*
X6694500Y-723552D01*
X6673665Y-727696D01*
X6656001Y-739498D01*
X6644199Y-757162D01*
X6640054Y-777997D01*
Y-896499D01*
X6644199Y-917334D01*
X6656001Y-934998D01*
X6661508Y-938678D01*
Y-963993D01*
X6648994D01*
Y-1077958D01*
X6636294Y-1084746D01*
X6633906Y-1083151D01*
X6622900Y-1080962D01*
Y-987100D01*
X6609350D01*
Y-929983D01*
X6617802Y-917334D01*
X6621946Y-896499D01*
Y-777997D01*
X6617802Y-757162D01*
X6605999Y-739498D01*
X6588336Y-727696D01*
X6567500Y-723552D01*
X6546665Y-727696D01*
X6529001Y-739498D01*
X6517199Y-757162D01*
X6513054Y-777997D01*
Y-896499D01*
X6517199Y-917334D01*
X6529001Y-934998D01*
X6531657Y-936772D01*
Y-987100D01*
X6527100D01*
Y-1087900D01*
Y-1162900D01*
X6607962D01*
X6617323Y-1172260D01*
X6612463Y-1183994D01*
X6523994D01*
Y-1316007D01*
X6535082D01*
X6539942Y-1327740D01*
X6521226Y-1346456D01*
X6511030D01*
X6500710Y-1340710D01*
Y-1189290D01*
X6458904D01*
Y-1115710D01*
X6500710D01*
Y-964290D01*
X6479347D01*
Y-934478D01*
X6490802Y-917334D01*
X6494946Y-896499D01*
Y-777997D01*
X6490802Y-757162D01*
X6479347Y-740018D01*
Y-715500D01*
X6476390Y-700634D01*
X6467969Y-688032D01*
X6438834Y-658897D01*
X6435490Y-653892D01*
X6435964Y-651431D01*
X6439678Y-641192D01*
X6901689D01*
Y-648311D01*
X7198311D01*
Y-611387D01*
X7224600D01*
Y-635400D01*
X7625400D01*
Y-484600D01*
X7224600D01*
Y-508613D01*
X7198311D01*
Y-501689D01*
X6901689D01*
Y-558809D01*
X6761848D01*
X6758678Y-546109D01*
X6769127Y-539127D01*
X6889956Y-418298D01*
X6901689Y-423158D01*
Y-423311D01*
X7198311D01*
Y-401387D01*
X7224600D01*
Y-435400D01*
X7625400D01*
Y-284600D01*
X7224600D01*
Y-298613D01*
X7198311D01*
Y-276689D01*
X6901689D01*
Y-308809D01*
X6900000D01*
X6884237Y-311944D01*
X6870873Y-320873D01*
X6722938Y-468809D01*
X6650873D01*
X6647021Y-456109D01*
X6652469Y-452468D01*
X6717378Y-387559D01*
X6725799Y-374956D01*
X6728012Y-363833D01*
X6732999Y-360500D01*
X6744802Y-342837D01*
X6748946Y-322001D01*
Y-203500D01*
X6744802Y-182665D01*
X6732999Y-165001D01*
X6715336Y-153199D01*
X6694500Y-149054D01*
X6673665Y-153199D01*
X6656001Y-165001D01*
X6644199Y-182665D01*
X6640054Y-203500D01*
Y-322001D01*
X6644199Y-342837D01*
X6647414Y-347649D01*
X6608909Y-386153D01*
X6583802D01*
X6582551Y-373453D01*
X6588336Y-372303D01*
X6605999Y-360500D01*
X6617802Y-342837D01*
X6621946Y-322001D01*
Y-203500D01*
X6617802Y-182665D01*
X6606347Y-165521D01*
Y-147899D01*
X6612900D01*
Y-104758D01*
X6613846Y-100000D01*
X6612900Y-95241D01*
X6612900Y-52100D01*
X6624730Y-50000D01*
X7804600D01*
Y-225400D01*
X8195400D01*
Y-50000D01*
X11850000D01*
Y-5050000D01*
D02*
G37*
G36*
X977100Y-54096D02*
X977100Y-62700D01*
Y-282895D01*
X1226260D01*
Y-370000D01*
X1229589Y-386739D01*
X1239071Y-400929D01*
X1338104Y-499962D01*
X1352294Y-509443D01*
X1369033Y-512773D01*
X1480915D01*
X1549758Y-581616D01*
X1545128Y-594947D01*
X1526786Y-602545D01*
X1509795Y-619536D01*
X1506563Y-627339D01*
X1498961Y-627984D01*
X1493133Y-626575D01*
X1486045Y-609463D01*
X1473559Y-593191D01*
X1457286Y-580704D01*
X1438336Y-572855D01*
X1430700Y-571849D01*
Y-691050D01*
X1496572D01*
Y-689226D01*
X1509272Y-686700D01*
X1509795Y-687963D01*
X1526786Y-704954D01*
X1548986Y-714149D01*
X1554600D01*
Y-844149D01*
X1557100D01*
Y-927900D01*
X1644600D01*
Y-948564D01*
X1627015Y-966150D01*
X1500000D01*
X1487046Y-968726D01*
X1476064Y-976064D01*
X1396064Y-1056064D01*
X1388726Y-1067046D01*
X1386150Y-1080000D01*
Y-1084600D01*
X1354600D01*
Y-1084600D01*
X1343740Y-1080157D01*
Y-810799D01*
X1356440Y-806488D01*
X1362441Y-814308D01*
X1378714Y-826795D01*
X1397664Y-834644D01*
X1405300Y-835650D01*
Y-703750D01*
Y-571849D01*
X1397664Y-572855D01*
X1378714Y-580704D01*
X1362441Y-593191D01*
X1355600Y-602106D01*
X1342900Y-597795D01*
Y-577105D01*
X1052699D01*
X1051536Y-575364D01*
X989836Y-513664D01*
X973165Y-502524D01*
X953500Y-498613D01*
X900000D01*
X880335Y-502524D01*
X873488Y-507099D01*
X854580D01*
Y-527259D01*
X852524Y-530335D01*
X848613Y-550000D01*
X852524Y-569665D01*
X854580Y-572741D01*
Y-592901D01*
X873488D01*
X880335Y-597476D01*
X900000Y-601387D01*
X932215D01*
X942418Y-611590D01*
X937157Y-624290D01*
X789404D01*
Y-775710D01*
X831211D01*
Y-806260D01*
X510000D01*
X493261Y-809589D01*
X479071Y-819071D01*
X119071Y-1179071D01*
X112700Y-1188606D01*
X100000Y-1184753D01*
Y-50000D01*
X966096D01*
X977100Y-54096D01*
D02*
G37*
G36*
X6401654Y-731591D02*
Y-740018D01*
X6390199Y-757162D01*
X6386054Y-777997D01*
Y-896499D01*
X6390199Y-917334D01*
X6401654Y-934478D01*
Y-964290D01*
X6339404D01*
Y-1115710D01*
X6381211D01*
Y-1189290D01*
X6339404D01*
Y-1340710D01*
X6329084Y-1346456D01*
X5440000D01*
X5427163Y-1349009D01*
X5416280Y-1356280D01*
X5286280Y-1486280D01*
X5279009Y-1497163D01*
X5276455Y-1510000D01*
Y-1626106D01*
X5256687Y-1645874D01*
X5247469Y-1637468D01*
X5255889Y-1624866D01*
X5258846Y-1610000D01*
Y-1330000D01*
X5255889Y-1315134D01*
X5247469Y-1302531D01*
X5127469Y-1182532D01*
X5114866Y-1174111D01*
X5100000Y-1171154D01*
X4680000D01*
X4665134Y-1174111D01*
X4652531Y-1182532D01*
X4462532Y-1372531D01*
X4454111Y-1385134D01*
X4451154Y-1400000D01*
Y-1404601D01*
X4410189D01*
X4407665Y-1391914D01*
X4403803Y-1386134D01*
X4641089Y-1148848D01*
X5183908D01*
X5203780Y-1168720D01*
X5216382Y-1177141D01*
X5231248Y-1180098D01*
X5951005D01*
X5962092Y-1183994D01*
Y-1316007D01*
X6088706D01*
Y-1183994D01*
X6064046D01*
Y-1141252D01*
X6063846Y-1140249D01*
Y-1116006D01*
X6088307D01*
Y-1041630D01*
X6180238Y-949699D01*
X6186500Y-950945D01*
X6207336Y-946800D01*
X6224999Y-934998D01*
X6236802Y-917334D01*
X6240946Y-896499D01*
Y-777997D01*
X6236802Y-757162D01*
X6226937Y-742399D01*
Y-728000D01*
X6235136Y-719801D01*
X6281621D01*
X6285473Y-732501D01*
X6275001Y-739498D01*
X6263199Y-757162D01*
X6259054Y-777997D01*
Y-896499D01*
X6263199Y-917334D01*
X6275001Y-934998D01*
X6292665Y-946800D01*
X6313500Y-950945D01*
X6334336Y-946800D01*
X6351999Y-934998D01*
X6363802Y-917334D01*
X6367946Y-896499D01*
Y-777997D01*
X6363802Y-757162D01*
X6351999Y-739498D01*
X6341527Y-732501D01*
X6345379Y-719801D01*
X6389864D01*
X6401654Y-731591D01*
D02*
G37*
G36*
X6050846Y-476546D02*
X6044371Y-480873D01*
X5800747Y-724497D01*
X5784665Y-727696D01*
X5767001Y-739498D01*
X5755199Y-757162D01*
X5751054Y-777997D01*
Y-896499D01*
X5755199Y-917334D01*
X5767001Y-934998D01*
X5784665Y-946800D01*
X5805500Y-950945D01*
X5826336Y-946800D01*
X5843999Y-934998D01*
X5855802Y-917334D01*
X5859946Y-896499D01*
Y-781805D01*
X6090560Y-551191D01*
X6128152D01*
X6131322Y-563891D01*
X6120873Y-570873D01*
X6030374Y-661373D01*
X6021444Y-674737D01*
X6018309Y-690500D01*
Y-743528D01*
X6009199Y-757162D01*
X6005054Y-777997D01*
Y-896499D01*
X6009199Y-917334D01*
X6021001Y-934998D01*
X6038665Y-946800D01*
X6052542Y-949560D01*
X6056722Y-963341D01*
X6036069Y-983993D01*
X5961693D01*
Y-1102405D01*
X5247339D01*
X5227467Y-1082533D01*
X5220212Y-1077686D01*
X5217303Y-1062634D01*
X5597468Y-682469D01*
X5816091Y-463846D01*
X6046994D01*
X6050846Y-476546D01*
D02*
G37*
G36*
X1777840Y-911274D02*
X1790794Y-913850D01*
X1856625D01*
X1856900Y-913795D01*
X1869600Y-924218D01*
Y-1005400D01*
X1891150D01*
Y-1020979D01*
X1790979Y-1121150D01*
X1615400D01*
Y-1084600D01*
X1479865D01*
X1475005Y-1072867D01*
X1514021Y-1033850D01*
X1641036D01*
X1653990Y-1031274D01*
X1664972Y-1023936D01*
X1683507Y-1005400D01*
X1755400D01*
Y-933507D01*
X1777716Y-911191D01*
X1777840Y-911274D01*
D02*
G37*
G36*
X2157726Y-1474227D02*
X2170530Y-1476774D01*
X2173077Y-1489578D01*
X2180041Y-1499999D01*
X2173077Y-1510420D01*
X2170178Y-1524999D01*
X2173077Y-1539578D01*
X2180041Y-1549999D01*
X2173077Y-1560420D01*
X2170178Y-1574999D01*
X2173077Y-1589578D01*
X2180041Y-1599999D01*
X2173077Y-1610420D01*
X2170178Y-1624999D01*
X2173077Y-1639578D01*
X2181336Y-1651937D01*
X2193695Y-1660196D01*
X2208274Y-1663095D01*
X2240839D01*
X2244610Y-1663846D01*
X2263385D01*
X2357008Y-1757469D01*
X2369610Y-1765890D01*
X2384476Y-1768847D01*
X2680000D01*
X2694866Y-1765890D01*
X2707468Y-1757469D01*
X2917468Y-1547469D01*
X2925889Y-1534866D01*
X2928453Y-1521976D01*
X2941153Y-1523226D01*
Y-1603909D01*
X2733909Y-1811154D01*
X2196091D01*
X2161151Y-1776214D01*
Y-1697305D01*
X2160401Y-1693533D01*
Y-1660968D01*
X2157501Y-1646389D01*
X2149243Y-1634030D01*
X2136884Y-1625772D01*
X2122305Y-1622872D01*
X2107726Y-1625772D01*
X2097305Y-1632735D01*
X2086884Y-1625772D01*
X2072305Y-1622872D01*
X2057726Y-1625772D01*
X2047305Y-1632735D01*
X2036884Y-1625772D01*
X2024079Y-1623225D01*
X2021532Y-1610420D01*
X2014569Y-1599999D01*
X2021532Y-1589578D01*
X2024432Y-1574999D01*
X2021532Y-1560420D01*
X2014569Y-1549999D01*
X2021532Y-1539578D01*
X2024432Y-1524999D01*
X2022266Y-1514111D01*
X2023701Y-1512363D01*
X2023700D01*
Y-1476849D01*
X2036884Y-1474227D01*
X2047305Y-1467263D01*
X2057726Y-1474227D01*
X2072305Y-1477127D01*
X2086884Y-1474227D01*
X2097305Y-1467263D01*
X2107726Y-1474227D01*
X2122305Y-1477127D01*
X2136884Y-1474227D01*
X2147305Y-1467263D01*
X2157726Y-1474227D01*
D02*
G37*
G36*
X2742100Y-1389538D02*
Y-1445400D01*
X2851153D01*
Y-1503909D01*
X2663909Y-1691154D01*
X2400567D01*
X2339886Y-1630473D01*
X2344746Y-1618739D01*
X2409233D01*
Y-1645710D01*
X2570538D01*
Y-1494290D01*
X2570539D01*
X2565748Y-1482726D01*
X2680929Y-1367545D01*
X2689427Y-1354826D01*
X2696828Y-1351408D01*
X2702308Y-1349746D01*
X2742100Y-1389538D01*
D02*
G37*
G36*
X4302926Y-1392867D02*
X4298066Y-1404601D01*
X4209601D01*
Y-1615400D01*
X4231154D01*
Y-1743908D01*
X4133909Y-1841154D01*
X4085400D01*
Y-1832100D01*
X3964537D01*
X3886187Y-1753750D01*
X3902466Y-1737470D01*
X3910887Y-1724868D01*
X3924667Y-1720692D01*
X3931443Y-1727468D01*
X3944046Y-1735889D01*
X3958912Y-1738846D01*
X3973994D01*
Y-1766006D01*
X4100607D01*
Y-1633993D01*
X3973994D01*
Y-1643551D01*
X3962260Y-1648411D01*
X3913844Y-1599995D01*
Y-1522170D01*
Y-1391093D01*
X4016091Y-1288847D01*
X4198905D01*
X4302926Y-1392867D01*
D02*
G37*
G36*
X1984209Y-1693533D02*
X1983459Y-1697305D01*
Y-1711604D01*
X1882531Y-1812531D01*
X1874111Y-1825134D01*
X1871153Y-1840000D01*
Y-1900000D01*
X1874111Y-1914866D01*
X1882531Y-1927469D01*
X1942531Y-1987469D01*
X1951647Y-1993560D01*
X1947795Y-2006260D01*
X1900000D01*
X1883261Y-2009589D01*
X1869071Y-2019071D01*
X1814437Y-2073705D01*
X1804955Y-2087895D01*
X1801626Y-2104634D01*
Y-2200100D01*
X1792600D01*
Y-2268560D01*
X1691006D01*
Y-2248993D01*
X1558993D01*
Y-2375607D01*
X1691006D01*
Y-2356040D01*
X1776972D01*
X1783996Y-2368741D01*
X1781259Y-2382500D01*
Y-2442500D01*
X1784589Y-2459238D01*
X1787100Y-2462996D01*
Y-2497899D01*
X1862899D01*
Y-2497900D01*
X1864532Y-2496560D01*
X1875000Y-2498642D01*
X1889788Y-2495700D01*
X1900000Y-2488877D01*
X1910212Y-2495700D01*
X1925000Y-2498642D01*
X1939788Y-2495700D01*
X1949604Y-2489141D01*
X1987353Y-2526890D01*
Y-2527766D01*
X1915830Y-2599289D01*
X1814404D01*
Y-2750710D01*
X1975710D01*
Y-2649284D01*
X2042728Y-2582265D01*
X2049931Y-2589468D01*
X2062533Y-2597889D01*
X2077399Y-2600846D01*
X2129600D01*
Y-2636399D01*
X2344462D01*
X2352654Y-2644591D01*
Y-3014909D01*
X2325463Y-3042100D01*
X2282100D01*
Y-3142900D01*
Y-3193654D01*
X2271499Y-3202899D01*
X2260000Y-3198895D01*
Y-2880000D01*
X1940000D01*
Y-3200000D01*
X2070989D01*
X2079939Y-3209010D01*
X2079800Y-3229805D01*
X2069955Y-3237829D01*
X2066190Y-3237080D01*
X2029658D01*
X2025000Y-3236154D01*
X1923333D01*
Y-3223079D01*
X1827534D01*
Y-3307715D01*
X1814834Y-3312976D01*
X1786006Y-3284148D01*
Y-3219392D01*
X1653993D01*
Y-3246295D01*
X1439139D01*
Y-1722719D01*
X1461589Y-1700269D01*
X1474289Y-1705529D01*
Y-1860595D01*
X1625709D01*
Y-1761147D01*
X1718117Y-1668740D01*
X1783361D01*
X1788622Y-1681440D01*
X1767962Y-1702099D01*
X1724600D01*
Y-1797899D01*
X1825399D01*
Y-1754536D01*
X1916090Y-1663846D01*
X1949999D01*
X1953771Y-1663095D01*
X1984209D01*
Y-1693533D01*
D02*
G37*
G36*
X3113760Y-1552100D02*
X3112100D01*
Y-1652900D01*
Y-1727900D01*
X3121154D01*
Y-1863909D01*
X3063909Y-1921153D01*
X2055400D01*
Y-1873953D01*
X2056146Y-1870200D01*
Y-1858791D01*
X2095000Y-1819937D01*
X2152531Y-1877469D01*
X2165134Y-1885890D01*
X2180000Y-1888847D01*
X2750000D01*
X2764866Y-1885890D01*
X2777468Y-1877469D01*
X3007468Y-1647469D01*
X3015889Y-1634866D01*
X3018846Y-1620000D01*
Y-1460400D01*
X3113760D01*
Y-1552100D01*
D02*
G37*
G36*
X5181153Y-1346091D02*
Y-1593909D01*
X4873909Y-1901153D01*
X4550000D01*
X4539694Y-1903203D01*
X4533438Y-1891499D01*
X4546091Y-1878846D01*
X4620000D01*
X4634866Y-1875889D01*
X4647469Y-1867468D01*
X4737469Y-1777469D01*
X4745889Y-1764866D01*
X4748846Y-1750000D01*
Y-1615400D01*
X4990399D01*
Y-1404601D01*
X4649600D01*
Y-1615400D01*
X4671153D01*
Y-1733909D01*
X4603910Y-1801153D01*
X4530000D01*
X4515134Y-1804110D01*
X4502532Y-1812531D01*
X4250751Y-2064311D01*
X4242331Y-2076914D01*
X4239807Y-2089601D01*
X4196099D01*
Y-2350400D01*
X5751153D01*
Y-2378909D01*
X5738909Y-2391153D01*
X4076090D01*
X4068846Y-2383909D01*
Y-2166091D01*
X4402070Y-1832868D01*
X4410491Y-1820265D01*
X4413448Y-1805399D01*
Y-1778847D01*
X4442100D01*
Y-1787900D01*
X4537900D01*
Y-1712900D01*
Y-1615400D01*
X4550400D01*
Y-1404601D01*
X4550401D01*
X4547453Y-1397484D01*
X4696090Y-1248847D01*
X5083910D01*
X5181153Y-1346091D01*
D02*
G37*
G36*
X5694005Y-1591546D02*
X5692531Y-1592531D01*
X5638531Y-1646531D01*
X5630110Y-1659134D01*
X5627153Y-1674000D01*
Y-1820000D01*
Y-1949858D01*
X5617198Y-1958012D01*
X5606006Y-1955747D01*
Y-1899392D01*
X5473993D01*
Y-2026006D01*
X5541512D01*
X5552608Y-2033420D01*
X5567474Y-2036377D01*
X5597440D01*
X5627153Y-2066091D01*
Y-2089601D01*
X5213297D01*
X5208036Y-2076901D01*
X5477469Y-1807468D01*
X5485889Y-1794866D01*
X5488847Y-1780000D01*
Y-1706091D01*
X5616091Y-1578846D01*
X5690153D01*
X5694005Y-1591546D01*
D02*
G37*
G36*
X1699599Y-1302100D02*
X1699599D01*
Y-1397898D01*
X1699599Y-1397899D01*
Y-1402100D01*
X1699599D01*
X1699599Y-1410599D01*
Y-1497899D01*
X1694600Y-1502100D01*
X1694600D01*
Y-1581259D01*
X1475001D01*
X1458262Y-1584588D01*
X1444072Y-1594070D01*
X1364470Y-1673672D01*
X1354988Y-1687862D01*
X1351659Y-1704601D01*
Y-3264600D01*
X1272034D01*
X1242900Y-3235467D01*
Y-3169604D01*
X1228308D01*
X1225905Y-3157900D01*
X1225905Y-3156904D01*
Y-2792100D01*
X997105D01*
Y-2806260D01*
X893118D01*
X796240Y-2709382D01*
Y-2570000D01*
X795400Y-2565775D01*
Y-2337100D01*
X644600D01*
Y-2737900D01*
X710828D01*
X712089Y-2744239D01*
X721571Y-2758429D01*
X844071Y-2880929D01*
X858261Y-2890411D01*
X875000Y-2893740D01*
X997105D01*
Y-3157900D01*
X1064696D01*
X1067099Y-3169604D01*
X1067099Y-3170600D01*
Y-3282907D01*
X1054399Y-3289695D01*
X1054246Y-3289593D01*
X1037507Y-3286264D01*
X942900D01*
Y-3269604D01*
X772033D01*
X742900Y-3240471D01*
Y-3174608D01*
X567099D01*
Y-3295408D01*
X687963D01*
X716153Y-3323598D01*
Y-3364600D01*
X567099D01*
X567099Y-3364600D01*
Y-3364600D01*
X558324Y-3356466D01*
X553740Y-3351882D01*
Y-3157900D01*
X702895D01*
Y-2792100D01*
X474096D01*
X463740Y-2786439D01*
Y-2498118D01*
X643118Y-2318740D01*
X831883D01*
X839509Y-2326366D01*
X844600Y-2337100D01*
X844600D01*
X844600Y-2337101D01*
Y-2737900D01*
X995400D01*
Y-2337100D01*
X957586D01*
X954690Y-2322540D01*
X945208Y-2308350D01*
X880929Y-2244071D01*
X866739Y-2234589D01*
X850000Y-2231260D01*
X625000D01*
X608261Y-2234589D01*
X594071Y-2244071D01*
X389071Y-2449071D01*
X379589Y-2463261D01*
X376550Y-2478539D01*
X363850Y-2477288D01*
Y-1814021D01*
X372867Y-1805005D01*
X384600Y-1809865D01*
Y-2157900D01*
X585400D01*
Y-1767100D01*
X427365D01*
X422505Y-1755367D01*
X574021Y-1603850D01*
X1330000D01*
X1342954Y-1601274D01*
X1353936Y-1593936D01*
X1442472Y-1505400D01*
X1565400D01*
Y-1395400D01*
X1615400D01*
Y-1290284D01*
X1697463D01*
X1699599Y-1302100D01*
D02*
G37*
G36*
X6446210Y-1756147D02*
Y-2075000D01*
X6449167Y-2089866D01*
X6457588Y-2102468D01*
X6491938Y-2136819D01*
X6491939Y-2136819D01*
X6662588Y-2307469D01*
X6675191Y-2315889D01*
X6690057Y-2318847D01*
X7100000D01*
X7110306Y-2316796D01*
X7116562Y-2328501D01*
X6753910Y-2691153D01*
X6399847D01*
X6395995Y-2678453D01*
X6397469Y-2677469D01*
X6519537Y-2555400D01*
X6531020D01*
X6551381Y-2546966D01*
X6566966Y-2531382D01*
X6575400Y-2511020D01*
Y-2488980D01*
X6566966Y-2468619D01*
X6551381Y-2453034D01*
X6535718Y-2446546D01*
X6538244Y-2433846D01*
X6678909D01*
X6731153Y-2486091D01*
Y-2510499D01*
X6723034Y-2518619D01*
X6714600Y-2538980D01*
Y-2561020D01*
X6723034Y-2581381D01*
X6738618Y-2596966D01*
X6758980Y-2605400D01*
X6781020D01*
X6801381Y-2596966D01*
X6816966Y-2581381D01*
X6825400Y-2561020D01*
Y-2538980D01*
X6816966Y-2518619D01*
X6808846Y-2510499D01*
Y-2470000D01*
X6805889Y-2455134D01*
X6797468Y-2442532D01*
X6722468Y-2367531D01*
X6709865Y-2359110D01*
X6695000Y-2356153D01*
X5876218D01*
X5865900Y-2350400D01*
Y-2089601D01*
X5843296D01*
X5838036Y-2076901D01*
X5859226Y-2055710D01*
X5965595D01*
Y-1904290D01*
X5923789D01*
Y-1825710D01*
X5965595D01*
Y-1674290D01*
X5804289D01*
Y-1825710D01*
X5846095D01*
Y-1893197D01*
X5833395Y-1898458D01*
X5810259Y-1875322D01*
X5797657Y-1866901D01*
X5787900Y-1864960D01*
Y-1769600D01*
X5704846D01*
Y-1690091D01*
X5736090Y-1658847D01*
X6348909D01*
X6446210Y-1756147D01*
D02*
G37*
G36*
X4335755Y-1740000D02*
Y-1789308D01*
X4002531Y-2122532D01*
X3994110Y-2135134D01*
X3991153Y-2150000D01*
Y-2400000D01*
X3994110Y-2414866D01*
X4002531Y-2427469D01*
X4032531Y-2457469D01*
X4045134Y-2465889D01*
X4060000Y-2468846D01*
X5755000D01*
X5769866Y-2465889D01*
X5782468Y-2457469D01*
X5806090Y-2433846D01*
X6501755D01*
X6504282Y-2446546D01*
X6488618Y-2453034D01*
X6473034Y-2468619D01*
X6464600Y-2488980D01*
Y-2500463D01*
X6353909Y-2611154D01*
X4890000D01*
X4875134Y-2614111D01*
X4862531Y-2622531D01*
X4276332Y-3208731D01*
X4267911Y-3221334D01*
X4264954Y-3236200D01*
Y-3889623D01*
X4196099D01*
Y-4133202D01*
X4183399Y-4138462D01*
X3247468Y-3202531D01*
X3234866Y-3194110D01*
X3220000Y-3191153D01*
X2592342D01*
X2585286Y-3180594D01*
X2585400Y-3180320D01*
Y-3158280D01*
X2576966Y-3137919D01*
X2561381Y-3122334D01*
X2541020Y-3113900D01*
X2518980D01*
X2498619Y-3122334D01*
X2493100Y-3127853D01*
X2480400Y-3125448D01*
Y-3042100D01*
X2439537D01*
X2430347Y-3032910D01*
Y-2636399D01*
X2520400D01*
Y-2600846D01*
X3023000D01*
X3037866Y-2597889D01*
X3050469Y-2589468D01*
X3831250Y-1808687D01*
X3909600Y-1887037D01*
Y-1927900D01*
X4030569D01*
X4035429Y-1939633D01*
X3717531Y-2257531D01*
X3709110Y-2270134D01*
X3706153Y-2285000D01*
Y-2570000D01*
X3709110Y-2584866D01*
X3717531Y-2597469D01*
X3823055Y-2702993D01*
X3835658Y-2711414D01*
X3850524Y-2714371D01*
X3989096D01*
Y-2748425D01*
Y-2875425D01*
Y-3002425D01*
Y-3129425D01*
Y-3256425D01*
Y-3383425D01*
Y-3467565D01*
X3977362Y-3472425D01*
X3227469Y-2722532D01*
X3214866Y-2714111D01*
X3200000Y-2711154D01*
X2739501D01*
X2734061Y-2705714D01*
X2713699Y-2697280D01*
X2691660D01*
X2671298Y-2705714D01*
X2655714Y-2721298D01*
X2647280Y-2741660D01*
Y-2763700D01*
X2655714Y-2784061D01*
X2671298Y-2799646D01*
X2691660Y-2808080D01*
X2713699D01*
X2734061Y-2799646D01*
X2744860Y-2788847D01*
X3183910D01*
X3963806Y-3568743D01*
X3976409Y-3577164D01*
X3989096Y-3579687D01*
Y-3652678D01*
X3907615D01*
X3137468Y-2882531D01*
X3124866Y-2874111D01*
X3110000Y-2871154D01*
X2604503D01*
X2599063Y-2865714D01*
X2578702Y-2857280D01*
X2556662D01*
X2536300Y-2865714D01*
X2520716Y-2881298D01*
X2512282Y-2901660D01*
Y-2923700D01*
X2520716Y-2944061D01*
X2536300Y-2959646D01*
X2556662Y-2968080D01*
X2578702D01*
X2599063Y-2959646D01*
X2609862Y-2948847D01*
X3093909D01*
X3864056Y-3718993D01*
X3876658Y-3727414D01*
X3891524Y-3730371D01*
X3989096D01*
Y-3764425D01*
X4249895D01*
Y-3637425D01*
Y-3510425D01*
Y-3383425D01*
Y-3256425D01*
Y-3129425D01*
Y-3002425D01*
Y-2875425D01*
Y-2748425D01*
Y-2602624D01*
X3989096D01*
Y-2636678D01*
X3866615D01*
X3783846Y-2553910D01*
Y-2301091D01*
X4177469Y-1907469D01*
X4177469Y-1907468D01*
X4297469Y-1787468D01*
X4305890Y-1774865D01*
X4308847Y-1759999D01*
Y-1615400D01*
X4335755D01*
Y-1740000D01*
D02*
G37*
G36*
X7574596Y-2080398D02*
X7945395D01*
Y-1806926D01*
X7957129Y-1802065D01*
X8301154Y-2146090D01*
Y-3578909D01*
X8077500Y-3802562D01*
X7938846Y-3663909D01*
Y-3607900D01*
X8025400D01*
Y-3512100D01*
X8013847D01*
Y-3486006D01*
X8036006D01*
Y-3353994D01*
X8011546D01*
Y-2782699D01*
X8008589Y-2767833D01*
X8000168Y-2755231D01*
X7786037Y-2541100D01*
Y-2538980D01*
X7777603Y-2518619D01*
X7762019Y-2503034D01*
X7741657Y-2494600D01*
X7728709D01*
X7720522Y-2489130D01*
X7705656Y-2486173D01*
X7685403D01*
Y-2482619D01*
X7459540D01*
X7454238Y-2482130D01*
X7447353Y-2472922D01*
Y-2427584D01*
X7456784Y-2418153D01*
X7565704D01*
X7569457Y-2417407D01*
X7685403D01*
Y-2317407D01*
Y-2217407D01*
Y-2132607D01*
X7454604D01*
Y-2136161D01*
X7204993D01*
X7190127Y-2139118D01*
X7177524Y-2147539D01*
X7083909Y-2241154D01*
X6911744D01*
X6906484Y-2228454D01*
X7223791Y-1911146D01*
X7285207D01*
X7288960Y-1910400D01*
X7432908D01*
Y-1788847D01*
X7574596D01*
Y-2080398D01*
D02*
G37*
G36*
X6274005Y-2701547D02*
X6272532Y-2702531D01*
X5520550Y-3454513D01*
X4952861D01*
X4941381Y-3443034D01*
X4921020Y-3434600D01*
X4898980D01*
X4878618Y-3443034D01*
X4863034Y-3458618D01*
X4854600Y-3478980D01*
Y-3501020D01*
X4863034Y-3521381D01*
X4878618Y-3536966D01*
X4898980Y-3545400D01*
X4921020D01*
X4941381Y-3536966D01*
X4946141Y-3532206D01*
X5536640D01*
X5551506Y-3529249D01*
X5564109Y-3520828D01*
X6316091Y-2768846D01*
X6506774D01*
X6508024Y-2781546D01*
X6495134Y-2784111D01*
X6482531Y-2792531D01*
X5688909Y-3586154D01*
X4600000D01*
X4585134Y-3589111D01*
X4572531Y-3597532D01*
X4403332Y-3766731D01*
X4394911Y-3779334D01*
X4391954Y-3794199D01*
Y-3889623D01*
X4342647D01*
Y-3252290D01*
X4906091Y-2688847D01*
X6270153D01*
X6274005Y-2701547D01*
D02*
G37*
G36*
X6864600Y-3098298D02*
Y-3187899D01*
X6852606Y-3189604D01*
X6827100D01*
Y-3252963D01*
X6737531Y-3342531D01*
X6729110Y-3355134D01*
X6726153Y-3370000D01*
Y-3993910D01*
X6488910Y-4231153D01*
X5771090D01*
X5704846Y-4164909D01*
Y-4150422D01*
X5865900D01*
Y-3988975D01*
X5866647Y-3985222D01*
Y-3888846D01*
X6040000D01*
X6054866Y-3885889D01*
X6067469Y-3877468D01*
X6851900Y-3093037D01*
X6864600Y-3098298D01*
D02*
G37*
G36*
X4292531Y-4357469D02*
X4305134Y-4365889D01*
X4320000Y-4368846D01*
X4570000D01*
X4584866Y-4365889D01*
X4597469Y-4357469D01*
X4677468Y-4277469D01*
X4685889Y-4264866D01*
X4688846Y-4250000D01*
Y-4150422D01*
X4992153D01*
Y-4232909D01*
X4793909Y-4431153D01*
X4286091D01*
X3247469Y-3392531D01*
X3234866Y-3384111D01*
X3220000Y-3381154D01*
X2682171D01*
X2675400Y-3371019D01*
Y-3348980D01*
X2666966Y-3328618D01*
X2651381Y-3313034D01*
X2631020Y-3304600D01*
X2608980D01*
X2588618Y-3313034D01*
X2573034Y-3328618D01*
X2564600Y-3348980D01*
Y-3371019D01*
X2557813Y-3381154D01*
X2376090D01*
X2293198Y-3298261D01*
X2322613Y-3268846D01*
X3203909D01*
X4292531Y-4357469D01*
D02*
G37*
G36*
X1256260Y-1230167D02*
X1259589Y-1246906D01*
X1269071Y-1261096D01*
X1285448Y-1277473D01*
X1299638Y-1286955D01*
X1316377Y-1290284D01*
X1354600D01*
Y-1374600D01*
X1254600D01*
Y-1406150D01*
X570000D01*
X557046Y-1408726D01*
X546064Y-1416064D01*
X226064Y-1736064D01*
X218726Y-1747046D01*
X216150Y-1760000D01*
Y-4290000D01*
X218726Y-4302954D01*
X226064Y-4313935D01*
X346065Y-4433936D01*
X357046Y-4441274D01*
X370000Y-4443850D01*
X1945979D01*
X2156565Y-4654437D01*
X2167547Y-4661775D01*
X2180501Y-4664351D01*
X2406895D01*
X2410002Y-4669000D01*
X2427665Y-4680802D01*
X2448501Y-4684947D01*
X2567002D01*
X2587837Y-4680802D01*
X2605501Y-4669000D01*
X2617303Y-4651337D01*
X2621448Y-4630501D01*
X2617303Y-4609665D01*
X2605501Y-4592002D01*
X2587837Y-4580200D01*
X2567002Y-4576055D01*
X2448501D01*
X2427665Y-4580200D01*
X2410002Y-4592002D01*
X2406895Y-4596651D01*
X2194522D01*
X1983936Y-4386064D01*
X1972954Y-4378726D01*
X1962014Y-4376550D01*
X1963265Y-4363850D01*
X1985979D01*
X2149565Y-4527437D01*
X2160547Y-4534775D01*
X2173501Y-4537351D01*
X2406895D01*
X2410002Y-4542000D01*
X2427665Y-4553802D01*
X2448501Y-4557947D01*
X2567002D01*
X2587837Y-4553802D01*
X2605501Y-4542000D01*
X2617303Y-4524337D01*
X2621448Y-4503501D01*
X2617303Y-4482665D01*
X2605501Y-4465002D01*
X2587837Y-4453200D01*
X2567002Y-4449055D01*
X2448501D01*
X2427665Y-4453200D01*
X2410002Y-4465002D01*
X2406895Y-4469651D01*
X2187522D01*
X2023936Y-4306064D01*
X2012954Y-4298726D01*
X2000000Y-4296150D01*
X424022D01*
X405416Y-4277544D01*
X410276Y-4265811D01*
X577938D01*
Y-4112951D01*
X579201Y-4112700D01*
X593391Y-4103218D01*
X678956Y-4017653D01*
X683083Y-4020411D01*
X699822Y-4023740D01*
X950000D01*
X966739Y-4020411D01*
X980929Y-4010929D01*
X1093415Y-3898443D01*
X1102897Y-3884252D01*
X1106227Y-3867513D01*
Y-3862926D01*
X1115387D01*
Y-3810412D01*
X1115412D01*
Y-3765388D01*
X1144612D01*
Y-3810412D01*
X1180340D01*
X1181054Y-3810890D01*
X1195920Y-3813847D01*
X1264600D01*
Y-3835400D01*
X1395400D01*
Y-3724600D01*
X1264600D01*
Y-3736154D01*
X1250388D01*
Y-3687125D01*
X1236334D01*
Y-3573603D01*
X1273560Y-3536377D01*
X1286260Y-3541638D01*
Y-3594600D01*
X1264600D01*
Y-3705400D01*
X1395400D01*
Y-3594600D01*
X1373740D01*
Y-3385400D01*
X1442900D01*
Y-3333776D01*
X1653993D01*
Y-3346006D01*
X1724148D01*
X1750699Y-3372557D01*
X1745838Y-3384290D01*
X1619404D01*
Y-3535710D01*
X1780710D01*
Y-3488847D01*
X1827100D01*
Y-3500400D01*
X1828069D01*
X1832929Y-3512133D01*
X1751519Y-3593543D01*
X1737953D01*
X1734200Y-3594290D01*
X1619690D01*
Y-3745710D01*
X1608767Y-3750000D01*
X1530000D01*
X1100000Y-4180000D01*
Y-4190000D01*
X710000D01*
Y-4250000D01*
X720000Y-4260000D01*
X1130000D01*
Y-4260000D01*
X1570000Y-3820000D01*
X1890000D01*
X1905000Y-3805000D01*
X2137500Y-3572500D01*
Y-3412192D01*
X2268631D01*
Y-3400162D01*
X2280364Y-3395302D01*
X2332531Y-3447469D01*
X2345134Y-3455889D01*
X2360000Y-3458847D01*
X3203910D01*
X4242532Y-4497469D01*
X4255134Y-4505889D01*
X4270000Y-4508846D01*
X4810000D01*
X4824866Y-4505889D01*
X4837469Y-4497469D01*
X5058468Y-4276469D01*
X5066889Y-4263866D01*
X5069846Y-4249000D01*
Y-4150422D01*
X5246153D01*
Y-4194600D01*
X5238980D01*
X5218618Y-4203034D01*
X5203034Y-4218618D01*
X5194600Y-4238980D01*
Y-4261020D01*
X5203034Y-4281381D01*
X5218618Y-4296966D01*
X5238980Y-4305400D01*
X5261020D01*
X5281381Y-4296966D01*
X5296966Y-4281381D01*
X5305400Y-4261020D01*
Y-4249537D01*
X5312469Y-4242469D01*
X5320889Y-4229866D01*
X5323846Y-4215000D01*
Y-4150422D01*
X5373153D01*
Y-4241909D01*
X5053909Y-4561153D01*
X4236091D01*
X3197469Y-3522532D01*
X3184866Y-3514111D01*
X3170001Y-3511154D01*
X2820000D01*
X2805134Y-3514111D01*
X2792531Y-3522532D01*
X2697531Y-3617532D01*
X2689110Y-3630134D01*
X2686153Y-3645000D01*
Y-3948412D01*
X2566510Y-4068055D01*
X2448501D01*
X2427665Y-4072200D01*
X2411547Y-4082969D01*
X2398847Y-4079577D01*
Y-3946034D01*
X2454170Y-3890711D01*
X2555595D01*
Y-3739291D01*
X2394290D01*
Y-3840716D01*
X2332532Y-3902475D01*
X2324111Y-3915077D01*
X2321154Y-3929943D01*
Y-4288001D01*
X2324111Y-4302867D01*
X2332532Y-4315469D01*
X2394177Y-4377114D01*
X2398199Y-4397337D01*
X2410002Y-4415000D01*
X2427665Y-4426802D01*
X2448501Y-4430947D01*
X2567002D01*
X2587837Y-4426802D01*
X2605501Y-4415000D01*
X2617303Y-4397337D01*
X2621448Y-4376501D01*
X2617303Y-4355665D01*
X2605501Y-4338002D01*
X2587837Y-4326200D01*
X2567002Y-4322055D01*
X2453269D01*
X2449229Y-4316647D01*
X2455595Y-4303947D01*
X2567002D01*
X2587837Y-4299802D01*
X2605501Y-4288000D01*
X2608833Y-4283012D01*
X2619956Y-4280800D01*
X2632558Y-4272379D01*
X2852469Y-4052469D01*
X2860889Y-4039866D01*
X2863846Y-4025000D01*
Y-3741091D01*
X2886091Y-3718847D01*
X3093909D01*
X3102620Y-3727557D01*
X3097760Y-3739291D01*
X2984404D01*
Y-3890711D01*
X3021316D01*
Y-3941390D01*
X3002162Y-3945200D01*
X2984499Y-3957002D01*
X2972696Y-3974665D01*
X2968552Y-3995501D01*
X2969230Y-3998912D01*
X2744071Y-4224071D01*
X2734589Y-4238261D01*
X2731260Y-4255000D01*
Y-4906882D01*
X2681882Y-4956260D01*
X2378117D01*
X2270929Y-4849071D01*
X2256738Y-4839589D01*
X2240000Y-4836260D01*
X720000D01*
X703261Y-4839589D01*
X689071Y-4849071D01*
X591882Y-4946260D01*
X308118D01*
X193740Y-4831882D01*
Y-1228118D01*
X528118Y-893740D01*
X1001504D01*
X1018243Y-890411D01*
X1032434Y-880929D01*
X1107458Y-805904D01*
X1256260D01*
Y-1230167D01*
D02*
G37*
G36*
X4192532Y-4627469D02*
X4205134Y-4635889D01*
X4220000Y-4638846D01*
X5070000D01*
X5084866Y-4635889D01*
X5097468Y-4627469D01*
X5439468Y-4285468D01*
X5447889Y-4272866D01*
X5450846Y-4258000D01*
Y-4150422D01*
X5500153D01*
Y-4474910D01*
X5303909Y-4671153D01*
X4156091D01*
X3137469Y-3652532D01*
X3124866Y-3644111D01*
X3110000Y-3641154D01*
X2870000D01*
X2855134Y-3644111D01*
X2842532Y-3652531D01*
X2797531Y-3697532D01*
X2789110Y-3710135D01*
X2786153Y-3725000D01*
Y-4008910D01*
X2592649Y-4202415D01*
X2587837Y-4199200D01*
X2567002Y-4195055D01*
X2448501D01*
X2427665Y-4199200D01*
X2411547Y-4209969D01*
X2398847Y-4206577D01*
Y-4165425D01*
X2411547Y-4162033D01*
X2427665Y-4172802D01*
X2448501Y-4176947D01*
X2567002D01*
X2587837Y-4172802D01*
X2605501Y-4161000D01*
X2617303Y-4143337D01*
X2621326Y-4123114D01*
X2752468Y-3991971D01*
X2760889Y-3979369D01*
X2763846Y-3964503D01*
Y-3661091D01*
X2836091Y-3588847D01*
X3153910D01*
X4192532Y-4627469D01*
D02*
G37*
G36*
X119071Y-4880929D02*
X259071Y-5020929D01*
X273261Y-5030411D01*
X290000Y-5033740D01*
X610000D01*
X626739Y-5030411D01*
X640929Y-5020929D01*
X738118Y-4923740D01*
X2221882D01*
X2329071Y-5030929D01*
X2338605Y-5037300D01*
X2334753Y-5050000D01*
X100000D01*
Y-4875247D01*
X112700Y-4871394D01*
X119071Y-4880929D01*
D02*
G37*
%LPC*%
G36*
X1430700Y-171849D02*
Y-276049D01*
X1496572D01*
Y-248750D01*
X1493895Y-228414D01*
X1486045Y-209464D01*
X1473559Y-193191D01*
X1457286Y-180704D01*
X1438336Y-172855D01*
X1430700Y-171849D01*
D02*
G37*
G36*
X2294699D02*
Y-276049D01*
X2360572D01*
Y-248750D01*
X2357895Y-228414D01*
X2350045Y-209464D01*
X2337559Y-193191D01*
X2321286Y-180704D01*
X2302336Y-172855D01*
X2294699Y-171849D01*
D02*
G37*
G36*
X2269299Y-171850D02*
X2261664Y-172855D01*
X2242714Y-180704D01*
X2226441Y-193191D01*
X2213954Y-209464D01*
X2206105Y-228414D01*
X2203428Y-248750D01*
Y-276049D01*
X2269299D01*
Y-171850D01*
D02*
G37*
G36*
Y-301449D02*
X2203428D01*
Y-328749D01*
X2206105Y-349085D01*
X2213954Y-368035D01*
X2226441Y-384308D01*
X2242714Y-396795D01*
X2261664Y-404644D01*
X2269299Y-405649D01*
Y-301449D01*
D02*
G37*
G36*
X1496572Y-301449D02*
X1430700D01*
Y-405650D01*
X1438336Y-404644D01*
X1457286Y-396795D01*
X1473559Y-384308D01*
X1486045Y-368035D01*
X1493895Y-349085D01*
X1496572Y-328749D01*
Y-301449D01*
D02*
G37*
G36*
X2360572Y-301449D02*
X2294699D01*
Y-405650D01*
X2302336Y-404644D01*
X2321286Y-396795D01*
X2337559Y-384308D01*
X2350045Y-368035D01*
X2357895Y-349085D01*
X2360572Y-328749D01*
Y-301449D01*
D02*
G37*
G36*
X4777933Y-384603D02*
X4758079D01*
X4738903Y-389741D01*
X4721709Y-399667D01*
X4707671Y-413706D01*
X4697744Y-430899D01*
X4692606Y-450076D01*
Y-469929D01*
X4697744Y-489106D01*
X4707671Y-506299D01*
X4721709Y-520338D01*
X4738903Y-530264D01*
X4758079Y-535403D01*
X4777933D01*
X4797109Y-530264D01*
X4814303Y-520338D01*
X4828341Y-506299D01*
X4838268Y-489106D01*
X4843406Y-469929D01*
Y-450076D01*
X4838268Y-430899D01*
X4828341Y-413706D01*
X4814303Y-399667D01*
X4797109Y-389741D01*
X4777933Y-384603D01*
D02*
G37*
G36*
X3979915D02*
X3960062D01*
X3940885Y-389741D01*
X3923692Y-399667D01*
X3909654Y-413706D01*
X3899727Y-430899D01*
X3894589Y-450076D01*
Y-469929D01*
X3899727Y-489106D01*
X3909654Y-506299D01*
X3923692Y-520338D01*
X3940885Y-530264D01*
X3960062Y-535403D01*
X3979915D01*
X3999092Y-530264D01*
X4016285Y-520338D01*
X4030324Y-506299D01*
X4040250Y-489106D01*
X4045389Y-469929D01*
Y-450076D01*
X4040250Y-430899D01*
X4030324Y-413706D01*
X4016285Y-399667D01*
X3999092Y-389741D01*
X3979915Y-384603D01*
D02*
G37*
G36*
X2294700Y-571849D02*
Y-691050D01*
X2360572D01*
Y-648750D01*
X2357895Y-628414D01*
X2350045Y-609463D01*
X2337559Y-593191D01*
X2321286Y-580704D01*
X2302336Y-572855D01*
X2294700Y-571849D01*
D02*
G37*
G36*
X2360572Y-716450D02*
X2294700D01*
Y-835650D01*
X2302336Y-834644D01*
X2321286Y-826795D01*
X2337559Y-814308D01*
X2350045Y-798035D01*
X2357895Y-779085D01*
X2360572Y-758749D01*
Y-716450D01*
D02*
G37*
G36*
X2269300D02*
X2203428D01*
Y-758749D01*
X2206105Y-779085D01*
X2213954Y-798035D01*
X2226441Y-814308D01*
X2242714Y-826795D01*
X2261664Y-834644D01*
X2269300Y-835650D01*
Y-716450D01*
D02*
G37*
G36*
X11519698Y-174103D02*
X11480301D01*
X11477800Y-174600D01*
X11475249D01*
X11436609Y-182286D01*
X11434253Y-183262D01*
X11431751Y-183760D01*
X11395354Y-198836D01*
X11393233Y-200253D01*
X11390876Y-201229D01*
X11358120Y-223117D01*
X11356316Y-224921D01*
X11354195Y-226338D01*
X11326337Y-254195D01*
X11324920Y-256316D01*
X11323117Y-258120D01*
X11301229Y-290877D01*
X11300253Y-293233D01*
X11298836Y-295354D01*
X11283759Y-331752D01*
X11283262Y-334254D01*
X11282286Y-336610D01*
X11274600Y-375249D01*
Y-377800D01*
X11274102Y-380302D01*
Y-419698D01*
X11274600Y-422200D01*
Y-424751D01*
X11282286Y-463390D01*
X11283262Y-465747D01*
X11283759Y-468248D01*
X11298836Y-504646D01*
X11300253Y-506767D01*
X11301229Y-509123D01*
X11323117Y-541880D01*
X11324920Y-543684D01*
X11326337Y-545805D01*
X11354195Y-573663D01*
X11356316Y-575079D01*
X11358119Y-576883D01*
X11390876Y-598771D01*
X11393233Y-599747D01*
X11395354Y-601164D01*
X11431751Y-616240D01*
X11434253Y-616738D01*
X11436610Y-617714D01*
X11475249Y-625400D01*
X11477800D01*
X11480301Y-625897D01*
X11519698D01*
X11522200Y-625400D01*
X11524750D01*
X11563390Y-617714D01*
X11565746Y-616738D01*
X11568248Y-616240D01*
X11604646Y-601164D01*
X11606767Y-599747D01*
X11609123Y-598771D01*
X11641880Y-576883D01*
X11643684Y-575080D01*
X11645804Y-573663D01*
X11673662Y-545805D01*
X11675079Y-543684D01*
X11676883Y-541881D01*
X11698770Y-509123D01*
X11699746Y-506767D01*
X11701164Y-504646D01*
X11716240Y-468248D01*
X11716738Y-465747D01*
X11717714Y-463390D01*
X11725400Y-424751D01*
Y-422200D01*
X11725897Y-419698D01*
Y-380302D01*
X11725400Y-377800D01*
Y-375249D01*
X11717714Y-336610D01*
X11716738Y-334253D01*
X11716240Y-331752D01*
X11701164Y-295354D01*
X11699746Y-293233D01*
X11698770Y-290877D01*
X11676883Y-258120D01*
X11675079Y-256316D01*
X11673662Y-254195D01*
X11645804Y-226338D01*
X11643684Y-224921D01*
X11641880Y-223117D01*
X11609123Y-201229D01*
X11606767Y-200253D01*
X11604646Y-198836D01*
X11568248Y-183760D01*
X11565746Y-183262D01*
X11563390Y-182286D01*
X11524751Y-174600D01*
X11522200D01*
X11519698Y-174103D01*
D02*
G37*
G36*
X8195400Y-694600D02*
X7804600D01*
Y-895400D01*
X8195400D01*
Y-694600D01*
D02*
G37*
G36*
X10607500Y-92643D02*
X9038510D01*
X9023644Y-95601D01*
X9011041Y-104021D01*
X7943909Y-1171154D01*
X7029501D01*
X7021381Y-1163034D01*
X7001020Y-1154600D01*
X6978980D01*
X6958619Y-1163034D01*
X6943034Y-1178619D01*
X6934600Y-1198980D01*
Y-1221020D01*
X6943034Y-1241382D01*
X6958619Y-1256966D01*
X6978980Y-1265400D01*
X7001020D01*
X7021381Y-1256966D01*
X7029501Y-1248847D01*
X7960000D01*
X7974866Y-1245890D01*
X7987468Y-1237469D01*
X9054601Y-170336D01*
X10591409D01*
X11348653Y-927580D01*
Y-2079070D01*
X11340534Y-2087189D01*
X11332100Y-2107551D01*
Y-2129591D01*
X11340534Y-2149952D01*
X11356118Y-2165537D01*
X11376480Y-2173971D01*
X11398519D01*
X11418881Y-2165537D01*
X11434465Y-2149952D01*
X11442899Y-2129591D01*
Y-2107551D01*
X11434465Y-2087189D01*
X11426346Y-2079070D01*
Y-911490D01*
X11423389Y-896624D01*
X11414968Y-884021D01*
X10634968Y-104021D01*
X10622366Y-95601D01*
X10607500Y-92643D01*
D02*
G37*
G36*
X7286020Y-4332100D02*
X7263980D01*
X7243618Y-4340534D01*
X7235499Y-4348653D01*
X5702001D01*
X5693881Y-4340534D01*
X5673520Y-4332100D01*
X5651480D01*
X5631119Y-4340534D01*
X5615534Y-4356119D01*
X5607100Y-4376480D01*
Y-4398520D01*
X5615534Y-4418881D01*
X5631119Y-4434466D01*
X5651480Y-4442900D01*
X5673520D01*
X5693881Y-4434466D01*
X5702001Y-4426346D01*
X7235499D01*
X7243618Y-4434466D01*
X7263980Y-4442900D01*
X7286020D01*
X7306381Y-4434466D01*
X7321966Y-4418881D01*
X7330400Y-4398520D01*
Y-4376480D01*
X7321966Y-4356119D01*
X7306381Y-4340534D01*
X7286020Y-4332100D01*
D02*
G37*
G36*
X3141499Y-4322055D02*
X3022998D01*
X3002162Y-4326200D01*
X2984499Y-4338002D01*
X2972696Y-4355665D01*
X2968552Y-4376501D01*
X2972696Y-4397337D01*
X2984499Y-4415000D01*
X3002162Y-4426802D01*
X3022998Y-4430947D01*
X3141499D01*
X3162335Y-4426802D01*
X3170716Y-4421202D01*
X3194669D01*
Y-4464100D01*
X3181969Y-4467952D01*
X3179998Y-4465002D01*
X3162335Y-4453200D01*
X3141499Y-4449055D01*
X3022998D01*
X3002162Y-4453200D01*
X2984499Y-4465002D01*
X2972696Y-4482665D01*
X2968552Y-4503501D01*
X2972696Y-4524337D01*
X2984499Y-4542000D01*
X3002162Y-4553802D01*
X3022998Y-4557947D01*
X3141499D01*
X3162335Y-4553802D01*
X3179998Y-4542000D01*
X3183775Y-4536347D01*
X3197258Y-4539029D01*
X3197626Y-4540882D01*
X3206047Y-4553484D01*
X3292100Y-4639537D01*
Y-4757900D01*
X3332963D01*
X3387535Y-4812473D01*
X3400138Y-4820893D01*
X3415004Y-4823850D01*
X3432100D01*
Y-4845404D01*
X3607901D01*
Y-4724604D01*
X3432100D01*
Y-4729202D01*
X3419400Y-4734462D01*
X3387900Y-4702963D01*
Y-4668847D01*
X3432099D01*
Y-4690401D01*
X3607900D01*
Y-4569601D01*
X3432099D01*
Y-4591154D01*
X3387900D01*
Y-4582100D01*
X3344537D01*
X3272362Y-4509925D01*
Y-4397235D01*
X3269405Y-4382369D01*
X3260984Y-4369766D01*
X3246105Y-4354887D01*
X3233503Y-4346466D01*
X3218637Y-4343509D01*
X3183678D01*
X3179998Y-4338002D01*
X3162335Y-4326200D01*
X3141499Y-4322055D01*
D02*
G37*
G36*
Y-4195055D02*
X3022998D01*
X3002162Y-4199200D01*
X2985019Y-4210655D01*
X2950499D01*
X2935633Y-4213612D01*
X2923031Y-4222032D01*
X2872531Y-4272532D01*
X2864111Y-4285134D01*
X2861154Y-4300000D01*
Y-4920000D01*
X2864111Y-4934866D01*
X2872531Y-4947469D01*
X2927527Y-5002464D01*
X2940130Y-5010885D01*
X2954996Y-5013842D01*
X3432100D01*
Y-5035396D01*
X3607901D01*
Y-4914596D01*
X3432100D01*
Y-4936149D01*
X3183178D01*
X3179326Y-4923449D01*
X3179998Y-4923000D01*
X3191800Y-4905337D01*
X3195945Y-4884501D01*
X3191800Y-4863665D01*
X3179998Y-4846002D01*
X3162335Y-4834200D01*
X3141499Y-4830055D01*
X3022998D01*
X3002162Y-4834200D01*
X2984499Y-4846002D01*
X2972696Y-4863665D01*
X2968552Y-4884501D01*
X2972696Y-4905337D01*
X2982981Y-4920728D01*
X2979859Y-4929702D01*
X2977318Y-4933373D01*
X2969358Y-4934421D01*
X2938847Y-4903909D01*
Y-4316091D01*
X2966590Y-4288348D01*
X2985019D01*
X3002162Y-4299802D01*
X3022998Y-4303947D01*
X3141499D01*
X3162335Y-4299802D01*
X3179478Y-4288348D01*
X3213410D01*
X3292100Y-4367037D01*
Y-4487900D01*
X3387900D01*
Y-4477601D01*
X3432099D01*
Y-4500409D01*
X3607900D01*
Y-4379609D01*
X3432099D01*
Y-4399908D01*
X3387900D01*
Y-4312100D01*
X3347037D01*
X3256969Y-4222032D01*
X3244367Y-4213612D01*
X3229501Y-4210655D01*
X3179478D01*
X3162335Y-4199200D01*
X3141499Y-4195055D01*
D02*
G37*
G36*
X9750000Y-524102D02*
X9700000D01*
X9690089Y-526074D01*
X9681688Y-531688D01*
X9676074Y-540089D01*
X9674102Y-550000D01*
Y-4550000D01*
X9676074Y-4559910D01*
X9681688Y-4568312D01*
X9690089Y-4573926D01*
X9700000Y-4575897D01*
X9750000D01*
X9759910Y-4573926D01*
X9768312Y-4568312D01*
X9773926Y-4559910D01*
X9775897Y-4550000D01*
Y-550000D01*
X9773926Y-540089D01*
X9768312Y-531688D01*
X9759910Y-526074D01*
X9750000Y-524102D01*
D02*
G37*
G36*
X3141499Y-4576055D02*
X3022998D01*
X3002162Y-4580200D01*
X2984499Y-4592002D01*
X2972696Y-4609665D01*
X2968552Y-4630501D01*
X2972696Y-4651337D01*
X2984499Y-4669000D01*
X3002162Y-4680802D01*
X3022998Y-4684947D01*
X3141499D01*
X3162335Y-4680802D01*
X3179998Y-4669000D01*
X3191800Y-4651337D01*
X3195945Y-4630501D01*
X3191800Y-4609665D01*
X3179998Y-4592002D01*
X3162335Y-4580200D01*
X3141499Y-4576055D01*
D02*
G37*
G36*
Y-4703055D02*
X3022998D01*
X3002162Y-4707200D01*
X2984499Y-4719002D01*
X2972696Y-4736665D01*
X2968552Y-4757501D01*
X2972696Y-4778337D01*
X2984499Y-4796000D01*
X3002162Y-4807802D01*
X3022998Y-4811947D01*
X3141499D01*
X3162335Y-4807802D01*
X3179998Y-4796000D01*
X3191800Y-4778337D01*
X3195945Y-4757501D01*
X3191800Y-4736665D01*
X3179998Y-4719002D01*
X3162335Y-4707200D01*
X3141499Y-4703055D01*
D02*
G37*
G36*
X11519698Y-4474103D02*
X11480301D01*
X11477800Y-4474600D01*
X11475249D01*
X11436609Y-4482286D01*
X11434253Y-4483262D01*
X11431751Y-4483760D01*
X11395354Y-4498836D01*
X11393233Y-4500253D01*
X11390876Y-4501230D01*
X11358120Y-4523117D01*
X11356316Y-4524921D01*
X11354195Y-4526338D01*
X11326337Y-4554195D01*
X11324920Y-4556316D01*
X11323117Y-4558120D01*
X11301229Y-4590877D01*
X11300253Y-4593233D01*
X11298836Y-4595354D01*
X11283759Y-4631752D01*
X11283262Y-4634254D01*
X11282286Y-4636610D01*
X11274600Y-4675249D01*
Y-4677800D01*
X11274102Y-4680302D01*
Y-4719698D01*
X11274600Y-4722200D01*
Y-4724751D01*
X11282286Y-4763390D01*
X11283262Y-4765747D01*
X11283759Y-4768249D01*
X11298836Y-4804646D01*
X11300253Y-4806767D01*
X11301229Y-4809123D01*
X11323117Y-4841880D01*
X11324920Y-4843684D01*
X11326337Y-4845805D01*
X11354195Y-4873663D01*
X11356316Y-4875079D01*
X11358119Y-4876883D01*
X11390876Y-4898771D01*
X11393233Y-4899747D01*
X11395354Y-4901164D01*
X11431751Y-4916240D01*
X11434253Y-4916738D01*
X11436610Y-4917714D01*
X11475249Y-4925400D01*
X11477800D01*
X11480301Y-4925897D01*
X11519698D01*
X11522200Y-4925400D01*
X11524750D01*
X11563390Y-4917714D01*
X11565746Y-4916738D01*
X11568248Y-4916240D01*
X11604646Y-4901164D01*
X11606767Y-4899747D01*
X11609123Y-4898771D01*
X11641880Y-4876883D01*
X11643684Y-4875080D01*
X11645804Y-4873663D01*
X11673662Y-4845805D01*
X11675079Y-4843684D01*
X11676883Y-4841881D01*
X11698770Y-4809123D01*
X11699746Y-4806767D01*
X11701164Y-4804646D01*
X11716240Y-4768249D01*
X11716738Y-4765747D01*
X11717714Y-4763390D01*
X11725400Y-4724751D01*
Y-4722200D01*
X11725897Y-4719698D01*
Y-4680302D01*
X11725400Y-4677800D01*
Y-4675249D01*
X11717714Y-4636610D01*
X11716738Y-4634253D01*
X11716240Y-4631752D01*
X11701164Y-4595354D01*
X11699746Y-4593233D01*
X11698770Y-4590877D01*
X11676883Y-4558120D01*
X11675079Y-4556316D01*
X11673662Y-4554195D01*
X11645804Y-4526338D01*
X11643684Y-4524921D01*
X11641880Y-4523117D01*
X11609123Y-4501230D01*
X11606767Y-4500253D01*
X11604646Y-4498836D01*
X11568248Y-4483760D01*
X11565746Y-4483262D01*
X11563390Y-4482286D01*
X11524751Y-4474600D01*
X11522200D01*
X11519698Y-4474103D01*
D02*
G37*
G36*
X8091020Y-4334600D02*
X8068980D01*
X8048618Y-4343034D01*
X8033034Y-4358619D01*
X8024600Y-4378980D01*
Y-4401020D01*
X8033034Y-4421382D01*
X8048618Y-4436966D01*
X8068980Y-4445400D01*
X8080463D01*
X8587531Y-4952469D01*
X8600134Y-4960889D01*
X8615000Y-4963847D01*
X9735499D01*
X9743619Y-4971966D01*
X9763980Y-4980400D01*
X9786020D01*
X9806381Y-4971966D01*
X9821966Y-4956382D01*
X9830400Y-4936020D01*
Y-4913980D01*
X9821966Y-4893619D01*
X9806381Y-4878034D01*
X9786020Y-4869600D01*
X9763980D01*
X9743619Y-4878034D01*
X9735499Y-4886154D01*
X8631090D01*
X8135400Y-4390463D01*
Y-4378980D01*
X8126966Y-4358619D01*
X8111381Y-4343034D01*
X8091020Y-4334600D01*
D02*
G37*
G36*
X469698Y-174103D02*
X430301D01*
X427800Y-174600D01*
X425249D01*
X386609Y-182286D01*
X384253Y-183262D01*
X381751Y-183760D01*
X345354Y-198836D01*
X343233Y-200253D01*
X340876Y-201229D01*
X308120Y-223117D01*
X306316Y-224921D01*
X304195Y-226338D01*
X276337Y-254195D01*
X274920Y-256316D01*
X273117Y-258120D01*
X251229Y-290877D01*
X250253Y-293233D01*
X248836Y-295354D01*
X233760Y-331752D01*
X233262Y-334254D01*
X232286Y-336610D01*
X224600Y-375249D01*
Y-377800D01*
X224102Y-380302D01*
Y-419698D01*
X224600Y-422200D01*
Y-424751D01*
X232286Y-463390D01*
X233262Y-465747D01*
X233760Y-468248D01*
X248836Y-504646D01*
X250253Y-506767D01*
X251229Y-509123D01*
X273117Y-541880D01*
X274920Y-543684D01*
X276337Y-545805D01*
X304195Y-573663D01*
X306316Y-575079D01*
X308119Y-576883D01*
X340876Y-598771D01*
X343233Y-599747D01*
X345354Y-601164D01*
X381751Y-616240D01*
X384253Y-616738D01*
X386610Y-617714D01*
X425249Y-625400D01*
X427800D01*
X430301Y-625897D01*
X469698D01*
X472200Y-625400D01*
X474750D01*
X513390Y-617714D01*
X515746Y-616738D01*
X518248Y-616240D01*
X554646Y-601164D01*
X556767Y-599747D01*
X559123Y-598771D01*
X591880Y-576883D01*
X593684Y-575080D01*
X595804Y-573663D01*
X623662Y-545805D01*
X625079Y-543684D01*
X626883Y-541881D01*
X648770Y-509123D01*
X649746Y-506767D01*
X651164Y-504646D01*
X666240Y-468248D01*
X666738Y-465747D01*
X667714Y-463390D01*
X675400Y-424751D01*
Y-422200D01*
X675897Y-419698D01*
Y-380302D01*
X675400Y-377800D01*
Y-375249D01*
X667714Y-336610D01*
X666738Y-334253D01*
X666240Y-331752D01*
X651164Y-295354D01*
X649746Y-293233D01*
X648770Y-290877D01*
X626883Y-258120D01*
X625079Y-256316D01*
X623662Y-254195D01*
X595804Y-226338D01*
X593684Y-224921D01*
X591880Y-223117D01*
X559123Y-201229D01*
X556767Y-200253D01*
X554646Y-198836D01*
X518248Y-183760D01*
X515746Y-183262D01*
X513390Y-182286D01*
X474751Y-174600D01*
X472200D01*
X469698Y-174103D01*
D02*
G37*
G36*
X1496572Y-716450D02*
X1430700D01*
Y-835650D01*
X1438336Y-834644D01*
X1457286Y-826795D01*
X1473559Y-814308D01*
X1486045Y-798035D01*
X1493895Y-779085D01*
X1496572Y-758749D01*
Y-716450D01*
D02*
G37*
G36*
X4110401Y-1404601D02*
X3989601D01*
Y-1615400D01*
X4110401D01*
Y-1404601D01*
D02*
G37*
G36*
X1255400Y-1767100D02*
X1054600D01*
Y-2157900D01*
X1255400D01*
Y-1767100D01*
D02*
G37*
G36*
X2567002Y-4703055D02*
X2448501D01*
X2427665Y-4707200D01*
X2410002Y-4719002D01*
X2398199Y-4736665D01*
X2394055Y-4757501D01*
X2398199Y-4778337D01*
X2410002Y-4796000D01*
X2427665Y-4807802D01*
X2448501Y-4811947D01*
X2567002D01*
X2587837Y-4807802D01*
X2605501Y-4796000D01*
X2617303Y-4778337D01*
X2621448Y-4757501D01*
X2617303Y-4736665D01*
X2605501Y-4719002D01*
X2587837Y-4707200D01*
X2567002Y-4703055D01*
D02*
G37*
G36*
X469698Y-4474103D02*
X430301D01*
X427800Y-4474600D01*
X425249D01*
X386609Y-4482286D01*
X384253Y-4483262D01*
X381751Y-4483760D01*
X345354Y-4498836D01*
X343233Y-4500253D01*
X340876Y-4501230D01*
X308120Y-4523117D01*
X306316Y-4524921D01*
X304195Y-4526338D01*
X276337Y-4554195D01*
X274920Y-4556316D01*
X273117Y-4558120D01*
X251229Y-4590877D01*
X250253Y-4593233D01*
X248836Y-4595354D01*
X233760Y-4631752D01*
X233262Y-4634254D01*
X232286Y-4636610D01*
X224600Y-4675249D01*
Y-4677800D01*
X224102Y-4680302D01*
Y-4719698D01*
X224600Y-4722200D01*
Y-4724751D01*
X232286Y-4763390D01*
X233262Y-4765747D01*
X233760Y-4768249D01*
X248836Y-4804646D01*
X250253Y-4806767D01*
X251229Y-4809123D01*
X273117Y-4841880D01*
X274920Y-4843684D01*
X276337Y-4845805D01*
X304195Y-4873663D01*
X306316Y-4875079D01*
X308119Y-4876883D01*
X340876Y-4898771D01*
X343233Y-4899747D01*
X345354Y-4901164D01*
X381751Y-4916240D01*
X384253Y-4916738D01*
X386610Y-4917714D01*
X425249Y-4925400D01*
X427800D01*
X430301Y-4925897D01*
X469698D01*
X472200Y-4925400D01*
X474750D01*
X513390Y-4917714D01*
X515746Y-4916738D01*
X518248Y-4916240D01*
X554646Y-4901164D01*
X556767Y-4899747D01*
X559123Y-4898771D01*
X591880Y-4876883D01*
X593684Y-4875080D01*
X595804Y-4873663D01*
X623662Y-4845805D01*
X625079Y-4843684D01*
X626883Y-4841881D01*
X648770Y-4809123D01*
X649746Y-4806767D01*
X651164Y-4804646D01*
X666240Y-4768249D01*
X666738Y-4765747D01*
X667714Y-4763390D01*
X675400Y-4724751D01*
Y-4722200D01*
X675897Y-4719698D01*
Y-4680302D01*
X675400Y-4677800D01*
Y-4675249D01*
X667714Y-4636610D01*
X666738Y-4634253D01*
X666240Y-4631752D01*
X651164Y-4595354D01*
X649746Y-4593233D01*
X648770Y-4590877D01*
X626883Y-4558120D01*
X625079Y-4556316D01*
X623662Y-4554195D01*
X595804Y-4526338D01*
X593684Y-4524921D01*
X591880Y-4523117D01*
X559123Y-4501230D01*
X556767Y-4500253D01*
X554646Y-4498836D01*
X518248Y-4483760D01*
X515746Y-4483262D01*
X513390Y-4482286D01*
X474751Y-4474600D01*
X472200D01*
X469698Y-4474103D01*
D02*
G37*
G36*
X2567002Y-4830055D02*
X2448501D01*
X2427665Y-4834200D01*
X2410002Y-4846002D01*
X2398199Y-4863665D01*
X2394055Y-4884501D01*
X2398199Y-4905337D01*
X2410002Y-4923000D01*
X2427665Y-4934802D01*
X2448501Y-4938947D01*
X2567002D01*
X2587837Y-4934802D01*
X2605501Y-4923000D01*
X2617303Y-4905337D01*
X2621448Y-4884501D01*
X2617303Y-4863665D01*
X2605501Y-4846002D01*
X2587837Y-4834200D01*
X2567002Y-4830055D01*
D02*
G37*
%LPD*%
D10*
X1062486Y-3725025D02*
D03*
Y-3825025D02*
D03*
X1197513D02*
D03*
X1197487Y-3725025D02*
D03*
D11*
X1062512Y-3775013D02*
D03*
X1197513D02*
D03*
D12*
X1130025Y-3840011D02*
D03*
Y-3709989D02*
D03*
D13*
X2025000Y-950000D02*
D03*
X1925000D02*
D03*
X1800000D02*
D03*
X1700000D02*
D03*
D14*
X1825000Y-2442500D02*
D03*
D15*
X1875000D02*
D03*
X1925000D02*
D03*
X1975000D02*
D03*
D16*
X1960000Y-2307500D02*
D03*
X1900000D02*
D03*
X1840000D02*
D03*
D17*
X1530000Y-761249D02*
D03*
X1610000D02*
D03*
X2090000D02*
D03*
X2170000D02*
D03*
D18*
X1675000D02*
D03*
X1725000D02*
D03*
X1775000D02*
D03*
X1825000D02*
D03*
X2025000D02*
D03*
X1975000D02*
D03*
X1925000D02*
D03*
X1875000D02*
D03*
D19*
X4050001Y-1510001D02*
D03*
X4490000D02*
D03*
X4600000D02*
D03*
X4710000D02*
D03*
X4820000D02*
D03*
X4930000D02*
D03*
X4160001D02*
D03*
X4270001D02*
D03*
X4380001D02*
D03*
D20*
X5049997Y-500000D02*
D03*
X3500000D02*
D03*
D21*
X3590002Y-1459998D02*
D03*
D22*
X5049697Y-1460001D02*
D03*
D23*
X6899993Y-1795000D02*
D03*
X7340007D02*
D03*
X6194992D02*
D03*
X6635007D02*
D03*
D24*
X3520000Y-4785004D02*
D03*
Y-4974996D02*
D03*
X3720000Y-4880000D02*
D03*
X7115000Y-3345000D02*
D03*
X6915000Y-3439996D02*
D03*
Y-3250004D02*
D03*
X854999Y-3330004D02*
D03*
X654999Y-3425000D02*
D03*
Y-3235008D02*
D03*
X1155000Y-3230004D02*
D03*
Y-3419996D02*
D03*
X1354999Y-3325000D02*
D03*
X3520000Y-4440009D02*
D03*
Y-4630001D02*
D03*
X3719999Y-4535005D02*
D03*
D25*
X5805500Y-837248D02*
D03*
X5932500D02*
D03*
X6059500D02*
D03*
X6186500D02*
D03*
X6313500D02*
D03*
X6440500D02*
D03*
X6567500D02*
D03*
X6694500D02*
D03*
X5805500Y-262751D02*
D03*
X5932500D02*
D03*
X6059500D02*
D03*
X6186500D02*
D03*
X6313500D02*
D03*
X6440500D02*
D03*
X6567500D02*
D03*
X6694500D02*
D03*
D26*
X2325000Y-2561999D02*
D03*
Y-2324999D02*
D03*
D27*
X1954751Y-2940000D02*
D03*
X2250000D02*
D03*
X780000Y-4150000D02*
D03*
X484751D02*
D03*
D28*
X1495000Y-1440000D02*
D03*
X1325000D02*
D03*
D29*
X665000Y-3625000D02*
D03*
X845000D02*
D03*
D30*
X7370409Y-3340000D02*
D03*
X7260000D02*
D03*
D31*
X3060000Y-1275000D02*
D03*
Y-1405000D02*
D03*
X1330000Y-3650000D02*
D03*
Y-3780000D02*
D03*
X2807500Y-1260000D02*
D03*
Y-1390000D02*
D03*
D32*
X7975000Y-3560000D02*
D03*
X7900000D02*
D03*
X2102500Y-880000D02*
D03*
X2177500D02*
D03*
X1532500D02*
D03*
X1607500D02*
D03*
X2412500Y-1350000D02*
D03*
X2487500D02*
D03*
X1674999Y-1349999D02*
D03*
X1749999D02*
D03*
X1674999Y-1449999D02*
D03*
X1749999D02*
D03*
X1745000Y-1550000D02*
D03*
X1670000D02*
D03*
X1774999Y-1749999D02*
D03*
X1699999D02*
D03*
X4035000Y-1880000D02*
D03*
X3960000D02*
D03*
X6637500Y-100000D02*
D03*
X6562500D02*
D03*
X6990000Y-3140000D02*
D03*
X6915000D02*
D03*
X2005000Y-1880000D02*
D03*
X2080000D02*
D03*
D33*
X2810000Y-955000D02*
D03*
Y-1105000D02*
D03*
X3060000Y-950000D02*
D03*
Y-1100000D02*
D03*
D34*
X1160000Y-691505D02*
D03*
Y-168495D02*
D03*
D35*
X3125005Y-399073D02*
D03*
X2825006D02*
D03*
X2675019D02*
D03*
D36*
X2520003Y-327927D02*
D03*
Y-100927D02*
D03*
X3279996D02*
D03*
Y-327927D02*
D03*
D37*
X7425000Y-360000D02*
D03*
Y-560000D02*
D03*
D38*
X8000000Y-125000D02*
D03*
Y-795000D02*
D03*
D39*
X7759996Y-1929999D02*
D03*
Y-3170001D02*
D03*
D40*
X7570004Y-2175007D02*
D03*
Y-2225020D02*
D03*
Y-2275007D02*
D03*
Y-2375007D02*
D03*
Y-2325019D02*
D03*
Y-2975005D02*
D03*
Y-2925018D02*
D03*
Y-2875006D02*
D03*
Y-2825018D02*
D03*
Y-2775006D02*
D03*
Y-2725019D02*
D03*
Y-2675006D02*
D03*
Y-2625019D02*
D03*
Y-2575006D02*
D03*
Y-2525019D02*
D03*
Y-2475006D02*
D03*
Y-2425019D02*
D03*
Y-2125020D02*
D03*
D41*
X5920000Y-2220001D02*
D03*
X5793000D02*
D03*
X5666000D02*
D03*
X5539000D02*
D03*
X5412000D02*
D03*
X5285000D02*
D03*
X5158000D02*
D03*
X5031000D02*
D03*
X4904000D02*
D03*
X4777000D02*
D03*
X4650000D02*
D03*
X4523000D02*
D03*
X4396000D02*
D03*
X4269000D02*
D03*
Y-4020022D02*
D03*
X4396000D02*
D03*
X4523000D02*
D03*
X4650000D02*
D03*
X4777000D02*
D03*
X4904000D02*
D03*
X5031000D02*
D03*
X5158000D02*
D03*
X5285000D02*
D03*
X5412000D02*
D03*
X5539000D02*
D03*
X5666000D02*
D03*
X5793000D02*
D03*
X5920000D02*
D03*
D42*
X4119495Y-2548524D02*
D03*
Y-2675524D02*
D03*
Y-2802524D02*
D03*
Y-2929524D02*
D03*
Y-3056524D02*
D03*
Y-3183524D02*
D03*
Y-3310524D02*
D03*
Y-3437524D02*
D03*
Y-3564524D02*
D03*
Y-3691524D02*
D03*
D43*
X5151904Y-2969986D02*
D03*
Y-2830007D02*
D03*
Y-3110017D02*
D03*
X5291909D02*
D03*
Y-2970012D02*
D03*
Y-2830007D02*
D03*
X5011899D02*
D03*
Y-2970012D02*
D03*
Y-3110017D02*
D03*
D44*
X2190249Y-3375000D02*
D03*
D45*
Y-3325000D02*
D03*
Y-3275000D02*
D03*
Y-3225000D02*
D03*
Y-3175000D02*
D03*
X2025000D02*
D03*
Y-3225000D02*
D03*
Y-3275000D02*
D03*
Y-3325000D02*
D03*
Y-3375000D02*
D03*
D46*
X889980Y-550000D02*
D03*
X850000D02*
D03*
D47*
X7972699Y-3420000D02*
D03*
X7847301D02*
D03*
X2407300Y-1200000D02*
D03*
X2532699D02*
D03*
X4162699Y-1700000D02*
D03*
X4037301D02*
D03*
X5899601Y-1050000D02*
D03*
X6025000D02*
D03*
X5900000Y-1250000D02*
D03*
X6025399D02*
D03*
X6587301D02*
D03*
X6712699D02*
D03*
X6837699Y-1030000D02*
D03*
X6712301D02*
D03*
D48*
X3350000Y-640000D02*
D03*
Y-499886D02*
D03*
X1549999Y-1779942D02*
D03*
Y-1920056D02*
D03*
D49*
X1949999Y-1474999D02*
D03*
D50*
Y-1524999D02*
D03*
Y-1574999D02*
D03*
Y-1624999D02*
D03*
X2244610D02*
D03*
Y-1574999D02*
D03*
Y-1524999D02*
D03*
Y-1474999D02*
D03*
D51*
X2022305Y-1697305D02*
D03*
X2072305D02*
D03*
X2122305D02*
D03*
X2172305D02*
D03*
Y-1402694D02*
D03*
X2122305D02*
D03*
X2072305D02*
D03*
X2022305D02*
D03*
D52*
X2097305Y-1549999D02*
D03*
D53*
X6982392Y-350000D02*
D03*
X7117608D02*
D03*
Y-575000D02*
D03*
X6982392D02*
D03*
D54*
X6025057Y-1980000D02*
D03*
X5884942D02*
D03*
X6025056Y-1750000D02*
D03*
X5884942D02*
D03*
X2630000Y-1570000D02*
D03*
X2489886D02*
D03*
X1895057Y-2674999D02*
D03*
X1754943D02*
D03*
X2615057Y-3815001D02*
D03*
X2474942D02*
D03*
X2924942D02*
D03*
X3065057D02*
D03*
X3726436Y-1665789D02*
D03*
X3586321D02*
D03*
X6279943Y-1265000D02*
D03*
X6420057D02*
D03*
X6279943Y-1040000D02*
D03*
X6420057D02*
D03*
X684942Y-3875000D02*
D03*
X825057D02*
D03*
X729943Y-700000D02*
D03*
X870057D02*
D03*
X1700057Y-3460000D02*
D03*
X1559943D02*
D03*
X1560228Y-3670000D02*
D03*
X1700343D02*
D03*
X2400000Y-550000D02*
D03*
X2540114D02*
D03*
D55*
X5540000Y-1962699D02*
D03*
Y-1837301D02*
D03*
X1625000Y-2312300D02*
D03*
Y-2437699D02*
D03*
X5570000Y-310000D02*
D03*
Y-435399D02*
D03*
X1720000Y-3157301D02*
D03*
Y-3282699D02*
D03*
D56*
X1155000Y-1962500D02*
D03*
X485000D02*
D03*
D57*
X920000Y-2537500D02*
D03*
X720000D02*
D03*
D58*
X5740000Y-1895000D02*
D03*
Y-1820000D02*
D03*
X3340000Y-4362500D02*
D03*
Y-4437500D02*
D03*
Y-4632500D02*
D03*
Y-4707500D02*
D03*
X4490000Y-1662500D02*
D03*
Y-1737500D02*
D03*
X6575000Y-1112500D02*
D03*
Y-1037500D02*
D03*
X3160000Y-1677500D02*
D03*
Y-1602500D02*
D03*
X550000Y-3675000D02*
D03*
Y-3750000D02*
D03*
X1875000Y-3450000D02*
D03*
Y-3375000D02*
D03*
X2330000Y-3167500D02*
D03*
Y-3092500D02*
D03*
X2432500Y-3167500D02*
D03*
Y-3092500D02*
D03*
X1875434Y-3198479D02*
D03*
Y-3273479D02*
D03*
D59*
X3082248Y-4884501D02*
D03*
Y-4757501D02*
D03*
Y-4630501D02*
D03*
Y-4503501D02*
D03*
Y-4376501D02*
D03*
Y-4249501D02*
D03*
Y-4122501D02*
D03*
Y-3995501D02*
D03*
X2507751Y-4884501D02*
D03*
Y-4757501D02*
D03*
Y-4630501D02*
D03*
Y-4503501D02*
D03*
Y-4376501D02*
D03*
Y-4249501D02*
D03*
Y-4122501D02*
D03*
Y-3995501D02*
D03*
D60*
X1420000Y-1325000D02*
D03*
Y-1155000D02*
D03*
X1550000Y-1325000D02*
D03*
Y-1155000D02*
D03*
D61*
X588495Y-2975000D02*
D03*
X1111505D02*
D03*
D62*
X6535121Y-1380000D02*
X6587301Y-1327820D01*
X5440000Y-1380000D02*
X6535121D01*
X5310000Y-1510000D02*
X5440000Y-1380000D01*
X6587301Y-1327820D02*
Y-1250000D01*
X4937083Y-2012917D02*
X5310000Y-1640000D01*
X4808962Y-2012917D02*
X4937083D01*
X5310000Y-1640000D02*
Y-1510000D01*
X4777000Y-2044879D02*
X4808962Y-2012917D01*
X4777000Y-2220001D02*
Y-2044879D01*
D63*
X6690552Y-1227853D02*
X6712699Y-1250000D01*
X6619041Y-1119041D02*
X6690552Y-1190552D01*
Y-1227853D02*
Y-1190552D01*
X6575000Y-1115000D02*
X6579041Y-1119041D01*
X6619041D01*
X5790000Y-2395000D02*
Y-2070000D01*
X3160000Y-1880000D02*
Y-1677500D01*
X4530000Y-1840000D02*
X4620000D01*
X4710000Y-1750000D02*
Y-1510001D01*
X4620000Y-1840000D02*
X4710000Y-1750000D01*
X4278220Y-2091780D02*
X4530000Y-1840000D01*
X4278220Y-2210780D02*
Y-2091780D01*
X4269000Y-2220001D02*
X4278220Y-2210780D01*
X4550000Y-1940000D02*
X4890000D01*
X4396000Y-2220001D02*
X4398220Y-2217780D01*
Y-2091780D02*
X4550000Y-1940000D01*
X4398220Y-2217780D02*
Y-2091780D01*
X2432389Y-3852611D02*
X2469999Y-3815001D01*
X2432389Y-3857554D02*
Y-3852611D01*
X2469999Y-3815001D02*
X2474942D01*
X2360000Y-3929943D02*
X2432389Y-3857554D01*
X2360000Y-4288001D02*
Y-3929943D01*
Y-4288001D02*
X2448500Y-4376501D01*
X2192376Y-2940000D02*
X2192625Y-2940249D01*
X1950000Y-2130000D02*
X2310121D01*
X1900000Y-2180000D02*
X1950000Y-2130000D01*
X1900000Y-2307500D02*
Y-2180000D01*
X2170910Y-1640476D02*
X2172305Y-1641871D01*
X2168605Y-1633874D02*
Y-1621299D01*
Y-1633874D02*
X2170910Y-1636178D01*
X2097305Y-1549999D02*
X2168605Y-1621299D01*
X2170910Y-1640476D02*
Y-1636178D01*
X2172305Y-1697305D02*
Y-1641871D01*
X2072305Y-1402694D02*
Y-1339878D01*
X1777178Y-1324999D02*
X2057426D01*
X2072305Y-1339878D01*
X785706Y-3837390D02*
X823316Y-3875000D01*
X550000Y-3750000D02*
X730000D01*
X785706Y-3805706D01*
Y-3837390D02*
Y-3805706D01*
X823316Y-3875000D02*
X825057D01*
X826526Y-3876469D01*
X1985626Y-3225000D02*
X2025000D01*
X1885234Y-3210000D02*
X1970626D01*
X1875434Y-3200200D02*
Y-3198479D01*
X1970626Y-3210000D02*
X1985626Y-3225000D01*
X1875434Y-3200200D02*
X1885234Y-3210000D01*
X6567500Y-262751D02*
Y-107499D01*
X6575000Y-100000D01*
X1620000Y-2670000D02*
X1749943D01*
X1754943Y-2674999D01*
X2005221Y-2202278D02*
X2067722D01*
X2070000Y-2200000D01*
X1960000Y-2247499D02*
X2005221Y-2202278D01*
X2310121Y-2130000D02*
X2325000Y-2144879D01*
X1495000Y-1440000D02*
X1495400D01*
X1522700Y-1352300D02*
X1550000Y-1325000D01*
X1495400Y-1440000D02*
X1522700Y-1412700D01*
X1091500Y-691505D02*
X1160000D01*
X870057Y-849943D02*
Y-700000D01*
X870000Y-850000D02*
X870057Y-849943D01*
X7973828Y-3483828D02*
X7975000Y-3485000D01*
X7973828Y-3483828D02*
Y-3421129D01*
X7972699Y-3420000D02*
X7973828Y-3421129D01*
X7975000Y-3560000D02*
Y-3485000D01*
X7339987Y-1817519D02*
Y-1789918D01*
X7900000Y-3679999D02*
Y-3560000D01*
Y-3679999D02*
X8075000Y-3855000D01*
X7095000Y-4840000D02*
X8340000Y-3594999D01*
Y-2130000D01*
X6750000Y-2210000D02*
X6870000D01*
X7207700Y-1872300D01*
X7274980Y-2225020D02*
X7570004D01*
X6300000Y-2730000D02*
X6770000D01*
X7274980Y-2225020D01*
X6690057Y-2280000D02*
X7100000D01*
X7204993Y-2175007D02*
X7570004D01*
X7100000Y-2280000D02*
X7204993Y-2175007D01*
X6519407Y-2109350D02*
X6519407D01*
X6690057Y-2280000D01*
X6485056Y-2075000D02*
X6519407Y-2109350D01*
X7207700Y-1872300D02*
X7285207D01*
X7339987Y-1817519D01*
X6900000Y-2000000D02*
Y-1789945D01*
X6170000Y-2050000D02*
Y-2040000D01*
Y-1980000D01*
X1752500Y-1557500D02*
X1835001Y-1474999D01*
X1762299Y-1339878D02*
X1777178Y-1324999D01*
X1749999Y-1349999D02*
X1752499D01*
X1762299Y-1340199D02*
Y-1339878D01*
X1752499Y-1349999D02*
X1762299Y-1340199D01*
X2010000Y-880000D02*
X2102500D01*
X1975000Y-845000D02*
X2010000Y-880000D01*
X1975000Y-845000D02*
Y-761249D01*
X1607500Y-880000D02*
X1659432D01*
X1674311Y-865121D02*
Y-761938D01*
X1659432Y-880000D02*
X1674311Y-865121D01*
X2670000Y-680000D02*
Y-674943D01*
X2540114Y-550000D02*
X2545057D01*
X2670000Y-674943D01*
X3212248Y-499886D02*
X3350000D01*
X3125005Y-412643D02*
X3212248Y-499886D01*
X3125005Y-412643D02*
Y-399073D01*
X7740000Y-2550000D02*
X7972699Y-2782699D01*
Y-3420000D02*
Y-2782699D01*
X7730637Y-2550000D02*
X7740000D01*
X6188090Y-837248D02*
Y-711909D01*
X8480000Y-3775000D02*
Y-2090000D01*
X7960000Y-1750000D02*
X8340000Y-2130000D01*
X7292500Y-4962500D02*
X8480000Y-3775000D01*
X8010000Y-1620000D02*
X8480000Y-2090000D01*
X2797500Y-1390000D02*
X2807500D01*
X2650000Y-1242500D02*
X2797500Y-1390000D01*
X2650000Y-1242500D02*
Y-1230000D01*
X2667610Y-1532390D02*
X2738248D01*
X2760637Y-1510000D02*
X2770000D01*
X2630000Y-1570000D02*
X2667610Y-1532390D01*
X2738248D02*
X2760637Y-1510000D01*
X2680000Y-1730000D02*
X2890000Y-1520000D01*
X2384476Y-1730000D02*
X2680000D01*
X2890000Y-1520000D02*
Y-1035000D01*
X3060000Y-1405000D02*
X3061250Y-1403750D01*
X3080000Y-1960000D02*
X3160000Y-1880000D01*
X5790000Y-2395000D02*
X6695000D01*
X6170000Y-2070000D02*
Y-2050000D01*
X835087Y-4225000D02*
X1105000D01*
X780000Y-4169913D02*
Y-4150000D01*
X1105000Y-4225000D02*
X1548794Y-3781206D01*
X1888794D01*
X6170000Y-1980000D02*
Y-1819992D01*
X6019999Y-2220001D02*
X6170000Y-2070000D01*
Y-1819992D02*
X6194992Y-1795000D01*
X1527500Y-885000D02*
X1532500Y-880000D01*
X5540000Y-1750862D02*
X5570000Y-1720862D01*
X5540000Y-1829943D02*
Y-1750862D01*
Y-1970057D02*
X5567474Y-1997531D01*
X5666000Y-2050000D02*
Y-1830000D01*
X5613531Y-1997531D02*
X5666000Y-2050000D01*
X5567474Y-1997531D02*
X5613531D01*
X5666000Y-2220001D02*
Y-2050000D01*
X966185Y-4150000D02*
X1130025Y-3986160D01*
X780000Y-4150000D02*
X966185D01*
X1130025Y-3986160D02*
Y-3840011D01*
X1835001Y-1474999D02*
X1949999D01*
X1420343Y-3535057D02*
X1555285Y-3670000D01*
X1420343Y-3535057D02*
Y-3530000D01*
X1969630Y-3175000D02*
X2025000D01*
X1954751Y-3160121D02*
X1969630Y-3175000D01*
X1954751Y-3160121D02*
Y-2940000D01*
X2190249Y-3175000D02*
X2250000Y-3115250D01*
Y-2940000D01*
X1197313Y-3825225D02*
X1197513Y-3825025D01*
X1132325Y-3825225D02*
X1197313D01*
X1130025Y-3827524D02*
X1132325Y-3825225D01*
X2189341Y-3175909D02*
X2190249Y-3175000D01*
X2110000Y-3560000D02*
Y-3200000D01*
X1130025Y-3840011D02*
Y-3827524D01*
X1888794Y-3781206D02*
X2110000Y-3560000D01*
Y-3200000D02*
X2134091Y-3175909D01*
X2189341D01*
X2602500Y-3420000D02*
X3220000D01*
X2360000D02*
X2602500D01*
Y-3377500D02*
X2620000Y-3360000D01*
X2602500Y-3420000D02*
Y-3377500D01*
X2432500Y-3167500D02*
X2433400Y-3168400D01*
X2529100D02*
X2530000Y-3169300D01*
X2433400Y-3168400D02*
X2529100D01*
X2432500Y-3092500D02*
Y-3090000D01*
X2391500Y-3049000D02*
X2432500Y-3090000D01*
X2391500Y-3049000D02*
Y-3031000D01*
X1767610Y-3632390D02*
X1950000Y-3450000D01*
X1875000D02*
X1950000D01*
X1700343Y-3670000D02*
X1737953Y-3632390D01*
X1767610D01*
X1950000Y-3450000D02*
X1971942Y-3428058D01*
X1993883Y-3406116D01*
X1710057Y-3450000D02*
X1875000D01*
X1700057Y-3460000D02*
X1710057Y-3450000D01*
X1555285Y-3670000D02*
X1560228D01*
X1970000Y-1960000D02*
X3080000D01*
X1910000Y-1900000D02*
X1970000Y-1960000D01*
X2180000Y-1850000D02*
X2750000D01*
X2122305Y-1792305D02*
X2180000Y-1850000D01*
X2750000D02*
X2980000Y-1620000D01*
X2173041Y-1732906D02*
X2208962Y-1768827D01*
X2268827D01*
X2270000Y-1770000D01*
X2122305Y-1792305D02*
Y-1697305D01*
X2980000Y-1620000D02*
Y-1030000D01*
X2007500Y-1880000D02*
X2017300Y-1870200D01*
Y-1842700D01*
X2071569Y-1788431D01*
X2005000Y-1880000D02*
X2007500D01*
X2071569Y-1788431D02*
Y-1698041D01*
X2072305Y-1697305D01*
X1910000Y-1900000D02*
Y-1840000D01*
X2017094Y-1732906D01*
X2021569D01*
X2022305Y-1732170D02*
Y-1697305D01*
X2021569Y-1732906D02*
X2022305Y-1732170D01*
X2810000Y-955000D02*
X2890000Y-1035000D01*
X2980000Y-1030000D02*
X3060000Y-950000D01*
X2807500Y-1260000D02*
Y-1107500D01*
X2810000Y-1105000D01*
X3060000Y-1100001D02*
X3060000Y-1100000D01*
X3060000Y-1260000D02*
Y-1100001D01*
X2412500Y-1402500D02*
Y-1350000D01*
X2340001Y-1475000D02*
X2412500Y-1402500D01*
X5114998Y-1110002D02*
X5570000Y-655000D01*
X5800000Y-425000D01*
X5570000Y-655000D02*
Y-435399D01*
X4096246Y-3541274D02*
X4119495Y-3564524D01*
X3991275Y-3541274D02*
X4096246D01*
X2700000Y-2750000D02*
X3200000D01*
X3991275Y-3541274D01*
X7411984Y-2040000D02*
X7497004Y-2125020D01*
X7570004D01*
X7410000Y-2040000D02*
X7411984D01*
X5755000Y-4270000D02*
X6505000D01*
X6765000Y-4010000D01*
X5954800Y-4090000D02*
X6060000D01*
X5920000Y-4055199D02*
X5954800Y-4090000D01*
X6765000Y-4010000D02*
Y-3370000D01*
X5920000Y-4055199D02*
Y-4020022D01*
X5291909Y-2970012D02*
X5450000D01*
X5920000Y-2220001D02*
X6019999D01*
X7960000Y-1210000D02*
X9038510Y-131490D01*
X10607500D01*
X6990000Y-1210000D02*
X7960000D01*
X6724341Y-1360000D02*
X8140000D01*
X9260000Y-240000D02*
X10098219D01*
X8140000Y-1360000D02*
X9260000Y-240000D01*
X6704341Y-1380000D02*
X6724341Y-1360000D01*
X6694978Y-1380000D02*
X6704341D01*
X5530000Y-1460000D02*
X8530000D01*
X5390000Y-1600000D02*
X5530000Y-1460000D01*
X8530000D02*
X9560000Y-430000D01*
X9770000D02*
X9890000Y-550000D01*
X9560000Y-430000D02*
X9770000D01*
X9890000Y-2120000D02*
Y-550000D01*
X6787507Y-1620000D02*
X8010000D01*
X9670000Y-4650000D02*
X10320000D01*
X9230000Y-4210000D02*
X9670000Y-4650000D01*
X9230000Y-4210000D02*
Y-2610000D01*
X10320000Y-4650000D02*
X10640000Y-4330000D01*
Y-3740000D01*
X10098219Y-240000D02*
X10637499Y-779281D01*
Y-1380000D02*
Y-779281D01*
X10607500Y-131490D02*
X11387499Y-911490D01*
Y-2118571D02*
Y-911490D01*
X4950000Y-1650000D02*
X5002397Y-1597603D01*
X5759363Y-1270000D02*
X5779363Y-1250000D01*
X5900000D01*
X5750000Y-1270000D02*
X5759363D01*
X5002397Y-1597603D02*
Y-1507301D01*
X6140000Y-1040000D02*
X6279943D01*
X4557800Y-2185200D02*
Y-2051562D01*
X4570000Y-2039363D01*
Y-2030000D01*
X4523000Y-2220001D02*
X4557800Y-2185200D01*
X4650000Y-2220001D02*
X4684800Y-2185200D01*
Y-2035200D01*
X4690000Y-2030000D01*
X8160000Y-1540000D02*
X9230000Y-2610000D01*
X5600000Y-1540000D02*
X8160000D01*
X5450000Y-1690000D02*
X5600000Y-1540000D01*
X5390000Y-1680000D02*
Y-1600000D01*
X5020000Y-2050000D02*
X5390000Y-1680000D01*
X5450000Y-1780000D02*
Y-1690000D01*
X5170000Y-2060000D02*
X5450000Y-1780000D01*
X5100000Y-2060000D02*
X5170000D01*
X5065800Y-2094200D02*
X5100000Y-2060000D01*
X5065800Y-2185200D02*
Y-2094200D01*
X5031000Y-2220001D02*
X5065800Y-2185200D01*
X5031000Y-2220001D02*
Y-2199000D01*
X4980000Y-2050000D02*
X5020000D01*
X4938800Y-2091200D02*
X4980000Y-2050000D01*
X4904000Y-2220001D02*
X4938800Y-2185200D01*
Y-2091200D01*
X6635007Y-1772500D02*
X6787507Y-1620000D01*
X5031000Y-2199000D02*
X5040000Y-2190000D01*
X4060000Y-2430000D02*
X5755000D01*
X5790000Y-2395000D01*
X4303800Y-3236200D02*
X4890000Y-2650000D01*
X6370000D01*
X6520000Y-2500000D01*
X4303800Y-3985222D02*
Y-3236200D01*
X4030000Y-2400000D02*
X4060000Y-2430000D01*
X4030000Y-2400000D02*
Y-2150000D01*
X3900000Y-2550000D02*
X4118020D01*
X3745000Y-2285000D02*
X4150000Y-1880000D01*
X3745000Y-2570000D02*
Y-2285000D01*
Y-2570000D02*
X3850524Y-2675524D01*
X5790000Y-2070000D02*
X5879999Y-1980000D01*
X5220000Y-1610000D02*
Y-1330000D01*
X4890000Y-1940000D02*
X5220000Y-1610000D01*
X6365000Y-1620000D02*
X6490000Y-1745000D01*
X5666000Y-1830000D02*
Y-1820000D01*
Y-1674000D01*
Y-1830000D02*
X5676000Y-1820000D01*
X5740000D01*
X7339987Y-1789918D02*
X7379906Y-1750000D01*
X5720000Y-1620000D02*
X6365000D01*
X5666000Y-1674000D02*
X5720000Y-1620000D01*
X7379906Y-1750000D02*
X7960000D01*
X6485056Y-2075000D02*
Y-1749943D01*
X6544285Y-1799285D02*
X6630721D01*
X6490000Y-1745000D02*
X6544285Y-1799285D01*
X6630721D02*
X6635007Y-1795000D01*
X6485056Y-1749943D02*
X6490000Y-1745000D01*
X6635007Y-1795000D02*
Y-1772500D01*
X8080000Y-4390000D02*
X8615000Y-4925000D01*
X9775000D01*
X5662500Y-4387500D02*
X7275000D01*
X4052495Y-4840000D02*
X7095000D01*
X3830000Y-4962500D02*
X7292500D01*
X5285000Y-4215000D02*
Y-4020022D01*
X5250000Y-4250000D02*
X5285000Y-4215000D01*
X4523000Y-4202000D02*
Y-4020022D01*
X4500000Y-4225000D02*
X4523000Y-4202000D01*
X4650000Y-4250000D02*
Y-4020022D01*
X4570000Y-4330000D02*
X4650000Y-4250000D01*
X4320000Y-4330000D02*
X4570000D01*
X2565002Y-2910000D02*
X3110000D01*
X3891524Y-3691524D01*
X2391500Y-3031000D02*
Y-2628500D01*
X2330000Y-3092500D02*
X2391500Y-3031000D01*
X3891524Y-3691524D02*
X4119495D01*
X3220000Y-3230000D02*
X4320000Y-4330000D01*
X2330000Y-3230000D02*
X3220000D01*
X6770000Y-2550000D02*
Y-2470000D01*
X6695000Y-2395000D02*
X6770000Y-2470000D01*
X7570004Y-2575006D02*
Y-2525019D01*
X7705631Y-2575006D02*
X7730637Y-2550000D01*
X7570004Y-2575006D02*
X7705631D01*
X7570004Y-2525019D02*
X7705656D01*
X7730637Y-2550000D01*
X6510000Y-2820000D02*
X6820000D01*
X5842679Y-3850000D02*
X6040000D01*
X6820000Y-2820000D02*
X7280000Y-2360000D01*
Y-2330000D02*
X7334993Y-2275007D01*
X6040000Y-3850000D02*
X7408506Y-2481494D01*
Y-2411494D01*
X7280000Y-2360000D02*
Y-2330000D01*
X5827800Y-3985222D02*
Y-3864879D01*
X6830000Y-2930000D02*
X7340000Y-2420000D01*
Y-2370000D02*
X7384981Y-2325019D01*
X6620000Y-2930000D02*
X6830000D01*
X7340000Y-2420000D02*
Y-2370000D01*
X5827800Y-3864879D02*
X5842679Y-3850000D01*
X4600000Y-3625000D02*
X5705000D01*
X6510000Y-2820000D01*
X4865000Y-3745000D02*
X5805000D01*
X6620000Y-2930000D01*
X7408506Y-2411494D02*
X7440693Y-2379307D01*
X4270000Y-4470000D02*
X4810000D01*
X3220000Y-3420000D02*
X4270000Y-4470000D01*
X4810000D02*
X5031000Y-4249000D01*
X4220000Y-4600000D02*
X5070000D01*
X3170001Y-3550000D02*
X4220000Y-4600000D01*
X5070000D02*
X5412000Y-4258000D01*
X6219045Y-680954D02*
X6407750D01*
X7334993Y-2275007D02*
X7570004D01*
X5536640Y-3493360D02*
X6300000Y-2730000D01*
X7384981Y-2325019D02*
X7570004D01*
X7440693Y-2379307D02*
X7565704D01*
X5793000Y-4020022D02*
X5827800Y-3985222D01*
X7565704Y-2379307D02*
X7570004Y-2375007D01*
X7370409Y-2669591D02*
X7414981Y-2625019D01*
X7570004D01*
X7370409Y-2759616D02*
Y-2669591D01*
X7405007Y-2725019D02*
X7455019Y-2675006D01*
X7370409Y-2759616D02*
X7405007Y-2725019D01*
X7455019Y-2675006D02*
X7570004D01*
X7405007Y-2725019D02*
X7570004D01*
X7370409Y-2840000D02*
Y-2759616D01*
Y-3340000D02*
Y-2840000D01*
X7435403Y-2775006D01*
X7570004D01*
X7255000Y-3345000D02*
X7260000Y-3340000D01*
X7115000Y-3345000D02*
X7255000D01*
X4430800Y-3794199D02*
X4600000Y-3625000D01*
X1255000Y-3500000D02*
Y-3302503D01*
X1182500Y-3230004D02*
X1255000Y-3302503D01*
X682500Y-3235008D02*
X755000Y-3307507D01*
X1155000Y-3230004D02*
X1182500D01*
X755000Y-3400000D02*
Y-3307507D01*
Y-3400000D02*
X829999Y-3475000D01*
X1130025Y-3709989D02*
Y-3575025D01*
X1197487Y-3725025D02*
Y-3557512D01*
X1255000Y-3500000D01*
X1195920Y-3775000D02*
X1330000D01*
X928531Y-3876469D02*
X1027287Y-3777713D01*
X826526Y-3876469D02*
X928531D01*
X829999Y-3475000D02*
X1030000D01*
X1130025Y-3575025D01*
X1059812Y-3777713D02*
X1062512Y-3775013D01*
X1027287Y-3777713D02*
X1059812D01*
X1752499Y-1449999D02*
X1762299Y-1440199D01*
X1762812D02*
X1777178Y-1425833D01*
X1849166D02*
X1872305Y-1402694D01*
X1752499Y-1449999D02*
Y-1449999D01*
X1777178Y-1425833D02*
X1849166D01*
X1762299Y-1440199D02*
X1762812D01*
X1872305Y-1402694D02*
X2022305D01*
X2820000Y-3550000D02*
X3170001D01*
X2870000Y-3680000D02*
X3110000D01*
X4140000Y-4710000D01*
X5320000D01*
X5740000Y-1897500D02*
X5745291Y-1902791D01*
X5822390Y-1942390D02*
X5847332D01*
X5782791Y-1902791D02*
X5822390Y-1942390D01*
X5745291Y-1902791D02*
X5782791D01*
X5847332Y-1942390D02*
X5884942Y-1980000D01*
X5879999Y-1980000D02*
X5884942D01*
X5884942Y-1980000D02*
Y-1750000D01*
X4269000Y-4020022D02*
X4303800Y-3985222D01*
X3747500Y-4535005D02*
X4052495Y-4840000D01*
X4910000Y-3490000D02*
X4913360Y-3493360D01*
X5536640D01*
X4904000Y-4020022D02*
X4910000Y-4014022D01*
Y-3850000D01*
X4777000Y-3833000D02*
X4865000Y-3745000D01*
X4777000Y-4020022D02*
Y-3833000D01*
X4680000Y-1210000D02*
X5100000D01*
X5220000Y-1330000D01*
X4622300Y-1377700D02*
X4690000Y-1310000D01*
X4622300Y-1487701D02*
Y-1377700D01*
X4490000Y-1400000D02*
X4680000Y-1210000D01*
X4490000Y-1510001D02*
Y-1400000D01*
Y-1510001D02*
X4490000Y-1510001D01*
X4490000Y-1662500D02*
Y-1510001D01*
X4490000Y-1662500D02*
X4490000Y-1662500D01*
X4374601Y-1740000D02*
Y-1515400D01*
Y-1805399D02*
Y-1740000D01*
X4487500D02*
X4490000Y-1737500D01*
X4374601Y-1740000D02*
X4487500D01*
X4490000Y-1737500D02*
X4491250Y-1736250D01*
X4600000Y-1510001D02*
X4622300Y-1487701D01*
X5002397Y-1507301D02*
X5049697Y-1460001D01*
X4430800Y-3985222D02*
Y-3794199D01*
X2620000Y-3810058D02*
Y-3660000D01*
X2615057Y-3815001D02*
X2620000Y-3810058D01*
X2924942Y-3965695D02*
Y-3815001D01*
X2910000Y-3980637D02*
X2924942Y-3965695D01*
X2910000Y-3990000D02*
Y-3980637D01*
X2306522Y-3230000D02*
X2330000D01*
Y-3167500D01*
X2325000Y-2561999D02*
X2391500Y-2628500D01*
X2265000Y-3325000D02*
X2360000Y-3420000D01*
X2150876Y-3325000D02*
X2265000D01*
X2261522Y-3275000D02*
X2306522Y-3230000D01*
X2190249Y-3275000D02*
X2261522D01*
X6274943Y-1270000D02*
X6279943Y-1265000D01*
X6140000Y-1270000D02*
X6274943D01*
X6420057Y-1265000D02*
Y-1040000D01*
X6440500Y-1019557D01*
Y-837248D01*
X5750000Y-1050000D02*
X5899601D01*
X4155001Y-1505000D02*
Y-1355001D01*
X4150000Y-1350000D02*
X4155001Y-1355001D01*
Y-1505000D02*
X4160001Y-1510001D01*
X4118020Y-2550000D02*
X4119495Y-2548524D01*
X2600057Y-1570000D02*
X2605000D01*
X1960000Y-2307500D02*
Y-2247499D01*
X1620000Y-2670000D02*
Y-2442699D01*
X1625000Y-2437699D01*
X2279476Y-1624999D02*
X2384476Y-1730000D01*
X2244610Y-1624999D02*
X2279476D01*
X2244611Y-1475000D02*
X2340001D01*
X2244610Y-1474999D02*
X2244611Y-1475000D01*
X6700355Y-1018054D02*
X6712301Y-1030000D01*
X6694500Y-837248D02*
X6700355Y-843103D01*
Y-1018054D02*
Y-843103D01*
X3827500Y-1757500D02*
X3874998Y-1710002D01*
X3023000Y-2561999D02*
X3827500Y-1757500D01*
X3835000D02*
X3957500Y-1880000D01*
X3827500Y-1757500D02*
X3835000D01*
X3957500Y-1880000D02*
X3960000D01*
X4150000D02*
X4270001Y-1759999D01*
X4035000Y-1880000D02*
X4150000D01*
X4030000Y-2150000D02*
X4374601Y-1805399D01*
X4270001Y-1759999D02*
Y-1510001D01*
X5031000Y-4249000D02*
Y-4020022D01*
X5412000Y-4258000D02*
Y-4020022D01*
X5320000Y-4710000D02*
X5539000Y-4491000D01*
Y-4020022D01*
X3719999Y-4535005D02*
X3747500D01*
X3747501Y-4880000D02*
X3830000Y-4962500D01*
X3720000Y-4880000D02*
X3747501D01*
X6915000Y-3250004D02*
Y-3140000D01*
X6862695Y-3272304D02*
X6892700D01*
X6915000Y-3250004D02*
X6915000Y-3250004D01*
X6892700Y-3272304D02*
X6915000Y-3250004D01*
X6765000Y-3370000D02*
X6862695Y-3272304D01*
X5666000Y-4181000D02*
Y-4020022D01*
X5666000Y-4181000D02*
X5755000Y-4270000D01*
X4396000Y-4020022D02*
X4430800Y-3985222D01*
X3850524Y-2675524D02*
X4119495D01*
X4374601Y-1515400D02*
X4380001Y-1510001D01*
X4349998Y-1385002D02*
X4371776Y-1406780D01*
Y-1501776D02*
X4380001Y-1510001D01*
X4371776Y-1501776D02*
Y-1406780D01*
X4349998Y-1385002D02*
X4624998Y-1110002D01*
X3874998Y-1616086D02*
Y-1522170D01*
Y-1710002D02*
Y-1616086D01*
X3958912Y-1700000D02*
X4037301D01*
X3874998Y-1616086D02*
X3958912Y-1700000D01*
X2325000Y-2561999D02*
X3023000D01*
X3874998Y-1522170D02*
Y-1375002D01*
X3726436Y-1665789D02*
X3731379D01*
X3874998Y-1522170D01*
X2950499Y-4249501D02*
X3082248D01*
X3340000Y-4362500D02*
Y-4360000D01*
X3082248Y-4249501D02*
X3229501D01*
X3340000Y-4360000D01*
X3088103Y-4382356D02*
X3218637D01*
X3340000Y-4632500D02*
Y-4630000D01*
X3330200Y-4620200D02*
X3340000Y-4630000D01*
X3233516Y-4526016D02*
X3327700Y-4620200D01*
X3218637Y-4382356D02*
X3233516Y-4397235D01*
Y-4526016D02*
Y-4397235D01*
X3327700Y-4620200D02*
X3330200D01*
X3082248Y-4376501D02*
X3088103Y-4382356D01*
X3344398Y-4630200D02*
X3379800D01*
X3340000Y-4710000D02*
X3415004Y-4785004D01*
X3520000D01*
X3340000Y-4710000D02*
Y-4707500D01*
X2954996Y-4974996D02*
X3520000D01*
X2900000Y-4920000D02*
Y-4300000D01*
Y-4920000D02*
X2954996Y-4974996D01*
X3341254Y-4438754D02*
X3518745D01*
X3340000Y-4437500D02*
X3341254Y-4438754D01*
X3518745D02*
X3520000Y-4440009D01*
X3380000Y-4630000D02*
X3519999D01*
X3520000Y-4630001D01*
X3379800Y-4630200D02*
X3380000Y-4630000D01*
X2448500Y-4376501D02*
X2507751D01*
X2900000Y-4300000D02*
X2950499Y-4249501D01*
X2507751D02*
X2512342Y-4244910D01*
X2605090D01*
X2825000Y-4025000D01*
X2507751Y-4122501D02*
X2567002D01*
X2725000Y-3964503D01*
X2825000Y-4025000D02*
Y-3725000D01*
X2474942Y-3815001D02*
X2507751Y-3847809D01*
X2725000Y-3964503D02*
Y-3645000D01*
X2825000Y-3725000D02*
X2870000Y-3680000D01*
X2725000Y-3645000D02*
X2820000Y-3550000D01*
X3507499Y-4642501D02*
X3520000Y-4630001D01*
X6185910Y-263341D02*
X6186500Y-262751D01*
X6185910Y-364090D02*
Y-263341D01*
X6125000Y-425000D02*
X6185910Y-364090D01*
X5800000Y-425000D02*
X6125000D01*
X6689910Y-267341D02*
X6694500Y-262751D01*
X6689910Y-360090D02*
Y-267341D01*
X6625000Y-425000D02*
X6689910Y-360090D01*
X6125000Y-425000D02*
X6625000D01*
X6407750Y-682750D02*
X6440500Y-715500D01*
X6025000Y-1141052D02*
Y-1050000D01*
Y-1141052D02*
X6025199Y-1141252D01*
X5199998Y-1110002D02*
X5231248Y-1141252D01*
X6025199Y-1249801D02*
Y-1141252D01*
X5231248D02*
X6025199D01*
Y-1249801D02*
X6025399Y-1250000D01*
X6025000Y-1050000D02*
Y-1047300D01*
X6050207Y-1022093D01*
X6052907D02*
X6186500Y-888500D01*
Y-837248D01*
X6440500D02*
Y-715500D01*
X6050207Y-1022093D02*
X6052907D01*
X4624998Y-1110002D02*
X5114998D01*
X5199998D01*
X6570503Y-1018984D02*
Y-838344D01*
X6567500Y-837248D02*
X6573355Y-843103D01*
X6188090Y-711909D02*
X6219045Y-680954D01*
X1674999Y-1449999D02*
Y-1349999D01*
X2325000Y-2324999D02*
Y-2144879D01*
X2077399Y-2561999D02*
X2325000D01*
X3874998Y-1375002D02*
X4000000Y-1250000D01*
X4214996D01*
X4349998Y-1385002D01*
X1993883Y-3406116D02*
Y-3375909D01*
X1994792Y-3375000D01*
X2025000D01*
X1875000Y-3275000D02*
X2025000D01*
X2025000Y-3275000D01*
X1895057Y-2674999D02*
X1900000D01*
X1937610Y-2637389D01*
Y-2632446D01*
X1925000Y-2442500D02*
X1975000D01*
Y-2459600D02*
Y-2442500D01*
Y-2459600D02*
X2026199Y-2510799D01*
X2077399Y-2561999D01*
X2026199Y-2543857D02*
Y-2510799D01*
X1937610Y-2632446D02*
X2026199Y-2543857D01*
X1777499Y-1749999D02*
X1787299Y-1740199D01*
X1774999Y-1749999D02*
X1777499D01*
X1787299Y-1740199D02*
Y-1737699D01*
X1900000Y-1624999D01*
X1949999D01*
D64*
X3157500Y-1600000D02*
Y-1405000D01*
Y-1600000D02*
X3160000Y-1602500D01*
X3157500Y-1405000D02*
X3190000Y-1372500D01*
X3060000Y-1405000D02*
X3157500D01*
X1875000Y-3375000D02*
Y-3372500D01*
X1880000Y-3367500D02*
X1912500D01*
X1949292Y-3330709D01*
X2019291D01*
X1875000Y-3372500D02*
X1880000Y-3367500D01*
X2019291Y-3330709D02*
X2025000Y-3325000D01*
X1875000Y-3375000D02*
Y-3372500D01*
X1395399Y-1704601D02*
X1475001Y-1624999D01*
X1874889Y-3375000D02*
X1875000Y-3374889D01*
X1395399Y-3290036D02*
Y-1704601D01*
X1475001Y-1624999D02*
X1699999D01*
X1815000Y-3375000D02*
X1874889D01*
X3065057Y-3995501D02*
X3079191D01*
X1228500Y-691505D02*
X1300000Y-763005D01*
Y-1230167D02*
Y-763005D01*
X1160000Y-691505D02*
X1228500D01*
X1300000Y-1230167D02*
X1316377Y-1246544D01*
X1001504Y-850000D02*
X1160000Y-691505D01*
X870000Y-850000D02*
X1001504D01*
X510000D02*
X870000D01*
X150000Y-1210000D02*
X510000Y-850000D01*
X1270000Y-370000D02*
Y-239995D01*
X1369033Y-469033D02*
X1499033D01*
X1270000Y-370000D02*
X1369033Y-469033D01*
X1160000Y-168495D02*
X1198500D01*
X1270000Y-239995D01*
X1672226Y-642226D02*
Y-642226D01*
X1672226Y-642226D02*
X1672226Y-642226D01*
X1499033Y-469033D02*
X1672226Y-642226D01*
X1764451Y-550000D01*
X1622500Y-691952D02*
X1672226Y-642226D01*
X3031278Y-3995501D02*
X3065057D01*
X1316377Y-1246544D02*
X2283456D01*
X2330000Y-1200000D01*
X2172305Y-1357695D02*
X2283456Y-1246544D01*
X2330000Y-1200000D02*
X2407300D01*
X2172305Y-1402694D02*
Y-1357695D01*
X150000Y-4850000D02*
Y-1210000D01*
X1940000Y-550000D02*
X2075334Y-685334D01*
X1764451Y-550000D02*
X1940000D01*
X2075334Y-746583D02*
X2090000Y-761249D01*
X2075334Y-746583D02*
Y-685334D01*
X1610000Y-761249D02*
X1622500Y-748750D01*
Y-691952D01*
X2670000Y-680000D02*
X2690000Y-660000D01*
X2650000Y-700000D02*
X2670000Y-680000D01*
X3125005Y-595005D02*
Y-412643D01*
Y-595005D02*
X3300000Y-770000D01*
Y-1940000D02*
Y-770000D01*
X3190000Y-2050000D02*
X3300000Y-1940000D01*
X2650000Y-1230000D02*
Y-700000D01*
Y-1336616D02*
Y-1242500D01*
X2980000Y-660000D02*
X3190000Y-870000D01*
Y-1372500D02*
Y-870000D01*
X2484886Y-1574999D02*
X2494352Y-1565533D01*
X2818930Y-531070D02*
Y-394380D01*
X2825006Y-388305D01*
X420000Y-4062624D02*
Y-2480000D01*
Y-4062624D02*
X482127Y-4124751D01*
X420000Y-2480000D02*
X625000Y-2275000D01*
X914279Y-2531780D02*
Y-2339279D01*
X625000Y-2275000D02*
X850000D01*
X914279Y-2531780D02*
X920000Y-2537500D01*
X850000Y-2275000D02*
X914279Y-2339279D01*
X1040005Y-2850000D02*
X1111505Y-2921500D01*
X875000Y-2850000D02*
X1040005D01*
X752500Y-2727500D02*
X875000Y-2850000D01*
X1111505Y-2975000D02*
Y-2921500D01*
X720000Y-2537500D02*
X752500Y-2570000D01*
Y-2727500D02*
Y-2570000D01*
X510000Y-3370000D02*
Y-3135502D01*
X516995Y-3128507D02*
Y-3046500D01*
X510000Y-3135502D02*
X516995Y-3128507D01*
Y-3046500D02*
X588495Y-2975000D01*
X290000Y-4990000D02*
X610000D01*
X150000Y-4850000D02*
X290000Y-4990000D01*
X720000Y-4880000D02*
X2240000D01*
X610000Y-4990000D02*
X720000Y-4880000D01*
X2360000Y-5000000D02*
X2700000D01*
X2240000Y-4880000D02*
X2360000Y-5000000D01*
X2700000D02*
X2775000Y-4925000D01*
X562462Y-4072289D02*
X684942Y-3949809D01*
X484751Y-4150000D02*
Y-4124751D01*
X3007698Y-4022302D02*
Y-4019081D01*
X2775000Y-4255000D02*
X3007698Y-4022302D01*
Y-4019081D02*
X3031278Y-3995501D01*
X2775000Y-4925000D02*
Y-4255000D01*
X3065057Y-3981366D02*
X3079191Y-3995501D01*
X3065057Y-3981366D02*
Y-3815001D01*
X482127Y-4124751D02*
X484751D01*
X558750Y-3501250D02*
X665000Y-3607500D01*
X510000Y-3452501D02*
X558750Y-3501250D01*
X550000Y-3510000D02*
X558750Y-3501250D01*
X550000Y-3675000D02*
Y-3510000D01*
X665000Y-3625000D02*
Y-3607500D01*
X510000Y-3452501D02*
Y-3370000D01*
X560502Y-3420502D01*
X650501D02*
X654999Y-3425000D01*
X560502Y-3420502D02*
X650501D01*
X684942Y-3965121D02*
Y-3949809D01*
Y-3875000D01*
X539838Y-4072289D02*
X562462D01*
X484751Y-4127376D02*
X539838Y-4072289D01*
X950000Y-3980000D02*
X1062486Y-3867513D01*
X699822Y-3980000D02*
X950000D01*
X684942Y-3965121D02*
X699822Y-3980000D01*
X1712664Y-3290036D02*
X1720000Y-3282699D01*
X1382500Y-3325000D02*
X1395399Y-3312101D01*
Y-3290036D02*
X1712664D01*
X1395399Y-3312101D02*
Y-3290036D01*
X1330000Y-3347300D02*
X1352300Y-3325000D01*
X1382500D01*
X1330000Y-3650000D02*
Y-3347300D01*
X1899999Y-1524999D02*
X1949999D01*
X1722699Y-3282699D02*
X1815000Y-3375000D01*
X1549999Y-1774999D02*
X1699999Y-1624999D01*
X1549999Y-1779942D02*
Y-1774999D01*
X1699999Y-1624999D02*
X1799999D01*
X1849999Y-1574999D01*
X1899999Y-1524999D01*
X1849999Y-1574999D02*
X1949999D01*
X1900000Y-2050000D02*
X3190000D01*
X1825000Y-2442500D02*
Y-2382500D01*
X1840000Y-2367500D01*
Y-2307500D01*
X1845366Y-2104634D02*
X1900000Y-2050000D01*
X1845366Y-2302134D02*
Y-2104634D01*
X1840000Y-2307500D02*
X1845366Y-2302134D01*
X2690000Y-660000D02*
X2818930Y-531070D01*
X2690000Y-660000D02*
X2980000D01*
X2494352Y-1565533D02*
Y-1492264D01*
X2650000Y-1336616D01*
X2289879Y-1574999D02*
X2484886D01*
X2244610D02*
X2275000D01*
X2289879Y-1560120D01*
X2279476Y-1524999D02*
X2289879Y-1535402D01*
X2244610Y-1524999D02*
X2279476D01*
X2289879Y-1560120D02*
Y-1535402D01*
X1625000Y-2312300D02*
X1835199D01*
X1840000Y-2307500D01*
X854999Y-3330004D02*
X1037507D01*
X1127499Y-3419996D01*
X1155000D01*
X1062486Y-3867513D02*
Y-3825025D01*
X845000Y-3625921D02*
Y-3625000D01*
Y-3625921D02*
X882300Y-3663221D01*
X918221D01*
X980025Y-3725025D01*
X1062486D01*
D65*
X1420000Y-1480000D02*
Y-1325000D01*
X560000Y-1570000D02*
X1330000D01*
X1420000Y-1480000D01*
X570000Y-1440000D02*
X1325000D01*
X250000Y-1760000D02*
X570000Y-1440000D01*
X1522700Y-1412700D02*
Y-1352300D01*
X250000Y-4290000D02*
Y-1760000D01*
X330000Y-4250000D02*
Y-1800000D01*
X560000Y-1570000D01*
X330000Y-4250000D02*
X410000Y-4330000D01*
X1925000Y-960000D02*
Y-761249D01*
X1420000Y-1080000D02*
X1500000Y-1000000D01*
X1641036D01*
X1775915Y-865121D01*
X1925000Y-1035000D02*
Y-960000D01*
X1805000Y-1155000D02*
X1925000Y-1035000D01*
X1550000Y-1155000D02*
X1805000D01*
X1872700Y-863925D02*
Y-763549D01*
X1775915Y-865121D02*
X1790794Y-880000D01*
X1856625D02*
X1872700Y-863925D01*
X1790794Y-880000D02*
X1856625D01*
X1420000Y-1155000D02*
Y-1080000D01*
X1925000Y-761249D02*
Y-665618D01*
X1904555Y-640000D02*
X1925000Y-660445D01*
X1842179Y-640000D02*
X1904555D01*
X1827300Y-654879D02*
X1842179Y-640000D01*
X1827300Y-758949D02*
Y-654879D01*
X1925000Y-665618D02*
Y-660445D01*
Y-665618D02*
X1925000Y-665618D01*
X1775915Y-865121D02*
Y-762165D01*
X1775000Y-761249D02*
X1775915Y-762165D01*
X1872700Y-763549D02*
X1875000Y-761249D01*
X1960000Y-4410000D02*
X2180501Y-4630501D01*
X2507751D01*
X370000Y-4410000D02*
X1960000D01*
X250000Y-4290000D02*
X370000Y-4410000D01*
X410000Y-4330000D02*
X2000000D01*
X2173501Y-4503501D01*
X2507751D01*
X1825000Y-761249D02*
X1827300Y-758949D01*
D66*
X953500Y-550000D02*
X1015200Y-611700D01*
X900000Y-550000D02*
X953500D01*
X1015200Y-615205D02*
Y-611700D01*
Y-615205D02*
X1091500Y-691505D01*
X7415000Y-350000D02*
X7425000Y-360000D01*
X7117608Y-350000D02*
X7415000D01*
X7117608Y-575000D02*
X7132608Y-560000D01*
X7425000D01*
X7117608Y-575000D02*
X7125000D01*
D67*
X6740000Y-510000D02*
X6900000Y-350000D01*
X6073498Y-510000D02*
X6740000D01*
X5805500Y-777997D02*
X6073498Y-510000D01*
X5805500Y-837248D02*
Y-777997D01*
X6900000Y-350000D02*
X6982392D01*
X6150000Y-600000D02*
X6957392D01*
X6982392Y-575000D01*
X6059500Y-690500D02*
X6150000Y-600000D01*
X6059500Y-837248D02*
Y-690500D01*
D68*
X1418000Y-703749D02*
D03*
X2282000D02*
D03*
D69*
X1418000Y-288749D02*
D03*
X2282000D02*
D03*
D70*
X1561000Y-653750D02*
D03*
X2139000D02*
D03*
D71*
X4768006Y-460003D02*
D03*
X3969989D02*
D03*
D72*
X2620000Y-3940000D02*
D03*
X4760000Y-4200000D02*
D03*
X2110000Y-990000D02*
D03*
X1750000Y-1060000D02*
D03*
X7220000Y-2920000D02*
D03*
X1620000Y-2670000D02*
D03*
X6180000Y-2520000D02*
D03*
X5650000Y-90000D02*
D03*
X5270000Y-540000D02*
D03*
X7680000Y-1030000D02*
D03*
X7000000Y-1040000D02*
D03*
X6840000Y-810000D02*
D03*
X2070000Y-2200000D02*
D03*
X1600000Y-1460000D02*
D03*
X11510000Y-700000D02*
D03*
X11760000Y-1200000D02*
D03*
X11510000Y-1700000D02*
D03*
Y-2700000D02*
D03*
X11760000Y-3200000D02*
D03*
X11510000Y-3700000D02*
D03*
X11760000Y-4200000D02*
D03*
X11010000Y-700000D02*
D03*
X11260000Y-1200000D02*
D03*
X11010000Y-1700000D02*
D03*
X11260000Y-2200000D02*
D03*
X11010000Y-2700000D02*
D03*
X11260000Y-3200000D02*
D03*
X11010000Y-3700000D02*
D03*
X11260000Y-4200000D02*
D03*
X11010000Y-4700000D02*
D03*
X10760000Y-1200000D02*
D03*
X10510000Y-1700000D02*
D03*
X10760000Y-2200000D02*
D03*
X10510000Y-2700000D02*
D03*
X10760000Y-3200000D02*
D03*
X10510000Y-3700000D02*
D03*
X10760000Y-4200000D02*
D03*
X10510000Y-4700000D02*
D03*
X10010000Y-700000D02*
D03*
X10260000Y-1200000D02*
D03*
X10010000Y-1700000D02*
D03*
Y-2700000D02*
D03*
X10260000Y-3200000D02*
D03*
X10010000Y-3700000D02*
D03*
X10260000Y-4200000D02*
D03*
X9510000Y-700000D02*
D03*
Y-1700000D02*
D03*
Y-2700000D02*
D03*
Y-3700000D02*
D03*
Y-4700000D02*
D03*
X9010000Y-700000D02*
D03*
Y-1700000D02*
D03*
X9260000Y-2200000D02*
D03*
X9010000Y-2700000D02*
D03*
Y-3700000D02*
D03*
Y-4700000D02*
D03*
X8760000Y-3200000D02*
D03*
Y-4200000D02*
D03*
X8510000Y-4700000D02*
D03*
X8260000Y-2200000D02*
D03*
X8010000Y-2700000D02*
D03*
X8260000Y-3200000D02*
D03*
Y-4200000D02*
D03*
X8010000Y-4700000D02*
D03*
X7510000Y-700000D02*
D03*
X7760000Y-2200000D02*
D03*
X7510000Y-3700000D02*
D03*
X7010000Y-1700000D02*
D03*
X7260000Y-4200000D02*
D03*
X7010000Y-4700000D02*
D03*
X6510000Y-3700000D02*
D03*
X6760000Y-4200000D02*
D03*
X6510000Y-4700000D02*
D03*
X6260000Y-4200000D02*
D03*
X6010000Y-4700000D02*
D03*
X5510000D02*
D03*
X5010000Y-700000D02*
D03*
X5260000Y-3200000D02*
D03*
X4510000Y-700000D02*
D03*
Y-2700000D02*
D03*
X4760000Y-3200000D02*
D03*
X4010000Y-700000D02*
D03*
X3510000D02*
D03*
X3760000Y-1200000D02*
D03*
X3510000Y-2700000D02*
D03*
X3010000Y-1700000D02*
D03*
X3260000Y-2200000D02*
D03*
X2510000Y-700000D02*
D03*
X2760000Y-2200000D02*
D03*
X2010000Y-2700000D02*
D03*
X2260000Y-4200000D02*
D03*
X1760000Y-2200000D02*
D03*
X1510000Y-2700000D02*
D03*
X1760000Y-4200000D02*
D03*
X1260000D02*
D03*
X510000Y-700000D02*
D03*
X760000Y-1200000D02*
D03*
X510000Y-2700000D02*
D03*
X4680000Y-4380000D02*
D03*
X2420000Y-3310000D02*
D03*
X2830000Y-3330000D02*
D03*
X4830000Y-4240000D02*
D03*
X6750000Y-2210000D02*
D03*
X6900000Y-2000000D02*
D03*
X270000Y-1220000D02*
D03*
X2770000Y-1510000D02*
D03*
X6170000Y-1980000D02*
D03*
X5570000Y-1720862D02*
D03*
X150000Y-1000000D02*
D03*
X1550000Y-5010000D02*
D03*
X1150000D02*
D03*
X2050000D02*
D03*
X1420343Y-3530000D02*
D03*
X1720000Y-3020000D02*
D03*
X2880000Y-3080000D02*
D03*
X3340000Y-4100000D02*
D03*
X3300000Y-4850000D02*
D03*
X2620000Y-3360000D02*
D03*
X2530000Y-3169300D02*
D03*
X2270000Y-1770000D02*
D03*
X2850000Y-1880000D02*
D03*
X2200000Y-100000D02*
D03*
X1700000D02*
D03*
X1520000Y-4010000D02*
D03*
X5250000Y-4600000D02*
D03*
X150000Y-5000000D02*
D03*
Y-500000D02*
D03*
X7550000Y-5000000D02*
D03*
X8050000D02*
D03*
X9050000D02*
D03*
X9550000D02*
D03*
X10050000D02*
D03*
X10550000D02*
D03*
X11050000D02*
D03*
X11550000D02*
D03*
X11800000D02*
D03*
Y-4500000D02*
D03*
Y-4000000D02*
D03*
Y-3500000D02*
D03*
Y-3000000D02*
D03*
Y-1500000D02*
D03*
Y-1000000D02*
D03*
Y-500000D02*
D03*
X11550000Y-100000D02*
D03*
X11050000D02*
D03*
X8550000D02*
D03*
X7050000D02*
D03*
X6050000D02*
D03*
X4550000D02*
D03*
X4050000D02*
D03*
X3550000D02*
D03*
X550000D02*
D03*
X7410000Y-2040000D02*
D03*
X6060000Y-4090000D02*
D03*
X5450000Y-2970012D02*
D03*
X6990000Y-1210000D02*
D03*
X6694978Y-1380000D02*
D03*
X10640000Y-3740000D02*
D03*
X9890000Y-2120000D02*
D03*
X10637499Y-1380000D02*
D03*
X11387499Y-2118571D02*
D03*
X4950000Y-1650000D02*
D03*
X5750000Y-1270000D02*
D03*
X6140000Y-1040000D02*
D03*
X4570000Y-2030000D02*
D03*
X4690000D02*
D03*
X3900000Y-2550000D02*
D03*
X8080000Y-4390000D02*
D03*
X9775000Y-4925000D02*
D03*
X7275000Y-4387500D02*
D03*
X5662500D02*
D03*
X5250000Y-4250000D02*
D03*
X4500000Y-4225000D02*
D03*
X2567682Y-2912680D02*
D03*
X2702680Y-2752680D02*
D03*
X6770000Y-2550000D02*
D03*
X7730637D02*
D03*
X6520000Y-2500000D02*
D03*
X4910000Y-3490000D02*
D03*
Y-3850000D02*
D03*
X4690000Y-1310000D02*
D03*
X2620000Y-3660000D02*
D03*
X2910000Y-3990000D02*
D03*
X6140000Y-1270000D02*
D03*
X5750000Y-1050000D02*
D03*
X4150000Y-1350000D02*
D03*
%TF.MD5,7d0008a28eae4d1c857507fe73dcfb6a*%
M02*
