%TF.GenerationSoftware,Altium Limited,Altium Designer,22.1.2 (22)*%
G04 Layer_Color=8388736*
%FSLAX45Y45*%
%MOMM*%
%TF.SameCoordinates,E45B295A-33DC-4613-BF2C-B4F7B6EB383A*%
%TF.FilePolarity,Negative*%
%TF.FileFunction,Soldermask,Top*%
%TF.Part,Single*%
G01*
G75*
%TA.AperFunction,SMDPad,CuDef*%
%ADD26R,3.40000X0.98000*%
%ADD27R,1.35574X1.80822*%
%ADD28R,0.90000X0.80000*%
%ADD30R,0.95413X3.25822*%
%ADD33R,0.80000X0.80000*%
%ADD34R,3.15000X1.78000*%
%ADD44R,1.05964X0.23583*%
G04:AMPARAMS|DCode=45|XSize=1.05964mm|YSize=0.23583mm|CornerRadius=0.11791mm|HoleSize=0mm|Usage=FLASHONLY|Rotation=180.000|XOffset=0mm|YOffset=0mm|HoleType=Round|Shape=RoundedRectangle|*
%AMROUNDEDRECTD45*
21,1,1.05964,0.00000,0,0,180.0*
21,1,0.82381,0.23583,0,0,180.0*
1,1,0.23583,-0.41190,0.00000*
1,1,0.23583,0.41190,0.00000*
1,1,0.23583,0.41190,0.00000*
1,1,0.23583,-0.41190,0.00000*
%
%ADD45ROUNDEDRECTD45*%
%ADD47R,0.75814X0.81213*%
%ADD48R,1.00620X1.10506*%
%ADD49R,0.96602X0.23928*%
G04:AMPARAMS|DCode=50|XSize=0.96602mm|YSize=0.23928mm|CornerRadius=0.11964mm|HoleSize=0mm|Usage=FLASHONLY|Rotation=0.000|XOffset=0mm|YOffset=0mm|HoleType=Round|Shape=RoundedRectangle|*
%AMROUNDEDRECTD50*
21,1,0.96602,0.00000,0,0,0.0*
21,1,0.72673,0.23928,0,0,0.0*
1,1,0.23928,0.36337,0.00000*
1,1,0.23928,-0.36337,0.00000*
1,1,0.23928,-0.36337,0.00000*
1,1,0.23928,0.36337,0.00000*
%
%ADD50ROUNDEDRECTD50*%
G04:AMPARAMS|DCode=51|XSize=0.23928mm|YSize=0.96602mm|CornerRadius=0.11964mm|HoleSize=0mm|Usage=FLASHONLY|Rotation=0.000|XOffset=0mm|YOffset=0mm|HoleType=Round|Shape=RoundedRectangle|*
%AMROUNDEDRECTD51*
21,1,0.23928,0.72673,0,0,0.0*
21,1,0.00000,0.96602,0,0,0.0*
1,1,0.23928,0.00000,-0.36337*
1,1,0.23928,0.00000,-0.36337*
1,1,0.23928,0.00000,0.36337*
1,1,0.23928,0.00000,0.36337*
%
%ADD51ROUNDEDRECTD51*%
%ADD52R,1.68000X1.68000*%
%ADD53R,1.10606X0.95822*%
%ADD54R,1.10506X1.00620*%
%ADD55R,0.81213X0.75814*%
%ADD60R,0.80000X0.90000*%
%ADD61R,1.78000X3.15000*%
%TA.AperFunction,ComponentPad*%
%ADD76O,1.15000X2.25000*%
%ADD77O,1.15000X1.95000*%
%ADD78C,0.80000*%
%ADD79C,1.10000*%
%TA.AperFunction,NonConductor*%
%ADD94R,0.30000X1.50000*%
%ADD95R,0.30000X1.50000*%
%ADD96R,0.39000X0.74000*%
%TA.AperFunction,SMDPad,CuDef*%
%ADD97R,0.65004X0.35004*%
%ADD98R,0.65004X0.30002*%
%ADD99R,0.40002X0.70002*%
%ADD100R,0.70000X0.70000*%
%ADD101R,0.70000X1.25000*%
%ADD102R,0.40000X1.25000*%
%ADD103R,0.80000X1.70000*%
%ADD104R,1.30000X2.30000*%
%ADD105R,1.70000X1.50000*%
%ADD106R,1.30000X1.50000*%
%ADD107R,1.45161X1.90160*%
%ADD108R,1.35001X0.80000*%
%ADD109O,0.65999X1.84501*%
%ADD110R,1.10000X1.45000*%
%ADD111R,0.90000X0.70000*%
%ADD112R,0.60000X0.55000*%
%TA.AperFunction,ConnectorPad*%
%ADD113R,1.00000X2.10000*%
%ADD114R,1.20000X1.03000*%
%TA.AperFunction,SMDPad,CuDef*%
%ADD115R,3.60000X1.10000*%
%ADD116R,3.50000X1.60000*%
%ADD117R,3.29999X2.59999*%
%ADD118R,1.90000X0.44000*%
%ADD119R,1.05001X2.20000*%
%ADD120R,2.20000X1.05001*%
%TA.AperFunction,BGAPad,CuDef*%
%ADD121R,1.00000X1.00000*%
%TA.AperFunction,SMDPad,CuDef*%
%ADD122R,0.30000X0.45001*%
%ADD123R,1.60000X3.50000*%
%ADD124R,1.10000X3.60000*%
%ADD125R,0.55000X0.60000*%
%ADD126O,1.84501X0.65999*%
G36*
X1894500Y-2424999D02*
X1894500Y-2459999D01*
Y-2463878D01*
X1891531Y-2471045D01*
X1886046Y-2476531D01*
X1878878Y-2479499D01*
X1875000D01*
X1871121D01*
X1863954Y-2476531D01*
X1858468Y-2471045D01*
X1855500Y-2463878D01*
Y-2459999D01*
D01*
Y-2424999D01*
Y-2421121D01*
X1858468Y-2413954D01*
X1863954Y-2408468D01*
X1871121Y-2405499D01*
X1875000D01*
X1878878D01*
X1886046Y-2408468D01*
X1891531Y-2413954D01*
X1894500Y-2421121D01*
Y-2424999D01*
X1894500D01*
D02*
G37*
G36*
X1925000Y-2405499D02*
X1928878D01*
X1936045Y-2408468D01*
X1941531Y-2413954D01*
X1944500Y-2421121D01*
Y-2424999D01*
D01*
Y-2459999D01*
Y-2463878D01*
X1941531Y-2471045D01*
X1936045Y-2476531D01*
X1928878Y-2479499D01*
X1925000D01*
X1921121D01*
X1913954Y-2476531D01*
X1908468Y-2471045D01*
X1905500Y-2463878D01*
Y-2459999D01*
X1905500D01*
X1905500Y-2424999D01*
Y-2421121D01*
X1908468Y-2413954D01*
X1913954Y-2408468D01*
X1921121Y-2405499D01*
X1925000D01*
D01*
D02*
G37*
G36*
X1955500Y-2459999D02*
Y-2424999D01*
Y-2421121D01*
X1958468Y-2413954D01*
X1963954Y-2408468D01*
X1971121Y-2405499D01*
X1975000D01*
X1978878D01*
X1986046Y-2408468D01*
X1991531Y-2413954D01*
X1994500Y-2421121D01*
Y-2424999D01*
X1994500D01*
X1994500Y-2459999D01*
Y-2463878D01*
X1991531Y-2471045D01*
X1986046Y-2476531D01*
X1978878Y-2479499D01*
X1975000D01*
X1971121D01*
X1963954Y-2476531D01*
X1958468Y-2471045D01*
X1955500Y-2463878D01*
Y-2459999D01*
D01*
D02*
G37*
D26*
X2325000Y-2561999D02*
D03*
Y-2324999D02*
D03*
D27*
X1954751Y-2940000D02*
D03*
X2250000D02*
D03*
X780000Y-4150000D02*
D03*
X484751D02*
D03*
D28*
X1495000Y-1440000D02*
D03*
X1325000D02*
D03*
D30*
X7370409Y-3340000D02*
D03*
X7260000D02*
D03*
D33*
X2810000Y-955000D02*
D03*
Y-1105000D02*
D03*
X3060000Y-950000D02*
D03*
Y-1100000D02*
D03*
D34*
X1160000Y-691505D02*
D03*
Y-168495D02*
D03*
D44*
X2190249Y-3375000D02*
D03*
D45*
Y-3325000D02*
D03*
Y-3275000D02*
D03*
Y-3225000D02*
D03*
Y-3175000D02*
D03*
X2025000D02*
D03*
Y-3225000D02*
D03*
Y-3275000D02*
D03*
Y-3325000D02*
D03*
Y-3375000D02*
D03*
D47*
X7972699Y-3420000D02*
D03*
X7847301D02*
D03*
X2407300Y-1200000D02*
D03*
X2532699D02*
D03*
X4162699Y-1700000D02*
D03*
X4037301D02*
D03*
X5899601Y-1050000D02*
D03*
X6025000D02*
D03*
X5900000Y-1250000D02*
D03*
X6025399D02*
D03*
X6587301D02*
D03*
X6712699D02*
D03*
X6837699Y-1030000D02*
D03*
X6712301D02*
D03*
D48*
X3350000Y-640000D02*
D03*
Y-499886D02*
D03*
X1549999Y-1779942D02*
D03*
Y-1920056D02*
D03*
D49*
X1949999Y-1474999D02*
D03*
D50*
Y-1524999D02*
D03*
Y-1574999D02*
D03*
Y-1624999D02*
D03*
X2244610D02*
D03*
Y-1574999D02*
D03*
Y-1524999D02*
D03*
Y-1474999D02*
D03*
D51*
X2022305Y-1697305D02*
D03*
X2072305D02*
D03*
X2122305D02*
D03*
X2172305D02*
D03*
Y-1402694D02*
D03*
X2122305D02*
D03*
X2072305D02*
D03*
X2022305D02*
D03*
D52*
X2097305Y-1549999D02*
D03*
D53*
X6982392Y-350000D02*
D03*
X7117608D02*
D03*
Y-575000D02*
D03*
X6982392D02*
D03*
D54*
X6025057Y-1980000D02*
D03*
X5884942D02*
D03*
X6025056Y-1750000D02*
D03*
X5884942D02*
D03*
X2630000Y-1570000D02*
D03*
X2489886D02*
D03*
X1895057Y-2674999D02*
D03*
X1754943D02*
D03*
X2615057Y-3815001D02*
D03*
X2474942D02*
D03*
X2924942D02*
D03*
X3065057D02*
D03*
X3726436Y-1665789D02*
D03*
X3586321D02*
D03*
X6279943Y-1265000D02*
D03*
X6420057D02*
D03*
X6279943Y-1040000D02*
D03*
X6420057D02*
D03*
X684942Y-3875000D02*
D03*
X825057D02*
D03*
X729943Y-700000D02*
D03*
X870057D02*
D03*
X1700057Y-3460000D02*
D03*
X1559943D02*
D03*
X1560228Y-3670000D02*
D03*
X1700343D02*
D03*
X2400000Y-550000D02*
D03*
X2540114D02*
D03*
D55*
X5540000Y-1962699D02*
D03*
Y-1837301D02*
D03*
X1625000Y-2312300D02*
D03*
Y-2437699D02*
D03*
X5570000Y-310000D02*
D03*
Y-435399D02*
D03*
X1720000Y-3157301D02*
D03*
Y-3282699D02*
D03*
D60*
X1420000Y-1325000D02*
D03*
Y-1155000D02*
D03*
X1550000Y-1325000D02*
D03*
Y-1155000D02*
D03*
D61*
X588495Y-2975000D02*
D03*
X1111505D02*
D03*
D76*
X1418000Y-703749D02*
D03*
X2282000D02*
D03*
D77*
X1418000Y-288749D02*
D03*
X2282000D02*
D03*
D78*
X1561000Y-653750D02*
D03*
X2139000D02*
D03*
D79*
X4768006Y-460003D02*
D03*
X3969989D02*
D03*
D94*
X1959998Y-2307500D02*
D03*
D95*
X1900000Y-2307499D02*
D03*
X1840000D02*
D03*
D96*
X1825000Y-2442499D02*
D03*
D97*
X1062486Y-3725025D02*
D03*
Y-3825025D02*
D03*
X1197513D02*
D03*
X1197487Y-3725025D02*
D03*
D98*
X1062512Y-3775013D02*
D03*
X1197513D02*
D03*
D99*
X1130025Y-3840011D02*
D03*
Y-3709989D02*
D03*
D100*
X2025000Y-950000D02*
D03*
X1925000D02*
D03*
X1800000D02*
D03*
X1700000D02*
D03*
D101*
X1530000Y-761249D02*
D03*
X1610000D02*
D03*
X2090000D02*
D03*
X2170000D02*
D03*
D102*
X1675000D02*
D03*
X1725000D02*
D03*
X1775000D02*
D03*
X1825000D02*
D03*
X2025000D02*
D03*
X1975000D02*
D03*
X1925000D02*
D03*
X1875000D02*
D03*
D103*
X4050001Y-1510001D02*
D03*
X4490000D02*
D03*
X4600000D02*
D03*
X4710000D02*
D03*
X4820000D02*
D03*
X4930000D02*
D03*
X4160001D02*
D03*
X4270001D02*
D03*
X4380001D02*
D03*
D104*
X5049997Y-500000D02*
D03*
X3500000D02*
D03*
D105*
X3590002Y-1459998D02*
D03*
D106*
X5049697Y-1460001D02*
D03*
D107*
X6899993Y-1795000D02*
D03*
X7340007D02*
D03*
X6194992D02*
D03*
X6635007D02*
D03*
D108*
X3520000Y-4785004D02*
D03*
Y-4974996D02*
D03*
X3720000Y-4880000D02*
D03*
X7115000Y-3345000D02*
D03*
X6915000Y-3439996D02*
D03*
Y-3250004D02*
D03*
X854999Y-3330004D02*
D03*
X654999Y-3425000D02*
D03*
Y-3235008D02*
D03*
X1155000Y-3230004D02*
D03*
Y-3419996D02*
D03*
X1354999Y-3325000D02*
D03*
X3520000Y-4440009D02*
D03*
Y-4630001D02*
D03*
X3719999Y-4535005D02*
D03*
D109*
X5805500Y-837248D02*
D03*
X5932500D02*
D03*
X6059500D02*
D03*
X6186500D02*
D03*
X6313500D02*
D03*
X6440500D02*
D03*
X6567500D02*
D03*
X6694500D02*
D03*
X5805500Y-262751D02*
D03*
X5932500D02*
D03*
X6059500D02*
D03*
X6186500D02*
D03*
X6313500D02*
D03*
X6440500D02*
D03*
X6567500D02*
D03*
X6694500D02*
D03*
D110*
X665000Y-3625000D02*
D03*
X845000D02*
D03*
D111*
X3060000Y-1275000D02*
D03*
Y-1405000D02*
D03*
X1330000Y-3650000D02*
D03*
Y-3780000D02*
D03*
X2807500Y-1260000D02*
D03*
Y-1390000D02*
D03*
D112*
X7975000Y-3560000D02*
D03*
X7900000D02*
D03*
X2102500Y-880000D02*
D03*
X2177500D02*
D03*
X1532500D02*
D03*
X1607500D02*
D03*
X2412500Y-1350000D02*
D03*
X2487500D02*
D03*
X1674999Y-1349999D02*
D03*
X1749999D02*
D03*
X1674999Y-1449999D02*
D03*
X1749999D02*
D03*
X1745000Y-1550000D02*
D03*
X1670000D02*
D03*
X1774999Y-1749999D02*
D03*
X1699999D02*
D03*
X4035000Y-1880000D02*
D03*
X3960000D02*
D03*
X6637500Y-100000D02*
D03*
X6562500D02*
D03*
X6990000Y-3140000D02*
D03*
X6915000D02*
D03*
X2005000Y-1880000D02*
D03*
X2080000D02*
D03*
D113*
X3125005Y-399073D02*
D03*
X2825006D02*
D03*
X2675019D02*
D03*
D114*
X2520003Y-327927D02*
D03*
Y-100927D02*
D03*
X3279996D02*
D03*
Y-327927D02*
D03*
D115*
X7425000Y-360000D02*
D03*
Y-560000D02*
D03*
D116*
X8000000Y-125000D02*
D03*
Y-795000D02*
D03*
D117*
X7759996Y-1929999D02*
D03*
Y-3170001D02*
D03*
D118*
X7570004Y-2175007D02*
D03*
Y-2225020D02*
D03*
Y-2275007D02*
D03*
Y-2375007D02*
D03*
Y-2325019D02*
D03*
Y-2975005D02*
D03*
Y-2925018D02*
D03*
Y-2875006D02*
D03*
Y-2825018D02*
D03*
Y-2775006D02*
D03*
Y-2725019D02*
D03*
Y-2675006D02*
D03*
Y-2625019D02*
D03*
Y-2575006D02*
D03*
Y-2525019D02*
D03*
Y-2475006D02*
D03*
Y-2425019D02*
D03*
Y-2125020D02*
D03*
D119*
X5920000Y-2220001D02*
D03*
X5793000D02*
D03*
X5666000D02*
D03*
X5539000D02*
D03*
X5412000D02*
D03*
X5285000D02*
D03*
X5158000D02*
D03*
X5031000D02*
D03*
X4904000D02*
D03*
X4777000D02*
D03*
X4650000D02*
D03*
X4523000D02*
D03*
X4396000D02*
D03*
X4269000D02*
D03*
Y-4020022D02*
D03*
X4396000D02*
D03*
X4523000D02*
D03*
X4650000D02*
D03*
X4777000D02*
D03*
X4904000D02*
D03*
X5031000D02*
D03*
X5158000D02*
D03*
X5285000D02*
D03*
X5412000D02*
D03*
X5539000D02*
D03*
X5666000D02*
D03*
X5793000D02*
D03*
X5920000D02*
D03*
D120*
X4119495Y-2548524D02*
D03*
Y-2675524D02*
D03*
Y-2802524D02*
D03*
Y-2929524D02*
D03*
Y-3056524D02*
D03*
Y-3183524D02*
D03*
Y-3310524D02*
D03*
Y-3437524D02*
D03*
Y-3564524D02*
D03*
Y-3691524D02*
D03*
D121*
X5151904Y-2969986D02*
D03*
Y-2830007D02*
D03*
Y-3110017D02*
D03*
X5291909D02*
D03*
Y-2970012D02*
D03*
Y-2830007D02*
D03*
X5011899D02*
D03*
Y-2970012D02*
D03*
Y-3110017D02*
D03*
D122*
X889980Y-550000D02*
D03*
X850000D02*
D03*
D123*
X1155000Y-1962500D02*
D03*
X485000D02*
D03*
D124*
X920000Y-2537500D02*
D03*
X720000D02*
D03*
D125*
X5740000Y-1895000D02*
D03*
Y-1820000D02*
D03*
X3340000Y-4362500D02*
D03*
Y-4437500D02*
D03*
Y-4632500D02*
D03*
Y-4707500D02*
D03*
X4490000Y-1662500D02*
D03*
Y-1737500D02*
D03*
X6575000Y-1112500D02*
D03*
Y-1037500D02*
D03*
X3160000Y-1677500D02*
D03*
Y-1602500D02*
D03*
X550000Y-3675000D02*
D03*
Y-3750000D02*
D03*
X1875000Y-3450000D02*
D03*
Y-3375000D02*
D03*
X2330000Y-3167500D02*
D03*
Y-3092500D02*
D03*
X2432500Y-3167500D02*
D03*
Y-3092500D02*
D03*
X1875434Y-3198479D02*
D03*
Y-3273479D02*
D03*
D126*
X3082248Y-4884501D02*
D03*
Y-4757501D02*
D03*
Y-4630501D02*
D03*
Y-4503501D02*
D03*
Y-4376501D02*
D03*
Y-4249501D02*
D03*
Y-4122501D02*
D03*
Y-3995501D02*
D03*
X2507751Y-4884501D02*
D03*
Y-4757501D02*
D03*
Y-4630501D02*
D03*
Y-4503501D02*
D03*
Y-4376501D02*
D03*
Y-4249501D02*
D03*
Y-4122501D02*
D03*
Y-3995501D02*
D03*
%TF.MD5,17e3b9ca509efff968a590c83f971d94*%
M02*
