%TF.GenerationSoftware,Altium Limited,Altium Designer,22.1.2 (22)*%
G04 Layer_Physical_Order=2*
G04 Layer_Color=15238730*
%FSLAX45Y45*%
%MOMM*%
%TF.SameCoordinates,E45B295A-33DC-4613-BF2C-B4F7B6EB383A*%
%TF.FilePolarity,Positive*%
%TF.FileFunction,Copper,L2,Bot,Signal*%
%TF.Part,Single*%
G01*
G75*
%TA.AperFunction,Conductor*%
%ADD63C,0.25400*%
%TA.AperFunction,ComponentPad*%
%ADD68O,1.05000X2.15000*%
%ADD69O,1.05000X1.85000*%
%ADD70C,0.70000*%
%ADD71C,1.00000*%
%TA.AperFunction,ViaPad*%
%ADD72C,0.60000*%
%TA.AperFunction,SMDPad,CuDef*%
%ADD73R,0.75001X1.00000*%
G36*
X11850000Y-5050000D02*
X9975400D01*
Y-4924599D01*
X9849599D01*
Y-4924599D01*
X9837483Y-4929478D01*
X9830400Y-4923801D01*
Y-4913980D01*
X9821966Y-4893619D01*
X9806381Y-4878034D01*
X9786020Y-4869600D01*
X9763980D01*
X9743619Y-4878034D01*
X9728034Y-4893619D01*
X9719600Y-4913980D01*
Y-4936020D01*
X9728034Y-4956382D01*
X9743619Y-4971966D01*
X9763980Y-4980400D01*
X9775463D01*
X9822531Y-5027468D01*
X9835133Y-5035889D01*
X9842228Y-5037300D01*
X9840977Y-5050000D01*
X2675401D01*
Y-4924599D01*
X2549600D01*
Y-5050000D01*
X100000D01*
Y-50000D01*
X11850000D01*
Y-5050000D01*
D02*
G37*
%LPC*%
G36*
X1430700Y-171849D02*
Y-276049D01*
X1496572D01*
Y-248750D01*
X1493895Y-228414D01*
X1486045Y-209464D01*
X1473559Y-193191D01*
X1457286Y-180704D01*
X1438336Y-172855D01*
X1430700Y-171849D01*
D02*
G37*
G36*
X1405300D02*
X1397664Y-172855D01*
X1378714Y-180704D01*
X1362441Y-193191D01*
X1349955Y-209464D01*
X1342105Y-228414D01*
X1339428Y-248750D01*
Y-276049D01*
X1405300D01*
Y-171849D01*
D02*
G37*
G36*
X2294699D02*
Y-276049D01*
X2360572D01*
Y-248750D01*
X2357895Y-228414D01*
X2350045Y-209464D01*
X2337559Y-193191D01*
X2321286Y-180704D01*
X2302336Y-172855D01*
X2294699Y-171849D01*
D02*
G37*
G36*
X2269299Y-171850D02*
X2261664Y-172855D01*
X2242714Y-180704D01*
X2226441Y-193191D01*
X2213954Y-209464D01*
X2206105Y-228414D01*
X2203428Y-248750D01*
Y-276049D01*
X2269299D01*
Y-171850D01*
D02*
G37*
G36*
X3049999Y-144674D02*
X3031942Y-147051D01*
X3015116Y-154021D01*
X3000667Y-165108D01*
X2989580Y-179557D01*
X2982610Y-196383D01*
X2980233Y-214440D01*
X2982610Y-232497D01*
X2989580Y-249323D01*
X3000667Y-263772D01*
X3015116Y-274859D01*
X3031942Y-281829D01*
X3049999Y-284206D01*
X3068056Y-281829D01*
X3084882Y-274859D01*
X3099331Y-263772D01*
X3110418Y-249323D01*
X3117388Y-232497D01*
X3119765Y-214440D01*
X3117388Y-196383D01*
X3110418Y-179557D01*
X3099331Y-165108D01*
X3084882Y-154021D01*
X3068056Y-147051D01*
X3049999Y-144674D01*
D02*
G37*
G36*
X2750000D02*
X2731943Y-147051D01*
X2715117Y-154021D01*
X2700668Y-165108D01*
X2689581Y-179557D01*
X2682611Y-196383D01*
X2680234Y-214440D01*
X2682611Y-232497D01*
X2689581Y-249323D01*
X2700668Y-263772D01*
X2715117Y-274859D01*
X2731943Y-281829D01*
X2750000Y-284206D01*
X2768057Y-281829D01*
X2784883Y-274859D01*
X2799332Y-263772D01*
X2810419Y-249323D01*
X2817389Y-232497D01*
X2819766Y-214440D01*
X2817389Y-196383D01*
X2810419Y-179557D01*
X2799332Y-165108D01*
X2784883Y-154021D01*
X2768057Y-147051D01*
X2750000Y-144674D01*
D02*
G37*
G36*
X2269299Y-301449D02*
X2203428D01*
Y-328749D01*
X2206105Y-349085D01*
X2213954Y-368035D01*
X2226441Y-384308D01*
X2242714Y-396795D01*
X2261664Y-404644D01*
X2269299Y-405649D01*
Y-301449D01*
D02*
G37*
G36*
X1405300Y-301449D02*
X1339428D01*
Y-328749D01*
X1342105Y-349085D01*
X1349955Y-368035D01*
X1362441Y-384308D01*
X1378714Y-396795D01*
X1397664Y-404644D01*
X1405300Y-405650D01*
Y-301449D01*
D02*
G37*
G36*
X1496572D02*
X1430700D01*
Y-405650D01*
X1438336Y-404644D01*
X1457286Y-396795D01*
X1473559Y-384308D01*
X1486045Y-368035D01*
X1493895Y-349085D01*
X1496572Y-328749D01*
Y-301449D01*
D02*
G37*
G36*
X2360572Y-301449D02*
X2294699D01*
Y-405650D01*
X2302336Y-404644D01*
X2321286Y-396795D01*
X2337559Y-384308D01*
X2350045Y-368035D01*
X2357895Y-349085D01*
X2360572Y-328749D01*
Y-301449D01*
D02*
G37*
G36*
X4777933Y-384603D02*
X4758079D01*
X4738903Y-389741D01*
X4721709Y-399667D01*
X4707671Y-413706D01*
X4697744Y-430899D01*
X4692606Y-450076D01*
Y-469929D01*
X4697744Y-489106D01*
X4707671Y-506299D01*
X4721709Y-520338D01*
X4738903Y-530264D01*
X4758079Y-535403D01*
X4777933D01*
X4797109Y-530264D01*
X4814303Y-520338D01*
X4828341Y-506299D01*
X4838268Y-489106D01*
X4843406Y-469929D01*
Y-450076D01*
X4838268Y-430899D01*
X4828341Y-413706D01*
X4814303Y-399667D01*
X4797109Y-389741D01*
X4777933Y-384603D01*
D02*
G37*
G36*
X3979915D02*
X3960062D01*
X3940885Y-389741D01*
X3923692Y-399667D01*
X3909654Y-413706D01*
X3899727Y-430899D01*
X3894589Y-450076D01*
Y-469929D01*
X3899727Y-489106D01*
X3909654Y-506299D01*
X3923692Y-520338D01*
X3940885Y-530264D01*
X3960062Y-535403D01*
X3979915D01*
X3999092Y-530264D01*
X4016285Y-520338D01*
X4030324Y-506299D01*
X4040250Y-489106D01*
X4045389Y-469929D01*
Y-450076D01*
X4040250Y-430899D01*
X4030324Y-413706D01*
X4016285Y-399667D01*
X3999092Y-389741D01*
X3979915Y-384603D01*
D02*
G37*
G36*
X11519698Y-174103D02*
X11480301D01*
X11477800Y-174600D01*
X11475249D01*
X11436609Y-182286D01*
X11434253Y-183262D01*
X11431751Y-183760D01*
X11395354Y-198836D01*
X11393233Y-200253D01*
X11390876Y-201229D01*
X11358120Y-223117D01*
X11356316Y-224921D01*
X11354195Y-226338D01*
X11326337Y-254195D01*
X11324920Y-256316D01*
X11323117Y-258120D01*
X11301229Y-290877D01*
X11300253Y-293233D01*
X11298836Y-295354D01*
X11283759Y-331752D01*
X11283262Y-334254D01*
X11282286Y-336610D01*
X11274600Y-375249D01*
Y-377800D01*
X11274102Y-380302D01*
Y-419698D01*
X11274600Y-422200D01*
Y-424751D01*
X11282286Y-463390D01*
X11283262Y-465747D01*
X11283759Y-468248D01*
X11298836Y-504646D01*
X11300253Y-506767D01*
X11301229Y-509123D01*
X11323117Y-541880D01*
X11324920Y-543684D01*
X11326337Y-545805D01*
X11354195Y-573663D01*
X11356316Y-575079D01*
X11358119Y-576883D01*
X11390876Y-598771D01*
X11393233Y-599747D01*
X11395354Y-601164D01*
X11431751Y-616240D01*
X11434253Y-616738D01*
X11436610Y-617714D01*
X11475249Y-625400D01*
X11477800D01*
X11480301Y-625897D01*
X11519698D01*
X11522200Y-625400D01*
X11524750D01*
X11563390Y-617714D01*
X11565746Y-616738D01*
X11568248Y-616240D01*
X11604646Y-601164D01*
X11606767Y-599747D01*
X11609123Y-598771D01*
X11641880Y-576883D01*
X11643684Y-575080D01*
X11645804Y-573663D01*
X11673662Y-545805D01*
X11675079Y-543684D01*
X11676883Y-541881D01*
X11698770Y-509123D01*
X11699746Y-506767D01*
X11701164Y-504646D01*
X11716240Y-468248D01*
X11716738Y-465747D01*
X11717714Y-463390D01*
X11725400Y-424751D01*
Y-422200D01*
X11725897Y-419698D01*
Y-380302D01*
X11725400Y-377800D01*
Y-375249D01*
X11717714Y-336610D01*
X11716738Y-334253D01*
X11716240Y-331752D01*
X11701164Y-295354D01*
X11699746Y-293233D01*
X11698770Y-290877D01*
X11676883Y-258120D01*
X11675079Y-256316D01*
X11673662Y-254195D01*
X11645804Y-226338D01*
X11643684Y-224921D01*
X11641880Y-223117D01*
X11609123Y-201229D01*
X11606767Y-200253D01*
X11604646Y-198836D01*
X11568248Y-183760D01*
X11565746Y-183262D01*
X11563390Y-182286D01*
X11524751Y-174600D01*
X11522200D01*
X11519698Y-174103D01*
D02*
G37*
G36*
X469698D02*
X430301D01*
X427800Y-174600D01*
X425249D01*
X386609Y-182286D01*
X384253Y-183262D01*
X381751Y-183760D01*
X345354Y-198836D01*
X343233Y-200253D01*
X340876Y-201229D01*
X308120Y-223117D01*
X306316Y-224921D01*
X304195Y-226338D01*
X276337Y-254195D01*
X274920Y-256316D01*
X273117Y-258120D01*
X251229Y-290877D01*
X250253Y-293233D01*
X248836Y-295354D01*
X233760Y-331752D01*
X233262Y-334254D01*
X232286Y-336610D01*
X224600Y-375249D01*
Y-377800D01*
X224102Y-380302D01*
Y-419698D01*
X224600Y-422200D01*
Y-424751D01*
X232286Y-463390D01*
X233262Y-465747D01*
X233760Y-468248D01*
X248836Y-504646D01*
X250253Y-506767D01*
X251229Y-509123D01*
X273117Y-541880D01*
X274920Y-543684D01*
X276337Y-545805D01*
X304195Y-573663D01*
X306316Y-575079D01*
X308119Y-576883D01*
X340876Y-598771D01*
X343233Y-599747D01*
X345354Y-601164D01*
X381751Y-616240D01*
X384253Y-616738D01*
X386610Y-617714D01*
X425249Y-625400D01*
X427800D01*
X430301Y-625897D01*
X469698D01*
X472200Y-625400D01*
X474750D01*
X513390Y-617714D01*
X515746Y-616738D01*
X518248Y-616240D01*
X554646Y-601164D01*
X556767Y-599747D01*
X559123Y-598771D01*
X591880Y-576883D01*
X593684Y-575080D01*
X595804Y-573663D01*
X623662Y-545805D01*
X625079Y-543684D01*
X626883Y-541881D01*
X648770Y-509123D01*
X649746Y-506767D01*
X651164Y-504646D01*
X666240Y-468248D01*
X666738Y-465747D01*
X667714Y-463390D01*
X675400Y-424751D01*
Y-422200D01*
X675897Y-419698D01*
Y-380302D01*
X675400Y-377800D01*
Y-375249D01*
X667714Y-336610D01*
X666738Y-334253D01*
X666240Y-331752D01*
X651164Y-295354D01*
X649746Y-293233D01*
X648770Y-290877D01*
X626883Y-258120D01*
X625079Y-256316D01*
X623662Y-254195D01*
X595804Y-226338D01*
X593684Y-224921D01*
X591880Y-223117D01*
X559123Y-201229D01*
X556767Y-200253D01*
X554646Y-198836D01*
X518248Y-183760D01*
X515746Y-183262D01*
X513390Y-182286D01*
X474751Y-174600D01*
X472200D01*
X469698Y-174103D01*
D02*
G37*
G36*
X2269300Y-571849D02*
X2261664Y-572855D01*
X2242714Y-580704D01*
X2226441Y-593191D01*
X2213954Y-609463D01*
X2206867Y-626575D01*
X2201039Y-627984D01*
X2193437Y-627339D01*
X2190204Y-619536D01*
X2173214Y-602545D01*
X2151014Y-593350D01*
X2126986D01*
X2104786Y-602545D01*
X2087795Y-619536D01*
X2078600Y-641735D01*
Y-665764D01*
X2087795Y-687963D01*
X2104786Y-704954D01*
X2126986Y-714149D01*
X2151014D01*
X2173214Y-704954D01*
X2190204Y-687963D01*
X2190728Y-686700D01*
X2203428Y-689226D01*
Y-691050D01*
X2269300D01*
Y-571849D01*
D02*
G37*
G36*
X1405300D02*
X1397664Y-572855D01*
X1378714Y-580704D01*
X1362441Y-593191D01*
X1349955Y-609463D01*
X1342105Y-628414D01*
X1339428Y-648750D01*
Y-691050D01*
X1405300D01*
Y-571849D01*
D02*
G37*
G36*
X2294700D02*
Y-691050D01*
X2360572D01*
Y-648750D01*
X2357895Y-628414D01*
X2350045Y-609463D01*
X2337559Y-593191D01*
X2321286Y-580704D01*
X2302336Y-572855D01*
X2294700Y-571849D01*
D02*
G37*
G36*
X1430700D02*
Y-691050D01*
X1496572D01*
Y-689226D01*
X1509272Y-686700D01*
X1509795Y-687963D01*
X1526786Y-704954D01*
X1548986Y-714149D01*
X1573014D01*
X1595214Y-704954D01*
X1612205Y-687963D01*
X1621400Y-665764D01*
Y-641735D01*
X1612205Y-619536D01*
X1595214Y-602545D01*
X1573014Y-593350D01*
X1548986D01*
X1526786Y-602545D01*
X1509795Y-619536D01*
X1506563Y-627339D01*
X1498961Y-627984D01*
X1493133Y-626575D01*
X1486045Y-609463D01*
X1473559Y-593191D01*
X1457286Y-580704D01*
X1438336Y-572855D01*
X1430700Y-571849D01*
D02*
G37*
G36*
X1496572Y-716450D02*
X1430700D01*
Y-835650D01*
X1438336Y-834644D01*
X1457286Y-826795D01*
X1473559Y-814308D01*
X1486045Y-798035D01*
X1493895Y-779085D01*
X1496572Y-758749D01*
Y-716450D01*
D02*
G37*
G36*
X2360572Y-716450D02*
X2294700D01*
Y-835650D01*
X2302336Y-834644D01*
X2321286Y-826795D01*
X2337559Y-814308D01*
X2350045Y-798035D01*
X2357895Y-779085D01*
X2360572Y-758749D01*
Y-716450D01*
D02*
G37*
G36*
X2269300D02*
X2203428D01*
Y-758749D01*
X2206105Y-779085D01*
X2213954Y-798035D01*
X2226441Y-814308D01*
X2242714Y-826795D01*
X2261664Y-834644D01*
X2269300Y-835650D01*
Y-716450D01*
D02*
G37*
G36*
X1405300Y-716450D02*
X1339428D01*
Y-758749D01*
X1342105Y-779085D01*
X1349955Y-798035D01*
X1362441Y-814308D01*
X1378714Y-826795D01*
X1397664Y-834644D01*
X1405300Y-835650D01*
Y-716450D01*
D02*
G37*
G36*
X7001020Y-1154600D02*
X6978980D01*
X6958619Y-1163034D01*
X6951199Y-1170454D01*
X5266437D01*
X5251571Y-1173411D01*
X5238968Y-1181832D01*
X4542531Y-1878268D01*
X4534111Y-1890871D01*
X4531153Y-1905737D01*
Y-1990499D01*
X4523034Y-1998619D01*
X4514600Y-2018980D01*
Y-2041020D01*
X4523034Y-2061381D01*
X4538619Y-2076966D01*
X4558980Y-2085400D01*
X4581020D01*
X4601381Y-2076966D01*
X4616966Y-2061381D01*
X4623127Y-2046508D01*
X4636873D01*
X4643034Y-2061381D01*
X4658619Y-2076966D01*
X4678980Y-2085400D01*
X4701020D01*
X4721381Y-2076966D01*
X4736966Y-2061381D01*
X4745400Y-2041020D01*
Y-2018980D01*
X4739705Y-2005232D01*
X5326091Y-1418847D01*
X6655477D01*
X6663597Y-1426966D01*
X6683958Y-1435400D01*
X6705998D01*
X6726360Y-1426966D01*
X6741944Y-1411381D01*
X6750378Y-1391020D01*
Y-1368980D01*
X6741944Y-1348619D01*
X6726360Y-1333034D01*
X6705998Y-1324600D01*
X6683958D01*
X6663597Y-1333034D01*
X6655477Y-1341154D01*
X5310000D01*
X5295134Y-1344111D01*
X5282531Y-1352531D01*
X4669152Y-1965911D01*
X4660731Y-1978514D01*
X4659941Y-1982487D01*
X4658619Y-1983034D01*
X4643034Y-1998619D01*
X4636873Y-2013492D01*
X4623127D01*
X4616966Y-1998619D01*
X4608847Y-1990499D01*
Y-1921827D01*
X5282527Y-1248147D01*
X6949799D01*
X6958619Y-1256966D01*
X6978980Y-1265400D01*
X7001020D01*
X7021381Y-1256966D01*
X7036966Y-1241382D01*
X7045400Y-1221020D01*
Y-1198980D01*
X7036966Y-1178619D01*
X7021381Y-1163034D01*
X7001020Y-1154600D01*
D02*
G37*
G36*
X10648519Y-1324600D02*
X10626480D01*
X10606118Y-1333034D01*
X10590534Y-1348619D01*
X10582099Y-1368980D01*
Y-1391020D01*
X10590534Y-1411381D01*
X10591053Y-1411901D01*
X10585792Y-1424601D01*
X10574599D01*
Y-1575400D01*
X10700400D01*
Y-1424601D01*
X10689207D01*
X10683946Y-1411901D01*
X10684465Y-1411381D01*
X10692899Y-1391020D01*
Y-1368980D01*
X10684465Y-1348619D01*
X10668881Y-1333034D01*
X10648519Y-1324600D01*
D02*
G37*
G36*
X2125401Y-1824601D02*
X1999600D01*
Y-1975400D01*
X2125401D01*
Y-1824601D01*
D02*
G37*
G36*
X10700400Y-2024599D02*
X10574599D01*
Y-2175399D01*
X10700400D01*
Y-2024599D01*
D02*
G37*
G36*
X6761020Y-2154600D02*
X6738980D01*
X6718619Y-2163034D01*
X6710499Y-2171153D01*
X6620000D01*
X6605134Y-2174110D01*
X6592532Y-2182531D01*
X6492531Y-2282532D01*
X6484110Y-2295134D01*
X6481153Y-2310000D01*
Y-2460499D01*
X6473034Y-2468619D01*
X6464600Y-2488980D01*
Y-2511020D01*
X6473034Y-2531382D01*
X6488618Y-2546966D01*
X6508980Y-2555400D01*
X6531020D01*
X6551381Y-2546966D01*
X6566966Y-2531382D01*
X6575400Y-2511020D01*
Y-2488980D01*
X6566966Y-2468619D01*
X6558846Y-2460499D01*
Y-2326091D01*
X6636091Y-2248846D01*
X6710499D01*
X6718619Y-2256966D01*
X6738980Y-2265400D01*
X6761020D01*
X6781381Y-2256966D01*
X6796966Y-2241381D01*
X6805400Y-2221020D01*
Y-2198980D01*
X6796966Y-2178618D01*
X6781381Y-2163034D01*
X6761020Y-2154600D01*
D02*
G37*
G36*
X11398519Y-2063171D02*
X11376480D01*
X11356118Y-2071605D01*
X11340534Y-2087189D01*
X11332100Y-2107551D01*
Y-2129591D01*
X11340534Y-2149952D01*
X11348653Y-2158072D01*
Y-2174601D01*
X11324599D01*
Y-2325400D01*
X11450400D01*
Y-2174601D01*
X11426346D01*
Y-2158072D01*
X11434465Y-2149952D01*
X11442899Y-2129591D01*
Y-2107551D01*
X11434465Y-2087189D01*
X11418881Y-2071605D01*
X11398519Y-2063171D01*
D02*
G37*
G36*
X9901020Y-2064600D02*
X9878980D01*
X9858618Y-2073034D01*
X9843034Y-2088619D01*
X9834600Y-2108980D01*
Y-2131020D01*
X9843034Y-2151382D01*
X9849903Y-2158251D01*
Y-2174601D01*
X9824599D01*
Y-2325400D01*
X9950400D01*
Y-2174601D01*
X9927596D01*
Y-2160751D01*
X9936966Y-2151382D01*
X9945400Y-2131020D01*
Y-2108980D01*
X9936966Y-2088619D01*
X9921381Y-2073034D01*
X9901020Y-2064600D01*
D02*
G37*
G36*
X1250401Y-2174601D02*
X1124599D01*
Y-2325400D01*
X1250401D01*
Y-2174601D01*
D02*
G37*
G36*
X7741657Y-2494600D02*
X7719618D01*
X7699256Y-2503034D01*
X7691137Y-2511153D01*
X6809501D01*
X6801381Y-2503034D01*
X6781020Y-2494600D01*
X6758980D01*
X6738618Y-2503034D01*
X6723034Y-2518619D01*
X6714600Y-2538980D01*
Y-2561020D01*
X6723034Y-2581381D01*
X6738618Y-2596966D01*
X6758980Y-2605400D01*
X6781020D01*
X6801381Y-2596966D01*
X6809501Y-2588846D01*
X7691137D01*
X7699256Y-2596966D01*
X7719618Y-2605400D01*
X7741657D01*
X7762019Y-2596966D01*
X7777603Y-2581381D01*
X7786037Y-2561020D01*
Y-2538980D01*
X7777603Y-2518619D01*
X7762019Y-2503034D01*
X7741657Y-2494600D01*
D02*
G37*
G36*
X2125401Y-2424599D02*
X1999600D01*
Y-2575399D01*
X2082963D01*
X2287712Y-2780148D01*
X2300314Y-2788569D01*
X2315181Y-2791526D01*
X2663179D01*
X2671298Y-2799646D01*
X2691660Y-2808080D01*
X2713699D01*
X2734061Y-2799646D01*
X2749646Y-2784061D01*
X2758080Y-2763700D01*
Y-2741660D01*
X2749646Y-2721298D01*
X2734061Y-2705714D01*
X2713699Y-2697280D01*
X2691660D01*
X2671298Y-2705714D01*
X2663179Y-2713833D01*
X2331271D01*
X2127269Y-2509831D01*
X2125401Y-2508582D01*
Y-2424599D01*
D02*
G37*
G36*
X11450400Y-2774599D02*
X11324599D01*
Y-2925399D01*
X11450400D01*
Y-2774599D01*
D02*
G37*
G36*
X9950400D02*
X9824599D01*
Y-2925399D01*
X9950400D01*
Y-2774599D01*
D02*
G37*
G36*
X1250401D02*
X1124599D01*
Y-2925399D01*
X1184962D01*
X1199711Y-2940148D01*
X1212314Y-2948569D01*
X1227180Y-2951526D01*
X2528181D01*
X2536300Y-2959646D01*
X2556662Y-2968080D01*
X2578702D01*
X2599063Y-2959646D01*
X2614648Y-2944061D01*
X2623082Y-2923700D01*
Y-2901660D01*
X2614648Y-2881298D01*
X2599063Y-2865714D01*
X2578702Y-2857280D01*
X2556662D01*
X2536300Y-2865714D01*
X2528181Y-2873833D01*
X1250955D01*
X1250401Y-2871047D01*
Y-2774599D01*
D02*
G37*
G36*
X10700400Y-2924601D02*
X10574599D01*
Y-3075401D01*
X10700400D01*
Y-2924601D01*
D02*
G37*
G36*
X2541020Y-3113900D02*
X2518980D01*
X2498619Y-3122334D01*
X2483034Y-3137919D01*
X2474600Y-3158280D01*
Y-3180320D01*
X2483034Y-3200681D01*
X2491154Y-3208801D01*
Y-3270000D01*
X2494111Y-3284866D01*
X2502531Y-3297469D01*
X2564600Y-3359537D01*
Y-3371020D01*
X2573034Y-3391381D01*
X2588618Y-3406966D01*
X2608980Y-3415400D01*
X2631020D01*
X2651381Y-3406966D01*
X2666966Y-3391381D01*
X2675400Y-3371020D01*
Y-3348980D01*
X2666966Y-3328618D01*
X2651381Y-3313034D01*
X2631020Y-3304600D01*
X2619537D01*
X2568847Y-3253909D01*
Y-3208801D01*
X2576966Y-3200681D01*
X2585400Y-3180320D01*
Y-3158280D01*
X2576966Y-3137919D01*
X2561381Y-3122334D01*
X2541020Y-3113900D01*
D02*
G37*
G36*
X10700400Y-3524600D02*
X10574599D01*
Y-3675399D01*
X10599903D01*
Y-3701749D01*
X10593034Y-3708618D01*
X10584600Y-3728980D01*
Y-3751020D01*
X10593034Y-3771381D01*
X10608618Y-3786966D01*
X10628980Y-3795400D01*
X10651020D01*
X10671381Y-3786966D01*
X10686966Y-3771381D01*
X10695400Y-3751020D01*
Y-3728980D01*
X10686966Y-3708618D01*
X10677596Y-3699249D01*
Y-3675399D01*
X10700400D01*
Y-3524600D01*
D02*
G37*
G36*
X4921020Y-3434600D02*
X4898980D01*
X4878618Y-3443034D01*
X4863034Y-3458618D01*
X4854600Y-3478980D01*
Y-3501020D01*
X4863034Y-3521381D01*
X4871153Y-3529501D01*
Y-3810499D01*
X4863034Y-3818618D01*
X4854600Y-3838980D01*
Y-3861020D01*
X4863034Y-3881381D01*
X4878618Y-3896966D01*
X4898980Y-3905400D01*
X4921020D01*
X4941381Y-3896966D01*
X4956966Y-3881381D01*
X4965400Y-3861020D01*
Y-3838980D01*
X4956966Y-3818618D01*
X4948846Y-3810499D01*
Y-3529501D01*
X4956966Y-3521381D01*
X4965400Y-3501020D01*
Y-3478980D01*
X4956966Y-3458618D01*
X4941381Y-3443034D01*
X4921020Y-3434600D01*
D02*
G37*
G36*
X4511020Y-4169600D02*
X4488980D01*
X4468618Y-4178034D01*
X4460499Y-4186153D01*
X2787501D01*
X2772635Y-4189110D01*
X2760032Y-4197531D01*
X2632963Y-4324601D01*
X2549600D01*
Y-4475400D01*
X2675401D01*
Y-4391417D01*
X2677269Y-4390169D01*
X2803592Y-4263846D01*
X4460499D01*
X4468618Y-4271966D01*
X4488980Y-4280400D01*
X4511020D01*
X4531381Y-4271966D01*
X4546966Y-4256381D01*
X4555400Y-4236020D01*
Y-4213980D01*
X4546966Y-4193618D01*
X4531381Y-4178034D01*
X4511020Y-4169600D01*
D02*
G37*
G36*
X5261020Y-4194600D02*
X5238980D01*
X5218618Y-4203034D01*
X5203034Y-4218618D01*
X5194600Y-4238980D01*
Y-4261020D01*
X5203034Y-4281381D01*
X5218618Y-4296966D01*
X5238980Y-4305400D01*
X5261020D01*
X5281381Y-4296966D01*
X5289501Y-4288846D01*
X5508909D01*
X5607100Y-4387037D01*
Y-4398520D01*
X5615534Y-4418881D01*
X5631119Y-4434466D01*
X5651480Y-4442900D01*
X5673520D01*
X5693881Y-4434466D01*
X5709466Y-4418881D01*
X5717900Y-4398520D01*
Y-4376480D01*
X5709466Y-4356119D01*
X5693881Y-4340534D01*
X5673520Y-4332100D01*
X5662037D01*
X5552468Y-4222531D01*
X5539866Y-4214110D01*
X5525000Y-4211153D01*
X5289501D01*
X5281381Y-4203034D01*
X5261020Y-4194600D01*
D02*
G37*
G36*
X7286020Y-4332100D02*
X7263980D01*
X7243618Y-4340534D01*
X7228034Y-4356119D01*
X7219600Y-4376480D01*
Y-4398520D01*
X7228034Y-4418881D01*
X7243618Y-4434466D01*
X7263980Y-4442900D01*
X7286020D01*
X7306381Y-4434466D01*
X7313251Y-4427596D01*
X8039249D01*
X8048618Y-4436966D01*
X8068980Y-4445400D01*
X8091020D01*
X8111381Y-4436966D01*
X8126966Y-4421382D01*
X8135400Y-4401020D01*
Y-4378980D01*
X8126966Y-4358619D01*
X8111381Y-4343034D01*
X8091020Y-4334600D01*
X8068980D01*
X8048618Y-4343034D01*
X8041749Y-4349903D01*
X7315751D01*
X7306381Y-4340534D01*
X7286020Y-4332100D01*
D02*
G37*
G36*
X9975400Y-4324601D02*
X9849599D01*
Y-4475400D01*
X9975400D01*
Y-4324601D01*
D02*
G37*
G36*
X9750000Y-524102D02*
X9700000D01*
X9690089Y-526074D01*
X9681688Y-531688D01*
X9676074Y-540089D01*
X9674102Y-550000D01*
Y-4550000D01*
X9676074Y-4559910D01*
X9681688Y-4568312D01*
X9690089Y-4573926D01*
X9700000Y-4575897D01*
X9750000D01*
X9759910Y-4573926D01*
X9768312Y-4568312D01*
X9773926Y-4559910D01*
X9775897Y-4550000D01*
Y-550000D01*
X9773926Y-540089D01*
X9768312Y-531688D01*
X9759910Y-526074D01*
X9750000Y-524102D01*
D02*
G37*
G36*
X11519698Y-4474103D02*
X11480301D01*
X11477800Y-4474600D01*
X11475249D01*
X11436609Y-4482286D01*
X11434253Y-4483262D01*
X11431751Y-4483760D01*
X11395354Y-4498836D01*
X11393233Y-4500253D01*
X11390876Y-4501230D01*
X11358120Y-4523117D01*
X11356316Y-4524921D01*
X11354195Y-4526338D01*
X11326337Y-4554195D01*
X11324920Y-4556316D01*
X11323117Y-4558120D01*
X11301229Y-4590877D01*
X11300253Y-4593233D01*
X11298836Y-4595354D01*
X11283759Y-4631752D01*
X11283262Y-4634254D01*
X11282286Y-4636610D01*
X11274600Y-4675249D01*
Y-4677800D01*
X11274102Y-4680302D01*
Y-4719698D01*
X11274600Y-4722200D01*
Y-4724751D01*
X11282286Y-4763390D01*
X11283262Y-4765747D01*
X11283759Y-4768249D01*
X11298836Y-4804646D01*
X11300253Y-4806767D01*
X11301229Y-4809123D01*
X11323117Y-4841880D01*
X11324920Y-4843684D01*
X11326337Y-4845805D01*
X11354195Y-4873663D01*
X11356316Y-4875079D01*
X11358119Y-4876883D01*
X11390876Y-4898771D01*
X11393233Y-4899747D01*
X11395354Y-4901164D01*
X11431751Y-4916240D01*
X11434253Y-4916738D01*
X11436610Y-4917714D01*
X11475249Y-4925400D01*
X11477800D01*
X11480301Y-4925897D01*
X11519698D01*
X11522200Y-4925400D01*
X11524750D01*
X11563390Y-4917714D01*
X11565746Y-4916738D01*
X11568248Y-4916240D01*
X11604646Y-4901164D01*
X11606767Y-4899747D01*
X11609123Y-4898771D01*
X11641880Y-4876883D01*
X11643684Y-4875080D01*
X11645804Y-4873663D01*
X11673662Y-4845805D01*
X11675079Y-4843684D01*
X11676883Y-4841881D01*
X11698770Y-4809123D01*
X11699746Y-4806767D01*
X11701164Y-4804646D01*
X11716240Y-4768249D01*
X11716738Y-4765747D01*
X11717714Y-4763390D01*
X11725400Y-4724751D01*
Y-4722200D01*
X11725897Y-4719698D01*
Y-4680302D01*
X11725400Y-4677800D01*
Y-4675249D01*
X11717714Y-4636610D01*
X11716738Y-4634253D01*
X11716240Y-4631752D01*
X11701164Y-4595354D01*
X11699746Y-4593233D01*
X11698770Y-4590877D01*
X11676883Y-4558120D01*
X11675079Y-4556316D01*
X11673662Y-4554195D01*
X11645804Y-4526338D01*
X11643684Y-4524921D01*
X11641880Y-4523117D01*
X11609123Y-4501230D01*
X11606767Y-4500253D01*
X11604646Y-4498836D01*
X11568248Y-4483760D01*
X11565746Y-4483262D01*
X11563390Y-4482286D01*
X11524751Y-4474600D01*
X11522200D01*
X11519698Y-4474103D01*
D02*
G37*
G36*
X469698D02*
X430301D01*
X427800Y-4474600D01*
X425249D01*
X386609Y-4482286D01*
X384253Y-4483262D01*
X381751Y-4483760D01*
X345354Y-4498836D01*
X343233Y-4500253D01*
X340876Y-4501230D01*
X308120Y-4523117D01*
X306316Y-4524921D01*
X304195Y-4526338D01*
X276337Y-4554195D01*
X274920Y-4556316D01*
X273117Y-4558120D01*
X251229Y-4590877D01*
X250253Y-4593233D01*
X248836Y-4595354D01*
X233760Y-4631752D01*
X233262Y-4634254D01*
X232286Y-4636610D01*
X224600Y-4675249D01*
Y-4677800D01*
X224102Y-4680302D01*
Y-4719698D01*
X224600Y-4722200D01*
Y-4724751D01*
X232286Y-4763390D01*
X233262Y-4765747D01*
X233760Y-4768249D01*
X248836Y-4804646D01*
X250253Y-4806767D01*
X251229Y-4809123D01*
X273117Y-4841880D01*
X274920Y-4843684D01*
X276337Y-4845805D01*
X304195Y-4873663D01*
X306316Y-4875079D01*
X308119Y-4876883D01*
X340876Y-4898771D01*
X343233Y-4899747D01*
X345354Y-4901164D01*
X381751Y-4916240D01*
X384253Y-4916738D01*
X386610Y-4917714D01*
X425249Y-4925400D01*
X427800D01*
X430301Y-4925897D01*
X469698D01*
X472200Y-4925400D01*
X474750D01*
X513390Y-4917714D01*
X515746Y-4916738D01*
X518248Y-4916240D01*
X554646Y-4901164D01*
X556767Y-4899747D01*
X559123Y-4898771D01*
X591880Y-4876883D01*
X593684Y-4875080D01*
X595804Y-4873663D01*
X623662Y-4845805D01*
X625079Y-4843684D01*
X626883Y-4841881D01*
X648770Y-4809123D01*
X649746Y-4806767D01*
X651164Y-4804646D01*
X666240Y-4768249D01*
X666738Y-4765747D01*
X667714Y-4763390D01*
X675400Y-4724751D01*
Y-4722200D01*
X675897Y-4719698D01*
Y-4680302D01*
X675400Y-4677800D01*
Y-4675249D01*
X667714Y-4636610D01*
X666738Y-4634253D01*
X666240Y-4631752D01*
X651164Y-4595354D01*
X649746Y-4593233D01*
X648770Y-4590877D01*
X626883Y-4558120D01*
X625079Y-4556316D01*
X623662Y-4554195D01*
X595804Y-4526338D01*
X593684Y-4524921D01*
X591880Y-4523117D01*
X559123Y-4501230D01*
X556767Y-4500253D01*
X554646Y-4498836D01*
X518248Y-4483760D01*
X515746Y-4483262D01*
X513390Y-4482286D01*
X474751Y-4474600D01*
X472200D01*
X469698Y-4474103D01*
D02*
G37*
%LPD*%
D63*
X6620000Y-2210000D02*
X6750000D01*
X6520000Y-2310000D02*
X6620000Y-2210000D01*
X6520000Y-2500000D02*
Y-2310000D01*
X2530000Y-3270000D02*
Y-3169300D01*
Y-3270000D02*
X2620000Y-3360000D01*
X1187500Y-2849999D02*
X1212301Y-2874800D01*
X1227180Y-2912680D02*
X2567682D01*
X1212301Y-2897801D02*
Y-2874800D01*
Y-2897801D02*
X1227180Y-2912680D01*
X5266437Y-1209300D02*
X6989300D01*
X6990000Y-1210000D01*
X4570000Y-1905737D02*
X5266437Y-1209300D01*
X10638750Y-3738750D02*
Y-3601250D01*
X10637499Y-3599999D02*
X10638750Y-3601250D01*
Y-3738750D02*
X10640000Y-3740000D01*
X9888750Y-2248750D02*
Y-2121250D01*
X9890000Y-2120000D01*
X9887499Y-2250001D02*
X9888750Y-2248750D01*
X10637499Y-1500001D02*
Y-1380000D01*
X11387499Y-2250001D02*
Y-2118571D01*
X5310000Y-1380000D02*
X6694978D01*
X4696620Y-1993380D02*
X5310000Y-1380000D01*
X4690000Y-2030000D02*
X4696620Y-2023380D01*
Y-1993380D01*
X4570000Y-2030000D02*
Y-1905737D01*
X7276250Y-4388750D02*
X8078750D01*
X7275000Y-4387500D02*
X7276250Y-4388750D01*
X8078750D02*
X8080000Y-4390000D01*
X9775000Y-4925000D02*
X9849999Y-4999999D01*
X9912500D01*
X5525000Y-4250000D02*
X5662500Y-4387500D01*
X5250000Y-4250000D02*
X5525000D01*
X2649800Y-4362701D02*
X2787501Y-4225000D01*
X2612500Y-4400001D02*
Y-4387501D01*
X2637301Y-4362701D01*
X2649800D01*
X2787501Y-4225000D02*
X4500000D01*
X2062500Y-2512499D02*
X2087301Y-2537299D01*
X2315181Y-2752680D02*
X2702680D01*
X2062500Y-2512499D02*
Y-2499999D01*
X2087301Y-2537299D02*
X2099800D01*
X2315181Y-2752680D01*
X6770000Y-2550000D02*
X7730637D01*
X4910000Y-3850000D02*
Y-3490000D01*
D68*
X1418000Y-703749D02*
D03*
X2282000D02*
D03*
D69*
X1418000Y-288749D02*
D03*
X2282000D02*
D03*
D70*
X1561000Y-653750D02*
D03*
X2139000D02*
D03*
D71*
X4768006Y-460003D02*
D03*
X3969989D02*
D03*
D72*
X2620000Y-3940000D02*
D03*
X4760000Y-4200000D02*
D03*
X2110000Y-990000D02*
D03*
X1750000Y-1060000D02*
D03*
X7220000Y-2920000D02*
D03*
X1620000Y-2670000D02*
D03*
X6180000Y-2520000D02*
D03*
X5650000Y-90000D02*
D03*
X5270000Y-540000D02*
D03*
X7680000Y-1030000D02*
D03*
X7000000Y-1040000D02*
D03*
X6840000Y-810000D02*
D03*
X2070000Y-2200000D02*
D03*
X1600000Y-1460000D02*
D03*
X11510000Y-700000D02*
D03*
X11760000Y-1200000D02*
D03*
X11510000Y-1700000D02*
D03*
Y-2700000D02*
D03*
X11760000Y-3200000D02*
D03*
X11510000Y-3700000D02*
D03*
X11760000Y-4200000D02*
D03*
X11010000Y-700000D02*
D03*
X11260000Y-1200000D02*
D03*
X11010000Y-1700000D02*
D03*
X11260000Y-2200000D02*
D03*
X11010000Y-2700000D02*
D03*
X11260000Y-3200000D02*
D03*
X11010000Y-3700000D02*
D03*
X11260000Y-4200000D02*
D03*
X11010000Y-4700000D02*
D03*
X10760000Y-1200000D02*
D03*
X10510000Y-1700000D02*
D03*
X10760000Y-2200000D02*
D03*
X10510000Y-2700000D02*
D03*
X10760000Y-3200000D02*
D03*
X10510000Y-3700000D02*
D03*
X10760000Y-4200000D02*
D03*
X10510000Y-4700000D02*
D03*
X10010000Y-700000D02*
D03*
X10260000Y-1200000D02*
D03*
X10010000Y-1700000D02*
D03*
Y-2700000D02*
D03*
X10260000Y-3200000D02*
D03*
X10010000Y-3700000D02*
D03*
X10260000Y-4200000D02*
D03*
X9510000Y-700000D02*
D03*
Y-1700000D02*
D03*
Y-2700000D02*
D03*
Y-3700000D02*
D03*
Y-4700000D02*
D03*
X9010000Y-700000D02*
D03*
Y-1700000D02*
D03*
X9260000Y-2200000D02*
D03*
X9010000Y-2700000D02*
D03*
Y-3700000D02*
D03*
Y-4700000D02*
D03*
X8760000Y-3200000D02*
D03*
Y-4200000D02*
D03*
X8510000Y-4700000D02*
D03*
X8260000Y-2200000D02*
D03*
X8010000Y-2700000D02*
D03*
X8260000Y-3200000D02*
D03*
Y-4200000D02*
D03*
X8010000Y-4700000D02*
D03*
X7510000Y-700000D02*
D03*
X7760000Y-2200000D02*
D03*
X7510000Y-3700000D02*
D03*
X7010000Y-1700000D02*
D03*
X7260000Y-4200000D02*
D03*
X7010000Y-4700000D02*
D03*
X6510000Y-3700000D02*
D03*
X6760000Y-4200000D02*
D03*
X6510000Y-4700000D02*
D03*
X6260000Y-4200000D02*
D03*
X6010000Y-4700000D02*
D03*
X5510000D02*
D03*
X5010000Y-700000D02*
D03*
X5260000Y-3200000D02*
D03*
X4510000Y-700000D02*
D03*
Y-2700000D02*
D03*
X4760000Y-3200000D02*
D03*
X4010000Y-700000D02*
D03*
X3510000D02*
D03*
X3760000Y-1200000D02*
D03*
X3510000Y-2700000D02*
D03*
X3010000Y-1700000D02*
D03*
X3260000Y-2200000D02*
D03*
X2510000Y-700000D02*
D03*
X2760000Y-2200000D02*
D03*
X2010000Y-2700000D02*
D03*
X2260000Y-4200000D02*
D03*
X1760000Y-2200000D02*
D03*
X1510000Y-2700000D02*
D03*
X1760000Y-4200000D02*
D03*
X1260000D02*
D03*
X510000Y-700000D02*
D03*
X760000Y-1200000D02*
D03*
X510000Y-2700000D02*
D03*
X4680000Y-4380000D02*
D03*
X2420000Y-3310000D02*
D03*
X2830000Y-3330000D02*
D03*
X4830000Y-4240000D02*
D03*
X6750000Y-2210000D02*
D03*
X6900000Y-2000000D02*
D03*
X270000Y-1220000D02*
D03*
X2770000Y-1510000D02*
D03*
X6170000Y-1980000D02*
D03*
X5570000Y-1720862D02*
D03*
X150000Y-1000000D02*
D03*
X1550000Y-5010000D02*
D03*
X1150000D02*
D03*
X2050000D02*
D03*
X1420343Y-3530000D02*
D03*
X1720000Y-3020000D02*
D03*
X2880000Y-3080000D02*
D03*
X3340000Y-4100000D02*
D03*
X3300000Y-4850000D02*
D03*
X2620000Y-3360000D02*
D03*
X2530000Y-3169300D02*
D03*
X2270000Y-1770000D02*
D03*
X2850000Y-1880000D02*
D03*
X2200000Y-100000D02*
D03*
X1700000D02*
D03*
X1520000Y-4010000D02*
D03*
X5250000Y-4600000D02*
D03*
X150000Y-5000000D02*
D03*
Y-500000D02*
D03*
X7550000Y-5000000D02*
D03*
X8050000D02*
D03*
X9050000D02*
D03*
X9550000D02*
D03*
X10050000D02*
D03*
X10550000D02*
D03*
X11050000D02*
D03*
X11550000D02*
D03*
X11800000D02*
D03*
Y-4500000D02*
D03*
Y-4000000D02*
D03*
Y-3500000D02*
D03*
Y-3000000D02*
D03*
Y-1500000D02*
D03*
Y-1000000D02*
D03*
Y-500000D02*
D03*
X11550000Y-100000D02*
D03*
X11050000D02*
D03*
X8550000D02*
D03*
X7050000D02*
D03*
X6050000D02*
D03*
X4550000D02*
D03*
X4050000D02*
D03*
X3550000D02*
D03*
X550000D02*
D03*
X7410000Y-2040000D02*
D03*
X6060000Y-4090000D02*
D03*
X5450000Y-2970012D02*
D03*
X6990000Y-1210000D02*
D03*
X6694978Y-1380000D02*
D03*
X10640000Y-3740000D02*
D03*
X9890000Y-2120000D02*
D03*
X10637499Y-1380000D02*
D03*
X11387499Y-2118571D02*
D03*
X4950000Y-1650000D02*
D03*
X5750000Y-1270000D02*
D03*
X6140000Y-1040000D02*
D03*
X4570000Y-2030000D02*
D03*
X4690000D02*
D03*
X3900000Y-2550000D02*
D03*
X8080000Y-4390000D02*
D03*
X9775000Y-4925000D02*
D03*
X7275000Y-4387500D02*
D03*
X5662500D02*
D03*
X5250000Y-4250000D02*
D03*
X4500000Y-4225000D02*
D03*
X2567682Y-2912680D02*
D03*
X2702680Y-2752680D02*
D03*
X6770000Y-2550000D02*
D03*
X7730637D02*
D03*
X6520000Y-2500000D02*
D03*
X4910000Y-3490000D02*
D03*
Y-3850000D02*
D03*
X4690000Y-1310000D02*
D03*
X2620000Y-3660000D02*
D03*
X2910000Y-3990000D02*
D03*
X6140000Y-1270000D02*
D03*
X5750000Y-1050000D02*
D03*
X4150000Y-1350000D02*
D03*
D73*
X11762500Y-2849999D02*
D03*
Y-2250001D02*
D03*
X11387499Y-2849999D02*
D03*
Y-2250001D02*
D03*
X10637499Y-1500001D02*
D03*
Y-2099999D02*
D03*
X11012500Y-1500001D02*
D03*
Y-2099999D02*
D03*
X812500Y-2250001D02*
D03*
Y-2849999D02*
D03*
X1187500Y-2250001D02*
D03*
Y-2849999D02*
D03*
X1687500Y-1900001D02*
D03*
Y-2499999D02*
D03*
X2062500Y-1900001D02*
D03*
Y-2499999D02*
D03*
X10637499Y-3000001D02*
D03*
Y-3599999D02*
D03*
X11012500Y-3000001D02*
D03*
Y-3599999D02*
D03*
X9887499Y-2250001D02*
D03*
Y-2849999D02*
D03*
X10262500Y-2250001D02*
D03*
Y-2849999D02*
D03*
X9912500Y-4400001D02*
D03*
Y-4999999D02*
D03*
X10287500Y-4400001D02*
D03*
Y-4999999D02*
D03*
X2612500D02*
D03*
Y-4400001D02*
D03*
X2237500Y-4999999D02*
D03*
Y-4400001D02*
D03*
%TF.MD5,faa7340bb91eae8a7178386e51f04af0*%
M02*
