%TF.GenerationSoftware,Altium Limited,Altium Designer,22.1.2 (22)*%
G04 Layer_Color=32896*
%FSLAX45Y45*%
%MOMM*%
%TF.SameCoordinates,E45B295A-33DC-4613-BF2C-B4F7B6EB383A*%
%TF.FilePolarity,Positive*%
%TF.FileFunction,Legend,Bot*%
%TF.Part,Single*%
G01*
G75*
%TA.AperFunction,NonConductor*%
%ADD74C,0.25400*%
G36*
X989599Y-4306125D02*
Y-4302860D01*
X990415D01*
Y-4302044D01*
X993681D01*
Y-4304493D01*
X992048D01*
Y-4305309D01*
X991231D01*
Y-4306942D01*
X989599D01*
Y-4306125D01*
D02*
G37*
G36*
X998578Y-4294697D02*
X997762D01*
Y-4293881D01*
X999395D01*
Y-4294697D01*
X998578D01*
D02*
G37*
G36*
X1221433Y-4297146D02*
X1220617D01*
Y-4297962D01*
X1218984D01*
Y-4296329D01*
X1219800D01*
Y-4295513D01*
X1221433D01*
Y-4296329D01*
Y-4297146D01*
D02*
G37*
G36*
X1300616Y-4293881D02*
Y-4294697D01*
X1298983D01*
Y-4293064D01*
X1301432D01*
Y-4293881D01*
X1300616D01*
D02*
G37*
G36*
X1436941Y-4301227D02*
X1434492D01*
Y-4298779D01*
X1437757D01*
Y-4300411D01*
X1436941D01*
Y-4301227D01*
D02*
G37*
D74*
X11702508Y-2550000D02*
G03*
X11702508Y-2550000I-127508J0D01*
G01*
X10952508Y-1800000D02*
G03*
X10952508Y-1800000I-127508J0D01*
G01*
X1127508Y-2550000D02*
G03*
X1127508Y-2550000I-127508J0D01*
G01*
X2002508Y-2200000D02*
G03*
X2002508Y-2200000I-127508J0D01*
G01*
X10952508Y-3300000D02*
G03*
X10952508Y-3300000I-127508J0D01*
G01*
X10202508Y-2550000D02*
G03*
X10202508Y-2550000I-127508J0D01*
G01*
X10227508Y-4700000D02*
G03*
X10227508Y-4700000I-127508J0D01*
G01*
X2552508D02*
G03*
X2552508Y-4700000I-127508J0D01*
G01*
X11458160Y-2805016D02*
X11691840D01*
X11485084Y-2730086D02*
X11664916D01*
X11740509Y-2767015D02*
X11830016Y-2677508D01*
X11319984D02*
X11409491Y-2767015D01*
X11394914Y-2639916D02*
X11485084Y-2730086D01*
X11664916D02*
X11764992Y-2630010D01*
X11319984Y-2677508D02*
Y-2422492D01*
X11830016Y-2677508D02*
Y-2422492D01*
X11764992Y-2630010D02*
Y-2460084D01*
X11394914Y-2639916D02*
Y-2449924D01*
X11674822Y-2369914D02*
X11764992Y-2460084D01*
X11394914Y-2449924D02*
X11474924Y-2369914D01*
X11319984Y-2422492D02*
X11409491Y-2332985D01*
X11740509D02*
X11830016Y-2422492D01*
X11474924Y-2369914D02*
X11674822D01*
X11458160Y-2294984D02*
X11691840D01*
X10708160Y-1544984D02*
X10941840D01*
X10724924Y-1619914D02*
X10924822D01*
X10990509Y-1582985D02*
X11080016Y-1672492D01*
X10569984D02*
X10659491Y-1582985D01*
X10644914Y-1699924D02*
X10724924Y-1619914D01*
X10924822D02*
X11014992Y-1710084D01*
X10644914Y-1889916D02*
Y-1699924D01*
X11014992Y-1880010D02*
Y-1710084D01*
X11080016Y-1927508D02*
Y-1672492D01*
X10569984Y-1927508D02*
Y-1672492D01*
X10914916Y-1980086D02*
X11014992Y-1880010D01*
X10644914Y-1889916D02*
X10735084Y-1980086D01*
X10569984Y-1927508D02*
X10659491Y-2017015D01*
X10990509D02*
X11080016Y-1927508D01*
X10735084Y-1980086D02*
X10914916D01*
X10708160Y-2055016D02*
X10941840D01*
X883160Y-2294984D02*
X1116840D01*
X910084Y-2369914D02*
X1089916D01*
X744984Y-2422492D02*
X834491Y-2332985D01*
X1165509D02*
X1255016Y-2422492D01*
X1089916Y-2369914D02*
X1180086Y-2460084D01*
X810008Y-2469990D02*
X910084Y-2369914D01*
X1255016Y-2677508D02*
Y-2422492D01*
X744984Y-2677508D02*
Y-2422492D01*
X810008Y-2639916D02*
Y-2469990D01*
X1180086Y-2650076D02*
Y-2460084D01*
X810008Y-2639916D02*
X900178Y-2730086D01*
X1100076D02*
X1180086Y-2650076D01*
X1165509Y-2767015D02*
X1255016Y-2677508D01*
X744984D02*
X834491Y-2767015D01*
X900178Y-2730086D02*
X1100076D01*
X883160Y-2805016D02*
X1116840D01*
X1758160Y-1944984D02*
X1991840D01*
X1785084Y-2019914D02*
X1964916D01*
X1619984Y-2072492D02*
X1709491Y-1982985D01*
X2040509D02*
X2130016Y-2072492D01*
X1964916Y-2019914D02*
X2055086Y-2110084D01*
X1685008Y-2119990D02*
X1785084Y-2019914D01*
X2130016Y-2327508D02*
Y-2072492D01*
X1619984Y-2327508D02*
Y-2072492D01*
X1685008Y-2289916D02*
Y-2119990D01*
X2055086Y-2300076D02*
Y-2110084D01*
X1685008Y-2289916D02*
X1775178Y-2380086D01*
X1975076D02*
X2055086Y-2300076D01*
X2040509Y-2417015D02*
X2130016Y-2327508D01*
X1619984D02*
X1709491Y-2417015D01*
X1775178Y-2380086D02*
X1975076D01*
X1758160Y-2455016D02*
X1991840D01*
X10708160Y-3044984D02*
X10941840D01*
X10724924Y-3119914D02*
X10924822D01*
X10990509Y-3082985D02*
X11080016Y-3172492D01*
X10569984D02*
X10659491Y-3082985D01*
X10644914Y-3199924D02*
X10724924Y-3119914D01*
X10924822D02*
X11014992Y-3210084D01*
X10644914Y-3389916D02*
Y-3199924D01*
X11014992Y-3380010D02*
Y-3210084D01*
X11080016Y-3427508D02*
Y-3172492D01*
X10569984Y-3427508D02*
Y-3172492D01*
X10914916Y-3480086D02*
X11014992Y-3380010D01*
X10644914Y-3389916D02*
X10735084Y-3480086D01*
X10569984Y-3427508D02*
X10659491Y-3517015D01*
X10990509D02*
X11080016Y-3427508D01*
X10735084Y-3480086D02*
X10914916D01*
X10708160Y-3555016D02*
X10941840D01*
X9958160Y-2294984D02*
X10191840D01*
X9974924Y-2369914D02*
X10174822D01*
X10240509Y-2332985D02*
X10330016Y-2422492D01*
X9819984D02*
X9909491Y-2332985D01*
X9894914Y-2449924D02*
X9974924Y-2369914D01*
X10174822D02*
X10264992Y-2460084D01*
X9894914Y-2639916D02*
Y-2449924D01*
X10264992Y-2630010D02*
Y-2460084D01*
X10330016Y-2677508D02*
Y-2422492D01*
X9819984Y-2677508D02*
Y-2422492D01*
X10164916Y-2730086D02*
X10264992Y-2630010D01*
X9894914Y-2639916D02*
X9985084Y-2730086D01*
X9819984Y-2677508D02*
X9909491Y-2767015D01*
X10240509D02*
X10330016Y-2677508D01*
X9985084Y-2730086D02*
X10164916D01*
X9958160Y-2805016D02*
X10191840D01*
X9983160Y-4444984D02*
X10216840D01*
X9999924Y-4519914D02*
X10199822D01*
X10265509Y-4482985D02*
X10355016Y-4572492D01*
X9844984D02*
X9934491Y-4482985D01*
X9919914Y-4599924D02*
X9999924Y-4519914D01*
X10199822D02*
X10289992Y-4610084D01*
X9919914Y-4789916D02*
Y-4599924D01*
X10289992Y-4780010D02*
Y-4610084D01*
X10355016Y-4827508D02*
Y-4572492D01*
X9844984Y-4827508D02*
Y-4572492D01*
X10189916Y-4880086D02*
X10289992Y-4780010D01*
X9919914Y-4789916D02*
X10010084Y-4880086D01*
X9844984Y-4827508D02*
X9934491Y-4917015D01*
X10265509D02*
X10355016Y-4827508D01*
X10010084Y-4880086D02*
X10189916D01*
X9983160Y-4955016D02*
X10216840D01*
X2308160D02*
X2541840D01*
X2325178Y-4880086D02*
X2525076D01*
X2169984Y-4827508D02*
X2259491Y-4917015D01*
X2590509D02*
X2680016Y-4827508D01*
X2525076Y-4880086D02*
X2605086Y-4800076D01*
X2235008Y-4789916D02*
X2325178Y-4880086D01*
X2605086Y-4800076D02*
Y-4610084D01*
X2235008Y-4789916D02*
Y-4619990D01*
X2169984Y-4827508D02*
Y-4572492D01*
X2680016Y-4827508D02*
Y-4572492D01*
X2235008Y-4619990D02*
X2335084Y-4519914D01*
X2514916D02*
X2605086Y-4610084D01*
X2590509Y-4482985D02*
X2680016Y-4572492D01*
X2169984D02*
X2259491Y-4482985D01*
X2335084Y-4519914D02*
X2514916D01*
X2308160Y-4444984D02*
X2541840D01*
X3045000Y-4710000D02*
X8805000D01*
X3045000Y-390000D02*
X8805000D01*
Y-4710000D02*
Y-390000D01*
X3045000Y-4710000D02*
Y-390000D01*
X2760000Y-5050000D02*
X9680000D01*
X2760000Y-50000D02*
X9680000D01*
Y-5050000D02*
Y-50000D01*
X2760000Y-5050000D02*
Y-50000D01*
X11741222Y-1973825D02*
Y-2126175D01*
X11639654D01*
X11512696D02*
X11563479D01*
X11588871Y-2100783D01*
Y-2050000D01*
X11563479Y-2024608D01*
X11512696D01*
X11487304Y-2050000D01*
Y-2075392D01*
X11588871D01*
X11411128Y-2126175D02*
Y-1999216D01*
Y-2050000D01*
X11436520D01*
X11385737D01*
X11411128D01*
Y-1999216D01*
X11385737Y-1973825D01*
X11284169Y-1999216D02*
Y-2024608D01*
X11309561D01*
X11258778D01*
X11284169D01*
Y-2100783D01*
X11258778Y-2126175D01*
X11076959Y-1198433D02*
Y-1325392D01*
X11051567Y-1350783D01*
X11000783D01*
X10975392Y-1325392D01*
Y-1198433D01*
X10924608Y-1401567D02*
Y-1249216D01*
X10848433D01*
X10823041Y-1274608D01*
Y-1325392D01*
X10848433Y-1350783D01*
X10924608D01*
X656144Y-2367560D02*
Y-2265993D01*
X605361Y-2215209D01*
X554577Y-2265993D01*
Y-2367560D01*
Y-2291385D01*
X656144D01*
X1565830Y-1848805D02*
Y-2001155D01*
X1489655D01*
X1464263Y-1975763D01*
Y-1950372D01*
X1489655Y-1924980D01*
X1565830D01*
X1489655D01*
X1464263Y-1899588D01*
Y-1874196D01*
X1489655Y-1848805D01*
X1565830D01*
X11079310Y-2723825D02*
Y-2876175D01*
X11003134D01*
X10977742Y-2850783D01*
Y-2749216D01*
X11003134Y-2723825D01*
X11079310D01*
X10901567Y-2876175D02*
X10850783D01*
X10825392Y-2850783D01*
Y-2800000D01*
X10850783Y-2774608D01*
X10901567D01*
X10926959Y-2800000D01*
Y-2850783D01*
X10901567Y-2876175D01*
X10774608Y-2774608D02*
Y-2850783D01*
X10749216Y-2876175D01*
X10723825Y-2850783D01*
X10698433Y-2876175D01*
X10673041Y-2850783D01*
Y-2774608D01*
X10622257Y-2876175D02*
Y-2774608D01*
X10546082D01*
X10520690Y-2800000D01*
Y-2876175D01*
X10417397Y-2100783D02*
Y-1948433D01*
X10341222D01*
X10315830Y-1973825D01*
Y-2024608D01*
X10341222Y-2050000D01*
X10417397D01*
X10366614D02*
X10315830Y-2100783D01*
X10265046D02*
X10214263D01*
X10239654D01*
Y-1999216D01*
X10265046D01*
X10087304Y-2151567D02*
X10061912D01*
X10036520Y-2126175D01*
Y-1999216D01*
X10112696D01*
X10138087Y-2024608D01*
Y-2075392D01*
X10112696Y-2100783D01*
X10036520D01*
X9985737Y-1948433D02*
Y-2100783D01*
Y-2024608D01*
X9960345Y-1999216D01*
X9909561D01*
X9884169Y-2024608D01*
Y-2100783D01*
X9807994Y-1973825D02*
Y-1999216D01*
X9833386D01*
X9782602D01*
X9807994D01*
Y-2075392D01*
X9782602Y-2100783D01*
X10573033Y-4149216D02*
X10598425Y-4123825D01*
X10649208D01*
X10674600Y-4149216D01*
Y-4174608D01*
X10649208Y-4200000D01*
X10598425D01*
X10573033Y-4225392D01*
Y-4250783D01*
X10598425Y-4276175D01*
X10649208D01*
X10674600Y-4250783D01*
X10446074Y-4276175D02*
X10496857D01*
X10522249Y-4250783D01*
Y-4200000D01*
X10496857Y-4174608D01*
X10446074D01*
X10420682Y-4200000D01*
Y-4225392D01*
X10522249D01*
X10369898Y-4276175D02*
X10319115D01*
X10344507D01*
Y-4123825D01*
X10369898D01*
X10166764Y-4276175D02*
X10217548D01*
X10242940Y-4250783D01*
Y-4200000D01*
X10217548Y-4174608D01*
X10166764D01*
X10141372Y-4200000D01*
Y-4225392D01*
X10242940D01*
X9989022Y-4174608D02*
X10065197D01*
X10090589Y-4200000D01*
Y-4250783D01*
X10065197Y-4276175D01*
X9989022D01*
X9912846Y-4149216D02*
Y-4174608D01*
X9938238D01*
X9887455D01*
X9912846D01*
Y-4250783D01*
X9887455Y-4276175D01*
X2564633Y-4137701D02*
X2590025Y-4112309D01*
X2640808D01*
X2666200Y-4137701D01*
Y-4163093D01*
X2640808Y-4188485D01*
X2590025D01*
X2564633Y-4213877D01*
Y-4239268D01*
X2590025Y-4264660D01*
X2640808D01*
X2666200Y-4239268D01*
X2488457Y-4137701D02*
Y-4163093D01*
X2513849D01*
X2463066D01*
X2488457D01*
Y-4239268D01*
X2463066Y-4264660D01*
X2361498Y-4163093D02*
X2310715D01*
X2285323Y-4188485D01*
Y-4264660D01*
X2361498D01*
X2386890Y-4239268D01*
X2361498Y-4213877D01*
X2285323D01*
X2234540Y-4163093D02*
Y-4264660D01*
Y-4213877D01*
X2209148Y-4188485D01*
X2183756Y-4163093D01*
X2158364D01*
X2056797Y-4137701D02*
Y-4163093D01*
X2082189D01*
X2031405D01*
X2056797D01*
Y-4239268D01*
X2031405Y-4264660D01*
X454600Y-1015400D02*
X285322D01*
X200682Y-1100039D01*
X285322Y-1184679D01*
X454600D01*
X327641D01*
Y-1015400D01*
X454600Y-1269318D02*
X285322D01*
Y-1396277D01*
X327641Y-1438597D01*
X454600D01*
Y-1650195D02*
Y-1565556D01*
X412280Y-1523236D01*
X327641D01*
X285322Y-1565556D01*
Y-1650195D01*
X327641Y-1692515D01*
X369961D01*
Y-1523236D01*
X454600Y-1777154D02*
X285322D01*
Y-1819474D01*
X327641Y-1861793D01*
X454600D01*
X327641D01*
X285322Y-1904113D01*
X327641Y-1946432D01*
X454600D01*
Y-2073392D02*
Y-2158031D01*
X412280Y-2200350D01*
X327641D01*
X285322Y-2158031D01*
Y-2073392D01*
X327641Y-2031072D01*
X412280D01*
X454600Y-2073392D01*
Y-2284990D02*
Y-2369629D01*
Y-2327310D01*
X285322D01*
Y-2284990D01*
Y-2538908D02*
Y-2623547D01*
X327641Y-2665867D01*
X454600D01*
Y-2538908D01*
X412280Y-2496588D01*
X369961Y-2538908D01*
Y-2665867D01*
X327641Y-2750506D02*
Y-2919785D01*
X200682Y-3173703D02*
Y-3004424D01*
X454600D01*
Y-3173703D01*
X327641Y-3004424D02*
Y-3089063D01*
X243002Y-3427621D02*
X200682Y-3385301D01*
Y-3300662D01*
X243002Y-3258342D01*
X285322D01*
X327641Y-3300662D01*
Y-3385301D01*
X369961Y-3427621D01*
X412280D01*
X454600Y-3385301D01*
Y-3300662D01*
X412280Y-3258342D01*
X454600Y-3512260D02*
X200682D01*
Y-3639219D01*
X243002Y-3681538D01*
X327641D01*
X369961Y-3639219D01*
Y-3512260D01*
X243002Y-3766178D02*
X200682Y-3808498D01*
Y-3893137D01*
X243002Y-3935456D01*
X285322D01*
X327641Y-3893137D01*
Y-3850817D01*
Y-3893137D01*
X369961Y-3935456D01*
X412280D01*
X454600Y-3893137D01*
Y-3808498D01*
X412280Y-3766178D01*
X454600Y-4189374D02*
Y-4020096D01*
X285322Y-4189374D01*
X243002D01*
X200682Y-4147055D01*
Y-4062416D01*
X243002Y-4020096D01*
X6503033Y-4837641D02*
X6528425Y-4812249D01*
X6579208D01*
X6604600Y-4837641D01*
Y-4863033D01*
X6579208Y-4888425D01*
X6528425D01*
X6503033Y-4913816D01*
Y-4939208D01*
X6528425Y-4964600D01*
X6579208D01*
X6604600Y-4939208D01*
X6350682Y-4863033D02*
X6426857D01*
X6452249Y-4888425D01*
Y-4939208D01*
X6426857Y-4964600D01*
X6350682D01*
X6299898Y-4863033D02*
Y-4964600D01*
Y-4913816D01*
X6274507Y-4888425D01*
X6249115Y-4863033D01*
X6223723D01*
X6071372Y-4964600D02*
X6122156D01*
X6147548Y-4939208D01*
Y-4888425D01*
X6122156Y-4863033D01*
X6071372D01*
X6045981Y-4888425D01*
Y-4913816D01*
X6147548D01*
X5919022Y-4964600D02*
X5969805D01*
X5995197Y-4939208D01*
Y-4888425D01*
X5969805Y-4863033D01*
X5919022D01*
X5893630Y-4888425D01*
Y-4913816D01*
X5995197D01*
X5842846Y-4964600D02*
Y-4863033D01*
X5766671D01*
X5741279Y-4888425D01*
Y-4964600D01*
%TF.MD5,257579db6433dc6102a26e6aa62d9ac3*%
M02*
